  0
SECTION
  2
HEADER
  9
$ACADVER
  1
AC1027
  9
$ACADMAINTVER
 70
     8
  9
$DWGCODEPAGE
  3
ANSI_1252
  9
$REQUIREDVERSIONS
160
                 0
  9
$COMMENTS
  1
File was created by Cadenas
  9
$CUSTOMPROPERTYTAG
  1
NN
  9
$CUSTOMPROPERTY
  1
NEFS8-4040, NEFSB8-4040, EFS8-4040, EFSB8-4040, HFS8-4040, HFSB8-4040, CAF8-4040, HFSY8-4040, HFSL8-4040, HFSLB8-4040, GFS8-4040
  9
$CUSTOMPROPERTYTAG
  1
NT
  9
$CUSTOMPROPERTY
  1
HFS8 Series Aluminum Extrusions 40 Square -1 Slot-
  9
$CUSTOMPROPERTYTAG
  1
NB
  9
$CUSTOMPROPERTY
  1
HFS8-4040-3000
  9
$CUSTOMPROPERTYTAG
  1
NBSYN
  9
$CUSTOMPROPERTY
  1
$PN.
  9
$CUSTOMPROPERTYTAG
  1
LINA
  9
$CUSTOMPROPERTY
  1
HFS8-4040-3000
  9
$CUSTOMPROPERTYTAG
  1
PN
  9
$CUSTOMPROPERTY
  1
HFS8-4040-3000
  9
$CUSTOMPROPERTYTAG
  1
TPS
  9
$CUSTOMPROPERTY
  1
HFS8-4040
  9
$CUSTOMPROPERTYTAG
  1
MAT
  9
$CUSTOMPROPERTY
  1
A6N01SS-T5 Aluminum Alloy
  9
$CUSTOMPROPERTYTAG
  1
ST
  9
$CUSTOMPROPERTY
  1
Clear Anodize
  9
$CUSTOMPROPERTYTAG
  1
FRMW
  9
$CUSTOMPROPERTY
  1
40
  9
$CUSTOMPROPERTYTAG
  1
FRMH
  9
$CUSTOMPROPERTY
  1
40
  9
$CUSTOMPROPERTYTAG
  1
FRD
  9
$CUSTOMPROPERTY
  1
10.5
  9
$CUSTOMPROPERTYTAG
  1
L
  9
$CUSTOMPROPERTY
  1
3000.0
  9
$CUSTOMPROPERTYTAG
  1
MASS
  9
$CUSTOMPROPERTY
  1
1.73
  9
$CUSTOMPROPERTYTAG
  1
SA
  9
$CUSTOMPROPERTY
  1
640
  9
$CUSTOMPROPERTYTAG
  1
LX
  9
$CUSTOMPROPERTY
  1
10.4x10^ 4
  9
$CUSTOMPROPERTYTAG
  1
LY
  9
$CUSTOMPROPERTY
  1
10.4x10^ 4
  9
$CUSTOMPROPERTYTAG
  1
ALT1
  9
$CUSTOMPROPERTY
  1
w/o End Tapping
  9
$CUSTOMPROPERTYTAG
  1
M1
  9
$CUSTOMPROPERTY
  1
0
  9
$CUSTOMPROPERTYTAG
  1
IDM1
  9
$CUSTOMPROPERTY
  1
10.106
  9
$CUSTOMPROPERTYTAG
  1
DPL1
  9
$CUSTOMPROPERTY
  1
0
  9
$CUSTOMPROPERTYTAG
  1
DPR1
  9
$CUSTOMPROPERTY
  1
0
  9
$CUSTOMPROPERTYTAG
  1
ALT1PN
  9
$CUSTOMPROPERTY
  1

  9
$CUSTOMPROPERTYTAG
  1
ALT2
  9
$CUSTOMPROPERTY
  1
w/o End Tapping (Heli-Coil Insert)
  9
$CUSTOMPROPERTYTAG
  1
ALT2ALG
  9
$CUSTOMPROPERTY
  1
 '','w/o End Tapping (Heli-Coil Insert)','LHP','with LHP (Tapping on the Left (Heli-Coil Insert))','RHP','with RHP (Tapping on the Right (Heli-Coil Insert))','HPW','with HPW (Tapping on Both Ends (Heli-Coil Insert))' 
  9
$CUSTOMPROPERTYTAG
  1
M2
  9
$CUSTOMPROPERTY
  1
0
  9
$CUSTOMPROPERTYTAG
  1
DP2
  9
$CUSTOMPROPERTY
  1
0
  9
$CUSTOMPROPERTYTAG
  1
ALT2PN
  9
$CUSTOMPROPERTY
  1

  9
$CUSTOMPROPERTYTAG
  1
ALT4
  9
$CUSTOMPROPERTY
  1
Not applicable
  9
$CUSTOMPROPERTYTAG
  1
ALT4ALG
  9
$CUSTOMPROPERTY
  1
 '', 'Not applicable' 
  9
$CUSTOMPROPERTYTAG
  1
ALT4PN
  9
$CUSTOMPROPERTY
  1

  9
$CUSTOMPROPERTYTAG
  1
ALT5
  9
$CUSTOMPROPERTY
  1
w/o 45 Degree Cut
  9
$CUSTOMPROPERTYTAG
  1
ALT5ALG
  9
$CUSTOMPROPERTY
  1
 '','w/o 45 Degree Cut','1','with 45 Degree Cut' 
  9
$CUSTOMPROPERTYTAG
  1
CP5
  9
$CUSTOMPROPERTY
  1
N/A
  9
$CUSTOMPROPERTYTAG
  1
CP5ALG
  9
$CUSTOMPROPERTY
  1
 '','N/A' 
  9
$CUSTOMPROPERTYTAG
  1
DL5
  9
$CUSTOMPROPERTY
  1
N/A
  9
$CUSTOMPROPERTYTAG
  1
DL5ALG
  9
$CUSTOMPROPERTY
  1
 '','N/A' 
  9
$CUSTOMPROPERTYTAG
  1
DR5
  9
$CUSTOMPROPERTY
  1
N/A
  9
$CUSTOMPROPERTYTAG
  1
DR5ALG
  9
$CUSTOMPROPERTY
  1
 '','N/A' 
  9
$CUSTOMPROPERTYTAG
  1
FRMLALT5
  9
$CUSTOMPROPERTY
  1
0.000
  9
$CUSTOMPROPERTYTAG
  1
FRMRALT5
  9
$CUSTOMPROPERTY
  1
0.000
  9
$CUSTOMPROPERTYTAG
  1
ALT5PN
  9
$CUSTOMPROPERTY
  1

  9
$CUSTOMPROPERTYTAG
  1
ALT6
  9
$CUSTOMPROPERTY
  1
w/o Fastening Location Wrench Access Hole Alterations
  9
$CUSTOMPROPERTYTAG
  1
ALT6ALG
  9
$CUSTOMPROPERTY
  1
 '','w/o Fastening Location Wrench Access Hole Alterations','1','with Fastening Location Wrench Access Hole Alterations' 
  9
$CUSTOMPROPERTYTAG
  1
ALT9
  9
$CUSTOMPROPERTY
  1
w/o Location Specified Wrench Access Hole Alteratons (Horizontal)
  9
$CUSTOMPROPERTYTAG
  1
ALT9ALG
  9
$CUSTOMPROPERTY
  1
 '','w/o Location Specified Wrench Access Hole Alteratons (Horizontal)','1','with Location Specified Wrench Access Hole Alteratons (Horizontal)' 
  9
$CUSTOMPROPERTYTAG
  1
ALT10
  9
$CUSTOMPROPERTY
  1
w/o Location Specified Wrench Access Hole Alteratons (Vertical)
  9
$CUSTOMPROPERTYTAG
  1
ALT10ALG
  9
$CUSTOMPROPERTY
  1
 '','w/o Location Specified Wrench Access Hole Alteratons (Vertical)','1','with Location Specified Wrench Access Hole Alteratons (Vertical)' 
  9
$CUSTOMPROPERTYTAG
  1
ALT11
  9
$CUSTOMPROPERTY
  1
w/o Location Specified Wrench Access Hole Alteratons (Crisscross)
  9
$CUSTOMPROPERTYTAG
  1
ALT11ALG
  9
$CUSTOMPROPERTY
  1
 '','w/o Location Specified Wrench Access Hole Alteratons (Crisscross)','1','with Location Specified Wrench Access Hole Alteratons (Crisscross)' 
  9
$CUSTOMPROPERTYTAG
  1
HP6
  9
$CUSTOMPROPERTY
  1
N/A
  9
$CUSTOMPROPERTYTAG
  1
HP6ALG
  9
$CUSTOMPROPERTY
  1
 '','N/A' 
  9
$CUSTOMPROPERTYTAG
  1
NHL6
  9
$CUSTOMPROPERTY
  1
N/A
  9
$CUSTOMPROPERTYTAG
  1
NHL6ALG
  9
$CUSTOMPROPERTY
  1
 '','N/A' 
  9
$CUSTOMPROPERTYTAG
  1
DL6
  9
$CUSTOMPROPERTY
  1
N/A
  9
$CUSTOMPROPERTYTAG
  1
DL6ALG
  9
$CUSTOMPROPERTY
  1
 '','N/A' 
  9
$CUSTOMPROPERTYTAG
  1
NHR6
  9
$CUSTOMPROPERTY
  1
N/A
  9
$CUSTOMPROPERTYTAG
  1
NHR6ALG
  9
$CUSTOMPROPERTY
  1
 '','N/A' 
  9
$CUSTOMPROPERTYTAG
  1
DR6
  9
$CUSTOMPROPERTY
  1
N/A
  9
$CUSTOMPROPERTYTAG
  1
DR6ALG
  9
$CUSTOMPROPERTY
  1
 '','N/A' 
  9
$CUSTOMPROPERTYTAG
  1
HL6
  9
$CUSTOMPROPERTY
  1
0
  9
$CUSTOMPROPERTYTAG
  1
HL6D
  9
$CUSTOMPROPERTY
  1
0
  9
$CUSTOMPROPERTYTAG
  1
HR6
  9
$CUSTOMPROPERTY
  1
0
  9
$CUSTOMPROPERTYTAG
  1
HR6D
  9
$CUSTOMPROPERTY
  1
0
  9
$CUSTOMPROPERTYTAG
  1
J6
  9
$CUSTOMPROPERTY
  1
0
  9
$CUSTOMPROPERTYTAG
  1
J6D
  9
$CUSTOMPROPERTY
  1
0
  9
$CUSTOMPROPERTYTAG
  1
K6
  9
$CUSTOMPROPERTY
  1
0
  9
$CUSTOMPROPERTYTAG
  1
K6D
  9
$CUSTOMPROPERTY
  1
0
  9
$CUSTOMPROPERTYTAG
  1
DD6
  9
$CUSTOMPROPERTY
  1
0
  9
$CUSTOMPROPERTYTAG
  1
DD6ALG
  9
$CUSTOMPROPERTY
  1
0.000
  9
$CUSTOMPROPERTYTAG
  1
ALT7
  9
$CUSTOMPROPERTY
  1
N/A
  9
$CUSTOMPROPERTYTAG
  1
ALT7ALG
  9
$CUSTOMPROPERTY
  1
 '','N/A' 
  9
$CUSTOMPROPERTYTAG
  1
ALT8
  9
$CUSTOMPROPERTY
  1
N/A
  9
$CUSTOMPROPERTYTAG
  1
ALT8ALG
  9
$CUSTOMPROPERTY
  1
 '','N/A' 
  9
$CUSTOMPROPERTYTAG
  1
ALT678PN
  9
$CUSTOMPROPERTY
  1

  9
$CUSTOMPROPERTYTAG
  1
NH9
  9
$CUSTOMPROPERTY
  1
0
  9
$CUSTOMPROPERTYTAG
  1
NH9MAX
  9
$CUSTOMPROPERTY
  1
5.000
  9
$CUSTOMPROPERTYTAG
  1
NH9ALG
  9
$CUSTOMPROPERTY
  1
[0]
  9
$CUSTOMPROPERTYTAG
  1
AH
  9
$CUSTOMPROPERTY
  1
0.0
  9
$CUSTOMPROPERTYTAG
  1
AHMIN
  9
$CUSTOMPROPERTY
  1
7.000
  9
$CUSTOMPROPERTYTAG
  1
AHMAX
  9
$CUSTOMPROPERTY
  1
2995.000
  9
$CUSTOMPROPERTYTAG
  1
AHALG
  9
$CUSTOMPROPERTY
  1
[0]
  9
$CUSTOMPROPERTYTAG
  1
BH
  9
$CUSTOMPROPERTY
  1
0.0
  9
$CUSTOMPROPERTYTAG
  1
BHMIN
  9
$CUSTOMPROPERTY
  1
2.000
  9
$CUSTOMPROPERTYTAG
  1
BHMAX
  9
$CUSTOMPROPERTY
  1
2997.000
  9
$CUSTOMPROPERTYTAG
  1
BHALG
  9
$CUSTOMPROPERTY
  1
[0]
  9
$CUSTOMPROPERTYTAG
  1
CH
  9
$CUSTOMPROPERTY
  1
0.0
  9
$CUSTOMPROPERTYTAG
  1
CHMIN
  9
$CUSTOMPROPERTY
  1
2.000
  9
$CUSTOMPROPERTYTAG
  1
CHMAX
  9
$CUSTOMPROPERTY
  1
2999.000
  9
$CUSTOMPROPERTYTAG
  1
CHALG
  9
$CUSTOMPROPERTY
  1
[0]
  9
$CUSTOMPROPERTYTAG
  1
DH
  9
$CUSTOMPROPERTY
  1
0.0
  9
$CUSTOMPROPERTYTAG
  1
DHMIN
  9
$CUSTOMPROPERTY
  1
2.000
  9
$CUSTOMPROPERTYTAG
  1
DHMAX
  9
$CUSTOMPROPERTY
  1
3001.000
  9
$CUSTOMPROPERTYTAG
  1
DHALG
  9
$CUSTOMPROPERTY
  1
[0]
  9
$CUSTOMPROPERTYTAG
  1
EH
  9
$CUSTOMPROPERTY
  1
0.0
  9
$CUSTOMPROPERTYTAG
  1
EHMIN
  9
$CUSTOMPROPERTY
  1
2.000
  9
$CUSTOMPROPERTYTAG
  1
EHMAX
  9
$CUSTOMPROPERTY
  1
2993.000
  9
$CUSTOMPROPERTYTAG
  1
EHALG
  9
$CUSTOMPROPERTY
  1
[0]
  9
$CUSTOMPROPERTYTAG
  1
NH10
  9
$CUSTOMPROPERTY
  1
0
  9
$CUSTOMPROPERTYTAG
  1
NH10MAX
  9
$CUSTOMPROPERTY
  1
5.000
  9
$CUSTOMPROPERTYTAG
  1
NH10ALG
  9
$CUSTOMPROPERTY
  1
[0]
  9
$CUSTOMPROPERTYTAG
  1
AV
  9
$CUSTOMPROPERTY
  1
0.0
  9
$CUSTOMPROPERTYTAG
  1
AVMIN
  9
$CUSTOMPROPERTY
  1
7.000
  9
$CUSTOMPROPERTYTAG
  1
AVMAX
  9
$CUSTOMPROPERTY
  1
2995.000
  9
$CUSTOMPROPERTYTAG
  1
AVALG
  9
$CUSTOMPROPERTY
  1
[0]
  9
$CUSTOMPROPERTYTAG
  1
BV
  9
$CUSTOMPROPERTY
  1
0.0
  9
$CUSTOMPROPERTYTAG
  1
BVMIN
  9
$CUSTOMPROPERTY
  1
2.000
  9
$CUSTOMPROPERTYTAG
  1
BVMAX
  9
$CUSTOMPROPERTY
  1
2997.000
  9
$CUSTOMPROPERTYTAG
  1
BVALG
  9
$CUSTOMPROPERTY
  1
[0]
  9
$CUSTOMPROPERTYTAG
  1
CV
  9
$CUSTOMPROPERTY
  1
0.0
  9
$CUSTOMPROPERTYTAG
  1
CVMIN
  9
$CUSTOMPROPERTY
  1
2.000
  9
$CUSTOMPROPERTYTAG
  1
CVMAX
  9
$CUSTOMPROPERTY
  1
2999.000
  9
$CUSTOMPROPERTYTAG
  1
CVALG
  9
$CUSTOMPROPERTY
  1
[0]
  9
$CUSTOMPROPERTYTAG
  1
DV
  9
$CUSTOMPROPERTY
  1
0.0
  9
$CUSTOMPROPERTYTAG
  1
DVMIN
  9
$CUSTOMPROPERTY
  1
2.000
  9
$CUSTOMPROPERTYTAG
  1
DVMAX
  9
$CUSTOMPROPERTY
  1
3001.000
  9
$CUSTOMPROPERTYTAG
  1
DVALG
  9
$CUSTOMPROPERTY
  1
[0]
  9
$CUSTOMPROPERTYTAG
  1
EV
  9
$CUSTOMPROPERTY
  1
0.0
  9
$CUSTOMPROPERTYTAG
  1
EVMIN
  9
$CUSTOMPROPERTY
  1
2.000
  9
$CUSTOMPROPERTYTAG
  1
EVMAX
  9
$CUSTOMPROPERTY
  1
2993.000
  9
$CUSTOMPROPERTYTAG
  1
EVALG
  9
$CUSTOMPROPERTY
  1
[0]
  9
$CUSTOMPROPERTYTAG
  1
NH11
  9
$CUSTOMPROPERTY
  1
0
  9
$CUSTOMPROPERTYTAG
  1
NH11MAX
  9
$CUSTOMPROPERTY
  1
5.000
  9
$CUSTOMPROPERTYTAG
  1
NH11ALG
  9
$CUSTOMPROPERTY
  1
[0]
  9
$CUSTOMPROPERTYTAG
  1
AP
  9
$CUSTOMPROPERTY
  1
0.0
  9
$CUSTOMPROPERTYTAG
  1
APMIN
  9
$CUSTOMPROPERTY
  1
7.000
  9
$CUSTOMPROPERTYTAG
  1
APMAX
  9
$CUSTOMPROPERTY
  1
2995.000
  9
$CUSTOMPROPERTYTAG
  1
APALG
  9
$CUSTOMPROPERTY
  1
[0]
  9
$CUSTOMPROPERTYTAG
  1
BP
  9
$CUSTOMPROPERTY
  1
0.0
  9
$CUSTOMPROPERTYTAG
  1
BPMIN
  9
$CUSTOMPROPERTY
  1
2.000
  9
$CUSTOMPROPERTYTAG
  1
BPMAX
  9
$CUSTOMPROPERTY
  1
2997.000
  9
$CUSTOMPROPERTYTAG
  1
BPALG
  9
$CUSTOMPROPERTY
  1
[0]
  9
$CUSTOMPROPERTYTAG
  1
CP
  9
$CUSTOMPROPERTY
  1
0.0
  9
$CUSTOMPROPERTYTAG
  1
CPMIN
  9
$CUSTOMPROPERTY
  1
2.000
  9
$CUSTOMPROPERTYTAG
  1
CPMAX
  9
$CUSTOMPROPERTY
  1
2999.000
  9
$CUSTOMPROPERTYTAG
  1
CPALG
  9
$CUSTOMPROPERTY
  1
[0]
  9
$CUSTOMPROPERTYTAG
  1
DP
  9
$CUSTOMPROPERTY
  1
0.0
  9
$CUSTOMPROPERTYTAG
  1
DPMIN
  9
$CUSTOMPROPERTY
  1
2.000
  9
$CUSTOMPROPERTYTAG
  1
DPMAX
  9
$CUSTOMPROPERTY
  1
3001.000
  9
$CUSTOMPROPERTYTAG
  1
DPALG
  9
$CUSTOMPROPERTY
  1
[0]
  9
$CUSTOMPROPERTYTAG
  1
EP
  9
$CUSTOMPROPERTY
  1
0.0
  9
$CUSTOMPROPERTYTAG
  1
EPMIN
  9
$CUSTOMPROPERTY
  1
2.000
  9
$CUSTOMPROPERTYTAG
  1
EPMAX
  9
$CUSTOMPROPERTY
  1
2993.000
  9
$CUSTOMPROPERTYTAG
  1
EPALG
  9
$CUSTOMPROPERTY
  1
[0]
  9
$CUSTOMPROPERTYTAG
  1
ALT9PN
  9
$CUSTOMPROPERTY
  1

  9
$CUSTOMPROPERTYTAG
  1
ALT10PN
  9
$CUSTOMPROPERTY
  1

  9
$CUSTOMPROPERTYTAG
  1
ALT11PN
  9
$CUSTOMPROPERTY
  1

  9
$CUSTOMPROPERTYTAG
  1
ALT91011PN
  9
$CUSTOMPROPERTY
  1

  9
$CUSTOMPROPERTYTAG
  1
ALT12
  9
$CUSTOMPROPERTY
  1
w/o Counterbore Hole in Specified Position (Vertical)
  9
$CUSTOMPROPERTYTAG
  1
ALT12ALG
  9
$CUSTOMPROPERTY
  1
 '','w/o Counterbore Hole in Specified Position (Vertical)','1','with Counterbore Hole in Specified Position (Vertical)' 
  9
$CUSTOMPROPERTYTAG
  1
ALT13
  9
$CUSTOMPROPERTY
  1
w/o Counterbore Hole in Specified Position (Horizontal)
  9
$CUSTOMPROPERTYTAG
  1
ALT13ALG
  9
$CUSTOMPROPERTY
  1
 '','w/o Counterbore Hole in Specified Position (Horizontal)','1','with Counterbore Hole in Specified Position (Horizontal)' 
  9
$CUSTOMPROPERTYTAG
  1
Z
  9
$CUSTOMPROPERTY
  1
N/A
  9
$CUSTOMPROPERTYTAG
  1
ZALG
  9
$CUSTOMPROPERTY
  1
 '','N/A' 
  9
$CUSTOMPROPERTYTAG
  1
DD12
  9
$CUSTOMPROPERTY
  1
0.0
  9
$CUSTOMPROPERTYTAG
  1
DD112
  9
$CUSTOMPROPERTY
  1
0.0
  9
$CUSTOMPROPERTYTAG
  1
NH12
  9
$CUSTOMPROPERTY
  1
0
  9
$CUSTOMPROPERTYTAG
  1
NH12MAX
  9
$CUSTOMPROPERTY
  1
5.000
  9
$CUSTOMPROPERTYTAG
  1
NH12ALG
  9
$CUSTOMPROPERTY
  1
[0]
  9
$CUSTOMPROPERTYTAG
  1
XA
  9
$CUSTOMPROPERTY
  1
0.0
  9
$CUSTOMPROPERTYTAG
  1
XAMIN
  9
$CUSTOMPROPERTY
  1
7.000
  9
$CUSTOMPROPERTYTAG
  1
XAMAX
  9
$CUSTOMPROPERTY
  1
2995.000
  9
$CUSTOMPROPERTYTAG
  1
XAALG
  9
$CUSTOMPROPERTY
  1
[0]
  9
$CUSTOMPROPERTYTAG
  1
XB
  9
$CUSTOMPROPERTY
  1
0.0
  9
$CUSTOMPROPERTYTAG
  1
XBMIN
  9
$CUSTOMPROPERTY
  1
2.000
  9
$CUSTOMPROPERTYTAG
  1
XBMAX
  9
$CUSTOMPROPERTY
  1
2997.000
  9
$CUSTOMPROPERTYTAG
  1
XBALG
  9
$CUSTOMPROPERTY
  1
[0]
  9
$CUSTOMPROPERTYTAG
  1
XC
  9
$CUSTOMPROPERTY
  1
0.0
  9
$CUSTOMPROPERTYTAG
  1
XCMIN
  9
$CUSTOMPROPERTY
  1
2.000
  9
$CUSTOMPROPERTYTAG
  1
XCMAX
  9
$CUSTOMPROPERTY
  1
2999.000
  9
$CUSTOMPROPERTYTAG
  1
XCALG
  9
$CUSTOMPROPERTY
  1
[0]
  9
$CUSTOMPROPERTYTAG
  1
XD
  9
$CUSTOMPROPERTY
  1
0.0
  9
$CUSTOMPROPERTYTAG
  1
XDMIN
  9
$CUSTOMPROPERTY
  1
2.000
  9
$CUSTOMPROPERTYTAG
  1
XDMAX
  9
$CUSTOMPROPERTY
  1
3001.000
  9
$CUSTOMPROPERTYTAG
  1
XDALG
  9
$CUSTOMPROPERTY
  1
[0]
  9
$CUSTOMPROPERTYTAG
  1
XE
  9
$CUSTOMPROPERTY
  1
0.0
  9
$CUSTOMPROPERTYTAG
  1
XEMIN
  9
$CUSTOMPROPERTY
  1
2.000
  9
$CUSTOMPROPERTYTAG
  1
XEMAX
  9
$CUSTOMPROPERTY
  1
2993.000
  9
$CUSTOMPROPERTYTAG
  1
XEALG
  9
$CUSTOMPROPERTY
  1
[0]
  9
$CUSTOMPROPERTYTAG
  1
NH13
  9
$CUSTOMPROPERTY
  1
0
  9
$CUSTOMPROPERTYTAG
  1
NH13MAX
  9
$CUSTOMPROPERTY
  1
5.000
  9
$CUSTOMPROPERTYTAG
  1
NH13ALG
  9
$CUSTOMPROPERTY
  1
[0]
  9
$CUSTOMPROPERTYTAG
  1
YA
  9
$CUSTOMPROPERTY
  1
0.0
  9
$CUSTOMPROPERTYTAG
  1
YAMIN
  9
$CUSTOMPROPERTY
  1
7.000
  9
$CUSTOMPROPERTYTAG
  1
YAMAX
  9
$CUSTOMPROPERTY
  1
2995.000
  9
$CUSTOMPROPERTYTAG
  1
YAALG
  9
$CUSTOMPROPERTY
  1
[0]
  9
$CUSTOMPROPERTYTAG
  1
YB
  9
$CUSTOMPROPERTY
  1
0.0
  9
$CUSTOMPROPERTYTAG
  1
YBMIN
  9
$CUSTOMPROPERTY
  1
2.000
  9
$CUSTOMPROPERTYTAG
  1
YBMAX
  9
$CUSTOMPROPERTY
  1
2997.000
  9
$CUSTOMPROPERTYTAG
  1
YBALG
  9
$CUSTOMPROPERTY
  1
[0]
  9
$CUSTOMPROPERTYTAG
  1
YC
  9
$CUSTOMPROPERTY
  1
0.0
  9
$CUSTOMPROPERTYTAG
  1
YCMIN
  9
$CUSTOMPROPERTY
  1
2.000
  9
$CUSTOMPROPERTYTAG
  1
YCMAX
  9
$CUSTOMPROPERTY
  1
2999.000
  9
$CUSTOMPROPERTYTAG
  1
YCALG
  9
$CUSTOMPROPERTY
  1
[0]
  9
$CUSTOMPROPERTYTAG
  1
YD
  9
$CUSTOMPROPERTY
  1
0.0
  9
$CUSTOMPROPERTYTAG
  1
YDMIN
  9
$CUSTOMPROPERTY
  1
2.000
  9
$CUSTOMPROPERTYTAG
  1
YDMAX
  9
$CUSTOMPROPERTY
  1
3001.000
  9
$CUSTOMPROPERTYTAG
  1
YDALG
  9
$CUSTOMPROPERTY
  1
[0]
  9
$CUSTOMPROPERTYTAG
  1
YE
  9
$CUSTOMPROPERTY
  1
0.0
  9
$CUSTOMPROPERTYTAG
  1
YEMIN
  9
$CUSTOMPROPERTY
  1
2.000
  9
$CUSTOMPROPERTYTAG
  1
YEMAX
  9
$CUSTOMPROPERTY
  1
2993.000
  9
$CUSTOMPROPERTYTAG
  1
YEALG
  9
$CUSTOMPROPERTY
  1
[0]
  9
$CUSTOMPROPERTYTAG
  1
ALT12PN
  9
$CUSTOMPROPERTY
  1

  9
$CUSTOMPROPERTYTAG
  1
ALT13PN
  9
$CUSTOMPROPERTY
  1

  9
$CUSTOMPROPERTYTAG
  1
ALT1213PN
  9
$CUSTOMPROPERTY
  1

  9
$CUSTOMPROPERTYTAG
  1
ALT14
  9
$CUSTOMPROPERTY
  1
w/o D Type Hole Alteration
  9
$CUSTOMPROPERTYTAG
  1
ALT14ALG
  9
$CUSTOMPROPERTY
  1
 '','w/o D Type Hole Alteration','1','with D Type Hole Alteration' 
  9
$CUSTOMPROPERTYTAG
  1
HP14
  9
$CUSTOMPROPERTY
  1
N/A
  9
$CUSTOMPROPERTYTAG
  1
HP14ALG
  9
$CUSTOMPROPERTY
  1
 '','N/A' 
  9
$CUSTOMPROPERTYTAG
  1
DL14
  9
$CUSTOMPROPERTY
  1
N/A
  9
$CUSTOMPROPERTYTAG
  1
DL14ALG
  9
$CUSTOMPROPERTY
  1
 '','N/A' 
  9
$CUSTOMPROPERTYTAG
  1
DR14
  9
$CUSTOMPROPERTY
  1
N/A
  9
$CUSTOMPROPERTYTAG
  1
DR14ALG
  9
$CUSTOMPROPERTY
  1
 '','N/A' 
  9
$CUSTOMPROPERTYTAG
  1
H14
  9
$CUSTOMPROPERTY
  1
0
  9
$CUSTOMPROPERTYTAG
  1
D14
  9
$CUSTOMPROPERTY
  1
0.0
  9
$CUSTOMPROPERTYTAG
  1
ALT14PN
  9
$CUSTOMPROPERTY
  1

  9
$CUSTOMPROPERTYTAG
  1
ALT15
  9
$CUSTOMPROPERTY
  1
w/o S Type Hole Alteration
  9
$CUSTOMPROPERTYTAG
  1
ALT15ALG
  9
$CUSTOMPROPERTY
  1
 '','w/o S Type Hole Alteration','1','with S Type Hole Alteration' 
  9
$CUSTOMPROPERTYTAG
  1
HP15
  9
$CUSTOMPROPERTY
  1
N/A
  9
$CUSTOMPROPERTYTAG
  1
HP15ALG
  9
$CUSTOMPROPERTY
  1
 '','N/A' 
  9
$CUSTOMPROPERTYTAG
  1
DL15
  9
$CUSTOMPROPERTY
  1
N/A
  9
$CUSTOMPROPERTYTAG
  1
DL15ALG
  9
$CUSTOMPROPERTY
  1
 '','N/A' 
  9
$CUSTOMPROPERTYTAG
  1
DR15
  9
$CUSTOMPROPERTY
  1
N/A
  9
$CUSTOMPROPERTYTAG
  1
DR15ALG
  9
$CUSTOMPROPERTY
  1
 '','N/A' 
  9
$CUSTOMPROPERTYTAG
  1
H15
  9
$CUSTOMPROPERTY
  1
0
  9
$CUSTOMPROPERTYTAG
  1
D115
  9
$CUSTOMPROPERTY
  1
0.0
  9
$CUSTOMPROPERTYTAG
  1
D215
  9
$CUSTOMPROPERTY
  1
0.0
  9
$CUSTOMPROPERTYTAG
  1
ALT15PN
  9
$CUSTOMPROPERTY
  1

  9
$CUSTOMPROPERTYTAG
  1
ALT16
  9
$CUSTOMPROPERTY
  1
w/o M Type Hole Alteration
  9
$CUSTOMPROPERTYTAG
  1
ALT16ALG
  9
$CUSTOMPROPERTY
  1
 '','w/o M Type Hole Alteration','1','with M Type Hole Alteration' 
  9
$CUSTOMPROPERTYTAG
  1
HP16
  9
$CUSTOMPROPERTY
  1
N/A
  9
$CUSTOMPROPERTYTAG
  1
HP16ALG
  9
$CUSTOMPROPERTY
  1
 '','N/A' 
  9
$CUSTOMPROPERTYTAG
  1
DL16
  9
$CUSTOMPROPERTY
  1
N/A
  9
$CUSTOMPROPERTYTAG
  1
DL16ALG
  9
$CUSTOMPROPERTY
  1
 '','N/A' 
  9
$CUSTOMPROPERTYTAG
  1
DR16
  9
$CUSTOMPROPERTY
  1
N/A
  9
$CUSTOMPROPERTYTAG
  1
DR16ALG
  9
$CUSTOMPROPERTY
  1
 '','N/A' 
  9
$CUSTOMPROPERTYTAG
  1
H116
  9
$CUSTOMPROPERTY
  1
0
  9
$CUSTOMPROPERTYTAG
  1
D16
  9
$CUSTOMPROPERTY
  1
0.0
  9
$CUSTOMPROPERTYTAG
  1
ALT16PN
  9
$CUSTOMPROPERTY
  1

  9
$CUSTOMPROPERTYTAG
  1
ALT17
  9
$CUSTOMPROPERTY
  1
w/o L Type Hole Alteration (Top)
  9
$CUSTOMPROPERTYTAG
  1
ALT17ALG
  9
$CUSTOMPROPERTY
  1
 '','w/o L Type Hole Alteration (Top)','1','with L Type Hole Alteration (Top)' 
  9
$CUSTOMPROPERTYTAG
  1
HQ17
  9
$CUSTOMPROPERTY
  1
0
  9
$CUSTOMPROPERTYTAG
  1
HQ17ALG
  9
$CUSTOMPROPERTY
  1
0
  9
$CUSTOMPROPERTYTAG
  1
JLP
  9
$CUSTOMPROPERTY
  1
0
  9
$CUSTOMPROPERTYTAG
  1
JLPMIN
  9
$CUSTOMPROPERTY
  1
4.900
  9
$CUSTOMPROPERTYTAG
  1
JLPMAX
  9
$CUSTOMPROPERTY
  1
0.000
  9
$CUSTOMPROPERTYTAG
  1
JLPALG
  9
$CUSTOMPROPERTY
  1
[0]
  9
$CUSTOMPROPERTYTAG
  1
L17
  9
$CUSTOMPROPERTY
  1
0.000
  9
$CUSTOMPROPERTYTAG
  1
D17
  9
$CUSTOMPROPERTY
  1
0.0
  9
$CUSTOMPROPERTYTAG
  1
ALT17PN
  9
$CUSTOMPROPERTY
  1

  9
$CUSTOMPROPERTYTAG
  1
ALT19
  9
$CUSTOMPROPERTY
  1
N/A
  9
$CUSTOMPROPERTYTAG
  1
ALT19ALG
  9
$CUSTOMPROPERTY
  1
 '','N/A' 
  9
$CUSTOMPROPERTYTAG
  1
M19
  9
$CUSTOMPROPERTY
  1
0
  9
$CUSTOMPROPERTYTAG
  1
DP19
  9
$CUSTOMPROPERTY
  1
0
  9
$CUSTOMPROPERTYTAG
  1
ALT19PN
  9
$CUSTOMPROPERTY
  1

  9
$CUSTOMPROPERTYTAG
  1
ALT20
  9
$CUSTOMPROPERTY
  1
w/o CW (End Face C Chamfering)
  9
$CUSTOMPROPERTYTAG
  1
ALT20PN
  9
$CUSTOMPROPERTY
  1

  9
$CUSTOMPROPERTYTAG
  1
ERRORALT01
  9
$CUSTOMPROPERTY
  1
OK
  9
$CUSTOMPROPERTYTAG
  1
ERRORALT02
  9
$CUSTOMPROPERTY
  1
OK
  9
$CUSTOMPROPERTYTAG
  1
ERRORALT05
  9
$CUSTOMPROPERTY
  1
OK
  9
$CUSTOMPROPERTYTAG
  1
ERRORALT06091
  9
$CUSTOMPROPERTY
  1
OK
  9
$CUSTOMPROPERTYTAG
  1
ERRORALT06092
  9
$CUSTOMPROPERTY
  1
OK
  9
$CUSTOMPROPERTYTAG
  1
ERRORALT06093
  9
$CUSTOMPROPERTY
  1
OK
  9
$CUSTOMPROPERTYTAG
  1
ERRORALT06094
  9
$CUSTOMPROPERTY
  1
OK
  9
$CUSTOMPROPERTYTAG
  1
ERRORALT06101
  9
$CUSTOMPROPERTY
  1
OK
  9
$CUSTOMPROPERTYTAG
  1
ERRORALT06102
  9
$CUSTOMPROPERTY
  1
OK
  9
$CUSTOMPROPERTYTAG
  1
ERRORALT06103
  9
$CUSTOMPROPERTY
  1
OK
  9
$CUSTOMPROPERTYTAG
  1
ERRORALT06104
  9
$CUSTOMPROPERTY
  1
OK
  9
$CUSTOMPROPERTYTAG
  1
ERRORALT06111
  9
$CUSTOMPROPERTY
  1
OK
  9
$CUSTOMPROPERTYTAG
  1
ERRORALT06112
  9
$CUSTOMPROPERTY
  1
OK
  9
$CUSTOMPROPERTYTAG
  1
ERRORALT06113
  9
$CUSTOMPROPERTY
  1
OK
  9
$CUSTOMPROPERTYTAG
  1
ERRORALT06114
  9
$CUSTOMPROPERTY
  1
OK
  9
$CUSTOMPROPERTYTAG
  1
ERRORALT06121
  9
$CUSTOMPROPERTY
  1
OK
  9
$CUSTOMPROPERTYTAG
  1
ERRORALT06122
  9
$CUSTOMPROPERTY
  1
OK
  9
$CUSTOMPROPERTYTAG
  1
ERRORALT06123
  9
$CUSTOMPROPERTY
  1
OK
  9
$CUSTOMPROPERTYTAG
  1
ERRORALT06124
  9
$CUSTOMPROPERTY
  1
OK
  9
$CUSTOMPROPERTYTAG
  1
ERRORALT06131
  9
$CUSTOMPROPERTY
  1
OK
  9
$CUSTOMPROPERTYTAG
  1
ERRORALT06132
  9
$CUSTOMPROPERTY
  1
OK
  9
$CUSTOMPROPERTYTAG
  1
ERRORALT06133
  9
$CUSTOMPROPERTY
  1
OK
  9
$CUSTOMPROPERTYTAG
  1
ERRORALT06134
  9
$CUSTOMPROPERTY
  1
OK
  9
$CUSTOMPROPERTYTAG
  1
ERRORALT0614
  9
$CUSTOMPROPERTY
  1
OK
  9
$CUSTOMPROPERTYTAG
  1
ERRORALT0615
  9
$CUSTOMPROPERTY
  1
OK
  9
$CUSTOMPROPERTYTAG
  1
ERRORALT0616
  9
$CUSTOMPROPERTY
  1
OK
  9
$CUSTOMPROPERTYTAG
  1
ERRORALT06171
  9
$CUSTOMPROPERTY
  1
OK
  9
$CUSTOMPROPERTYTAG
  1
ERRORALT06172
  9
$CUSTOMPROPERTY
  1
OK
  9
$CUSTOMPROPERTYTAG
  1
ERRORALT06173
  9
$CUSTOMPROPERTY
  1
OK
  9
$CUSTOMPROPERTYTAG
  1
ERRORALT0619
  9
$CUSTOMPROPERTY
  1
OK
  9
$CUSTOMPROPERTYTAG
  1
ERRORALT0911
  9
$CUSTOMPROPERTY
  1
OK
  9
$CUSTOMPROPERTYTAG
  1
ERRORALT0913
  9
$CUSTOMPROPERTY
  1
OK
  9
$CUSTOMPROPERTYTAG
  1
ERRORALT0914
  9
$CUSTOMPROPERTY
  1
OK
  9
$CUSTOMPROPERTYTAG
  1
ERRORALT0915
  9
$CUSTOMPROPERTY
  1
OK
  9
$CUSTOMPROPERTYTAG
  1
ERRORALT0916
  9
$CUSTOMPROPERTY
  1
OK
  9
$CUSTOMPROPERTYTAG
  1
ERRORALT0917
  9
$CUSTOMPROPERTY
  1
OK
  9
$CUSTOMPROPERTYTAG
  1
ERRORALT0919
  9
$CUSTOMPROPERTY
  1
OK
  9
$CUSTOMPROPERTYTAG
  1
ERRORALT1011
  9
$CUSTOMPROPERTY
  1
OK
  9
$CUSTOMPROPERTYTAG
  1
ERRORALT1012
  9
$CUSTOMPROPERTY
  1
OK
  9
$CUSTOMPROPERTYTAG
  1
ERRORALT1014
  9
$CUSTOMPROPERTY
  1
OK
  9
$CUSTOMPROPERTYTAG
  1
ERRORALT1015
  9
$CUSTOMPROPERTY
  1
OK
  9
$CUSTOMPROPERTYTAG
  1
ERRORALT1016
  9
$CUSTOMPROPERTY
  1
OK
  9
$CUSTOMPROPERTYTAG
  1
ERRORALT1017
  9
$CUSTOMPROPERTY
  1
OK
  9
$CUSTOMPROPERTYTAG
  1
ERRORALT1019
  9
$CUSTOMPROPERTY
  1
OK
  9
$CUSTOMPROPERTYTAG
  1
ERRORALT1112
  9
$CUSTOMPROPERTY
  1
OK
  9
$CUSTOMPROPERTYTAG
  1
ERRORALT1113
  9
$CUSTOMPROPERTY
  1
OK
  9
$CUSTOMPROPERTYTAG
  1
ERRORALT1114
  9
$CUSTOMPROPERTY
  1
OK
  9
$CUSTOMPROPERTYTAG
  1
ERRORALT1115
  9
$CUSTOMPROPERTY
  1
OK
  9
$CUSTOMPROPERTYTAG
  1
ERRORALT1116
  9
$CUSTOMPROPERTY
  1
OK
  9
$CUSTOMPROPERTYTAG
  1
ERRORALT1117
  9
$CUSTOMPROPERTY
  1
OK
  9
$CUSTOMPROPERTYTAG
  1
ERRORALT1119
  9
$CUSTOMPROPERTY
  1
OK
  9
$CUSTOMPROPERTYTAG
  1
ERRORALT1214
  9
$CUSTOMPROPERTY
  1
OK
  9
$CUSTOMPROPERTYTAG
  1
ERRORALT1215
  9
$CUSTOMPROPERTY
  1
OK
  9
$CUSTOMPROPERTYTAG
  1
ERRORALT1216
  9
$CUSTOMPROPERTY
  1
OK
  9
$CUSTOMPROPERTYTAG
  1
ERRORALT1217
  9
$CUSTOMPROPERTY
  1
OK
  9
$CUSTOMPROPERTYTAG
  1
ERRORALT1219
  9
$CUSTOMPROPERTY
  1
OK
  9
$CUSTOMPROPERTYTAG
  1
ERRORALT1314
  9
$CUSTOMPROPERTY
  1
OK
  9
$CUSTOMPROPERTYTAG
  1
ERRORALT1315
  9
$CUSTOMPROPERTY
  1
OK
  9
$CUSTOMPROPERTYTAG
  1
ERRORALT1316
  9
$CUSTOMPROPERTY
  1
OK
  9
$CUSTOMPROPERTYTAG
  1
ERRORALT1317
  9
$CUSTOMPROPERTY
  1
OK
  9
$CUSTOMPROPERTYTAG
  1
ERRORALT1319
  9
$CUSTOMPROPERTY
  1
OK
  9
$CUSTOMPROPERTYTAG
  1
ERRORALT1415
  9
$CUSTOMPROPERTY
  1
OK
  9
$CUSTOMPROPERTYTAG
  1
ERRORALT1416
  9
$CUSTOMPROPERTY
  1
OK
  9
$CUSTOMPROPERTYTAG
  1
ERRORALT1417
  9
$CUSTOMPROPERTY
  1
OK
  9
$CUSTOMPROPERTYTAG
  1
ERRORALT1419
  9
$CUSTOMPROPERTY
  1
OK
  9
$CUSTOMPROPERTYTAG
  1
ERRORALT1516
  9
$CUSTOMPROPERTY
  1
OK
  9
$CUSTOMPROPERTYTAG
  1
ERRORALT1517
  9
$CUSTOMPROPERTY
  1
OK
  9
$CUSTOMPROPERTYTAG
  1
ERRORALT1519
  9
$CUSTOMPROPERTY
  1
OK
  9
$CUSTOMPROPERTYTAG
  1
ERRORALT1617
  9
$CUSTOMPROPERTY
  1
OK
  9
$CUSTOMPROPERTYTAG
  1
ERRORALT1619
  9
$CUSTOMPROPERTY
  1
OK
  9
$CUSTOMPROPERTYTAG
  1
ERRORALT1719
  9
$CUSTOMPROPERTY
  1
OK
  9
$CUSTOMPROPERTYTAG
  1
ERRORPN
  9
$CUSTOMPROPERTY
  1

  9
$CUSTOMPROPERTYTAG
  1
COMPANY
  9
$CUSTOMPROPERTY
  1
misumi
  9
$INSBASE
 10
0.0
 20
0.0
 30
0.0
  9
$EXTMIN
 10
1.000000000000000E+20
 20
1.000000000000000E+20
 30
1.000000000000000E+20
  9
$EXTMAX
 10
-1.000000000000000E+20
 20
-1.000000000000000E+20
 30
-1.000000000000000E+20
  9
$LIMMIN
 10
0.0
 20
0.0
  9
$LIMMAX
 10
420.0
 20
297.0
  9
$ORTHOMODE
 70
     0
  9
$REGENMODE
 70
     1
  9
$FILLMODE
 70
     1
  9
$QTEXTMODE
 70
     0
  9
$MIRRTEXT
 70
     1
  9
$LTSCALE
 40
1.0
  9
$ATTMODE
 70
     1
  9
$TEXTSIZE
 40
2.5
  9
$TRACEWID
 40
1.0
  9
$TEXTSTYLE
  7
Standard
  9
$CLAYER
  8
0
  9
$CELTYPE
  6
ByLayer
  9
$CECOLOR
 62
   256
  9
$CELTSCALE
 40
1.0
  9
$DISPSILH
 70
     0
  9
$DIMSCALE
 40
1.0
  9
$DIMASZ
 40
2.5
  9
$DIMEXO
 40
0.625
  9
$DIMDLI
 40
3.75
  9
$DIMRND
 40
0.0
  9
$DIMDLE
 40
0.0
  9
$DIMEXE
 40
1.25
  9
$DIMTP
 40
0.0
  9
$DIMTM
 40
0.0
  9
$DIMTXT
 40
2.5
  9
$DIMCEN
 40
2.5
  9
$DIMTSZ
 40
0.0
  9
$DIMTOL
 70
     0
  9
$DIMLIM
 70
     0
  9
$DIMTIH
 70
     0
  9
$DIMTOH
 70
     0
  9
$DIMSE1
 70
     0
  9
$DIMSE2
 70
     0
  9
$DIMTAD
 70
     1
  9
$DIMZIN
 70
     8
  9
$DIMBLK
  1

  9
$DIMASO
 70
     1
  9
$DIMSHO
 70
     1
  9
$DIMPOST
  1

  9
$DIMAPOST
  1

  9
$DIMALT
 70
     0
  9
$DIMALTD
 70
     3
  9
$DIMALTF
 40
0.03937007874016
  9
$DIMLFAC
 40
1.0
  9
$DIMTOFL
 70
     1
  9
$DIMTVP
 40
0.0
  9
$DIMTIX
 70
     0
  9
$DIMSOXD
 70
     0
  9
$DIMSAH
 70
     0
  9
$DIMBLK1
  1

  9
$DIMBLK2
  1

  9
$DIMSTYLE
  2
ISO-25
  9
$DIMCLRD
 70
     0
  9
$DIMCLRE
 70
     0
  9
$DIMCLRT
 70
     0
  9
$DIMTFAC
 40
1.0
  9
$DIMGAP
 40
0.625
  9
$DIMJUST
 70
     0
  9
$DIMSD1
 70
     0
  9
$DIMSD2
 70
     0
  9
$DIMTOLJ
 70
     0
  9
$DIMTZIN
 70
     8
  9
$DIMALTZ
 70
     0
  9
$DIMALTTZ
 70
     0
  9
$DIMUPT
 70
     0
  9
$DIMDEC
 70
     2
  9
$DIMTDEC
 70
     2
  9
$DIMALTU
 70
     2
  9
$DIMALTTD
 70
     3
  9
$DIMTXSTY
  7
Standard
  9
$DIMAUNIT
 70
     0
  9
$DIMADEC
 70
     0
  9
$DIMALTRND
 40
0.0
  9
$DIMAZIN
 70
     0
  9
$DIMDSEP
 70
    44
  9
$DIMATFIT
 70
     3
  9
$DIMFRAC
 70
     0
  9
$DIMLDRBLK
  1

  9
$DIMLUNIT
 70
     2
  9
$DIMLWD
 70
    -2
  9
$DIMLWE
 70
    -2
  9
$DIMTMOVE
 70
     0
  9
$DIMFXL
 40
1.0
  9
$DIMFXLON
 70
     0
  9
$DIMJOGANG
 40
0.7853981633974483
  9
$DIMTFILL
 70
     0
  9
$DIMTFILLCLR
 70
     0
  9
$DIMARCSYM
 70
     0
  9
$DIMLTYPE
  6

  9
$DIMLTEX1
  6

  9
$DIMLTEX2
  6

  9
$DIMTXTDIRECTION
 70
     0
  9
$LUNITS
 70
     2
  9
$LUPREC
 70
     4
  9
$SKETCHINC
 40
1.0
  9
$FILLETRAD
 40
10.0
  9
$AUNITS
 70
     0
  9
$AUPREC
 70
     0
  9
$MENU
  1
.
  9
$ELEVATION
 40
0.0
  9
$PELEVATION
 40
0.0
  9
$THICKNESS
 40
0.0
  9
$LIMCHECK
 70
     0
  9
$CHAMFERA
 40
0.0
  9
$CHAMFERB
 40
0.0
  9
$CHAMFERC
 40
0.0
  9
$CHAMFERD
 40
0.0
  9
$SKPOLY
 70
     0
  9
$TDCREATE
 40
2457684.919192882
  9
$TDUCREATE
 40
2457684.835859549
  9
$TDUPDATE
 40
2457684.919193148
  9
$TDUUPDATE
 40
2457684.835859815
  9
$TDINDWG
 40
0.0000000116
  9
$TDUSRTIMER
 40
0.0000000116
  9
$USRTIMER
 70
     1
  9
$ANGBASE
 50
0.0
  9
$ANGDIR
 70
     0
  9
$PDMODE
 70
     0
  9
$PDSIZE
 40
0.0
  9
$PLINEWID
 40
0.0
  9
$SPLFRAME
 70
     0
  9
$SPLINETYPE
 70
     6
  9
$SPLINESEGS
 70
     8
  9
$HANDSEED
  5
23D
  9
$SURFTAB1
 70
     6
  9
$SURFTAB2
 70
     6
  9
$SURFTYPE
 70
     6
  9
$SURFU
 70
     6
  9
$SURFV
 70
     6
  9
$UCSBASE
  2

  9
$UCSNAME
  2

  9
$UCSORG
 10
0.0
 20
0.0
 30
0.0
  9
$UCSXDIR
 10
1.0
 20
0.0
 30
0.0
  9
$UCSYDIR
 10
0.0
 20
1.0
 30
0.0
  9
$UCSORTHOREF
  2

  9
$UCSORTHOVIEW
 70
     0
  9
$UCSORGTOP
 10
0.0
 20
0.0
 30
0.0
  9
$UCSORGBOTTOM
 10
0.0
 20
0.0
 30
0.0
  9
$UCSORGLEFT
 10
0.0
 20
0.0
 30
0.0
  9
$UCSORGRIGHT
 10
0.0
 20
0.0
 30
0.0
  9
$UCSORGFRONT
 10
0.0
 20
0.0
 30
0.0
  9
$UCSORGBACK
 10
0.0
 20
0.0
 30
0.0
  9
$PUCSBASE
  2

  9
$PUCSNAME
  2

  9
$PUCSORG
 10
0.0
 20
0.0
 30
0.0
  9
$PUCSXDIR
 10
1.0
 20
0.0
 30
0.0
  9
$PUCSYDIR
 10
0.0
 20
1.0
 30
0.0
  9
$PUCSORTHOREF
  2

  9
$PUCSORTHOVIEW
 70
     0
  9
$PUCSORGTOP
 10
0.0
 20
0.0
 30
0.0
  9
$PUCSORGBOTTOM
 10
0.0
 20
0.0
 30
0.0
  9
$PUCSORGLEFT
 10
0.0
 20
0.0
 30
0.0
  9
$PUCSORGRIGHT
 10
0.0
 20
0.0
 30
0.0
  9
$PUCSORGFRONT
 10
0.0
 20
0.0
 30
0.0
  9
$PUCSORGBACK
 10
0.0
 20
0.0
 30
0.0
  9
$USERI1
 70
     0
  9
$USERI2
 70
     0
  9
$USERI3
 70
     0
  9
$USERI4
 70
     0
  9
$USERI5
 70
     0
  9
$USERR1
 40
0.0
  9
$USERR2
 40
0.0
  9
$USERR3
 40
0.0
  9
$USERR4
 40
0.0
  9
$USERR5
 40
0.0
  9
$WORLDVIEW
 70
     1
  9
$SHADEDGE
 70
     3
  9
$SHADEDIF
 70
    70
  9
$TILEMODE
 70
     1
  9
$MAXACTVP
 70
    64
  9
$PINSBASE
 10
0.0
 20
0.0
 30
0.0
  9
$PLIMCHECK
 70
     0
  9
$PEXTMIN
 10
1.000000000000000E+20
 20
1.000000000000000E+20
 30
1.000000000000000E+20
  9
$PEXTMAX
 10
-1.000000000000000E+20
 20
-1.000000000000000E+20
 30
-1.000000000000000E+20
  9
$PLIMMIN
 10
0.0
 20
0.0
  9
$PLIMMAX
 10
420.0
 20
297.0
  9
$UNITMODE
 70
     0
  9
$VISRETAIN
 70
     1
  9
$PLINEGEN
 70
     0
  9
$PSLTSCALE
 70
     1
  9
$TREEDEPTH
 70
  3020
  9
$CMLSTYLE
  2
Standard
  9
$CMLJUST
 70
     0
  9
$CMLSCALE
 40
20.0
  9
$PROXYGRAPHICS
 70
     1
  9
$MEASUREMENT
 70
     1
  9
$CELWEIGHT
370
    -1
  9
$ENDCAPS
280
     0
  9
$JOINSTYLE
280
     0
  9
$LWDISPLAY
290
     0
  9
$INSUNITS
 70
     4
  9
$HYPERLINKBASE
  1

  9
$STYLESHEET
  1

  9
$XEDIT
290
     1
  9
$CEPSNTYPE
380
     0
  9
$PSTYLEMODE
290
     1
  9
$FINGERPRINTGUID
  2
{D333F3D1-E28C-460B-A483-495723FDB15D}
  9
$VERSIONGUID
  2
{FAEB1C32-E019-11D5-929B-00C0DF256EC4}
  9
$EXTNAMES
290
     1
  9
$PSVPSCALE
 40
0.0
  9
$OLESTARTUP
290
     0
  9
$SORTENTS
280
   127
  9
$INDEXCTL
280
     0
  9
$HIDETEXT
280
     1
  9
$XCLIPFRAME
280
     2
  9
$HALOGAP
280
     0
  9
$OBSCOLOR
 70
   257
  9
$OBSLTYPE
280
     0
  9
$INTERSECTIONDISPLAY
280
     0
  9
$INTERSECTIONCOLOR
 70
   257
  9
$DIMASSOC
280
     2
  9
$PROJECTNAME
  1

  9
$CAMERADISPLAY
290
     0
  9
$LENSLENGTH
 40
50.0
  9
$CAMERAHEIGHT
 40
0.0
  9
$STEPSPERSEC
 40
2.0
  9
$STEPSIZE
 40
6.0
  9
$3DDWFPREC
 40
2.0
  9
$PSOLWIDTH
 40
5.0
  9
$PSOLHEIGHT
 40
80.0
  9
$LOFTANG1
 40
1.570796326794897
  9
$LOFTANG2
 40
1.570796326794897
  9
$LOFTMAG1
 40
0.0
  9
$LOFTMAG2
 40
0.0
  9
$LOFTPARAM
 70
     7
  9
$LOFTNORMALS
280
     1
  9
$LATITUDE
 40
37.795
  9
$LONGITUDE
 40
-122.394
  9
$NORTHDIRECTION
 40
0.0
  9
$TIMEZONE
 70
 -8000
  9
$LIGHTGLYPHDISPLAY
280
     1
  9
$TILEMODELIGHTSYNCH
280
     1
  9
$CMATERIAL
347
44
  9
$SOLIDHIST
280
     1
  9
$SHOWHIST
280
     1
  9
$DWFFRAME
280
     2
  9
$DGNFRAME
280
     2
  9
$REALWORLDSCALE
290
     1
  9
$INTERFERECOLOR
 62
   256
  9
$CSHADOW
280
     0
  9
$SHADOWPLANELOCATION
 40
0.0
  0
ENDSEC
  0
SECTION
  2
CLASSES
  0
CLASS
  1
ACDBDICTIONARYWDFLT
  2
AcDbDictionaryWithDefault
  3
ObjectDBX Classes
 90
        0
 91
        4
280
     0
281
     0
  0
CLASS
  1
VISUALSTYLE
  2
AcDbVisualStyle
  3
ObjectDBX Classes
 90
     4095
 91
        4
280
     0
281
     0
  0
CLASS
  1
MATERIAL
  2
AcDbMaterial
  3
ObjectDBX Classes
 90
     1153
 91
        4
280
     0
281
     0
  0
CLASS
  1
SCALE
  2
AcDbScale
  3
ObjectDBX Classes
 90
     1153
 91
        4
280
     0
281
     0
  0
CLASS
  1
SUN
  2
AcDbSun
  3
SCENEOE
 90
     1153
 91
        4
280
     0
281
     0
  0
CLASS
  1
DICTIONARYVAR
  2
AcDbDictionaryVar
  3
ObjectDBX Classes
 90
        0
 91
        4
280
     0
281
     0
  0
ENDSEC
  0
SECTION
  2
TABLES
  0
TABLE
  2
VPORT
  5
8
330
0
100
AcDbSymbolTable
 70
     1
  0
VPORT
  5
29
330
8
100
AcDbSymbolTableRecord
100
AcDbViewportTableRecord
  2
*Active
 70
     0
 10
0.0
 20
0.0
 11
1.0
 21
1.0
 12
17.5595238095238
 22
-472.25
 13
0.0
 23
0.0
 14
10.0
 24
10.0
 15
10.0
 25
10.0
 16
0.0
 26
0.0
 36
1.0
 17
0.0
 27
0.0
 37
0.0
 40
1009.29
 41
0.0759161673765009
 42
50.0
 43
0.0
 44
0.0
 50
0.0
 51
0.0
 71
     0
 72
   100
 73
     1
 74
     3
 75
     0
 76
     0
 77
     0
 78
     0
281
     0
 65
     1
110
0.0
120
0.0
130
0.0
111
1.0
121
0.0
131
0.0
112
0.0
122
1.0
132
0.0
 79
     0
146
0.0
 60
     3
 61
     5
292
     1
282
     1
141
0.0
142
0.0
 63
   250
361
69
  0
ENDTAB
  0
TABLE
  2
LTYPE
  5
5
330
0
100
AcDbSymbolTable
 70
     3
  0
LTYPE
  5
14
330
5
100
AcDbSymbolTableRecord
100
AcDbLinetypeTableRecord
  2
ByBlock
 70
     0
  3

 72
    65
 73
     0
 40
0.0
  0
LTYPE
  5
15
330
5
100
AcDbSymbolTableRecord
100
AcDbLinetypeTableRecord
  2
ByLayer
 70
     0
  3

 72
    65
 73
     0
 40
0.0
  0
LTYPE
  5
16
330
5
100
AcDbSymbolTableRecord
100
AcDbLinetypeTableRecord
  2
Continuous
 70
     0
  3
Solid line
 72
    65
 73
     0
 40
0.0
  0
LTYPE
  5
6C
330
5
100
AcDbSymbolTableRecord
100
AcDbLinetypeTableRecord
  2
Dashed
 70
     0
  3

 72
    65
 73
     2
 40
2.0
 49
1.0
 74
     0
 49
-1.0
 74
     0
  0
LTYPE
  5
6E
330
5
100
AcDbSymbolTableRecord
100
AcDbLinetypeTableRecord
  2
Center
 70
     0
  3

 72
    65
 73
     4
 40
1.5
 49
0.45
 74
     0
 49
-0.5
 74
     0
 49
0.05
 74
     0
 49
-0.5
 74
     0
  0
ENDTAB
  0
TABLE
  2
LAYER
  5
2
330
0
100
AcDbSymbolTable
 70
    11
  0
LAYER
  5
10
330
2
100
AcDbSymbolTableRecord
100
AcDbLayerTableRecord
  2
0
 70
     0
 62
     7
  6
Continuous
370
    -3
390
F
347
46
348
0
  0
LAYER
  5
6A
330
2
100
AcDbSymbolTableRecord
100
AcDbLayerTableRecord
  2
vis
 70
     0
 62
     1
  6
Continuous
370
    50
390
F
347
46
348
0
  0
LAYER
  5
6B
330
2
100
AcDbSymbolTableRecord
100
AcDbLayerTableRecord
  2
thin
 70
     0
 62
     2
  6
Continuous
370
    50
390
F
347
46
348
0
  0
LAYER
  5
6D
330
2
100
AcDbSymbolTableRecord
100
AcDbLayerTableRecord
  2
hidden
 70
     0
 62
     3
  6
Dashed
370
    25
390
F
347
46
348
0
  0
LAYER
  5
6F
330
2
100
AcDbSymbolTableRecord
100
AcDbLayerTableRecord
  2
center
 70
     0
 62
     4
  6
Center
370
    25
390
F
347
46
348
0
  0
LAYER
  5
70
330
2
100
AcDbSymbolTableRecord
100
AcDbLayerTableRecord
  2
center1
 70
     0
 62
     7
  6
Center
370
    50
390
F
347
46
348
0
  0
LAYER
  5
71
330
2
100
AcDbSymbolTableRecord
100
AcDbLayerTableRecord
  2
thread
 70
     0
 62
     3
  6
Continuous
370
    25
390
F
347
46
348
0
  0
LAYER
  5
72
330
2
100
AcDbSymbolTableRecord
100
AcDbLayerTableRecord
  2
attrib
 70
     0
 62
    -2
  6
Continuous
370
    35
390
F
347
46
348
0
  0
LAYER
  5
73
330
2
100
AcDbSymbolTableRecord
100
AcDbLayerTableRecord
  2
dimension
 70
     0
 62
     3
  6
Continuous
370
    25
390
F
347
46
348
0
  0
LAYER
  5
74
330
2
100
AcDbSymbolTableRecord
100
AcDbLayerTableRecord
  2
hatch
 70
     0
 62
     3
  6
Continuous
370
    25
390
F
347
46
348
0
  0
LAYER
  5
75
330
2
100
AcDbSymbolTableRecord
100
AcDbLayerTableRecord
  2
ConnectionPoints
 70
     0
 62
    -1
  6
Continuous
370
     5
390
F
347
46
348
0
  0
ENDTAB
  0
TABLE
  2
STYLE
  5
3
330
0
100
AcDbSymbolTable
 70
     1
  0
STYLE
  5
11
330
3
100
AcDbSymbolTableRecord
100
AcDbTextStyleTableRecord
  2
Standard
 70
     0
 40
0.0
 41
1.0
 50
0.0
 71
     0
 42
2.5
  3
txt
  4

  0
ENDTAB
  0
TABLE
  2
VIEW
  5
6
330
0
100
AcDbSymbolTable
 70
     0
  0
ENDTAB
  0
TABLE
  2
UCS
  5
7
330
0
100
AcDbSymbolTable
 70
     0
  0
ENDTAB
  0
TABLE
  2
APPID
  5
9
330
0
100
AcDbSymbolTable
 70
     1
  0
APPID
  5
12
330
9
100
AcDbSymbolTableRecord
100
AcDbRegAppTableRecord
  2
ACAD
 70
     0
  0
ENDTAB
  0
TABLE
  2
DIMSTYLE
  5
A
330
0
100
AcDbSymbolTable
 70
     1
100
AcDbDimStyleTable
  0
DIMSTYLE
105
27
330
A
100
AcDbSymbolTableRecord
100
AcDbDimStyleTableRecord
  2
ISO-25
 70
     0
 41
2.5
 42
0.625
 43
3.75
 44
1.25
 73
     0
 74
     0
 77
     1
 78
     8
140
2.5
141
2.5
143
0.03937007874016
147
0.625
171
     3
172
     1
178
     0
271
     2
272
     2
274
     3
278
    44
283
     0
284
     8
340
11
  0
ENDTAB
  0
TABLE
  2
BLOCK_RECORD
  5
1
330
0
100
AcDbSymbolTable
 70
     1
  0
BLOCK_RECORD
  5
1F
330
1
100
AcDbSymbolTableRecord
100
AcDbBlockTableRecord
  2
*Model_Space
340
22
 70
     0
280
     1
281
     0
  0
BLOCK_RECORD
  5
1B
330
1
100
AcDbSymbolTableRecord
100
AcDbBlockTableRecord
  2
*Paper_Space
340
1E
 70
     0
280
     1
281
     0
  0
BLOCK_RECORD
  5
23
330
1
100
AcDbSymbolTableRecord
100
AcDbBlockTableRecord
  2
*Paper_Space0
340
26
 70
     0
280
     1
281
     0
  0
ENDTAB
  0
ENDSEC
  0
SECTION
  2
BLOCKS
  0
BLOCK
  5
20
330
1F
100
AcDbEntity
  8
0
100
AcDbBlockBegin
  2
*Model_Space
 70
     0
 10
0.0
 20
0.0
 30
0.0
  3
*Model_Space
  1
*Model_Space
  0
ENDBLK
  5
21
330
1F
100
AcDbEntity
  8
0
100
AcDbBlockEnd
  0
BLOCK
  5
1C
330
1B
100
AcDbEntity
 67
     1
  8
0
100
AcDbBlockBegin
  2
*Paper_Space
 70
     0
 10
0.0
 20
0.0
 30
0.0
  3
*Paper_Space
  1
*Paper_Space
  0
ENDBLK
  5
1D
330
1B
100
AcDbEntity
 67
     1
  8
0
100
AcDbBlockEnd
  0
BLOCK
  5
24
330
23
100
AcDbEntity
  8
0
100
AcDbBlockBegin
  2
*Paper_Space0
 70
     0
 10
0.0
 20
0.0
 30
0.0
  3
*Paper_Space0
  1
*Paper_Space0
  0
ENDBLK
  5
25
330
23
100
AcDbEntity
  8
0
100
AcDbBlockEnd
  0
ENDSEC
  0
SECTION
  2
ENTITIES
  0
ATTDEF
  5
76
330
1F
100
AcDbEntity
  8
attrib
100
AcDbText
 10
25.0
 20
20.0
 30
0.0
 40
2.5
  1
NEFS8-4040, NEFSB8-4040, EFS8-4040, EFSB8-4040, HFS8-4040, HFSB8-4040, CAF8-4040, HFSY8-4040, HFSL8-4040, HFSLB8-4040, GFS8-4040
100
AcDbAttributeDefinition
  3

  2
NN
 70
     8
280
     0
  0
ATTDEF
  5
77
330
1F
100
AcDbEntity
  8
attrib
100
AcDbText
 10
25.0
 20
17.0
 30
0.0
 40
2.5
  1
HFS8 Series Aluminum Extrusions 40 Square -1 Slot-
100
AcDbAttributeDefinition
  3

  2
NT
 70
     8
280
     0
  0
ATTDEF
  5
78
330
1F
100
AcDbEntity
  8
attrib
100
AcDbText
 10
25.0
 20
14.0
 30
0.0
 40
2.5
  1
HFS8-4040-3000
100
AcDbAttributeDefinition
  3

  2
NB
 70
     8
280
     0
  0
ATTDEF
  5
79
330
1F
100
AcDbEntity
  8
attrib
100
AcDbText
 10
25.0
 20
11.0
 30
0.0
 40
2.5
  1
$PN.
100
AcDbAttributeDefinition
  3

  2
NBSYN
 70
     8
280
     0
  0
ATTDEF
  5
7A
330
1F
100
AcDbEntity
  8
attrib
100
AcDbText
 10
25.0
 20
8.0
 30
0.0
 40
2.5
  1
HFS8-4040-3000
100
AcDbAttributeDefinition
  3

  2
LINA
 70
     8
280
     0
  0
ATTDEF
  5
7B
330
1F
100
AcDbEntity
  8
attrib
100
AcDbText
 10
25.0
 20
5.0
 30
0.0
 40
2.5
  1
HFS8-4040-3000
100
AcDbAttributeDefinition
  3

  2
PN
 70
     8
280
     0
  0
ATTDEF
  5
7C
330
1F
100
AcDbEntity
  8
attrib
100
AcDbText
 10
25.0
 20
2.0
 30
0.0
 40
2.5
  1
HFS8-4040
100
AcDbAttributeDefinition
  3

  2
TPS
 70
     8
280
     0
  0
ATTDEF
  5
7D
330
1F
100
AcDbEntity
  8
attrib
100
AcDbText
 10
25.0
 20
-1.0
 30
0.0
 40
2.5
  1
A6N01SS-T5 Aluminum Alloy
100
AcDbAttributeDefinition
  3

  2
MAT
 70
     8
280
     0
  0
ATTDEF
  5
7E
330
1F
100
AcDbEntity
  8
attrib
100
AcDbText
 10
25.0
 20
-4.0
 30
0.0
 40
2.5
  1
Clear Anodize
100
AcDbAttributeDefinition
  3

  2
ST
 70
     8
280
     0
  0
ATTDEF
  5
7F
330
1F
100
AcDbEntity
  8
attrib
100
AcDbText
 10
25.0
 20
-7.0
 30
0.0
 40
2.5
  1
40
100
AcDbAttributeDefinition
  3

  2
FRMW
 70
     8
280
     0
  0
ATTDEF
  5
80
330
1F
100
AcDbEntity
  8
attrib
100
AcDbText
 10
25.0
 20
-10.0
 30
0.0
 40
2.5
  1
40
100
AcDbAttributeDefinition
  3

  2
FRMH
 70
     8
280
     0
  0
ATTDEF
  5
81
330
1F
100
AcDbEntity
  8
attrib
100
AcDbText
 10
25.0
 20
-13.0
 30
0.0
 40
2.5
  1
10.5
100
AcDbAttributeDefinition
  3

  2
FRD
 70
     8
280
     0
  0
ATTDEF
  5
82
330
1F
100
AcDbEntity
  8
attrib
100
AcDbText
 10
25.0
 20
-16.0
 30
0.0
 40
2.5
  1
3000.0
100
AcDbAttributeDefinition
  3

  2
L
 70
     8
280
     0
  0
ATTDEF
  5
83
330
1F
100
AcDbEntity
  8
attrib
100
AcDbText
 10
25.0
 20
-19.0
 30
0.0
 40
2.5
  1
1.73
100
AcDbAttributeDefinition
  3

  2
MASS
 70
     8
280
     0
  0
ATTDEF
  5
84
330
1F
100
AcDbEntity
  8
attrib
100
AcDbText
 10
25.0
 20
-22.0
 30
0.0
 40
2.5
  1
640
100
AcDbAttributeDefinition
  3

  2
SA
 70
     8
280
     0
  0
ATTDEF
  5
85
330
1F
100
AcDbEntity
  8
attrib
100
AcDbText
 10
25.0
 20
-25.0
 30
0.0
 40
2.5
  1
10.4x10^ 4
100
AcDbAttributeDefinition
  3

  2
LX
 70
     8
280
     0
  0
ATTDEF
  5
86
330
1F
100
AcDbEntity
  8
attrib
100
AcDbText
 10
25.0
 20
-28.0
 30
0.0
 40
2.5
  1
10.4x10^ 4
100
AcDbAttributeDefinition
  3

  2
LY
 70
     8
280
     0
  0
ATTDEF
  5
87
330
1F
100
AcDbEntity
  8
attrib
100
AcDbText
 10
25.0
 20
-31.0
 30
0.0
 40
2.5
  1
w/o End Tapping
100
AcDbAttributeDefinition
  3

  2
ALT1
 70
     8
280
     0
  0
ATTDEF
  5
88
330
1F
100
AcDbEntity
  8
attrib
100
AcDbText
 10
25.0
 20
-34.0
 30
0.0
 40
2.5
  1
0
100
AcDbAttributeDefinition
  3

  2
M1
 70
     8
280
     0
  0
ATTDEF
  5
89
330
1F
100
AcDbEntity
  8
attrib
100
AcDbText
 10
25.0
 20
-37.0
 30
0.0
 40
2.5
  1
10.106
100
AcDbAttributeDefinition
  3

  2
IDM1
 70
     8
280
     0
  0
ATTDEF
  5
8A
330
1F
100
AcDbEntity
  8
attrib
100
AcDbText
 10
25.0
 20
-40.0
 30
0.0
 40
2.5
  1
0
100
AcDbAttributeDefinition
  3

  2
DPL1
 70
     8
280
     0
  0
ATTDEF
  5
8B
330
1F
100
AcDbEntity
  8
attrib
100
AcDbText
 10
25.0
 20
-43.0
 30
0.0
 40
2.5
  1
0
100
AcDbAttributeDefinition
  3

  2
DPR1
 70
     8
280
     0
  0
ATTDEF
  5
8C
330
1F
100
AcDbEntity
  8
attrib
100
AcDbText
 10
25.0
 20
-46.0
 30
0.0
 40
2.5
  1

100
AcDbAttributeDefinition
  3

  2
ALT1PN
 70
     8
280
     0
  0
ATTDEF
  5
8D
330
1F
100
AcDbEntity
  8
attrib
100
AcDbText
 10
25.0
 20
-49.0
 30
0.0
 40
2.5
  1
w/o End Tapping (Heli-Coil Insert)
100
AcDbAttributeDefinition
  3

  2
ALT2
 70
     8
280
     0
  0
ATTDEF
  5
8E
330
1F
100
AcDbEntity
  8
attrib
100
AcDbText
 10
25.0
 20
-52.0
 30
0.0
 40
2.5
  1
 '','w/o End Tapping (Heli-Coil Insert)','LHP','with LHP (Tapping on the Left (Heli-Coil Insert))','RHP','with RHP (Tapping on the Right (Heli-Coil Insert))','HPW','with HPW (Tapping on Both Ends (Heli-Coil Insert))' 
100
AcDbAttributeDefinition
  3

  2
ALT2ALG
 70
     8
280
     0
  0
ATTDEF
  5
8F
330
1F
100
AcDbEntity
  8
attrib
100
AcDbText
 10
25.0
 20
-55.0
 30
0.0
 40
2.5
  1
0
100
AcDbAttributeDefinition
  3

  2
M2
 70
     8
280
     0
  0
ATTDEF
  5
90
330
1F
100
AcDbEntity
  8
attrib
100
AcDbText
 10
25.0
 20
-58.0
 30
0.0
 40
2.5
  1
0
100
AcDbAttributeDefinition
  3

  2
DP2
 70
     8
280
     0
  0
ATTDEF
  5
91
330
1F
100
AcDbEntity
  8
attrib
100
AcDbText
 10
25.0
 20
-61.0
 30
0.0
 40
2.5
  1

100
AcDbAttributeDefinition
  3

  2
ALT2PN
 70
     8
280
     0
  0
ATTDEF
  5
92
330
1F
100
AcDbEntity
  8
attrib
100
AcDbText
 10
25.0
 20
-64.0
 30
0.0
 40
2.5
  1
Not applicable
100
AcDbAttributeDefinition
  3

  2
ALT4
 70
     8
280
     0
  0
ATTDEF
  5
93
330
1F
100
AcDbEntity
  8
attrib
100
AcDbText
 10
25.0
 20
-67.0
 30
0.0
 40
2.5
  1
 '', 'Not applicable' 
100
AcDbAttributeDefinition
  3

  2
ALT4ALG
 70
     8
280
     0
  0
ATTDEF
  5
94
330
1F
100
AcDbEntity
  8
attrib
100
AcDbText
 10
25.0
 20
-70.0
 30
0.0
 40
2.5
  1

100
AcDbAttributeDefinition
  3

  2
ALT4PN
 70
     8
280
     0
  0
ATTDEF
  5
95
330
1F
100
AcDbEntity
  8
attrib
100
AcDbText
 10
25.0
 20
-73.0
 30
0.0
 40
2.5
  1
w/o 45 Degree Cut
100
AcDbAttributeDefinition
  3

  2
ALT5
 70
     8
280
     0
  0
ATTDEF
  5
96
330
1F
100
AcDbEntity
  8
attrib
100
AcDbText
 10
25.0
 20
-76.0
 30
0.0
 40
2.5
  1
 '','w/o 45 Degree Cut','1','with 45 Degree Cut' 
100
AcDbAttributeDefinition
  3

  2
ALT5ALG
 70
     8
280
     0
  0
ATTDEF
  5
97
330
1F
100
AcDbEntity
  8
attrib
100
AcDbText
 10
25.0
 20
-79.0
 30
0.0
 40
2.5
  1
N/A
100
AcDbAttributeDefinition
  3

  2
CP5
 70
     8
280
     0
  0
ATTDEF
  5
98
330
1F
100
AcDbEntity
  8
attrib
100
AcDbText
 10
25.0
 20
-82.0
 30
0.0
 40
2.5
  1
 '','N/A' 
100
AcDbAttributeDefinition
  3

  2
CP5ALG
 70
     8
280
     0
  0
ATTDEF
  5
99
330
1F
100
AcDbEntity
  8
attrib
100
AcDbText
 10
25.0
 20
-85.0
 30
0.0
 40
2.5
  1
N/A
100
AcDbAttributeDefinition
  3

  2
DL5
 70
     8
280
     0
  0
ATTDEF
  5
9A
330
1F
100
AcDbEntity
  8
attrib
100
AcDbText
 10
25.0
 20
-88.0
 30
0.0
 40
2.5
  1
 '','N/A' 
100
AcDbAttributeDefinition
  3

  2
DL5ALG
 70
     8
280
     0
  0
ATTDEF
  5
9B
330
1F
100
AcDbEntity
  8
attrib
100
AcDbText
 10
25.0
 20
-91.0
 30
0.0
 40
2.5
  1
N/A
100
AcDbAttributeDefinition
  3

  2
DR5
 70
     8
280
     0
  0
ATTDEF
  5
9C
330
1F
100
AcDbEntity
  8
attrib
100
AcDbText
 10
25.0
 20
-94.0
 30
0.0
 40
2.5
  1
 '','N/A' 
100
AcDbAttributeDefinition
  3

  2
DR5ALG
 70
     8
280
     0
  0
ATTDEF
  5
9D
330
1F
100
AcDbEntity
  8
attrib
100
AcDbText
 10
25.0
 20
-97.0
 30
0.0
 40
2.5
  1
0.000
100
AcDbAttributeDefinition
  3

  2
FRMLALT5
 70
     8
280
     0
  0
ATTDEF
  5
9E
330
1F
100
AcDbEntity
  8
attrib
100
AcDbText
 10
25.0
 20
-100.0
 30
0.0
 40
2.5
  1
0.000
100
AcDbAttributeDefinition
  3

  2
FRMRALT5
 70
     8
280
     0
  0
ATTDEF
  5
9F
330
1F
100
AcDbEntity
  8
attrib
100
AcDbText
 10
25.0
 20
-103.0
 30
0.0
 40
2.5
  1

100
AcDbAttributeDefinition
  3

  2
ALT5PN
 70
     8
280
     0
  0
ATTDEF
  5
A0
330
1F
100
AcDbEntity
  8
attrib
100
AcDbText
 10
25.0
 20
-106.0
 30
0.0
 40
2.5
  1
w/o Fastening Location Wrench Access Hole Alterations
100
AcDbAttributeDefinition
  3

  2
ALT6
 70
     8
280
     0
  0
ATTDEF
  5
A1
330
1F
100
AcDbEntity
  8
attrib
100
AcDbText
 10
25.0
 20
-109.0
 30
0.0
 40
2.5
  1
 '','w/o Fastening Location Wrench Access Hole Alterations','1','with Fastening Location Wrench Access Hole Alterations' 
100
AcDbAttributeDefinition
  3

  2
ALT6ALG
 70
     8
280
     0
  0
ATTDEF
  5
A2
330
1F
100
AcDbEntity
  8
attrib
100
AcDbText
 10
25.0
 20
-112.0
 30
0.0
 40
2.5
  1
w/o Location Specified Wrench Access Hole Alteratons (Horizontal)
100
AcDbAttributeDefinition
  3

  2
ALT9
 70
     8
280
     0
  0
ATTDEF
  5
A3
330
1F
100
AcDbEntity
  8
attrib
100
AcDbText
 10
25.0
 20
-115.0
 30
0.0
 40
2.5
  1
 '','w/o Location Specified Wrench Access Hole Alteratons (Horizontal)','1','with Location Specified Wrench Access Hole Alteratons (Horizontal)' 
100
AcDbAttributeDefinition
  3

  2
ALT9ALG
 70
     8
280
     0
  0
ATTDEF
  5
A4
330
1F
100
AcDbEntity
  8
attrib
100
AcDbText
 10
25.0
 20
-118.0
 30
0.0
 40
2.5
  1
w/o Location Specified Wrench Access Hole Alteratons (Vertical)
100
AcDbAttributeDefinition
  3

  2
ALT10
 70
     8
280
     0
  0
ATTDEF
  5
A5
330
1F
100
AcDbEntity
  8
attrib
100
AcDbText
 10
25.0
 20
-121.0
 30
0.0
 40
2.5
  1
 '','w/o Location Specified Wrench Access Hole Alteratons (Vertical)','1','with Location Specified Wrench Access Hole Alteratons (Vertical)' 
100
AcDbAttributeDefinition
  3

  2
ALT10ALG
 70
     8
280
     0
  0
ATTDEF
  5
A6
330
1F
100
AcDbEntity
  8
attrib
100
AcDbText
 10
25.0
 20
-124.0
 30
0.0
 40
2.5
  1
w/o Location Specified Wrench Access Hole Alteratons (Crisscross)
100
AcDbAttributeDefinition
  3

  2
ALT11
 70
     8
280
     0
  0
ATTDEF
  5
A7
330
1F
100
AcDbEntity
  8
attrib
100
AcDbText
 10
25.0
 20
-127.0
 30
0.0
 40
2.5
  1
 '','w/o Location Specified Wrench Access Hole Alteratons (Crisscross)','1','with Location Specified Wrench Access Hole Alteratons (Crisscross)' 
100
AcDbAttributeDefinition
  3

  2
ALT11ALG
 70
     8
280
     0
  0
ATTDEF
  5
A8
330
1F
100
AcDbEntity
  8
attrib
100
AcDbText
 10
25.0
 20
-130.0
 30
0.0
 40
2.5
  1
N/A
100
AcDbAttributeDefinition
  3

  2
HP6
 70
     8
280
     0
  0
ATTDEF
  5
A9
330
1F
100
AcDbEntity
  8
attrib
100
AcDbText
 10
25.0
 20
-133.0
 30
0.0
 40
2.5
  1
 '','N/A' 
100
AcDbAttributeDefinition
  3

  2
HP6ALG
 70
     8
280
     0
  0
ATTDEF
  5
AA
330
1F
100
AcDbEntity
  8
attrib
100
AcDbText
 10
25.0
 20
-136.0
 30
0.0
 40
2.5
  1
N/A
100
AcDbAttributeDefinition
  3

  2
NHL6
 70
     8
280
     0
  0
ATTDEF
  5
AB
330
1F
100
AcDbEntity
  8
attrib
100
AcDbText
 10
25.0
 20
-139.0
 30
0.0
 40
2.5
  1
 '','N/A' 
100
AcDbAttributeDefinition
  3

  2
NHL6ALG
 70
     8
280
     0
  0
ATTDEF
  5
AC
330
1F
100
AcDbEntity
  8
attrib
100
AcDbText
 10
25.0
 20
-142.0
 30
0.0
 40
2.5
  1
N/A
100
AcDbAttributeDefinition
  3

  2
DL6
 70
     8
280
     0
  0
ATTDEF
  5
AD
330
1F
100
AcDbEntity
  8
attrib
100
AcDbText
 10
25.0
 20
-145.0
 30
0.0
 40
2.5
  1
 '','N/A' 
100
AcDbAttributeDefinition
  3

  2
DL6ALG
 70
     8
280
     0
  0
ATTDEF
  5
AE
330
1F
100
AcDbEntity
  8
attrib
100
AcDbText
 10
25.0
 20
-148.0
 30
0.0
 40
2.5
  1
N/A
100
AcDbAttributeDefinition
  3

  2
NHR6
 70
     8
280
     0
  0
ATTDEF
  5
AF
330
1F
100
AcDbEntity
  8
attrib
100
AcDbText
 10
25.0
 20
-151.0
 30
0.0
 40
2.5
  1
 '','N/A' 
100
AcDbAttributeDefinition
  3

  2
NHR6ALG
 70
     8
280
     0
  0
ATTDEF
  5
B0
330
1F
100
AcDbEntity
  8
attrib
100
AcDbText
 10
25.0
 20
-154.0
 30
0.0
 40
2.5
  1
N/A
100
AcDbAttributeDefinition
  3

  2
DR6
 70
     8
280
     0
  0
ATTDEF
  5
B1
330
1F
100
AcDbEntity
  8
attrib
100
AcDbText
 10
25.0
 20
-157.0
 30
0.0
 40
2.5
  1
 '','N/A' 
100
AcDbAttributeDefinition
  3

  2
DR6ALG
 70
     8
280
     0
  0
ATTDEF
  5
B2
330
1F
100
AcDbEntity
  8
attrib
100
AcDbText
 10
25.0
 20
-160.0
 30
0.0
 40
2.5
  1
0
100
AcDbAttributeDefinition
  3

  2
HL6
 70
     8
280
     0
  0
ATTDEF
  5
B3
330
1F
100
AcDbEntity
  8
attrib
100
AcDbText
 10
25.0
 20
-163.0
 30
0.0
 40
2.5
  1
0
100
AcDbAttributeDefinition
  3

  2
HL6D
 70
     8
280
     0
  0
ATTDEF
  5
B4
330
1F
100
AcDbEntity
  8
attrib
100
AcDbText
 10
25.0
 20
-166.0
 30
0.0
 40
2.5
  1
0
100
AcDbAttributeDefinition
  3

  2
HR6
 70
     8
280
     0
  0
ATTDEF
  5
B5
330
1F
100
AcDbEntity
  8
attrib
100
AcDbText
 10
25.0
 20
-169.0
 30
0.0
 40
2.5
  1
0
100
AcDbAttributeDefinition
  3

  2
HR6D
 70
     8
280
     0
  0
ATTDEF
  5
B6
330
1F
100
AcDbEntity
  8
attrib
100
AcDbText
 10
25.0
 20
-172.0
 30
0.0
 40
2.5
  1
0
100
AcDbAttributeDefinition
  3

  2
J6
 70
     8
280
     0
  0
ATTDEF
  5
B7
330
1F
100
AcDbEntity
  8
attrib
100
AcDbText
 10
25.0
 20
-175.0
 30
0.0
 40
2.5
  1
0
100
AcDbAttributeDefinition
  3

  2
J6D
 70
     8
280
     0
  0
ATTDEF
  5
B8
330
1F
100
AcDbEntity
  8
attrib
100
AcDbText
 10
25.0
 20
-178.0
 30
0.0
 40
2.5
  1
0
100
AcDbAttributeDefinition
  3

  2
K6
 70
     8
280
     0
  0
ATTDEF
  5
B9
330
1F
100
AcDbEntity
  8
attrib
100
AcDbText
 10
25.0
 20
-181.0
 30
0.0
 40
2.5
  1
0
100
AcDbAttributeDefinition
  3

  2
K6D
 70
     8
280
     0
  0
ATTDEF
  5
BA
330
1F
100
AcDbEntity
  8
attrib
100
AcDbText
 10
25.0
 20
-184.0
 30
0.0
 40
2.5
  1
0
100
AcDbAttributeDefinition
  3

  2
DD6
 70
     8
280
     0
  0
ATTDEF
  5
BB
330
1F
100
AcDbEntity
  8
attrib
100
AcDbText
 10
25.0
 20
-187.0
 30
0.0
 40
2.5
  1
0.000
100
AcDbAttributeDefinition
  3

  2
DD6ALG
 70
     8
280
     0
  0
ATTDEF
  5
BC
330
1F
100
AcDbEntity
  8
attrib
100
AcDbText
 10
25.0
 20
-190.0
 30
0.0
 40
2.5
  1
N/A
100
AcDbAttributeDefinition
  3

  2
ALT7
 70
     8
280
     0
  0
ATTDEF
  5
BD
330
1F
100
AcDbEntity
  8
attrib
100
AcDbText
 10
25.0
 20
-193.0
 30
0.0
 40
2.5
  1
 '','N/A' 
100
AcDbAttributeDefinition
  3

  2
ALT7ALG
 70
     8
280
     0
  0
ATTDEF
  5
BE
330
1F
100
AcDbEntity
  8
attrib
100
AcDbText
 10
25.0
 20
-196.0
 30
0.0
 40
2.5
  1
N/A
100
AcDbAttributeDefinition
  3

  2
ALT8
 70
     8
280
     0
  0
ATTDEF
  5
BF
330
1F
100
AcDbEntity
  8
attrib
100
AcDbText
 10
25.0
 20
-199.0
 30
0.0
 40
2.5
  1
 '','N/A' 
100
AcDbAttributeDefinition
  3

  2
ALT8ALG
 70
     8
280
     0
  0
ATTDEF
  5
C0
330
1F
100
AcDbEntity
  8
attrib
100
AcDbText
 10
25.0
 20
-202.0
 30
0.0
 40
2.5
  1

100
AcDbAttributeDefinition
  3

  2
ALT678PN
 70
     8
280
     0
  0
ATTDEF
  5
C1
330
1F
100
AcDbEntity
  8
attrib
100
AcDbText
 10
25.0
 20
-205.0
 30
0.0
 40
2.5
  1
0
100
AcDbAttributeDefinition
  3

  2
NH9
 70
     8
280
     0
  0
ATTDEF
  5
C2
330
1F
100
AcDbEntity
  8
attrib
100
AcDbText
 10
25.0
 20
-208.0
 30
0.0
 40
2.5
  1
5.000
100
AcDbAttributeDefinition
  3

  2
NH9MAX
 70
     8
280
     0
  0
ATTDEF
  5
C3
330
1F
100
AcDbEntity
  8
attrib
100
AcDbText
 10
25.0
 20
-211.0
 30
0.0
 40
2.5
  1
[0]
100
AcDbAttributeDefinition
  3

  2
NH9ALG
 70
     8
280
     0
  0
ATTDEF
  5
C4
330
1F
100
AcDbEntity
  8
attrib
100
AcDbText
 10
25.0
 20
-214.0
 30
0.0
 40
2.5
  1
0.0
100
AcDbAttributeDefinition
  3

  2
AH
 70
     8
280
     0
  0
ATTDEF
  5
C5
330
1F
100
AcDbEntity
  8
attrib
100
AcDbText
 10
25.0
 20
-217.0
 30
0.0
 40
2.5
  1
7.000
100
AcDbAttributeDefinition
  3

  2
AHMIN
 70
     8
280
     0
  0
ATTDEF
  5
C6
330
1F
100
AcDbEntity
  8
attrib
100
AcDbText
 10
25.0
 20
-220.0
 30
0.0
 40
2.5
  1
2995.000
100
AcDbAttributeDefinition
  3

  2
AHMAX
 70
     8
280
     0
  0
ATTDEF
  5
C7
330
1F
100
AcDbEntity
  8
attrib
100
AcDbText
 10
25.0
 20
-223.0
 30
0.0
 40
2.5
  1
[0]
100
AcDbAttributeDefinition
  3

  2
AHALG
 70
     8
280
     0
  0
ATTDEF
  5
C8
330
1F
100
AcDbEntity
  8
attrib
100
AcDbText
 10
25.0
 20
-226.0
 30
0.0
 40
2.5
  1
0.0
100
AcDbAttributeDefinition
  3

  2
BH
 70
     8
280
     0
  0
ATTDEF
  5
C9
330
1F
100
AcDbEntity
  8
attrib
100
AcDbText
 10
25.0
 20
-229.0
 30
0.0
 40
2.5
  1
2.000
100
AcDbAttributeDefinition
  3

  2
BHMIN
 70
     8
280
     0
  0
ATTDEF
  5
CA
330
1F
100
AcDbEntity
  8
attrib
100
AcDbText
 10
25.0
 20
-232.0
 30
0.0
 40
2.5
  1
2997.000
100
AcDbAttributeDefinition
  3

  2
BHMAX
 70
     8
280
     0
  0
ATTDEF
  5
CB
330
1F
100
AcDbEntity
  8
attrib
100
AcDbText
 10
25.0
 20
-235.0
 30
0.0
 40
2.5
  1
[0]
100
AcDbAttributeDefinition
  3

  2
BHALG
 70
     8
280
     0
  0
ATTDEF
  5
CC
330
1F
100
AcDbEntity
  8
attrib
100
AcDbText
 10
25.0
 20
-238.0
 30
0.0
 40
2.5
  1
0.0
100
AcDbAttributeDefinition
  3

  2
CH
 70
     8
280
     0
  0
ATTDEF
  5
CD
330
1F
100
AcDbEntity
  8
attrib
100
AcDbText
 10
25.0
 20
-241.0
 30
0.0
 40
2.5
  1
2.000
100
AcDbAttributeDefinition
  3

  2
CHMIN
 70
     8
280
     0
  0
ATTDEF
  5
CE
330
1F
100
AcDbEntity
  8
attrib
100
AcDbText
 10
25.0
 20
-244.0
 30
0.0
 40
2.5
  1
2999.000
100
AcDbAttributeDefinition
  3

  2
CHMAX
 70
     8
280
     0
  0
ATTDEF
  5
CF
330
1F
100
AcDbEntity
  8
attrib
100
AcDbText
 10
25.0
 20
-247.0
 30
0.0
 40
2.5
  1
[0]
100
AcDbAttributeDefinition
  3

  2
CHALG
 70
     8
280
     0
  0
ATTDEF
  5
D0
330
1F
100
AcDbEntity
  8
attrib
100
AcDbText
 10
25.0
 20
-250.0
 30
0.0
 40
2.5
  1
0.0
100
AcDbAttributeDefinition
  3

  2
DH
 70
     8
280
     0
  0
ATTDEF
  5
D1
330
1F
100
AcDbEntity
  8
attrib
100
AcDbText
 10
25.0
 20
-253.0
 30
0.0
 40
2.5
  1
2.000
100
AcDbAttributeDefinition
  3

  2
DHMIN
 70
     8
280
     0
  0
ATTDEF
  5
D2
330
1F
100
AcDbEntity
  8
attrib
100
AcDbText
 10
25.0
 20
-256.0
 30
0.0
 40
2.5
  1
3001.000
100
AcDbAttributeDefinition
  3

  2
DHMAX
 70
     8
280
     0
  0
ATTDEF
  5
D3
330
1F
100
AcDbEntity
  8
attrib
100
AcDbText
 10
25.0
 20
-259.0
 30
0.0
 40
2.5
  1
[0]
100
AcDbAttributeDefinition
  3

  2
DHALG
 70
     8
280
     0
  0
ATTDEF
  5
D4
330
1F
100
AcDbEntity
  8
attrib
100
AcDbText
 10
25.0
 20
-262.0
 30
0.0
 40
2.5
  1
0.0
100
AcDbAttributeDefinition
  3

  2
EH
 70
     8
280
     0
  0
ATTDEF
  5
D5
330
1F
100
AcDbEntity
  8
attrib
100
AcDbText
 10
25.0
 20
-265.0
 30
0.0
 40
2.5
  1
2.000
100
AcDbAttributeDefinition
  3

  2
EHMIN
 70
     8
280
     0
  0
ATTDEF
  5
D6
330
1F
100
AcDbEntity
  8
attrib
100
AcDbText
 10
25.0
 20
-268.0
 30
0.0
 40
2.5
  1
2993.000
100
AcDbAttributeDefinition
  3

  2
EHMAX
 70
     8
280
     0
  0
ATTDEF
  5
D7
330
1F
100
AcDbEntity
  8
attrib
100
AcDbText
 10
25.0
 20
-271.0
 30
0.0
 40
2.5
  1
[0]
100
AcDbAttributeDefinition
  3

  2
EHALG
 70
     8
280
     0
  0
ATTDEF
  5
D8
330
1F
100
AcDbEntity
  8
attrib
100
AcDbText
 10
25.0
 20
-274.0
 30
0.0
 40
2.5
  1
0
100
AcDbAttributeDefinition
  3

  2
NH10
 70
     8
280
     0
  0
ATTDEF
  5
D9
330
1F
100
AcDbEntity
  8
attrib
100
AcDbText
 10
25.0
 20
-277.0
 30
0.0
 40
2.5
  1
5.000
100
AcDbAttributeDefinition
  3

  2
NH10MAX
 70
     8
280
     0
  0
ATTDEF
  5
DA
330
1F
100
AcDbEntity
  8
attrib
100
AcDbText
 10
25.0
 20
-280.0
 30
0.0
 40
2.5
  1
[0]
100
AcDbAttributeDefinition
  3

  2
NH10ALG
 70
     8
280
     0
  0
ATTDEF
  5
DB
330
1F
100
AcDbEntity
  8
attrib
100
AcDbText
 10
25.0
 20
-283.0
 30
0.0
 40
2.5
  1
0.0
100
AcDbAttributeDefinition
  3

  2
AV
 70
     8
280
     0
  0
ATTDEF
  5
DC
330
1F
100
AcDbEntity
  8
attrib
100
AcDbText
 10
25.0
 20
-286.0
 30
0.0
 40
2.5
  1
7.000
100
AcDbAttributeDefinition
  3

  2
AVMIN
 70
     8
280
     0
  0
ATTDEF
  5
DD
330
1F
100
AcDbEntity
  8
attrib
100
AcDbText
 10
25.0
 20
-289.0
 30
0.0
 40
2.5
  1
2995.000
100
AcDbAttributeDefinition
  3

  2
AVMAX
 70
     8
280
     0
  0
ATTDEF
  5
DE
330
1F
100
AcDbEntity
  8
attrib
100
AcDbText
 10
25.0
 20
-292.0
 30
0.0
 40
2.5
  1
[0]
100
AcDbAttributeDefinition
  3

  2
AVALG
 70
     8
280
     0
  0
ATTDEF
  5
DF
330
1F
100
AcDbEntity
  8
attrib
100
AcDbText
 10
25.0
 20
-295.0
 30
0.0
 40
2.5
  1
0.0
100
AcDbAttributeDefinition
  3

  2
BV
 70
     8
280
     0
  0
ATTDEF
  5
E0
330
1F
100
AcDbEntity
  8
attrib
100
AcDbText
 10
25.0
 20
-298.0
 30
0.0
 40
2.5
  1
2.000
100
AcDbAttributeDefinition
  3

  2
BVMIN
 70
     8
280
     0
  0
ATTDEF
  5
E1
330
1F
100
AcDbEntity
  8
attrib
100
AcDbText
 10
25.0
 20
-301.0
 30
0.0
 40
2.5
  1
2997.000
100
AcDbAttributeDefinition
  3

  2
BVMAX
 70
     8
280
     0
  0
ATTDEF
  5
E2
330
1F
100
AcDbEntity
  8
attrib
100
AcDbText
 10
25.0
 20
-304.0
 30
0.0
 40
2.5
  1
[0]
100
AcDbAttributeDefinition
  3

  2
BVALG
 70
     8
280
     0
  0
ATTDEF
  5
E3
330
1F
100
AcDbEntity
  8
attrib
100
AcDbText
 10
25.0
 20
-307.0
 30
0.0
 40
2.5
  1
0.0
100
AcDbAttributeDefinition
  3

  2
CV
 70
     8
280
     0
  0
ATTDEF
  5
E4
330
1F
100
AcDbEntity
  8
attrib
100
AcDbText
 10
25.0
 20
-310.0
 30
0.0
 40
2.5
  1
2.000
100
AcDbAttributeDefinition
  3

  2
CVMIN
 70
     8
280
     0
  0
ATTDEF
  5
E5
330
1F
100
AcDbEntity
  8
attrib
100
AcDbText
 10
25.0
 20
-313.0
 30
0.0
 40
2.5
  1
2999.000
100
AcDbAttributeDefinition
  3

  2
CVMAX
 70
     8
280
     0
  0
ATTDEF
  5
E6
330
1F
100
AcDbEntity
  8
attrib
100
AcDbText
 10
25.0
 20
-316.0
 30
0.0
 40
2.5
  1
[0]
100
AcDbAttributeDefinition
  3

  2
CVALG
 70
     8
280
     0
  0
ATTDEF
  5
E7
330
1F
100
AcDbEntity
  8
attrib
100
AcDbText
 10
25.0
 20
-319.0
 30
0.0
 40
2.5
  1
0.0
100
AcDbAttributeDefinition
  3

  2
DV
 70
     8
280
     0
  0
ATTDEF
  5
E8
330
1F
100
AcDbEntity
  8
attrib
100
AcDbText
 10
25.0
 20
-322.0
 30
0.0
 40
2.5
  1
2.000
100
AcDbAttributeDefinition
  3

  2
DVMIN
 70
     8
280
     0
  0
ATTDEF
  5
E9
330
1F
100
AcDbEntity
  8
attrib
100
AcDbText
 10
25.0
 20
-325.0
 30
0.0
 40
2.5
  1
3001.000
100
AcDbAttributeDefinition
  3

  2
DVMAX
 70
     8
280
     0
  0
ATTDEF
  5
EA
330
1F
100
AcDbEntity
  8
attrib
100
AcDbText
 10
25.0
 20
-328.0
 30
0.0
 40
2.5
  1
[0]
100
AcDbAttributeDefinition
  3

  2
DVALG
 70
     8
280
     0
  0
ATTDEF
  5
EB
330
1F
100
AcDbEntity
  8
attrib
100
AcDbText
 10
25.0
 20
-331.0
 30
0.0
 40
2.5
  1
0.0
100
AcDbAttributeDefinition
  3

  2
EV
 70
     8
280
     0
  0
ATTDEF
  5
EC
330
1F
100
AcDbEntity
  8
attrib
100
AcDbText
 10
25.0
 20
-334.0
 30
0.0
 40
2.5
  1
2.000
100
AcDbAttributeDefinition
  3

  2
EVMIN
 70
     8
280
     0
  0
ATTDEF
  5
ED
330
1F
100
AcDbEntity
  8
attrib
100
AcDbText
 10
25.0
 20
-337.0
 30
0.0
 40
2.5
  1
2993.000
100
AcDbAttributeDefinition
  3

  2
EVMAX
 70
     8
280
     0
  0
ATTDEF
  5
EE
330
1F
100
AcDbEntity
  8
attrib
100
AcDbText
 10
25.0
 20
-340.0
 30
0.0
 40
2.5
  1
[0]
100
AcDbAttributeDefinition
  3

  2
EVALG
 70
     8
280
     0
  0
ATTDEF
  5
EF
330
1F
100
AcDbEntity
  8
attrib
100
AcDbText
 10
25.0
 20
-343.0
 30
0.0
 40
2.5
  1
0
100
AcDbAttributeDefinition
  3

  2
NH11
 70
     8
280
     0
  0
ATTDEF
  5
F0
330
1F
100
AcDbEntity
  8
attrib
100
AcDbText
 10
25.0
 20
-346.0
 30
0.0
 40
2.5
  1
5.000
100
AcDbAttributeDefinition
  3

  2
NH11MAX
 70
     8
280
     0
  0
ATTDEF
  5
F1
330
1F
100
AcDbEntity
  8
attrib
100
AcDbText
 10
25.0
 20
-349.0
 30
0.0
 40
2.5
  1
[0]
100
AcDbAttributeDefinition
  3

  2
NH11ALG
 70
     8
280
     0
  0
ATTDEF
  5
F2
330
1F
100
AcDbEntity
  8
attrib
100
AcDbText
 10
25.0
 20
-352.0
 30
0.0
 40
2.5
  1
0.0
100
AcDbAttributeDefinition
  3

  2
AP
 70
     8
280
     0
  0
ATTDEF
  5
F3
330
1F
100
AcDbEntity
  8
attrib
100
AcDbText
 10
25.0
 20
-355.0
 30
0.0
 40
2.5
  1
7.000
100
AcDbAttributeDefinition
  3

  2
APMIN
 70
     8
280
     0
  0
ATTDEF
  5
F4
330
1F
100
AcDbEntity
  8
attrib
100
AcDbText
 10
25.0
 20
-358.0
 30
0.0
 40
2.5
  1
2995.000
100
AcDbAttributeDefinition
  3

  2
APMAX
 70
     8
280
     0
  0
ATTDEF
  5
F5
330
1F
100
AcDbEntity
  8
attrib
100
AcDbText
 10
25.0
 20
-361.0
 30
0.0
 40
2.5
  1
[0]
100
AcDbAttributeDefinition
  3

  2
APALG
 70
     8
280
     0
  0
ATTDEF
  5
F6
330
1F
100
AcDbEntity
  8
attrib
100
AcDbText
 10
25.0
 20
-364.0
 30
0.0
 40
2.5
  1
0.0
100
AcDbAttributeDefinition
  3

  2
BP
 70
     8
280
     0
  0
ATTDEF
  5
F7
330
1F
100
AcDbEntity
  8
attrib
100
AcDbText
 10
25.0
 20
-367.0
 30
0.0
 40
2.5
  1
2.000
100
AcDbAttributeDefinition
  3

  2
BPMIN
 70
     8
280
     0
  0
ATTDEF
  5
F8
330
1F
100
AcDbEntity
  8
attrib
100
AcDbText
 10
25.0
 20
-370.0
 30
0.0
 40
2.5
  1
2997.000
100
AcDbAttributeDefinition
  3

  2
BPMAX
 70
     8
280
     0
  0
ATTDEF
  5
F9
330
1F
100
AcDbEntity
  8
attrib
100
AcDbText
 10
25.0
 20
-373.0
 30
0.0
 40
2.5
  1
[0]
100
AcDbAttributeDefinition
  3

  2
BPALG
 70
     8
280
     0
  0
ATTDEF
  5
FA
330
1F
100
AcDbEntity
  8
attrib
100
AcDbText
 10
25.0
 20
-376.0
 30
0.0
 40
2.5
  1
0.0
100
AcDbAttributeDefinition
  3

  2
CP
 70
     8
280
     0
  0
ATTDEF
  5
FB
330
1F
100
AcDbEntity
  8
attrib
100
AcDbText
 10
25.0
 20
-379.0
 30
0.0
 40
2.5
  1
2.000
100
AcDbAttributeDefinition
  3

  2
CPMIN
 70
     8
280
     0
  0
ATTDEF
  5
FC
330
1F
100
AcDbEntity
  8
attrib
100
AcDbText
 10
25.0
 20
-382.0
 30
0.0
 40
2.5
  1
2999.000
100
AcDbAttributeDefinition
  3

  2
CPMAX
 70
     8
280
     0
  0
ATTDEF
  5
FD
330
1F
100
AcDbEntity
  8
attrib
100
AcDbText
 10
25.0
 20
-385.0
 30
0.0
 40
2.5
  1
[0]
100
AcDbAttributeDefinition
  3

  2
CPALG
 70
     8
280
     0
  0
ATTDEF
  5
FE
330
1F
100
AcDbEntity
  8
attrib
100
AcDbText
 10
25.0
 20
-388.0
 30
0.0
 40
2.5
  1
0.0
100
AcDbAttributeDefinition
  3

  2
DP
 70
     8
280
     0
  0
ATTDEF
  5
FF
330
1F
100
AcDbEntity
  8
attrib
100
AcDbText
 10
25.0
 20
-391.0
 30
0.0
 40
2.5
  1
2.000
100
AcDbAttributeDefinition
  3

  2
DPMIN
 70
     8
280
     0
  0
ATTDEF
  5
100
330
1F
100
AcDbEntity
  8
attrib
100
AcDbText
 10
25.0
 20
-394.0
 30
0.0
 40
2.5
  1
3001.000
100
AcDbAttributeDefinition
  3

  2
DPMAX
 70
     8
280
     0
  0
ATTDEF
  5
101
330
1F
100
AcDbEntity
  8
attrib
100
AcDbText
 10
25.0
 20
-397.0
 30
0.0
 40
2.5
  1
[0]
100
AcDbAttributeDefinition
  3

  2
DPALG
 70
     8
280
     0
  0
ATTDEF
  5
102
330
1F
100
AcDbEntity
  8
attrib
100
AcDbText
 10
25.0
 20
-400.0
 30
0.0
 40
2.5
  1
0.0
100
AcDbAttributeDefinition
  3

  2
EP
 70
     8
280
     0
  0
ATTDEF
  5
103
330
1F
100
AcDbEntity
  8
attrib
100
AcDbText
 10
25.0
 20
-403.0
 30
0.0
 40
2.5
  1
2.000
100
AcDbAttributeDefinition
  3

  2
EPMIN
 70
     8
280
     0
  0
ATTDEF
  5
104
330
1F
100
AcDbEntity
  8
attrib
100
AcDbText
 10
25.0
 20
-406.0
 30
0.0
 40
2.5
  1
2993.000
100
AcDbAttributeDefinition
  3

  2
EPMAX
 70
     8
280
     0
  0
ATTDEF
  5
105
330
1F
100
AcDbEntity
  8
attrib
100
AcDbText
 10
25.0
 20
-409.0
 30
0.0
 40
2.5
  1
[0]
100
AcDbAttributeDefinition
  3

  2
EPALG
 70
     8
280
     0
  0
ATTDEF
  5
106
330
1F
100
AcDbEntity
  8
attrib
100
AcDbText
 10
25.0
 20
-412.0
 30
0.0
 40
2.5
  1

100
AcDbAttributeDefinition
  3

  2
ALT9PN
 70
     8
280
     0
  0
ATTDEF
  5
107
330
1F
100
AcDbEntity
  8
attrib
100
AcDbText
 10
25.0
 20
-415.0
 30
0.0
 40
2.5
  1

100
AcDbAttributeDefinition
  3

  2
ALT10PN
 70
     8
280
     0
  0
ATTDEF
  5
108
330
1F
100
AcDbEntity
  8
attrib
100
AcDbText
 10
25.0
 20
-418.0
 30
0.0
 40
2.5
  1

100
AcDbAttributeDefinition
  3

  2
ALT11PN
 70
     8
280
     0
  0
ATTDEF
  5
109
330
1F
100
AcDbEntity
  8
attrib
100
AcDbText
 10
25.0
 20
-421.0
 30
0.0
 40
2.5
  1

100
AcDbAttributeDefinition
  3

  2
ALT91011PN
 70
     8
280
     0
  0
ATTDEF
  5
10A
330
1F
100
AcDbEntity
  8
attrib
100
AcDbText
 10
25.0
 20
-424.0
 30
0.0
 40
2.5
  1
w/o Counterbore Hole in Specified Position (Vertical)
100
AcDbAttributeDefinition
  3

  2
ALT12
 70
     8
280
     0
  0
ATTDEF
  5
10B
330
1F
100
AcDbEntity
  8
attrib
100
AcDbText
 10
25.0
 20
-427.0
 30
0.0
 40
2.5
  1
 '','w/o Counterbore Hole in Specified Position (Vertical)','1','with Counterbore Hole in Specified Position (Vertical)' 
100
AcDbAttributeDefinition
  3

  2
ALT12ALG
 70
     8
280
     0
  0
ATTDEF
  5
10C
330
1F
100
AcDbEntity
  8
attrib
100
AcDbText
 10
25.0
 20
-430.0
 30
0.0
 40
2.5
  1
w/o Counterbore Hole in Specified Position (Horizontal)
100
AcDbAttributeDefinition
  3

  2
ALT13
 70
     8
280
     0
  0
ATTDEF
  5
10D
330
1F
100
AcDbEntity
  8
attrib
100
AcDbText
 10
25.0
 20
-433.0
 30
0.0
 40
2.5
  1
 '','w/o Counterbore Hole in Specified Position (Horizontal)','1','with Counterbore Hole in Specified Position (Horizontal)' 
100
AcDbAttributeDefinition
  3

  2
ALT13ALG
 70
     8
280
     0
  0
ATTDEF
  5
10E
330
1F
100
AcDbEntity
  8
attrib
100
AcDbText
 10
25.0
 20
-436.0
 30
0.0
 40
2.5
  1
N/A
100
AcDbAttributeDefinition
  3

  2
Z
 70
     8
280
     0
  0
ATTDEF
  5
10F
330
1F
100
AcDbEntity
  8
attrib
100
AcDbText
 10
25.0
 20
-439.0
 30
0.0
 40
2.5
  1
 '','N/A' 
100
AcDbAttributeDefinition
  3

  2
ZALG
 70
     8
280
     0
  0
ATTDEF
  5
110
330
1F
100
AcDbEntity
  8
attrib
100
AcDbText
 10
25.0
 20
-442.0
 30
0.0
 40
2.5
  1
0.0
100
AcDbAttributeDefinition
  3

  2
DD12
 70
     8
280
     0
  0
ATTDEF
  5
111
330
1F
100
AcDbEntity
  8
attrib
100
AcDbText
 10
25.0
 20
-445.0
 30
0.0
 40
2.5
  1
0.0
100
AcDbAttributeDefinition
  3

  2
DD112
 70
     8
280
     0
  0
ATTDEF
  5
112
330
1F
100
AcDbEntity
  8
attrib
100
AcDbText
 10
25.0
 20
-448.0
 30
0.0
 40
2.5
  1
0
100
AcDbAttributeDefinition
  3

  2
NH12
 70
     8
280
     0
  0
ATTDEF
  5
113
330
1F
100
AcDbEntity
  8
attrib
100
AcDbText
 10
25.0
 20
-451.0
 30
0.0
 40
2.5
  1
5.000
100
AcDbAttributeDefinition
  3

  2
NH12MAX
 70
     8
280
     0
  0
ATTDEF
  5
114
330
1F
100
AcDbEntity
  8
attrib
100
AcDbText
 10
25.0
 20
-454.0
 30
0.0
 40
2.5
  1
[0]
100
AcDbAttributeDefinition
  3

  2
NH12ALG
 70
     8
280
     0
  0
ATTDEF
  5
115
330
1F
100
AcDbEntity
  8
attrib
100
AcDbText
 10
25.0
 20
-457.0
 30
0.0
 40
2.5
  1
0.0
100
AcDbAttributeDefinition
  3

  2
XA
 70
     8
280
     0
  0
ATTDEF
  5
116
330
1F
100
AcDbEntity
  8
attrib
100
AcDbText
 10
25.0
 20
-460.0
 30
0.0
 40
2.5
  1
7.000
100
AcDbAttributeDefinition
  3

  2
XAMIN
 70
     8
280
     0
  0
ATTDEF
  5
117
330
1F
100
AcDbEntity
  8
attrib
100
AcDbText
 10
25.0
 20
-463.0
 30
0.0
 40
2.5
  1
2995.000
100
AcDbAttributeDefinition
  3

  2
XAMAX
 70
     8
280
     0
  0
ATTDEF
  5
118
330
1F
100
AcDbEntity
  8
attrib
100
AcDbText
 10
25.0
 20
-466.0
 30
0.0
 40
2.5
  1
[0]
100
AcDbAttributeDefinition
  3

  2
XAALG
 70
     8
280
     0
  0
ATTDEF
  5
119
330
1F
100
AcDbEntity
  8
attrib
100
AcDbText
 10
25.0
 20
-469.0
 30
0.0
 40
2.5
  1
0.0
100
AcDbAttributeDefinition
  3

  2
XB
 70
     8
280
     0
  0
ATTDEF
  5
11A
330
1F
100
AcDbEntity
  8
attrib
100
AcDbText
 10
25.0
 20
-472.0
 30
0.0
 40
2.5
  1
2.000
100
AcDbAttributeDefinition
  3

  2
XBMIN
 70
     8
280
     0
  0
ATTDEF
  5
11B
330
1F
100
AcDbEntity
  8
attrib
100
AcDbText
 10
25.0
 20
-475.0
 30
0.0
 40
2.5
  1
2997.000
100
AcDbAttributeDefinition
  3

  2
XBMAX
 70
     8
280
     0
  0
ATTDEF
  5
11C
330
1F
100
AcDbEntity
  8
attrib
100
AcDbText
 10
25.0
 20
-478.0
 30
0.0
 40
2.5
  1
[0]
100
AcDbAttributeDefinition
  3

  2
XBALG
 70
     8
280
     0
  0
ATTDEF
  5
11D
330
1F
100
AcDbEntity
  8
attrib
100
AcDbText
 10
25.0
 20
-481.0
 30
0.0
 40
2.5
  1
0.0
100
AcDbAttributeDefinition
  3

  2
XC
 70
     8
280
     0
  0
ATTDEF
  5
11E
330
1F
100
AcDbEntity
  8
attrib
100
AcDbText
 10
25.0
 20
-484.0
 30
0.0
 40
2.5
  1
2.000
100
AcDbAttributeDefinition
  3

  2
XCMIN
 70
     8
280
     0
  0
ATTDEF
  5
11F
330
1F
100
AcDbEntity
  8
attrib
100
AcDbText
 10
25.0
 20
-487.0
 30
0.0
 40
2.5
  1
2999.000
100
AcDbAttributeDefinition
  3

  2
XCMAX
 70
     8
280
     0
  0
ATTDEF
  5
120
330
1F
100
AcDbEntity
  8
attrib
100
AcDbText
 10
25.0
 20
-490.0
 30
0.0
 40
2.5
  1
[0]
100
AcDbAttributeDefinition
  3

  2
XCALG
 70
     8
280
     0
  0
ATTDEF
  5
121
330
1F
100
AcDbEntity
  8
attrib
100
AcDbText
 10
25.0
 20
-493.0
 30
0.0
 40
2.5
  1
0.0
100
AcDbAttributeDefinition
  3

  2
XD
 70
     8
280
     0
  0
ATTDEF
  5
122
330
1F
100
AcDbEntity
  8
attrib
100
AcDbText
 10
25.0
 20
-496.0
 30
0.0
 40
2.5
  1
2.000
100
AcDbAttributeDefinition
  3

  2
XDMIN
 70
     8
280
     0
  0
ATTDEF
  5
123
330
1F
100
AcDbEntity
  8
attrib
100
AcDbText
 10
25.0
 20
-499.0
 30
0.0
 40
2.5
  1
3001.000
100
AcDbAttributeDefinition
  3

  2
XDMAX
 70
     8
280
     0
  0
ATTDEF
  5
124
330
1F
100
AcDbEntity
  8
attrib
100
AcDbText
 10
25.0
 20
-502.0
 30
0.0
 40
2.5
  1
[0]
100
AcDbAttributeDefinition
  3

  2
XDALG
 70
     8
280
     0
  0
ATTDEF
  5
125
330
1F
100
AcDbEntity
  8
attrib
100
AcDbText
 10
25.0
 20
-505.0
 30
0.0
 40
2.5
  1
0.0
100
AcDbAttributeDefinition
  3

  2
XE
 70
     8
280
     0
  0
ATTDEF
  5
126
330
1F
100
AcDbEntity
  8
attrib
100
AcDbText
 10
25.0
 20
-508.0
 30
0.0
 40
2.5
  1
2.000
100
AcDbAttributeDefinition
  3

  2
XEMIN
 70
     8
280
     0
  0
ATTDEF
  5
127
330
1F
100
AcDbEntity
  8
attrib
100
AcDbText
 10
25.0
 20
-511.0
 30
0.0
 40
2.5
  1
2993.000
100
AcDbAttributeDefinition
  3

  2
XEMAX
 70
     8
280
     0
  0
ATTDEF
  5
128
330
1F
100
AcDbEntity
  8
attrib
100
AcDbText
 10
25.0
 20
-514.0
 30
0.0
 40
2.5
  1
[0]
100
AcDbAttributeDefinition
  3

  2
XEALG
 70
     8
280
     0
  0
ATTDEF
  5
129
330
1F
100
AcDbEntity
  8
attrib
100
AcDbText
 10
25.0
 20
-517.0
 30
0.0
 40
2.5
  1
0
100
AcDbAttributeDefinition
  3

  2
NH13
 70
     8
280
     0
  0
ATTDEF
  5
12A
330
1F
100
AcDbEntity
  8
attrib
100
AcDbText
 10
25.0
 20
-520.0
 30
0.0
 40
2.5
  1
5.000
100
AcDbAttributeDefinition
  3

  2
NH13MAX
 70
     8
280
     0
  0
ATTDEF
  5
12B
330
1F
100
AcDbEntity
  8
attrib
100
AcDbText
 10
25.0
 20
-523.0
 30
0.0
 40
2.5
  1
[0]
100
AcDbAttributeDefinition
  3

  2
NH13ALG
 70
     8
280
     0
  0
ATTDEF
  5
12C
330
1F
100
AcDbEntity
  8
attrib
100
AcDbText
 10
25.0
 20
-526.0
 30
0.0
 40
2.5
  1
0.0
100
AcDbAttributeDefinition
  3

  2
YA
 70
     8
280
     0
  0
ATTDEF
  5
12D
330
1F
100
AcDbEntity
  8
attrib
100
AcDbText
 10
25.0
 20
-529.0
 30
0.0
 40
2.5
  1
7.000
100
AcDbAttributeDefinition
  3

  2
YAMIN
 70
     8
280
     0
  0
ATTDEF
  5
12E
330
1F
100
AcDbEntity
  8
attrib
100
AcDbText
 10
25.0
 20
-532.0
 30
0.0
 40
2.5
  1
2995.000
100
AcDbAttributeDefinition
  3

  2
YAMAX
 70
     8
280
     0
  0
ATTDEF
  5
12F
330
1F
100
AcDbEntity
  8
attrib
100
AcDbText
 10
25.0
 20
-535.0
 30
0.0
 40
2.5
  1
[0]
100
AcDbAttributeDefinition
  3

  2
YAALG
 70
     8
280
     0
  0
ATTDEF
  5
130
330
1F
100
AcDbEntity
  8
attrib
100
AcDbText
 10
25.0
 20
-538.0
 30
0.0
 40
2.5
  1
0.0
100
AcDbAttributeDefinition
  3

  2
YB
 70
     8
280
     0
  0
ATTDEF
  5
131
330
1F
100
AcDbEntity
  8
attrib
100
AcDbText
 10
25.0
 20
-541.0
 30
0.0
 40
2.5
  1
2.000
100
AcDbAttributeDefinition
  3

  2
YBMIN
 70
     8
280
     0
  0
ATTDEF
  5
132
330
1F
100
AcDbEntity
  8
attrib
100
AcDbText
 10
25.0
 20
-544.0
 30
0.0
 40
2.5
  1
2997.000
100
AcDbAttributeDefinition
  3

  2
YBMAX
 70
     8
280
     0
  0
ATTDEF
  5
133
330
1F
100
AcDbEntity
  8
attrib
100
AcDbText
 10
25.0
 20
-547.0
 30
0.0
 40
2.5
  1
[0]
100
AcDbAttributeDefinition
  3

  2
YBALG
 70
     8
280
     0
  0
ATTDEF
  5
134
330
1F
100
AcDbEntity
  8
attrib
100
AcDbText
 10
25.0
 20
-550.0
 30
0.0
 40
2.5
  1
0.0
100
AcDbAttributeDefinition
  3

  2
YC
 70
     8
280
     0
  0
ATTDEF
  5
135
330
1F
100
AcDbEntity
  8
attrib
100
AcDbText
 10
25.0
 20
-553.0
 30
0.0
 40
2.5
  1
2.000
100
AcDbAttributeDefinition
  3

  2
YCMIN
 70
     8
280
     0
  0
ATTDEF
  5
136
330
1F
100
AcDbEntity
  8
attrib
100
AcDbText
 10
25.0
 20
-556.0
 30
0.0
 40
2.5
  1
2999.000
100
AcDbAttributeDefinition
  3

  2
YCMAX
 70
     8
280
     0
  0
ATTDEF
  5
137
330
1F
100
AcDbEntity
  8
attrib
100
AcDbText
 10
25.0
 20
-559.0
 30
0.0
 40
2.5
  1
[0]
100
AcDbAttributeDefinition
  3

  2
YCALG
 70
     8
280
     0
  0
ATTDEF
  5
138
330
1F
100
AcDbEntity
  8
attrib
100
AcDbText
 10
25.0
 20
-562.0
 30
0.0
 40
2.5
  1
0.0
100
AcDbAttributeDefinition
  3

  2
YD
 70
     8
280
     0
  0
ATTDEF
  5
139
330
1F
100
AcDbEntity
  8
attrib
100
AcDbText
 10
25.0
 20
-565.0
 30
0.0
 40
2.5
  1
2.000
100
AcDbAttributeDefinition
  3

  2
YDMIN
 70
     8
280
     0
  0
ATTDEF
  5
13A
330
1F
100
AcDbEntity
  8
attrib
100
AcDbText
 10
25.0
 20
-568.0
 30
0.0
 40
2.5
  1
3001.000
100
AcDbAttributeDefinition
  3

  2
YDMAX
 70
     8
280
     0
  0
ATTDEF
  5
13B
330
1F
100
AcDbEntity
  8
attrib
100
AcDbText
 10
25.0
 20
-571.0
 30
0.0
 40
2.5
  1
[0]
100
AcDbAttributeDefinition
  3

  2
YDALG
 70
     8
280
     0
  0
ATTDEF
  5
13C
330
1F
100
AcDbEntity
  8
attrib
100
AcDbText
 10
25.0
 20
-574.0
 30
0.0
 40
2.5
  1
0.0
100
AcDbAttributeDefinition
  3

  2
YE
 70
     8
280
     0
  0
ATTDEF
  5
13D
330
1F
100
AcDbEntity
  8
attrib
100
AcDbText
 10
25.0
 20
-577.0
 30
0.0
 40
2.5
  1
2.000
100
AcDbAttributeDefinition
  3

  2
YEMIN
 70
     8
280
     0
  0
ATTDEF
  5
13E
330
1F
100
AcDbEntity
  8
attrib
100
AcDbText
 10
25.0
 20
-580.0
 30
0.0
 40
2.5
  1
2993.000
100
AcDbAttributeDefinition
  3

  2
YEMAX
 70
     8
280
     0
  0
ATTDEF
  5
13F
330
1F
100
AcDbEntity
  8
attrib
100
AcDbText
 10
25.0
 20
-583.0
 30
0.0
 40
2.5
  1
[0]
100
AcDbAttributeDefinition
  3

  2
YEALG
 70
     8
280
     0
  0
ATTDEF
  5
140
330
1F
100
AcDbEntity
  8
attrib
100
AcDbText
 10
25.0
 20
-586.0
 30
0.0
 40
2.5
  1

100
AcDbAttributeDefinition
  3

  2
ALT12PN
 70
     8
280
     0
  0
ATTDEF
  5
141
330
1F
100
AcDbEntity
  8
attrib
100
AcDbText
 10
25.0
 20
-589.0
 30
0.0
 40
2.5
  1

100
AcDbAttributeDefinition
  3

  2
ALT13PN
 70
     8
280
     0
  0
ATTDEF
  5
142
330
1F
100
AcDbEntity
  8
attrib
100
AcDbText
 10
25.0
 20
-592.0
 30
0.0
 40
2.5
  1

100
AcDbAttributeDefinition
  3

  2
ALT1213PN
 70
     8
280
     0
  0
ATTDEF
  5
143
330
1F
100
AcDbEntity
  8
attrib
100
AcDbText
 10
25.0
 20
-595.0
 30
0.0
 40
2.5
  1
w/o D Type Hole Alteration
100
AcDbAttributeDefinition
  3

  2
ALT14
 70
     8
280
     0
  0
ATTDEF
  5
144
330
1F
100
AcDbEntity
  8
attrib
100
AcDbText
 10
25.0
 20
-598.0
 30
0.0
 40
2.5
  1
 '','w/o D Type Hole Alteration','1','with D Type Hole Alteration' 
100
AcDbAttributeDefinition
  3

  2
ALT14ALG
 70
     8
280
     0
  0
ATTDEF
  5
145
330
1F
100
AcDbEntity
  8
attrib
100
AcDbText
 10
25.0
 20
-601.0
 30
0.0
 40
2.5
  1
N/A
100
AcDbAttributeDefinition
  3

  2
HP14
 70
     8
280
     0
  0
ATTDEF
  5
146
330
1F
100
AcDbEntity
  8
attrib
100
AcDbText
 10
25.0
 20
-604.0
 30
0.0
 40
2.5
  1
 '','N/A' 
100
AcDbAttributeDefinition
  3

  2
HP14ALG
 70
     8
280
     0
  0
ATTDEF
  5
147
330
1F
100
AcDbEntity
  8
attrib
100
AcDbText
 10
25.0
 20
-607.0
 30
0.0
 40
2.5
  1
N/A
100
AcDbAttributeDefinition
  3

  2
DL14
 70
     8
280
     0
  0
ATTDEF
  5
148
330
1F
100
AcDbEntity
  8
attrib
100
AcDbText
 10
25.0
 20
-610.0
 30
0.0
 40
2.5
  1
 '','N/A' 
100
AcDbAttributeDefinition
  3

  2
DL14ALG
 70
     8
280
     0
  0
ATTDEF
  5
149
330
1F
100
AcDbEntity
  8
attrib
100
AcDbText
 10
25.0
 20
-613.0
 30
0.0
 40
2.5
  1
N/A
100
AcDbAttributeDefinition
  3

  2
DR14
 70
     8
280
     0
  0
ATTDEF
  5
14A
330
1F
100
AcDbEntity
  8
attrib
100
AcDbText
 10
25.0
 20
-616.0
 30
0.0
 40
2.5
  1
 '','N/A' 
100
AcDbAttributeDefinition
  3

  2
DR14ALG
 70
     8
280
     0
  0
ATTDEF
  5
14B
330
1F
100
AcDbEntity
  8
attrib
100
AcDbText
 10
25.0
 20
-619.0
 30
0.0
 40
2.5
  1
0
100
AcDbAttributeDefinition
  3

  2
H14
 70
     8
280
     0
  0
ATTDEF
  5
14C
330
1F
100
AcDbEntity
  8
attrib
100
AcDbText
 10
25.0
 20
-622.0
 30
0.0
 40
2.5
  1
0.0
100
AcDbAttributeDefinition
  3

  2
D14
 70
     8
280
     0
  0
ATTDEF
  5
14D
330
1F
100
AcDbEntity
  8
attrib
100
AcDbText
 10
25.0
 20
-625.0
 30
0.0
 40
2.5
  1

100
AcDbAttributeDefinition
  3

  2
ALT14PN
 70
     8
280
     0
  0
ATTDEF
  5
14E
330
1F
100
AcDbEntity
  8
attrib
100
AcDbText
 10
25.0
 20
-628.0
 30
0.0
 40
2.5
  1
w/o S Type Hole Alteration
100
AcDbAttributeDefinition
  3

  2
ALT15
 70
     8
280
     0
  0
ATTDEF
  5
14F
330
1F
100
AcDbEntity
  8
attrib
100
AcDbText
 10
25.0
 20
-631.0
 30
0.0
 40
2.5
  1
 '','w/o S Type Hole Alteration','1','with S Type Hole Alteration' 
100
AcDbAttributeDefinition
  3

  2
ALT15ALG
 70
     8
280
     0
  0
ATTDEF
  5
150
330
1F
100
AcDbEntity
  8
attrib
100
AcDbText
 10
25.0
 20
-634.0
 30
0.0
 40
2.5
  1
N/A
100
AcDbAttributeDefinition
  3

  2
HP15
 70
     8
280
     0
  0
ATTDEF
  5
151
330
1F
100
AcDbEntity
  8
attrib
100
AcDbText
 10
25.0
 20
-637.0
 30
0.0
 40
2.5
  1
 '','N/A' 
100
AcDbAttributeDefinition
  3

  2
HP15ALG
 70
     8
280
     0
  0
ATTDEF
  5
152
330
1F
100
AcDbEntity
  8
attrib
100
AcDbText
 10
25.0
 20
-640.0
 30
0.0
 40
2.5
  1
N/A
100
AcDbAttributeDefinition
  3

  2
DL15
 70
     8
280
     0
  0
ATTDEF
  5
153
330
1F
100
AcDbEntity
  8
attrib
100
AcDbText
 10
25.0
 20
-643.0
 30
0.0
 40
2.5
  1
 '','N/A' 
100
AcDbAttributeDefinition
  3

  2
DL15ALG
 70
     8
280
     0
  0
ATTDEF
  5
154
330
1F
100
AcDbEntity
  8
attrib
100
AcDbText
 10
25.0
 20
-646.0
 30
0.0
 40
2.5
  1
N/A
100
AcDbAttributeDefinition
  3

  2
DR15
 70
     8
280
     0
  0
ATTDEF
  5
155
330
1F
100
AcDbEntity
  8
attrib
100
AcDbText
 10
25.0
 20
-649.0
 30
0.0
 40
2.5
  1
 '','N/A' 
100
AcDbAttributeDefinition
  3

  2
DR15ALG
 70
     8
280
     0
  0
ATTDEF
  5
156
330
1F
100
AcDbEntity
  8
attrib
100
AcDbText
 10
25.0
 20
-652.0
 30
0.0
 40
2.5
  1
0
100
AcDbAttributeDefinition
  3

  2
H15
 70
     8
280
     0
  0
ATTDEF
  5
157
330
1F
100
AcDbEntity
  8
attrib
100
AcDbText
 10
25.0
 20
-655.0
 30
0.0
 40
2.5
  1
0.0
100
AcDbAttributeDefinition
  3

  2
D115
 70
     8
280
     0
  0
ATTDEF
  5
158
330
1F
100
AcDbEntity
  8
attrib
100
AcDbText
 10
25.0
 20
-658.0
 30
0.0
 40
2.5
  1
0.0
100
AcDbAttributeDefinition
  3

  2
D215
 70
     8
280
     0
  0
ATTDEF
  5
159
330
1F
100
AcDbEntity
  8
attrib
100
AcDbText
 10
25.0
 20
-661.0
 30
0.0
 40
2.5
  1

100
AcDbAttributeDefinition
  3

  2
ALT15PN
 70
     8
280
     0
  0
ATTDEF
  5
15A
330
1F
100
AcDbEntity
  8
attrib
100
AcDbText
 10
25.0
 20
-664.0
 30
0.0
 40
2.5
  1
w/o M Type Hole Alteration
100
AcDbAttributeDefinition
  3

  2
ALT16
 70
     8
280
     0
  0
ATTDEF
  5
15B
330
1F
100
AcDbEntity
  8
attrib
100
AcDbText
 10
25.0
 20
-667.0
 30
0.0
 40
2.5
  1
 '','w/o M Type Hole Alteration','1','with M Type Hole Alteration' 
100
AcDbAttributeDefinition
  3

  2
ALT16ALG
 70
     8
280
     0
  0
ATTDEF
  5
15C
330
1F
100
AcDbEntity
  8
attrib
100
AcDbText
 10
25.0
 20
-670.0
 30
0.0
 40
2.5
  1
N/A
100
AcDbAttributeDefinition
  3

  2
HP16
 70
     8
280
     0
  0
ATTDEF
  5
15D
330
1F
100
AcDbEntity
  8
attrib
100
AcDbText
 10
25.0
 20
-673.0
 30
0.0
 40
2.5
  1
 '','N/A' 
100
AcDbAttributeDefinition
  3

  2
HP16ALG
 70
     8
280
     0
  0
ATTDEF
  5
15E
330
1F
100
AcDbEntity
  8
attrib
100
AcDbText
 10
25.0
 20
-676.0
 30
0.0
 40
2.5
  1
N/A
100
AcDbAttributeDefinition
  3

  2
DL16
 70
     8
280
     0
  0
ATTDEF
  5
15F
330
1F
100
AcDbEntity
  8
attrib
100
AcDbText
 10
25.0
 20
-679.0
 30
0.0
 40
2.5
  1
 '','N/A' 
100
AcDbAttributeDefinition
  3

  2
DL16ALG
 70
     8
280
     0
  0
ATTDEF
  5
160
330
1F
100
AcDbEntity
  8
attrib
100
AcDbText
 10
25.0
 20
-682.0
 30
0.0
 40
2.5
  1
N/A
100
AcDbAttributeDefinition
  3

  2
DR16
 70
     8
280
     0
  0
ATTDEF
  5
161
330
1F
100
AcDbEntity
  8
attrib
100
AcDbText
 10
25.0
 20
-685.0
 30
0.0
 40
2.5
  1
 '','N/A' 
100
AcDbAttributeDefinition
  3

  2
DR16ALG
 70
     8
280
     0
  0
ATTDEF
  5
162
330
1F
100
AcDbEntity
  8
attrib
100
AcDbText
 10
25.0
 20
-688.0
 30
0.0
 40
2.5
  1
0
100
AcDbAttributeDefinition
  3

  2
H116
 70
     8
280
     0
  0
ATTDEF
  5
163
330
1F
100
AcDbEntity
  8
attrib
100
AcDbText
 10
25.0
 20
-691.0
 30
0.0
 40
2.5
  1
0.0
100
AcDbAttributeDefinition
  3

  2
D16
 70
     8
280
     0
  0
ATTDEF
  5
164
330
1F
100
AcDbEntity
  8
attrib
100
AcDbText
 10
25.0
 20
-694.0
 30
0.0
 40
2.5
  1

100
AcDbAttributeDefinition
  3

  2
ALT16PN
 70
     8
280
     0
  0
ATTDEF
  5
165
330
1F
100
AcDbEntity
  8
attrib
100
AcDbText
 10
25.0
 20
-697.0
 30
0.0
 40
2.5
  1
w/o L Type Hole Alteration (Top)
100
AcDbAttributeDefinition
  3

  2
ALT17
 70
     8
280
     0
  0
ATTDEF
  5
166
330
1F
100
AcDbEntity
  8
attrib
100
AcDbText
 10
25.0
 20
-700.0
 30
0.0
 40
2.5
  1
 '','w/o L Type Hole Alteration (Top)','1','with L Type Hole Alteration (Top)' 
100
AcDbAttributeDefinition
  3

  2
ALT17ALG
 70
     8
280
     0
  0
ATTDEF
  5
167
330
1F
100
AcDbEntity
  8
attrib
100
AcDbText
 10
25.0
 20
-703.0
 30
0.0
 40
2.5
  1
0
100
AcDbAttributeDefinition
  3

  2
HQ17
 70
     8
280
     0
  0
ATTDEF
  5
168
330
1F
100
AcDbEntity
  8
attrib
100
AcDbText
 10
25.0
 20
-706.0
 30
0.0
 40
2.5
  1
0
100
AcDbAttributeDefinition
  3

  2
HQ17ALG
 70
     8
280
     0
  0
ATTDEF
  5
169
330
1F
100
AcDbEntity
  8
attrib
100
AcDbText
 10
25.0
 20
-709.0
 30
0.0
 40
2.5
  1
0
100
AcDbAttributeDefinition
  3

  2
JLP
 70
     8
280
     0
  0
ATTDEF
  5
16A
330
1F
100
AcDbEntity
  8
attrib
100
AcDbText
 10
25.0
 20
-712.0
 30
0.0
 40
2.5
  1
4.900
100
AcDbAttributeDefinition
  3

  2
JLPMIN
 70
     8
280
     0
  0
ATTDEF
  5
16B
330
1F
100
AcDbEntity
  8
attrib
100
AcDbText
 10
25.0
 20
-715.0
 30
0.0
 40
2.5
  1
0.000
100
AcDbAttributeDefinition
  3

  2
JLPMAX
 70
     8
280
     0
  0
ATTDEF
  5
16C
330
1F
100
AcDbEntity
  8
attrib
100
AcDbText
 10
25.0
 20
-718.0
 30
0.0
 40
2.5
  1
[0]
100
AcDbAttributeDefinition
  3

  2
JLPALG
 70
     8
280
     0
  0
ATTDEF
  5
16D
330
1F
100
AcDbEntity
  8
attrib
100
AcDbText
 10
25.0
 20
-721.0
 30
0.0
 40
2.5
  1
0.000
100
AcDbAttributeDefinition
  3

  2
L17
 70
     8
280
     0
  0
ATTDEF
  5
16E
330
1F
100
AcDbEntity
  8
attrib
100
AcDbText
 10
25.0
 20
-724.0
 30
0.0
 40
2.5
  1
0.0
100
AcDbAttributeDefinition
  3

  2
D17
 70
     8
280
     0
  0
ATTDEF
  5
16F
330
1F
100
AcDbEntity
  8
attrib
100
AcDbText
 10
25.0
 20
-727.0
 30
0.0
 40
2.5
  1

100
AcDbAttributeDefinition
  3

  2
ALT17PN
 70
     8
280
     0
  0
ATTDEF
  5
170
330
1F
100
AcDbEntity
  8
attrib
100
AcDbText
 10
25.0
 20
-730.0
 30
0.0
 40
2.5
  1
N/A
100
AcDbAttributeDefinition
  3

  2
ALT19
 70
     8
280
     0
  0
ATTDEF
  5
171
330
1F
100
AcDbEntity
  8
attrib
100
AcDbText
 10
25.0
 20
-733.0
 30
0.0
 40
2.5
  1
 '','N/A' 
100
AcDbAttributeDefinition
  3

  2
ALT19ALG
 70
     8
280
     0
  0
ATTDEF
  5
172
330
1F
100
AcDbEntity
  8
attrib
100
AcDbText
 10
25.0
 20
-736.0
 30
0.0
 40
2.5
  1
0
100
AcDbAttributeDefinition
  3

  2
M19
 70
     8
280
     0
  0
ATTDEF
  5
173
330
1F
100
AcDbEntity
  8
attrib
100
AcDbText
 10
25.0
 20
-739.0
 30
0.0
 40
2.5
  1
0
100
AcDbAttributeDefinition
  3

  2
DP19
 70
     8
280
     0
  0
ATTDEF
  5
174
330
1F
100
AcDbEntity
  8
attrib
100
AcDbText
 10
25.0
 20
-742.0
 30
0.0
 40
2.5
  1

100
AcDbAttributeDefinition
  3

  2
ALT19PN
 70
     8
280
     0
  0
ATTDEF
  5
175
330
1F
100
AcDbEntity
  8
attrib
100
AcDbText
 10
25.0
 20
-745.0
 30
0.0
 40
2.5
  1
w/o CW (End Face C Chamfering)
100
AcDbAttributeDefinition
  3

  2
ALT20
 70
     8
280
     0
  0
ATTDEF
  5
176
330
1F
100
AcDbEntity
  8
attrib
100
AcDbText
 10
25.0
 20
-748.0
 30
0.0
 40
2.5
  1

100
AcDbAttributeDefinition
  3

  2
ALT20PN
 70
     8
280
     0
  0
ATTDEF
  5
177
330
1F
100
AcDbEntity
  8
attrib
100
AcDbText
 10
25.0
 20
-751.0
 30
0.0
 40
2.5
  1
OK
100
AcDbAttributeDefinition
  3

  2
ERRORALT01
 70
     8
280
     0
  0
ATTDEF
  5
178
330
1F
100
AcDbEntity
  8
attrib
100
AcDbText
 10
25.0
 20
-754.0
 30
0.0
 40
2.5
  1
OK
100
AcDbAttributeDefinition
  3

  2
ERRORALT02
 70
     8
280
     0
  0
ATTDEF
  5
179
330
1F
100
AcDbEntity
  8
attrib
100
AcDbText
 10
25.0
 20
-757.0
 30
0.0
 40
2.5
  1
OK
100
AcDbAttributeDefinition
  3

  2
ERRORALT05
 70
     8
280
     0
  0
ATTDEF
  5
17A
330
1F
100
AcDbEntity
  8
attrib
100
AcDbText
 10
25.0
 20
-760.0
 30
0.0
 40
2.5
  1
OK
100
AcDbAttributeDefinition
  3

  2
ERRORALT06091
 70
     8
280
     0
  0
ATTDEF
  5
17B
330
1F
100
AcDbEntity
  8
attrib
100
AcDbText
 10
25.0
 20
-763.0
 30
0.0
 40
2.5
  1
OK
100
AcDbAttributeDefinition
  3

  2
ERRORALT06092
 70
     8
280
     0
  0
ATTDEF
  5
17C
330
1F
100
AcDbEntity
  8
attrib
100
AcDbText
 10
25.0
 20
-766.0
 30
0.0
 40
2.5
  1
OK
100
AcDbAttributeDefinition
  3

  2
ERRORALT06093
 70
     8
280
     0
  0
ATTDEF
  5
17D
330
1F
100
AcDbEntity
  8
attrib
100
AcDbText
 10
25.0
 20
-769.0
 30
0.0
 40
2.5
  1
OK
100
AcDbAttributeDefinition
  3

  2
ERRORALT06094
 70
     8
280
     0
  0
ATTDEF
  5
17E
330
1F
100
AcDbEntity
  8
attrib
100
AcDbText
 10
25.0
 20
-772.0
 30
0.0
 40
2.5
  1
OK
100
AcDbAttributeDefinition
  3

  2
ERRORALT06101
 70
     8
280
     0
  0
ATTDEF
  5
17F
330
1F
100
AcDbEntity
  8
attrib
100
AcDbText
 10
25.0
 20
-775.0
 30
0.0
 40
2.5
  1
OK
100
AcDbAttributeDefinition
  3

  2
ERRORALT06102
 70
     8
280
     0
  0
ATTDEF
  5
180
330
1F
100
AcDbEntity
  8
attrib
100
AcDbText
 10
25.0
 20
-778.0
 30
0.0
 40
2.5
  1
OK
100
AcDbAttributeDefinition
  3

  2
ERRORALT06103
 70
     8
280
     0
  0
ATTDEF
  5
181
330
1F
100
AcDbEntity
  8
attrib
100
AcDbText
 10
25.0
 20
-781.0
 30
0.0
 40
2.5
  1
OK
100
AcDbAttributeDefinition
  3

  2
ERRORALT06104
 70
     8
280
     0
  0
ATTDEF
  5
182
330
1F
100
AcDbEntity
  8
attrib
100
AcDbText
 10
25.0
 20
-784.0
 30
0.0
 40
2.5
  1
OK
100
AcDbAttributeDefinition
  3

  2
ERRORALT06111
 70
     8
280
     0
  0
ATTDEF
  5
183
330
1F
100
AcDbEntity
  8
attrib
100
AcDbText
 10
25.0
 20
-787.0
 30
0.0
 40
2.5
  1
OK
100
AcDbAttributeDefinition
  3

  2
ERRORALT06112
 70
     8
280
     0
  0
ATTDEF
  5
184
330
1F
100
AcDbEntity
  8
attrib
100
AcDbText
 10
25.0
 20
-790.0
 30
0.0
 40
2.5
  1
OK
100
AcDbAttributeDefinition
  3

  2
ERRORALT06113
 70
     8
280
     0
  0
ATTDEF
  5
185
330
1F
100
AcDbEntity
  8
attrib
100
AcDbText
 10
25.0
 20
-793.0
 30
0.0
 40
2.5
  1
OK
100
AcDbAttributeDefinition
  3

  2
ERRORALT06114
 70
     8
280
     0
  0
ATTDEF
  5
186
330
1F
100
AcDbEntity
  8
attrib
100
AcDbText
 10
25.0
 20
-796.0
 30
0.0
 40
2.5
  1
OK
100
AcDbAttributeDefinition
  3

  2
ERRORALT06121
 70
     8
280
     0
  0
ATTDEF
  5
187
330
1F
100
AcDbEntity
  8
attrib
100
AcDbText
 10
25.0
 20
-799.0
 30
0.0
 40
2.5
  1
OK
100
AcDbAttributeDefinition
  3

  2
ERRORALT06122
 70
     8
280
     0
  0
ATTDEF
  5
188
330
1F
100
AcDbEntity
  8
attrib
100
AcDbText
 10
25.0
 20
-802.0
 30
0.0
 40
2.5
  1
OK
100
AcDbAttributeDefinition
  3

  2
ERRORALT06123
 70
     8
280
     0
  0
ATTDEF
  5
189
330
1F
100
AcDbEntity
  8
attrib
100
AcDbText
 10
25.0
 20
-805.0
 30
0.0
 40
2.5
  1
OK
100
AcDbAttributeDefinition
  3

  2
ERRORALT06124
 70
     8
280
     0
  0
ATTDEF
  5
18A
330
1F
100
AcDbEntity
  8
attrib
100
AcDbText
 10
25.0
 20
-808.0
 30
0.0
 40
2.5
  1
OK
100
AcDbAttributeDefinition
  3

  2
ERRORALT06131
 70
     8
280
     0
  0
ATTDEF
  5
18B
330
1F
100
AcDbEntity
  8
attrib
100
AcDbText
 10
25.0
 20
-811.0
 30
0.0
 40
2.5
  1
OK
100
AcDbAttributeDefinition
  3

  2
ERRORALT06132
 70
     8
280
     0
  0
ATTDEF
  5
18C
330
1F
100
AcDbEntity
  8
attrib
100
AcDbText
 10
25.0
 20
-814.0
 30
0.0
 40
2.5
  1
OK
100
AcDbAttributeDefinition
  3

  2
ERRORALT06133
 70
     8
280
     0
  0
ATTDEF
  5
18D
330
1F
100
AcDbEntity
  8
attrib
100
AcDbText
 10
25.0
 20
-817.0
 30
0.0
 40
2.5
  1
OK
100
AcDbAttributeDefinition
  3

  2
ERRORALT06134
 70
     8
280
     0
  0
ATTDEF
  5
18E
330
1F
100
AcDbEntity
  8
attrib
100
AcDbText
 10
25.0
 20
-820.0
 30
0.0
 40
2.5
  1
OK
100
AcDbAttributeDefinition
  3

  2
ERRORALT0614
 70
     8
280
     0
  0
ATTDEF
  5
18F
330
1F
100
AcDbEntity
  8
attrib
100
AcDbText
 10
25.0
 20
-823.0
 30
0.0
 40
2.5
  1
OK
100
AcDbAttributeDefinition
  3

  2
ERRORALT0615
 70
     8
280
     0
  0
ATTDEF
  5
190
330
1F
100
AcDbEntity
  8
attrib
100
AcDbText
 10
25.0
 20
-826.0
 30
0.0
 40
2.5
  1
OK
100
AcDbAttributeDefinition
  3

  2
ERRORALT0616
 70
     8
280
     0
  0
ATTDEF
  5
191
330
1F
100
AcDbEntity
  8
attrib
100
AcDbText
 10
25.0
 20
-829.0
 30
0.0
 40
2.5
  1
OK
100
AcDbAttributeDefinition
  3

  2
ERRORALT06171
 70
     8
280
     0
  0
ATTDEF
  5
192
330
1F
100
AcDbEntity
  8
attrib
100
AcDbText
 10
25.0
 20
-832.0
 30
0.0
 40
2.5
  1
OK
100
AcDbAttributeDefinition
  3

  2
ERRORALT06172
 70
     8
280
     0
  0
ATTDEF
  5
193
330
1F
100
AcDbEntity
  8
attrib
100
AcDbText
 10
25.0
 20
-835.0
 30
0.0
 40
2.5
  1
OK
100
AcDbAttributeDefinition
  3

  2
ERRORALT06173
 70
     8
280
     0
  0
ATTDEF
  5
194
330
1F
100
AcDbEntity
  8
attrib
100
AcDbText
 10
25.0
 20
-838.0
 30
0.0
 40
2.5
  1
OK
100
AcDbAttributeDefinition
  3

  2
ERRORALT0619
 70
     8
280
     0
  0
ATTDEF
  5
195
330
1F
100
AcDbEntity
  8
attrib
100
AcDbText
 10
25.0
 20
-841.0
 30
0.0
 40
2.5
  1
OK
100
AcDbAttributeDefinition
  3

  2
ERRORALT0911
 70
     8
280
     0
  0
ATTDEF
  5
196
330
1F
100
AcDbEntity
  8
attrib
100
AcDbText
 10
25.0
 20
-844.0
 30
0.0
 40
2.5
  1
OK
100
AcDbAttributeDefinition
  3

  2
ERRORALT0913
 70
     8
280
     0
  0
ATTDEF
  5
197
330
1F
100
AcDbEntity
  8
attrib
100
AcDbText
 10
25.0
 20
-847.0
 30
0.0
 40
2.5
  1
OK
100
AcDbAttributeDefinition
  3

  2
ERRORALT0914
 70
     8
280
     0
  0
ATTDEF
  5
198
330
1F
100
AcDbEntity
  8
attrib
100
AcDbText
 10
25.0
 20
-850.0
 30
0.0
 40
2.5
  1
OK
100
AcDbAttributeDefinition
  3

  2
ERRORALT0915
 70
     8
280
     0
  0
ATTDEF
  5
199
330
1F
100
AcDbEntity
  8
attrib
100
AcDbText
 10
25.0
 20
-853.0
 30
0.0
 40
2.5
  1
OK
100
AcDbAttributeDefinition
  3

  2
ERRORALT0916
 70
     8
280
     0
  0
ATTDEF
  5
19A
330
1F
100
AcDbEntity
  8
attrib
100
AcDbText
 10
25.0
 20
-856.0
 30
0.0
 40
2.5
  1
OK
100
AcDbAttributeDefinition
  3

  2
ERRORALT0917
 70
     8
280
     0
  0
ATTDEF
  5
19B
330
1F
100
AcDbEntity
  8
attrib
100
AcDbText
 10
25.0
 20
-859.0
 30
0.0
 40
2.5
  1
OK
100
AcDbAttributeDefinition
  3

  2
ERRORALT0919
 70
     8
280
     0
  0
ATTDEF
  5
19C
330
1F
100
AcDbEntity
  8
attrib
100
AcDbText
 10
25.0
 20
-862.0
 30
0.0
 40
2.5
  1
OK
100
AcDbAttributeDefinition
  3

  2
ERRORALT1011
 70
     8
280
     0
  0
ATTDEF
  5
19D
330
1F
100
AcDbEntity
  8
attrib
100
AcDbText
 10
25.0
 20
-865.0
 30
0.0
 40
2.5
  1
OK
100
AcDbAttributeDefinition
  3

  2
ERRORALT1012
 70
     8
280
     0
  0
ATTDEF
  5
19E
330
1F
100
AcDbEntity
  8
attrib
100
AcDbText
 10
25.0
 20
-868.0
 30
0.0
 40
2.5
  1
OK
100
AcDbAttributeDefinition
  3

  2
ERRORALT1014
 70
     8
280
     0
  0
ATTDEF
  5
19F
330
1F
100
AcDbEntity
  8
attrib
100
AcDbText
 10
25.0
 20
-871.0
 30
0.0
 40
2.5
  1
OK
100
AcDbAttributeDefinition
  3

  2
ERRORALT1015
 70
     8
280
     0
  0
ATTDEF
  5
1A0
330
1F
100
AcDbEntity
  8
attrib
100
AcDbText
 10
25.0
 20
-874.0
 30
0.0
 40
2.5
  1
OK
100
AcDbAttributeDefinition
  3

  2
ERRORALT1016
 70
     8
280
     0
  0
ATTDEF
  5
1A1
330
1F
100
AcDbEntity
  8
attrib
100
AcDbText
 10
25.0
 20
-877.0
 30
0.0
 40
2.5
  1
OK
100
AcDbAttributeDefinition
  3

  2
ERRORALT1017
 70
     8
280
     0
  0
ATTDEF
  5
1A2
330
1F
100
AcDbEntity
  8
attrib
100
AcDbText
 10
25.0
 20
-880.0
 30
0.0
 40
2.5
  1
OK
100
AcDbAttributeDefinition
  3

  2
ERRORALT1019
 70
     8
280
     0
  0
ATTDEF
  5
1A3
330
1F
100
AcDbEntity
  8
attrib
100
AcDbText
 10
25.0
 20
-883.0
 30
0.0
 40
2.5
  1
OK
100
AcDbAttributeDefinition
  3

  2
ERRORALT1112
 70
     8
280
     0
  0
ATTDEF
  5
1A4
330
1F
100
AcDbEntity
  8
attrib
100
AcDbText
 10
25.0
 20
-886.0
 30
0.0
 40
2.5
  1
OK
100
AcDbAttributeDefinition
  3

  2
ERRORALT1113
 70
     8
280
     0
  0
ATTDEF
  5
1A5
330
1F
100
AcDbEntity
  8
attrib
100
AcDbText
 10
25.0
 20
-889.0
 30
0.0
 40
2.5
  1
OK
100
AcDbAttributeDefinition
  3

  2
ERRORALT1114
 70
     8
280
     0
  0
ATTDEF
  5
1A6
330
1F
100
AcDbEntity
  8
attrib
100
AcDbText
 10
25.0
 20
-892.0
 30
0.0
 40
2.5
  1
OK
100
AcDbAttributeDefinition
  3

  2
ERRORALT1115
 70
     8
280
     0
  0
ATTDEF
  5
1A7
330
1F
100
AcDbEntity
  8
attrib
100
AcDbText
 10
25.0
 20
-895.0
 30
0.0
 40
2.5
  1
OK
100
AcDbAttributeDefinition
  3

  2
ERRORALT1116
 70
     8
280
     0
  0
ATTDEF
  5
1A8
330
1F
100
AcDbEntity
  8
attrib
100
AcDbText
 10
25.0
 20
-898.0
 30
0.0
 40
2.5
  1
OK
100
AcDbAttributeDefinition
  3

  2
ERRORALT1117
 70
     8
280
     0
  0
ATTDEF
  5
1A9
330
1F
100
AcDbEntity
  8
attrib
100
AcDbText
 10
25.0
 20
-901.0
 30
0.0
 40
2.5
  1
OK
100
AcDbAttributeDefinition
  3

  2
ERRORALT1119
 70
     8
280
     0
  0
ATTDEF
  5
1AA
330
1F
100
AcDbEntity
  8
attrib
100
AcDbText
 10
25.0
 20
-904.0
 30
0.0
 40
2.5
  1
OK
100
AcDbAttributeDefinition
  3

  2
ERRORALT1214
 70
     8
280
     0
  0
ATTDEF
  5
1AB
330
1F
100
AcDbEntity
  8
attrib
100
AcDbText
 10
25.0
 20
-907.0
 30
0.0
 40
2.5
  1
OK
100
AcDbAttributeDefinition
  3

  2
ERRORALT1215
 70
     8
280
     0
  0
ATTDEF
  5
1AC
330
1F
100
AcDbEntity
  8
attrib
100
AcDbText
 10
25.0
 20
-910.0
 30
0.0
 40
2.5
  1
OK
100
AcDbAttributeDefinition
  3

  2
ERRORALT1216
 70
     8
280
     0
  0
ATTDEF
  5
1AD
330
1F
100
AcDbEntity
  8
attrib
100
AcDbText
 10
25.0
 20
-913.0
 30
0.0
 40
2.5
  1
OK
100
AcDbAttributeDefinition
  3

  2
ERRORALT1217
 70
     8
280
     0
  0
ATTDEF
  5
1AE
330
1F
100
AcDbEntity
  8
attrib
100
AcDbText
 10
25.0
 20
-916.0
 30
0.0
 40
2.5
  1
OK
100
AcDbAttributeDefinition
  3

  2
ERRORALT1219
 70
     8
280
     0
  0
ATTDEF
  5
1AF
330
1F
100
AcDbEntity
  8
attrib
100
AcDbText
 10
25.0
 20
-919.0
 30
0.0
 40
2.5
  1
OK
100
AcDbAttributeDefinition
  3

  2
ERRORALT1314
 70
     8
280
     0
  0
ATTDEF
  5
1B0
330
1F
100
AcDbEntity
  8
attrib
100
AcDbText
 10
25.0
 20
-922.0
 30
0.0
 40
2.5
  1
OK
100
AcDbAttributeDefinition
  3

  2
ERRORALT1315
 70
     8
280
     0
  0
ATTDEF
  5
1B1
330
1F
100
AcDbEntity
  8
attrib
100
AcDbText
 10
25.0
 20
-925.0
 30
0.0
 40
2.5
  1
OK
100
AcDbAttributeDefinition
  3

  2
ERRORALT1316
 70
     8
280
     0
  0
ATTDEF
  5
1B2
330
1F
100
AcDbEntity
  8
attrib
100
AcDbText
 10
25.0
 20
-928.0
 30
0.0
 40
2.5
  1
OK
100
AcDbAttributeDefinition
  3

  2
ERRORALT1317
 70
     8
280
     0
  0
ATTDEF
  5
1B3
330
1F
100
AcDbEntity
  8
attrib
100
AcDbText
 10
25.0
 20
-931.0
 30
0.0
 40
2.5
  1
OK
100
AcDbAttributeDefinition
  3

  2
ERRORALT1319
 70
     8
280
     0
  0
ATTDEF
  5
1B4
330
1F
100
AcDbEntity
  8
attrib
100
AcDbText
 10
25.0
 20
-934.0
 30
0.0
 40
2.5
  1
OK
100
AcDbAttributeDefinition
  3

  2
ERRORALT1415
 70
     8
280
     0
  0
ATTDEF
  5
1B5
330
1F
100
AcDbEntity
  8
attrib
100
AcDbText
 10
25.0
 20
-937.0
 30
0.0
 40
2.5
  1
OK
100
AcDbAttributeDefinition
  3

  2
ERRORALT1416
 70
     8
280
     0
  0
ATTDEF
  5
1B6
330
1F
100
AcDbEntity
  8
attrib
100
AcDbText
 10
25.0
 20
-940.0
 30
0.0
 40
2.5
  1
OK
100
AcDbAttributeDefinition
  3

  2
ERRORALT1417
 70
     8
280
     0
  0
ATTDEF
  5
1B7
330
1F
100
AcDbEntity
  8
attrib
100
AcDbText
 10
25.0
 20
-943.0
 30
0.0
 40
2.5
  1
OK
100
AcDbAttributeDefinition
  3

  2
ERRORALT1419
 70
     8
280
     0
  0
ATTDEF
  5
1B8
330
1F
100
AcDbEntity
  8
attrib
100
AcDbText
 10
25.0
 20
-946.0
 30
0.0
 40
2.5
  1
OK
100
AcDbAttributeDefinition
  3

  2
ERRORALT1516
 70
     8
280
     0
  0
ATTDEF
  5
1B9
330
1F
100
AcDbEntity
  8
attrib
100
AcDbText
 10
25.0
 20
-949.0
 30
0.0
 40
2.5
  1
OK
100
AcDbAttributeDefinition
  3

  2
ERRORALT1517
 70
     8
280
     0
  0
ATTDEF
  5
1BA
330
1F
100
AcDbEntity
  8
attrib
100
AcDbText
 10
25.0
 20
-952.0
 30
0.0
 40
2.5
  1
OK
100
AcDbAttributeDefinition
  3

  2
ERRORALT1519
 70
     8
280
     0
  0
ATTDEF
  5
1BB
330
1F
100
AcDbEntity
  8
attrib
100
AcDbText
 10
25.0
 20
-955.0
 30
0.0
 40
2.5
  1
OK
100
AcDbAttributeDefinition
  3

  2
ERRORALT1617
 70
     8
280
     0
  0
ATTDEF
  5
1BC
330
1F
100
AcDbEntity
  8
attrib
100
AcDbText
 10
25.0
 20
-958.0
 30
0.0
 40
2.5
  1
OK
100
AcDbAttributeDefinition
  3

  2
ERRORALT1619
 70
     8
280
     0
  0
ATTDEF
  5
1BD
330
1F
100
AcDbEntity
  8
attrib
100
AcDbText
 10
25.0
 20
-961.0
 30
0.0
 40
2.5
  1
OK
100
AcDbAttributeDefinition
  3

  2
ERRORALT1719
 70
     8
280
     0
  0
ATTDEF
  5
1BE
330
1F
100
AcDbEntity
  8
attrib
100
AcDbText
 10
25.0
 20
-964.0
 30
0.0
 40
2.5
  1

100
AcDbAttributeDefinition
  3

  2
ERRORPN
 70
     8
280
     0
  0
ATTDEF
  5
1BF
330
1F
100
AcDbEntity
  8
attrib
100
AcDbText
 10
25.0
 20
-967.0
 30
0.0
 40
2.5
  1
misumi
100
AcDbAttributeDefinition
  3

  2
COMPANY
 70
     8
280
     0
  0
LINE
  5
1C0
330
1F
100
AcDbEntity
  8
center
100
AcDbLine
 10
-5.646194077712559
 20
4.596194077712558
 30
0.0
 11
-3.546194077712558
 21
4.596194077712558
 31
0.0
  0
LINE
  5
1C1
330
1F
100
AcDbEntity
  8
center
100
AcDbLine
 10
-4.596194077712559
 20
3.546194077712557
 30
0.0
 11
-4.596194077712559
 21
5.646194077712559
 31
0.0
  0
LINE
  5
1C2
330
1F
100
AcDbEntity
  8
center
100
AcDbLine
 10
3.546194077712561
 20
4.596194077712559
 30
0.0
 11
5.646194077712559
 21
4.596194077712559
 31
0.0
  0
LINE
  5
1C3
330
1F
100
AcDbEntity
  8
center
100
AcDbLine
 10
4.59619407771256
 20
3.54619407771256
 30
0.0
 11
4.59619407771256
 21
5.646194077712558
 31
0.0
  0
LINE
  5
1C4
330
1F
100
AcDbEntity
  8
center
100
AcDbLine
 10
-5.646194077712559
 20
-4.596194077712559
 30
0.0
 11
-3.546194077712558
 21
-4.596194077712559
 31
0.0
  0
LINE
  5
1C5
330
1F
100
AcDbEntity
  8
center
100
AcDbLine
 10
-4.596194077712559
 20
-5.646194077712559
 30
0.0
 11
-4.596194077712559
 21
-3.546194077712558
 31
0.0
  0
LINE
  5
1C6
330
1F
100
AcDbEntity
  8
center
100
AcDbLine
 10
3.546194077712559
 20
-4.596194077712558
 30
0.0
 11
5.64619407771256
 21
-4.596194077712558
 31
0.0
  0
LINE
  5
1C7
330
1F
100
AcDbEntity
  8
center
100
AcDbLine
 10
4.59619407771256
 20
-5.646194077712559
 30
0.0
 11
4.59619407771256
 21
-3.546194077712557
 31
0.0
  0
LINE
  5
1C8
330
1F
100
AcDbEntity
  8
vis
100
AcDbLine
 10
-0.5196152422706737
 20
7.500000000000007
 30
0.0
 11
-5.732233047033624
 21
7.5
 31
0.0
  0
LINE
  5
1C9
330
1F
100
AcDbEntity
  8
vis
100
AcDbLine
 10
-20.0
 20
17.0
 30
0.0
 11
-20.0
 21
5.000000000000007
 31
0.0
  0
LINE
  5
1CA
330
1F
100
AcDbEntity
  8
vis
100
AcDbLine
 10
-20.0
 20
5.000000000000007
 30
0.0
 11
-14.5
 21
5.000000000000007
 31
0.0
  0
LINE
  5
1CB
330
1F
100
AcDbEntity
  8
vis
100
AcDbLine
 10
-14.5
 20
5.000000000000007
 30
0.0
 11
-14.5
 21
10.0
 31
0.0
  0
LINE
  5
1CC
330
1F
100
AcDbEntity
  8
vis
100
AcDbLine
 10
-14.5
 20
10.0
 30
0.0
 11
-11.76776695296637
 21
10.0
 31
0.0
  0
LINE
  5
1CD
330
1F
100
AcDbEntity
  8
vis
100
AcDbLine
 10
-11.76776695296637
 20
10.0
 30
0.0
 11
-7.5
 21
5.732233047033631
 31
0.0
  0
LINE
  5
1CE
330
1F
100
AcDbEntity
  8
vis
100
AcDbLine
 10
-7.5
 20
5.732233047033631
 30
0.0
 11
-7.5
 21
0.5196152422706638
 31
0.0
  0
LINE
  5
1CF
330
1F
100
AcDbEntity
  8
vis
100
AcDbLine
 10
-7.5
 20
0.5196152422706638
 30
0.0
 11
-7.200000000000001
 21
0.0000000000000004
 31
0.0
  0
LINE
  5
1D0
330
1F
100
AcDbEntity
  8
vis
100
AcDbLine
 10
-7.200000000000001
 20
0.0000000000000004
 30
0.0
 11
-7.500000000000007
 21
-0.5196152422706746
 31
0.0
  0
LINE
  5
1D1
330
1F
100
AcDbEntity
  8
vis
100
AcDbLine
 10
-7.500000000000007
 20
-0.5196152422706746
 30
0.0
 11
-7.5
 21
-5.732233047033623
 31
0.0
  0
LINE
  5
1D2
330
1F
100
AcDbEntity
  8
vis
100
AcDbLine
 10
-7.5
 20
-5.732233047033623
 30
0.0
 11
-11.76776695296638
 21
-10.0
 31
0.0
  0
LINE
  5
1D3
330
1F
100
AcDbEntity
  8
vis
100
AcDbLine
 10
-11.76776695296638
 20
-10.0
 30
0.0
 11
-14.5
 21
-10.0
 31
0.0
  0
LINE
  5
1D4
330
1F
100
AcDbEntity
  8
vis
100
AcDbLine
 10
-14.5
 20
-10.0
 30
0.0
 11
-14.5
 21
-4.999999999999999
 31
0.0
  0
LINE
  5
1D5
330
1F
100
AcDbEntity
  8
vis
100
AcDbLine
 10
-14.5
 20
-4.999999999999999
 30
0.0
 11
-20.0
 21
-4.999999999999999
 31
0.0
  0
LINE
  5
1D6
330
1F
100
AcDbEntity
  8
vis
100
AcDbLine
 10
-20.0
 20
-4.999999999999999
 30
0.0
 11
-20.0
 21
-17.0
 31
0.0
  0
ARC
  5
1D7
330
1F
100
AcDbEntity
  8
vis
100
AcDbCircle
 10
-17.0
 20
-17.0
 30
0.0
 40
3.0
100
AcDbArc
 50
180.0
 51
270.0
  0
LINE
  5
1D8
330
1F
100
AcDbEntity
  8
vis
100
AcDbLine
 10
-17.0
 20
-20.0
 30
0.0
 11
-5.000000000000008
 21
-20.0
 31
0.0
  0
LINE
  5
1D9
330
1F
100
AcDbEntity
  8
vis
100
AcDbLine
 10
-5.000000000000008
 20
-20.0
 30
0.0
 11
-5.000000000000008
 21
-14.5
 31
0.0
  0
LINE
  5
1DA
330
1F
100
AcDbEntity
  8
vis
100
AcDbLine
 10
-5.000000000000008
 20
-14.5
 30
0.0
 11
-10.0
 21
-14.5
 31
0.0
  0
LINE
  5
1DB
330
1F
100
AcDbEntity
  8
vis
100
AcDbLine
 10
-10.0
 20
-14.5
 30
0.0
 11
-10.0
 21
-11.76776695296637
 31
0.0
  0
LINE
  5
1DC
330
1F
100
AcDbEntity
  8
vis
100
AcDbLine
 10
-10.0
 20
-11.76776695296637
 30
0.0
 11
-5.732233047033632
 21
-7.5
 31
0.0
  0
LINE
  5
1DD
330
1F
100
AcDbEntity
  8
vis
100
AcDbLine
 10
-5.732233047033632
 20
-7.5
 30
0.0
 11
-0.5196152422706638
 21
-7.5
 31
0.0
  0
LINE
  5
1DE
330
1F
100
AcDbEntity
  8
vis
100
AcDbLine
 10
-0.5196152422706638
 20
-7.5
 30
0.0
 11
-0.0000000000000009
 21
-7.200000000000001
 31
0.0
  0
LINE
  5
1DF
330
1F
100
AcDbEntity
  8
vis
100
AcDbLine
 10
-0.0000000000000009
 20
-7.200000000000001
 30
0.0
 11
0.5196152422706737
 21
-7.500000000000007
 31
0.0
  0
LINE
  5
1E0
330
1F
100
AcDbEntity
  8
vis
100
AcDbLine
 10
0.5196152422706737
 20
-7.500000000000007
 30
0.0
 11
5.732233047033622
 21
-7.5
 31
0.0
  0
LINE
  5
1E1
330
1F
100
AcDbEntity
  8
vis
100
AcDbLine
 10
5.732233047033622
 20
-7.5
 30
0.0
 11
10.0
 21
-11.76776695296637
 31
0.0
  0
LINE
  5
1E2
330
1F
100
AcDbEntity
  8
vis
100
AcDbLine
 10
10.0
 20
-11.76776695296637
 30
0.0
 11
10.0
 21
-14.5
 31
0.0
  0
LINE
  5
1E3
330
1F
100
AcDbEntity
  8
vis
100
AcDbLine
 10
10.0
 20
-14.5
 30
0.0
 11
4.999999999999999
 21
-14.5
 31
0.0
  0
LINE
  5
1E4
330
1F
100
AcDbEntity
  8
vis
100
AcDbLine
 10
4.999999999999999
 20
-14.5
 30
0.0
 11
4.999999999999998
 21
-20.0
 31
0.0
  0
LINE
  5
1E5
330
1F
100
AcDbEntity
  8
vis
100
AcDbLine
 10
4.999999999999998
 20
-20.0
 30
0.0
 11
17.0
 21
-20.0
 31
0.0
  0
ARC
  5
1E6
330
1F
100
AcDbEntity
  8
vis
100
AcDbCircle
 10
17.0
 20
-17.0
 30
0.0
 40
3.0
100
AcDbArc
 50
270.0
 51
0.0
  0
LINE
  5
1E7
330
1F
100
AcDbEntity
  8
vis
100
AcDbLine
 10
20.0
 20
-17.0
 30
0.0
 11
20.0
 21
-5.000000000000008
 31
0.0
  0
LINE
  5
1E8
330
1F
100
AcDbEntity
  8
vis
100
AcDbLine
 10
20.0
 20
-5.000000000000008
 30
0.0
 11
14.5
 21
-5.000000000000009
 31
0.0
  0
LINE
  5
1E9
330
1F
100
AcDbEntity
  8
vis
100
AcDbLine
 10
14.5
 20
-5.000000000000009
 30
0.0
 11
14.5
 21
-10.0
 31
0.0
  0
LINE
  5
1EA
330
1F
100
AcDbEntity
  8
vis
100
AcDbLine
 10
14.5
 20
-10.0
 30
0.0
 11
11.76776695296637
 21
-10.0
 31
0.0
  0
LINE
  5
1EB
330
1F
100
AcDbEntity
  8
vis
100
AcDbLine
 10
11.76776695296637
 20
-10.0
 30
0.0
 11
7.5
 21
-5.732233047033633
 31
0.0
  0
LINE
  5
1EC
330
1F
100
AcDbEntity
  8
vis
100
AcDbLine
 10
7.5
 20
-5.732233047033633
 30
0.0
 11
7.5
 21
-0.5196152422706638
 31
0.0
  0
LINE
  5
1ED
330
1F
100
AcDbEntity
  8
vis
100
AcDbLine
 10
7.5
 20
-0.5196152422706638
 30
0.0
 11
7.200000000000001
 21
-0.0000000000000013
 31
0.0
  0
LINE
  5
1EE
330
1F
100
AcDbEntity
  8
vis
100
AcDbLine
 10
7.200000000000001
 20
-0.0000000000000013
 30
0.0
 11
7.500000000000007
 21
0.5196152422706728
 31
0.0
  0
LINE
  5
1EF
330
1F
100
AcDbEntity
  8
vis
100
AcDbLine
 10
7.500000000000007
 20
0.5196152422706728
 30
0.0
 11
7.5
 21
5.732233047033621
 31
0.0
  0
LINE
  5
1F0
330
1F
100
AcDbEntity
  8
vis
100
AcDbLine
 10
7.5
 20
5.732233047033621
 30
0.0
 11
11.76776695296638
 21
10.0
 31
0.0
  0
LINE
  5
1F1
330
1F
100
AcDbEntity
  8
vis
100
AcDbLine
 10
11.76776695296638
 20
10.0
 30
0.0
 11
14.5
 21
10.0
 31
0.0
  0
LINE
  5
1F2
330
1F
100
AcDbEntity
  8
vis
100
AcDbLine
 10
14.5
 20
10.0
 30
0.0
 11
14.5
 21
4.999999999999997
 31
0.0
  0
LINE
  5
1F3
330
1F
100
AcDbEntity
  8
vis
100
AcDbLine
 10
14.5
 20
4.999999999999997
 30
0.0
 11
20.0
 21
4.999999999999997
 31
0.0
  0
LINE
  5
1F4
330
1F
100
AcDbEntity
  8
vis
100
AcDbLine
 10
20.0
 20
4.999999999999997
 30
0.0
 11
20.0
 21
17.0
 31
0.0
  0
ARC
  5
1F5
330
1F
100
AcDbEntity
  8
vis
100
AcDbCircle
 10
17.0
 20
17.0
 30
0.0
 40
3.0
100
AcDbArc
 50
0.0
 51
90.0
  0
LINE
  5
1F6
330
1F
100
AcDbEntity
  8
vis
100
AcDbLine
 10
17.0
 20
20.0
 30
0.0
 11
5.000000000000012
 21
20.0
 31
0.0
  0
LINE
  5
1F7
330
1F
100
AcDbEntity
  8
vis
100
AcDbLine
 10
5.000000000000012
 20
20.0
 30
0.0
 11
5.00000000000001
 21
14.5
 31
0.0
  0
LINE
  5
1F8
330
1F
100
AcDbEntity
  8
vis
100
AcDbLine
 10
5.00000000000001
 20
14.5
 30
0.0
 11
10.0
 21
14.5
 31
0.0
  0
LINE
  5
1F9
330
1F
100
AcDbEntity
  8
vis
100
AcDbLine
 10
10.0
 20
14.5
 30
0.0
 11
10.0
 21
11.76776695296637
 31
0.0
  0
LINE
  5
1FA
330
1F
100
AcDbEntity
  8
vis
100
AcDbLine
 10
10.0
 20
11.76776695296637
 30
0.0
 11
5.732233047033634
 21
7.5
 31
0.0
  0
LINE
  5
1FB
330
1F
100
AcDbEntity
  8
vis
100
AcDbLine
 10
5.732233047033634
 20
7.5
 30
0.0
 11
0.5196152422706629
 21
7.5
 31
0.0
  0
LINE
  5
1FC
330
1F
100
AcDbEntity
  8
vis
100
AcDbLine
 10
0.5196152422706629
 20
7.5
 30
0.0
 11
0.0
 21
7.200000000000001
 31
0.0
  0
LINE
  5
1FD
330
1F
100
AcDbEntity
  8
vis
100
AcDbLine
 10
0.0
 20
7.200000000000001
 30
0.0
 11
-0.5196152422706737
 21
7.500000000000007
 31
0.0
  0
LINE
  5
1FE
330
1F
100
AcDbEntity
  8
vis
100
AcDbLine
 10
-5.732233047033624
 20
7.5
 30
0.0
 11
-10.0
 21
11.76776695296638
 31
0.0
  0
LINE
  5
1FF
330
1F
100
AcDbEntity
  8
vis
100
AcDbLine
 10
-10.0
 20
11.76776695296638
 30
0.0
 11
-10.0
 21
14.5
 31
0.0
  0
LINE
  5
200
330
1F
100
AcDbEntity
  8
vis
100
AcDbLine
 10
-10.0
 20
14.5
 30
0.0
 11
-5.0
 21
14.5
 31
0.0
  0
LINE
  5
201
330
1F
100
AcDbEntity
  8
vis
100
AcDbLine
 10
-5.0
 20
14.5
 30
0.0
 11
-5.0
 21
20.0
 31
0.0
  0
LINE
  5
202
330
1F
100
AcDbEntity
  8
vis
100
AcDbLine
 10
-5.0
 20
20.0
 30
0.0
 11
-17.0
 21
20.0
 31
0.0
  0
ARC
  5
203
330
1F
100
AcDbEntity
  8
vis
100
AcDbCircle
 10
-17.0
 20
17.0
 30
0.0
 40
3.0
100
AcDbArc
 50
90.0
 51
180.0
  0
LINE
  5
204
330
1F
100
AcDbEntity
  8
vis
100
AcDbLine
 10
12.00000000000001
 20
17.0
 30
0.0
 11
12.0
 21
13.0
 31
0.0
  0
ARC
  5
205
330
1F
100
AcDbEntity
  8
vis
100
AcDbCircle
 10
13.00000000000002
 20
16.99999999999999
 30
0.0
 40
1.000000000000014
100
AcDbArc
 50
90.0
 51
180.0
  0
LINE
  5
206
330
1F
100
AcDbEntity
  8
vis
100
AcDbLine
 10
16.99999999999999
 20
18.0
 30
0.0
 11
13.00000000000001
 21
18.0
 31
0.0
  0
ARC
  5
207
330
1F
100
AcDbEntity
  8
vis
100
AcDbCircle
 10
16.99999999999999
 20
16.99999999999999
 30
0.0
 40
1.000000000000018
100
AcDbArc
 50
0.0
 51
90.0
  0
LINE
  5
208
330
1F
100
AcDbEntity
  8
vis
100
AcDbLine
 10
18.0
 20
13.0
 30
0.0
 11
18.0
 21
17.0
 31
0.0
  0
ARC
  5
209
330
1F
100
AcDbEntity
  8
vis
100
AcDbCircle
 10
17.0
 20
13.0
 30
0.0
 40
1.000000000000007
100
AcDbArc
 50
270.0
 51
0.0
  0
LINE
  5
20A
330
1F
100
AcDbEntity
  8
vis
100
AcDbLine
 10
13.0
 20
12.0
 30
0.0
 11
17.0
 21
11.99999999999999
 31
0.0
  0
ARC
  5
20B
330
1F
100
AcDbEntity
  8
vis
100
AcDbCircle
 10
13.0
 20
13.0
 30
0.0
 40
0.9999999999999982
100
AcDbArc
 50
180.0
 51
270.0
  0
LINE
  5
20C
330
1F
100
AcDbEntity
  8
vis
100
AcDbLine
 10
12.0
 20
-13.0
 30
0.0
 11
12.0
 21
-17.0
 31
0.0
  0
ARC
  5
20D
330
1F
100
AcDbEntity
  8
vis
100
AcDbCircle
 10
13.0
 20
-13.0
 30
0.0
 40
1.0
100
AcDbArc
 50
90.0
 51
180.0
  0
LINE
  5
20E
330
1F
100
AcDbEntity
  8
vis
100
AcDbLine
 10
17.0
 20
-12.00000000000001
 30
0.0
 11
13.0
 21
-12.0
 31
0.0
  0
ARC
  5
20F
330
1F
100
AcDbEntity
  8
vis
100
AcDbCircle
 10
16.99999999999999
 20
-13.00000000000002
 30
0.0
 40
1.000000000000014
100
AcDbArc
 50
0.0
 51
90.0
  0
LINE
  5
210
330
1F
100
AcDbEntity
  8
vis
100
AcDbLine
 10
18.0
 20
-16.99999999999999
 30
0.0
 11
18.0
 21
-13.00000000000001
 31
0.0
  0
ARC
  5
211
330
1F
100
AcDbEntity
  8
vis
100
AcDbCircle
 10
16.99999999999999
 20
-16.99999999999999
 30
0.0
 40
1.000000000000018
100
AcDbArc
 50
270.0
 51
0.0
  0
LINE
  5
212
330
1F
100
AcDbEntity
  8
vis
100
AcDbLine
 10
13.0
 20
-18.0
 30
0.0
 11
17.0
 21
-18.0
 31
0.0
  0
ARC
  5
213
330
1F
100
AcDbEntity
  8
vis
100
AcDbCircle
 10
13.0
 20
-17.0
 30
0.0
 40
1.000000000000005
100
AcDbArc
 50
180.0
 51
270.0
  0
LINE
  5
214
330
1F
100
AcDbEntity
  8
vis
100
AcDbLine
 10
-18.0
 20
-13.00000000000001
 30
0.0
 11
-18.0
 21
-16.99999999999999
 31
0.0
  0
ARC
  5
215
330
1F
100
AcDbEntity
  8
vis
100
AcDbCircle
 10
-17.0
 20
-13.00000000000001
 30
0.0
 40
1.000000000000007
100
AcDbArc
 50
90.0
 51
180.0
  0
LINE
  5
216
330
1F
100
AcDbEntity
  8
vis
100
AcDbLine
 10
-13.0
 20
-12.0
 30
0.0
 11
-17.0
 21
-12.0
 31
0.0
  0
ARC
  5
217
330
1F
100
AcDbEntity
  8
vis
100
AcDbCircle
 10
-13.0
 20
-13.0
 30
0.0
 40
1.0
100
AcDbArc
 50
0.0
 51
90.0
  0
LINE
  5
218
330
1F
100
AcDbEntity
  8
vis
100
AcDbLine
 10
-12.0
 20
-17.0
 30
0.0
 11
-12.0
 21
-13.0
 31
0.0
  0
ARC
  5
219
330
1F
100
AcDbEntity
  8
vis
100
AcDbCircle
 10
-13.00000000000002
 20
-16.99999999999999
 30
0.0
 40
1.000000000000014
100
AcDbArc
 50
270.0
 51
0.0
  0
LINE
  5
21A
330
1F
100
AcDbEntity
  8
vis
100
AcDbLine
 10
-16.99999999999999
 20
-18.0
 30
0.0
 11
-13.0
 21
-18.0
 31
0.0
  0
ARC
  5
21B
330
1F
100
AcDbEntity
  8
vis
100
AcDbCircle
 10
-16.99999999999999
 20
-16.99999999999999
 30
0.0
 40
1.000000000000014
100
AcDbArc
 50
180.0
 51
270.0
  0
LINE
  5
21C
330
1F
100
AcDbEntity
  8
vis
100
AcDbLine
 10
-18.0
 20
16.99999999999999
 30
0.0
 11
-18.0
 21
13.00000000000001
 31
0.0
  0
ARC
  5
21D
330
1F
100
AcDbEntity
  8
vis
100
AcDbCircle
 10
-16.99999999999999
 20
16.99999999999999
 30
0.0
 40
1.000000000000018
100
AcDbArc
 50
90.0
 51
180.0
  0
LINE
  5
21E
330
1F
100
AcDbEntity
  8
vis
100
AcDbLine
 10
-13.00000000000001
 20
18.0
 30
0.0
 11
-17.0
 21
18.0
 31
0.0
  0
ARC
  5
21F
330
1F
100
AcDbEntity
  8
vis
100
AcDbCircle
 10
-13.00000000000001
 20
17.0
 30
0.0
 40
1.000000000000011
100
AcDbArc
 50
0.0
 51
90.0
  0
LINE
  5
220
330
1F
100
AcDbEntity
  8
vis
100
AcDbLine
 10
-12.0
 20
13.0
 30
0.0
 11
-12.0
 21
17.0
 31
0.0
  0
ARC
  5
221
330
1F
100
AcDbEntity
  8
vis
100
AcDbCircle
 10
-13.0
 20
13.0
 30
0.0
 40
1.0
100
AcDbArc
 50
270.0
 51
0.0
  0
LINE
  5
222
330
1F
100
AcDbEntity
  8
vis
100
AcDbLine
 10
-17.0
 20
12.0
 30
0.0
 11
-13.0
 21
12.0
 31
0.0
  0
ARC
  5
223
330
1F
100
AcDbEntity
  8
vis
100
AcDbCircle
 10
-17.0
 20
13.0
 30
0.0
 40
1.000000000000004
100
AcDbArc
 50
180.0
 51
270.0
  0
ARC
  5
224
330
1F
100
AcDbEntity
  8
vis
100
AcDbCircle
 10
-4.596194077712559
 20
4.596194077712558
 30
0.0
 40
0.9999999999999998
100
AcDbArc
 50
2.535181286402245
 51
267.4648181098886
  0
ARC
  5
225
330
1F
100
AcDbEntity
  8
vis
100
AcDbCircle
 10
-3.197564328832863
 20
4.65812004600307
 30
0.0
 40
0.3999999999999997
100
AcDbArc
 50
182.5351833993841
 51
304.4676330221736
  0
ARC
  5
226
330
1F
100
AcDbEntity
  8
vis
100
AcDbCircle
 10
0.000000000000002
 20
0.0000000000000044
 30
0.0
 40
5.249999999999996
100
AcDbArc
 50
55.53236697782641
 51
124.4676330221736
  0
ARC
  5
227
330
1F
100
AcDbEntity
  8
vis
100
AcDbCircle
 10
3.197564328832863
 20
4.658120046003071
 30
0.0
 40
0.3999999999999997
100
AcDbArc
 50
235.5323669778263
 51
357.4648181098889
  0
ARC
  5
228
330
1F
100
AcDbEntity
  8
vis
100
AcDbCircle
 10
4.59619407771256
 20
4.596194077712559
 30
0.0
 40
0.9999999999999998
100
AcDbArc
 50
272.5351818901113
 51
177.4648181098885
  0
ARC
  5
229
330
1F
100
AcDbEntity
  8
vis
100
AcDbCircle
 10
4.658120046003069
 20
3.197564328832862
 30
0.0
 40
0.4000000000000004
100
AcDbArc
 50
92.53518189011128
 51
214.4676330221747
  0
ARC
  5
22A
330
1F
100
AcDbEntity
  8
vis
100
AcDbCircle
 10
-0.0000000000000027
 20
-0.0000000000000013
 30
0.0
 40
5.250000000000003
100
AcDbArc
 50
325.5323669778264
 51
34.46763302217351
  0
ARC
  5
22B
330
1F
100
AcDbEntity
  8
vis
100
AcDbCircle
 10
4.65812004600307
 20
-3.197564328832863
 30
0.0
 40
0.3999999999999987
100
AcDbArc
 50
145.5323669778263
 51
267.4648181098889
  0
ARC
  5
22C
330
1F
100
AcDbEntity
  8
vis
100
AcDbCircle
 10
4.596194077712559
 20
-4.596194077712559
 30
0.0
 40
1.0
100
AcDbArc
 50
182.5351818901113
 51
87.46481810988851
  0
ARC
  5
22D
330
1F
100
AcDbEntity
  8
vis
100
AcDbCircle
 10
3.197564328832863
 20
-4.658120046003069
 30
0.0
 40
0.3999999999999995
100
AcDbArc
 50
2.535181890111144
 51
124.4676330221736
  0
ARC
  5
22E
330
1F
100
AcDbEntity
  8
vis
100
AcDbCircle
 10
-0.0000000000000009
 20
0.0000000000000018
 30
0.0
 40
5.250000000000002
100
AcDbArc
 50
235.5323669778264
 51
304.4676330221736
  0
ARC
  5
22F
330
1F
100
AcDbEntity
  8
vis
100
AcDbCircle
 10
-3.197564328832863
 20
-4.658120046003068
 30
0.0
 40
0.3999999999999978
100
AcDbArc
 50
55.53236697782605
 51
177.4648181098893
  0
ARC
  5
230
330
1F
100
AcDbEntity
  8
vis
100
AcDbCircle
 10
-4.596194077712559
 20
-4.596194077712559
 30
0.0
 40
1.000000000000001
100
AcDbArc
 50
92.53518189011133
 51
357.4648181098887
  0
ARC
  5
231
330
1F
100
AcDbEntity
  8
vis
100
AcDbCircle
 10
-4.658120046003072
 20
-3.197564328832861
 30
0.0
 40
0.4000000000000005
100
AcDbArc
 50
272.5351818901116
 51
34.46763302217315
  0
ARC
  5
232
330
1F
100
AcDbEntity
  8
vis
100
AcDbCircle
 10
0.0
 20
-0.0000000000000013
 30
0.0
 40
5.25
100
AcDbArc
 50
145.5323669778264
 51
214.4676330221736
  0
ARC
  5
233
330
1F
100
AcDbEntity
  8
vis
100
AcDbCircle
 10
-4.658120046003071
 20
3.197564328832861
 30
0.0
 40
0.4000000000000005
100
AcDbArc
 50
325.5323669778266
 51
87.46481810988861
  0
POINT
  5
234
330
1F
100
AcDbEntity
  8
ConnectionPoints
  6
Continuous
 62
     1
370
     5
100
AcDbPoint
 10
0.0
 20
0.0
 30
0.0
  0
POINT
  5
235
330
1F
100
AcDbEntity
  8
ConnectionPoints
  6
Continuous
 62
     1
370
     5
100
AcDbPoint
 10
0.0
 20
0.0
 30
0.0
  0
POINT
  5
236
330
1F
100
AcDbEntity
  8
ConnectionPoints
  6
Continuous
 62
     1
370
     5
100
AcDbPoint
 10
0.0
 20
0.0
 30
-3000.0
  0
ENDSEC
  0
SECTION
  2
OBJECTS
  0
DICTIONARY
  5
C
330
0
100
AcDbDictionary
281
     1
  3
ACAD_DETAILVIEWSTYLE
350
23B
  3
ACAD_GROUP
350
D
  3
ACAD_LAYOUT
350
1A
  3
ACAD_MATERIAL
350
43
  3
ACAD_MLEADERSTYLE
350
23A
  3
ACAD_MLINESTYLE
350
17
  3
ACAD_PLOTSETTINGS
350
19
  3
ACAD_PLOTSTYLENAME
350
E
  3
ACAD_SCALELIST
350
47
  3
ACAD_SECTIONVIEWSTYLE
350
23C
  3
ACAD_TABLESTYLE
350
239
  3
ACAD_VISUALSTYLE
350
2A
  3
AcDbVariableDictionary
350
237
  0
SUN
  5
69
330
29
100
AcDbSun
 90
        1
290
     0
 63
     7
421
 16777215
 40
1.0
291
     1
 91
  2455826
 92
 54000000
292
     0
 70
     2
 71
   256
280
     1
  0
DICTIONARY
  5
23B
102
{ACAD_REACTORS
330
C
102
}
330
C
100
AcDbDictionary
281
     1
  0
DICTIONARY
  5
D
102
{ACAD_REACTORS
330
C
102
}
330
C
100
AcDbDictionary
281
     1
  0
DICTIONARY
  5
1A
102
{ACAD_REACTORS
330
C
102
}
330
C
100
AcDbDictionary
281
     1
  3
Layout1
350
1E
  3
Layout2
350
26
  3
Model
350
22
  0
DICTIONARY
  5
43
102
{ACAD_REACTORS
330
C
102
}
330
C
100
AcDbDictionary
281
     1
  3
ByBlock
350
45
  3
ByLayer
350
44
  3
Global
350
46
  0
DICTIONARY
  5
23A
102
{ACAD_REACTORS
330
C
102
}
330
C
100
AcDbDictionary
281
     1
  0
DICTIONARY
  5
17
102
{ACAD_REACTORS
330
C
102
}
330
C
100
AcDbDictionary
281
     1
  3
Standard
350
18
  0
DICTIONARY
  5
19
102
{ACAD_REACTORS
330
C
102
}
330
C
100
AcDbDictionary
281
     1
  0
ACDBDICTIONARYWDFLT
  5
E
102
{ACAD_REACTORS
330
C
102
}
330
C
100
AcDbDictionary
281
     1
  3
Normal
350
F
100
AcDbDictionaryWithDefault
340
F
  0
DICTIONARY
  5
47
102
{ACAD_REACTORS
330
C
102
}
330
C
100
AcDbDictionary
281
     1
  3
A0
350
48
  3
A1
350
49
  3
A2
350
4A
  3
A3
350
4B
  3
A4
350
4C
  3
A5
350
4D
  3
A6
350
4E
  3
A7
350
4F
  3
A8
350
50
  3
A9
350
51
  3
B0
350
52
  3
B1
350
53
  3
B2
350
54
  3
B3
350
55
  3
B4
350
56
  3
B5
350
57
  3
B6
350
58
  3
B7
350
59
  3
B8
350
5A
  3
B9
350
5B
  3
C0
350
5C
  3
C1
350
5D
  3
C2
350
5E
  3
C3
350
5F
  3
C4
350
60
  3
C5
350
61
  3
C6
350
62
  3
C7
350
63
  3
C8
350
64
  3
C9
350
65
  3
D0
350
66
  3
D1
350
67
  3
D2
350
68
  0
DICTIONARY
  5
23C
102
{ACAD_REACTORS
330
C
102
}
330
C
100
AcDbDictionary
281
     1
  0
DICTIONARY
  5
239
102
{ACAD_REACTORS
330
C
102
}
330
C
100
AcDbDictionary
281
     1
  0
DICTIONARY
  5
2A
102
{ACAD_REACTORS
330
C
102
}
330
C
100
AcDbDictionary
281
     1
  3
2dWireframe
350
2F
  3
Basic
350
32
  3
Brighten
350
36
  3
ColorChange
350
3A
  3
Conceptual
350
34
  3
Dim
350
35
  3
EdgeColorOff
350
3D
  3
Facepattern
350
39
  3
Flat
350
2B
  3
FlatWithEdges
350
2C
  3
Gouraud
350
2D
  3
GouraudWithEdges
350
2E
  3
Hidden
350
31
  3
JitterOff
350
3B
  3
Linepattern
350
38
  3
OverhangOff
350
3C
  3
Realistic
350
33
  3
Shaded
350
42
  3
Shaded with edges
350
41
  3
Shades of Gray
350
3E
  3
Sketchy
350
3F
  3
Thicken
350
37
  3
Wireframe
350
30
  3
X-Ray
350
40
  0
DICTIONARY
  5
237
102
{ACAD_REACTORS
330
C
102
}
330
C
100
AcDbDictionary
281
     1
  3
CANNOSCALE
350
238
  0
LAYOUT
  5
1E
102
{ACAD_REACTORS
330
1A
102
}
330
1A
100
AcDbPlotSettings
  1

  2
none_device
  4

  6

 40
0.0
 41
0.0
 42
0.0
 43
0.0
 44
0.0
 45
0.0
 46
0.0
 47
0.0
 48
0.0
 49
0.0
140
0.0
141
0.0
142
1.0
143
1.0
 70
   688
 72
     1
 73
     0
 74
     5
  7

 75
    16
 76
     0
 77
     2
 78
   300
147
1.0
148
0.0
149
0.0
100
AcDbLayout
  1
Layout1
 70
     1
 71
     1
 10
0.0
 20
0.0
 11
420.0
 21
297.0
 12
0.0
 22
0.0
 32
0.0
 14
1.000000000000000E+20
 24
1.000000000000000E+20
 34
1.000000000000000E+20
 15
-1.000000000000000E+20
 25
-1.000000000000000E+20
 35
-1.000000000000000E+20
146
0.0
 13
0.0
 23
0.0
 33
0.0
 16
1.0
 26
0.0
 36
0.0
 17
0.0
 27
1.0
 37
0.0
 76
     0
330
1B
  0
LAYOUT
  5
26
102
{ACAD_REACTORS
330
1A
102
}
330
1A
100
AcDbPlotSettings
  1

  2
none_device
  4

  6

 40
0.0
 41
0.0
 42
0.0
 43
0.0
 44
0.0
 45
0.0
 46
0.0
 47
0.0
 48
0.0
 49
0.0
140
0.0
141
0.0
142
1.0
143
1.0
 70
   688
 72
     1
 73
     0
 74
     5
  7

 75
    16
 76
     0
 77
     2
 78
   300
147
1.0
148
0.0
149
0.0
100
AcDbLayout
  1
Layout2
 70
     1
 71
     2
 10
0.0
 20
0.0
 11
0.0
 21
0.0
 12
0.0
 22
0.0
 32
0.0
 14
0.0
 24
0.0
 34
0.0
 15
0.0
 25
0.0
 35
0.0
146
0.0
 13
0.0
 23
0.0
 33
0.0
 16
1.0
 26
0.0
 36
0.0
 17
0.0
 27
1.0
 37
0.0
 76
     0
330
23
  0
LAYOUT
  5
22
102
{ACAD_REACTORS
330
1A
102
}
330
1A
100
AcDbPlotSettings
  1

  2
none_device
  4
Letter_(8.50_x_11.00_Inches)
  6

 40
6.35
 41
6.35
 42
6.35000508
 43
6.35000508
 44
215.9
 45
279.4
 46
0.0
 47
0.0
 48
0.0
 49
0.0
140
0.0
141
0.0
142
1.0
143
1.0
 70
  1712
 72
     1
 73
     0
 74
     0
  7

 75
     0
 76
     0
 77
     2
 78
   300
147
1.0
148
0.0
149
0.0
100
AcDbLayout
  1
Model
 70
     1
 71
     0
 10
0.0
 20
0.0
 11
420.0
 21
297.0
 12
0.0
 22
0.0
 32
0.0
 14
1.000000000000000E+20
 24
1.000000000000000E+20
 34
1.000000000000000E+20
 15
-1.000000000000000E+20
 25
-1.000000000000000E+20
 35
-1.000000000000000E+20
146
0.0
 13
0.0
 23
0.0
 33
0.0
 16
1.0
 26
0.0
 36
0.0
 17
0.0
 27
1.0
 37
0.0
 76
     0
330
1F
331
29
  0
MATERIAL
  5
45
102
{ACAD_REACTORS
330
43
102
}
330
43
100
AcDbMaterial
  1
ByBlock
 72
     1
 94
      127
  0
MATERIAL
  5
44
102
{ACAD_REACTORS
330
43
102
}
330
43
100
AcDbMaterial
  1
ByLayer
 72
     1
 94
      127
  0
MATERIAL
  5
46
102
{ACAD_REACTORS
330
43
102
}
330
43
100
AcDbMaterial
  1
Global
 72
     1
 94
      127
  0
MLINESTYLE
  5
18
102
{ACAD_REACTORS
330
17
102
}
330
17
100
AcDbMlineStyle
  2
Standard
 70
     0
  3

 62
   256
 51
90.0
 52
90.0
 71
     2
 49
0.5
 62
   256
  6
BYLAYER
 49
-0.5
 62
   256
  6
BYLAYER
  0
ACDBPLACEHOLDER
  5
F
102
{ACAD_REACTORS
330
E
102
}
330
E
  0
SCALE
  5
48
102
{ACAD_REACTORS
330
47
102
}
330
47
100
AcDbScale
 70
     0
300
1:1
140
1.0
141
1.0
290
     1
  0
SCALE
  5
49
102
{ACAD_REACTORS
330
47
102
}
330
47
100
AcDbScale
 70
     0
300
1:2
140
1.0
141
2.0
290
     0
  0
SCALE
  5
4A
102
{ACAD_REACTORS
330
47
102
}
330
47
100
AcDbScale
 70
     0
300
1:4
140
1.0
141
4.0
290
     0
  0
SCALE
  5
4B
102
{ACAD_REACTORS
330
47
102
}
330
47
100
AcDbScale
 70
     0
300
1:5
140
1.0
141
5.0
290
     0
  0
SCALE
  5
4C
102
{ACAD_REACTORS
330
47
102
}
330
47
100
AcDbScale
 70
     0
300
1:8
140
1.0
141
8.0
290
     0
  0
SCALE
  5
4D
102
{ACAD_REACTORS
330
47
102
}
330
47
100
AcDbScale
 70
     0
300
1:10
140
1.0
141
10.0
290
     0
  0
SCALE
  5
4E
102
{ACAD_REACTORS
330
47
102
}
330
47
100
AcDbScale
 70
     0
300
1:16
140
1.0
141
16.0
290
     0
  0
SCALE
  5
4F
102
{ACAD_REACTORS
330
47
102
}
330
47
100
AcDbScale
 70
     0
300
1:20
140
1.0
141
20.0
290
     0
  0
SCALE
  5
50
102
{ACAD_REACTORS
330
47
102
}
330
47
100
AcDbScale
 70
     0
300
1:30
140
1.0
141
30.0
290
     0
  0
SCALE
  5
51
102
{ACAD_REACTORS
330
47
102
}
330
47
100
AcDbScale
 70
     0
300
1:40
140
1.0
141
40.0
290
     0
  0
SCALE
  5
52
102
{ACAD_REACTORS
330
47
102
}
330
47
100
AcDbScale
 70
     0
300
1:50
140
1.0
141
50.0
290
     0
  0
SCALE
  5
53
102
{ACAD_REACTORS
330
47
102
}
330
47
100
AcDbScale
 70
     0
300
1:100
140
1.0
141
100.0
290
     0
  0
SCALE
  5
54
102
{ACAD_REACTORS
330
47
102
}
330
47
100
AcDbScale
 70
     0
300
2:1
140
2.0
141
1.0
290
     0
  0
SCALE
  5
55
102
{ACAD_REACTORS
330
47
102
}
330
47
100
AcDbScale
 70
     0
300
4:1
140
4.0
141
1.0
290
     0
  0
SCALE
  5
56
102
{ACAD_REACTORS
330
47
102
}
330
47
100
AcDbScale
 70
     0
300
8:1
140
8.0
141
1.0
290
     0
  0
SCALE
  5
57
102
{ACAD_REACTORS
330
47
102
}
330
47
100
AcDbScale
 70
     0
300
10:1
140
10.0
141
1.0
290
     0
  0
SCALE
  5
58
102
{ACAD_REACTORS
330
47
102
}
330
47
100
AcDbScale
 70
     0
300
100:1
140
100.0
141
1.0
290
     0
  0
SCALE
  5
59
102
{ACAD_REACTORS
330
47
102
}
330
47
100
AcDbScale
 70
     0
300
1/128" = 1'-0"
140
0.0078125
141
12.0
290
     0
  0
SCALE
  5
5A
102
{ACAD_REACTORS
330
47
102
}
330
47
100
AcDbScale
 70
     0
300
1/64" = 1'-0"
140
0.015625
141
12.0
290
     0
  0
SCALE
  5
5B
102
{ACAD_REACTORS
330
47
102
}
330
47
100
AcDbScale
 70
     0
300
1/32" = 1'-0"
140
0.03125
141
12.0
290
     0
  0
SCALE
  5
5C
102
{ACAD_REACTORS
330
47
102
}
330
47
100
AcDbScale
 70
     0
300
1/16" = 1'-0"
140
0.0625
141
12.0
290
     0
  0
SCALE
  5
5D
102
{ACAD_REACTORS
330
47
102
}
330
47
100
AcDbScale
 70
     0
300
3/32" = 1'-0"
140
0.09375
141
12.0
290
     0
  0
SCALE
  5
5E
102
{ACAD_REACTORS
330
47
102
}
330
47
100
AcDbScale
 70
     0
300
1/8" = 1'-0"
140
0.125
141
12.0
290
     0
  0
SCALE
  5
5F
102
{ACAD_REACTORS
330
47
102
}
330
47
100
AcDbScale
 70
     0
300
3/16" = 1'-0"
140
0.1875
141
12.0
290
     0
  0
SCALE
  5
60
102
{ACAD_REACTORS
330
47
102
}
330
47
100
AcDbScale
 70
     0
300
1/4" = 1'-0"
140
0.25
141
12.0
290
     0
  0
SCALE
  5
61
102
{ACAD_REACTORS
330
47
102
}
330
47
100
AcDbScale
 70
     0
300
3/8" = 1'-0"
140
0.375
141
12.0
290
     0
  0
SCALE
  5
62
102
{ACAD_REACTORS
330
47
102
}
330
47
100
AcDbScale
 70
     0
300
1/2" = 1'-0"
140
0.5
141
12.0
290
     0
  0
SCALE
  5
63
102
{ACAD_REACTORS
330
47
102
}
330
47
100
AcDbScale
 70
     0
300
3/4" = 1'-0"
140
0.75
141
12.0
290
     0
  0
SCALE
  5
64
102
{ACAD_REACTORS
330
47
102
}
330
47
100
AcDbScale
 70
     0
300
1" = 1'-0"
140
1.0
141
12.0
290
     0
  0
SCALE
  5
65
102
{ACAD_REACTORS
330
47
102
}
330
47
100
AcDbScale
 70
     0
300
1-1/2" = 1'-0"
140
1.5
141
12.0
290
     0
  0
SCALE
  5
66
102
{ACAD_REACTORS
330
47
102
}
330
47
100
AcDbScale
 70
     0
300
3" = 1'-0"
140
3.0
141
12.0
290
     0
  0
SCALE
  5
67
102
{ACAD_REACTORS
330
47
102
}
330
47
100
AcDbScale
 70
     0
300
6" = 1'-0"
140
6.0
141
12.0
290
     0
  0
SCALE
  5
68
102
{ACAD_REACTORS
330
47
102
}
330
47
100
AcDbScale
 70
     0
300
1'-0" = 1'-0"
140
12.0
141
12.0
290
     0
  0
VISUALSTYLE
  5
2F
102
{ACAD_REACTORS
330
2A
102
}
330
2A
100
AcDbVisualStyle
  2
2dWireframe
 70
     4
177
     3
291
     0
 70
    58
 90
        0
176
     1
 90
        2
176
     1
 90
        0
176
     1
 90
        0
176
     1
 40
0.6
176
     1
 40
30.0
176
     1
 62
     7
420
 16777215
176
     1
 90
        1
176
     1
 90
        4
176
     1
 62
     7
176
     1
 62
   257
176
     1
 90
        1
176
     1
 90
        1
176
     1
 40
1.0
176
     1
 90
        0
176
     1
 62
   257
176
     1
 40
1.0
176
     1
 90
        1
176
     1
 90
        6
176
     1
 90
        2
176
     1
 62
     7
176
     1
 90
        5
176
     1
 90
        0
176
     1
 90
        0
176
     1
290
     0
176
     1
 90
        1
176
     1
 40
0.0
176
     1
 90
        0
176
     1
290
     1
176
     1
290
     1
176
     1
290
     0
176
     1
290
     0
176
     1
290
     0
176
     1
290
     0
176
     1
290
     0
176
     1
290
     0
176
     1
290
     0
176
     1
 90
       50
176
     1
 40
0.0
176
     1
 40
1.0
176
     1
 90
        0
176
     1
 62
    18
420
        0
176
     1
 90
       50
176
     1
 90
        3
176
     1
 62
     5
420
      255
176
     1
290
     0
176
     1
 90
       50
176
     1
 90
       50
176
     1
 90
       50
176
     1
290
     0
176
     1
 90
       50
176
     1
 62
   256
176
     0
 40
1.0
176
     0
 90
        2
176
     1
  1
strokes_ogs.tif
176
     1
290
     0
176
     1
 40
1.0
176
     1
 40
1.0
176
     1
  0
VISUALSTYLE
  5
32
102
{ACAD_REACTORS
330
2A
102
}
330
2A
100
AcDbVisualStyle
  2
Basic
 70
     7
177
     3
291
     1
 70
    58
 90
        1
176
     1
 90
        0
176
     1
 90
        1
176
     1
 90
        0
176
     1
 40
0.6
176
     1
 40
30.0
176
     1
 62
     7
420
 16777215
176
     1
 90
        0
176
     1
 90
        4
176
     1
 62
     7
176
     1
 62
   257
176
     1
 90
        1
176
     1
 90
        1
176
     1
 40
1.0
176
     1
 90
        8
176
     1
 62
     7
176
     1
 40
1.0
176
     1
 90
        1
176
     1
 90
        6
176
     1
 90
        2
176
     1
 62
     7
176
     1
 90
        5
176
     1
 90
        0
176
     1
 90
        0
176
     1
290
     0
176
     1
 90
        1
176
     1
 40
0.0
176
     1
 90
        0
176
     1
290
     0
176
     1
290
     1
176
     1
290
     1
176
     1
290
     0
176
     1
290
     0
176
     1
290
     0
176
     1
290
     0
176
     1
290
     0
176
     1
290
     0
176
     1
 90
       50
176
     1
 40
0.0
176
     1
 40
1.0
176
     1
 90
        0
176
     1
 62
    18
420
        0
176
     1
 90
       50
176
     1
 90
        3
176
     1
 62
     5
420
      255
176
     1
290
     0
176
     1
 90
       50
176
     1
 90
       50
176
     1
 90
       50
176
     1
290
     0
176
     1
 90
       50
176
     1
 62
   256
176
     0
 40
1.0
176
     0
 90
        2
176
     1
  1
strokes_ogs.tif
176
     1
290
     0
176
     1
 40
1.0
176
     1
 40
1.0
176
     1
  0
VISUALSTYLE
  5
36
102
{ACAD_REACTORS
330
2A
102
}
330
2A
100
AcDbVisualStyle
  2
Brighten
 70
    12
177
     3
291
     1
 70
    58
 90
        2
176
     1
 90
        2
176
     1
 90
        0
176
     1
 90
        0
176
     1
 40
0.6
176
     1
 40
30.0
176
     1
 62
     7
420
 16777215
176
     1
 90
        1
176
     1
 90
        4
176
     1
 62
     7
176
     1
 62
   257
176
     1
 90
        1
176
     1
 90
        1
176
     1
 40
1.0
176
     1
 90
        8
176
     1
 62
     7
176
     1
 40
1.0
176
     1
 90
        1
176
     1
 90
        6
176
     1
 90
        2
176
     1
 62
     7
176
     1
 90
        5
176
     1
 90
        0
176
     1
 90
        0
176
     1
290
     0
176
     1
 90
        1
176
     1
 40
50.0
176
     1
 90
        0
176
     1
290
     0
176
     1
290
     1
176
     1
290
     1
176
     1
290
     0
176
     1
290
     0
176
     1
290
     0
176
     1
290
     0
176
     1
290
     0
176
     1
290
     0
176
     1
 90
       50
176
     1
 40
0.0
176
     1
 40
1.0
176
     1
 90
        0
176
     1
 62
    18
420
        0
176
     1
 90
       50
176
     1
 90
        3
176
     1
 62
     5
420
      255
176
     1
290
     0
176
     1
 90
       50
176
     1
 90
       50
176
     1
 90
       50
176
     1
290
     0
176
     1
 90
       50
176
     1
 62
   256
176
     0
 40
1.0
176
     0
 90
        2
176
     1
  1
strokes_ogs.tif
176
     1
290
     0
176
     1
 40
1.0
176
     1
 40
1.0
176
     1
  0
VISUALSTYLE
  5
3A
102
{ACAD_REACTORS
330
2A
102
}
330
2A
100
AcDbVisualStyle
  2
ColorChange
 70
    16
177
     3
291
     1
 70
    58
 90
        2
176
     1
 90
        2
176
     1
 90
        3
176
     1
 90
        0
176
     1
 40
0.6
176
     1
 40
30.0
176
     1
 62
     8
420
  8421504
176
     1
 90
        1
176
     1
 90
        4
176
     1
 62
     7
176
     1
 62
   257
176
     1
 90
        1
176
     1
 90
        1
176
     1
 40
1.0
176
     1
 90
        8
176
     1
 62
     8
420
  8421504
176
     1
 40
1.0
176
     1
 90
        1
176
     1
 90
        6
176
     1
 90
        2
176
     1
 62
     7
176
     1
 90
        5
176
     1
 90
        0
176
     1
 90
        0
176
     1
290
     0
176
     1
 90
        1
176
     1
 40
0.0
176
     1
 90
        0
176
     1
290
     0
176
     1
290
     1
176
     1
290
     1
176
     1
290
     0
176
     1
290
     0
176
     1
290
     0
176
     1
290
     0
176
     1
290
     0
176
     1
290
     0
176
     1
 90
       50
176
     1
 40
0.0
176
     1
 40
1.0
176
     1
 90
        0
176
     1
 62
    18
420
        0
176
     1
 90
       50
176
     1
 90
        3
176
     1
 62
     5
420
      255
176
     1
290
     0
176
     1
 90
       50
176
     1
 90
       50
176
     1
 90
       50
176
     1
290
     0
176
     1
 90
       50
176
     1
 62
   256
176
     0
 40
1.0
176
     0
 90
        2
176
     1
  1
strokes_ogs.tif
176
     1
290
     0
176
     1
 40
1.0
176
     1
 40
1.0
176
     1
  0
VISUALSTYLE
  5
34
102
{ACAD_REACTORS
330
2A
102
}
330
2A
100
AcDbVisualStyle
  2
Conceptual
 70
     9
177
     3
291
     0
 70
    58
 90
        3
176
     1
 90
        2
176
     1
 90
        0
176
     1
 90
        0
176
     1
 40
0.6
176
     1
 40
30.0
176
     1
 62
     7
420
 16777215
176
     1
 90
        2
176
     1
 90
        2
176
     1
 62
     7
176
     1
 62
   257
176
     1
 90
        1
176
     1
 90
        1
176
     1
 40
179.0
176
     1
 90
        8
176
     1
 62
     7
176
     1
 40
1.0
176
     1
 90
        1
176
     1
 90
        6
176
     1
 90
        2
176
     1
 62
     7
176
     1
 90
        3
176
     1
 90
        0
176
     1
 90
        0
176
     1
290
     0
176
     1
 90
        1
176
     1
 40
0.0
176
     1
 90
        0
176
     1
290
     0
176
     1
290
     1
176
     1
290
     1
176
     1
290
     0
176
     1
290
     0
176
     1
290
     0
176
     1
290
     0
176
     1
290
     0
176
     1
290
     0
176
     1
 90
       50
176
     1
 40
0.0
176
     1
 40
1.0
176
     1
 90
        0
176
     1
 62
    18
420
        0
176
     1
 90
       50
176
     1
 90
        3
176
     1
 62
     5
420
      255
176
     1
290
     0
176
     1
 90
       50
176
     1
 90
       50
176
     1
 90
       50
176
     1
290
     0
176
     1
 90
       50
176
     1
 62
   256
176
     0
 40
1.0
176
     0
 90
        2
176
     1
  1
strokes_ogs.tif
176
     1
290
     0
176
     1
 40
1.0
176
     1
 40
1.0
176
     1
  0
VISUALSTYLE
  5
35
102
{ACAD_REACTORS
330
2A
102
}
330
2A
100
AcDbVisualStyle
  2
Dim
 70
    11
177
     3
291
     1
 70
    58
 90
        2
176
     1
 90
        2
176
     1
 90
        0
176
     1
 90
        0
176
     1
 40
0.6
176
     1
 40
30.0
176
     1
 62
     7
420
 16777215
176
     1
 90
        1
176
     1
 90
        4
176
     1
 62
     7
176
     1
 62
   257
176
     1
 90
        1
176
     1
 90
        1
176
     1
 40
1.0
176
     1
 90
        8
176
     1
 62
     7
176
     1
 40
1.0
176
     1
 90
        1
176
     1
 90
        6
176
     1
 90
        2
176
     1
 62
     7
176
     1
 90
        5
176
     1
 90
        0
176
     1
 90
        0
176
     1
290
     0
176
     1
 90
        1
176
     1
 40
-50.0
176
     1
 90
        0
176
     1
290
     0
176
     1
290
     1
176
     1
290
     1
176
     1
290
     0
176
     1
290
     0
176
     1
290
     0
176
     1
290
     0
176
     1
290
     0
176
     1
290
     0
176
     1
 90
       50
176
     1
 40
0.0
176
     1
 40
1.0
176
     1
 90
        0
176
     1
 62
    18
420
        0
176
     1
 90
       50
176
     1
 90
        3
176
     1
 62
     5
420
      255
176
     1
290
     0
176
     1
 90
       50
176
     1
 90
       50
176
     1
 90
       50
176
     1
290
     0
176
     1
 90
       50
176
     1
 62
   256
176
     0
 40
1.0
176
     0
 90
        2
176
     1
  1
strokes_ogs.tif
176
     1
290
     0
176
     1
 40
1.0
176
     1
 40
1.0
176
     1
  0
VISUALSTYLE
  5
3D
102
{ACAD_REACTORS
330
2A
102
}
330
2A
100
AcDbVisualStyle
  2
EdgeColorOff
 70
    22
177
     3
291
     1
 70
    58
 90
        2
176
     0
 90
        2
176
     0
 90
        0
176
     0
 90
        0
176
     0
 40
0.6
176
     0
 40
30.0
176
     0
 62
     7
420
 16777215
176
     0
 90
        1
176
     0
 90
        4
176
     0
 62
     7
176
     0
 62
   257
176
     0
 90
        1
176
     0
 90
        1
176
     0
 40
1.0
176
     0
 90
        8
176
     2
 62
     7
176
     0
 40
1.0
176
     0
 90
        1
176
     0
 90
        6
176
     0
 90
        2
176
     0
 62
     7
176
     0
 90
        5
176
     0
 90
        0
176
     0
 90
        0
176
     0
290
     0
176
     0
 90
        1
176
     0
 40
0.0
176
     0
 90
        0
176
     0
290
     0
176
     0
290
     1
176
     0
290
     1
176
     0
290
     0
176
     0
290
     0
176
     0
290
     0
176
     0
290
     0
176
     0
290
     0
176
     0
290
     0
176
     0
 90
       50
176
     0
 40
0.0
176
     0
 40
1.0
176
     0
 90
        0
176
     0
 62
    18
420
        0
176
     0
 90
       50
176
     0
 90
        3
176
     0
 62
     5
420
      255
176
     0
290
     0
176
     0
 90
       50
176
     0
 90
       50
176
     0
 90
       50
176
     0
290
     0
176
     0
 90
       50
176
     0
 62
   256
176
     0
 40
1.0
176
     0
 90
        2
176
     0
  1
strokes_ogs.tif
176
     0
290
     0
176
     0
 40
1.0
176
     0
 40
1.0
176
     0
  0
VISUALSTYLE
  5
39
102
{ACAD_REACTORS
330
2A
102
}
330
2A
100
AcDbVisualStyle
  2
Facepattern
 70
    15
177
     3
291
     1
 70
    58
 90
        2
176
     1
 90
        2
176
     1
 90
        0
176
     1
 90
        0
176
     1
 40
0.6
176
     1
 40
30.0
176
     1
 62
     7
420
 16777215
176
     1
 90
        1
176
     1
 90
        4
176
     1
 62
     7
176
     1
 62
   257
176
     1
 90
        1
176
     1
 90
        1
176
     1
 40
1.0
176
     1
 90
        8
176
     1
 62
     7
176
     1
 40
1.0
176
     1
 90
        1
176
     1
 90
        6
176
     1
 90
        2
176
     1
 62
     7
176
     1
 90
        5
176
     1
 90
        0
176
     1
 90
        0
176
     1
290
     0
176
     1
 90
        1
176
     1
 40
0.0
176
     1
 90
        0
176
     1
290
     0
176
     1
290
     1
176
     1
290
     1
176
     1
290
     0
176
     1
290
     0
176
     1
290
     0
176
     1
290
     0
176
     1
290
     0
176
     1
290
     0
176
     1
 90
       50
176
     1
 40
0.0
176
     1
 40
1.0
176
     1
 90
        0
176
     1
 62
    18
420
        0
176
     1
 90
       50
176
     1
 90
        3
176
     1
 62
     5
420
      255
176
     1
290
     0
176
     1
 90
       50
176
     1
 90
       50
176
     1
 90
       50
176
     1
290
     0
176
     1
 90
       50
176
     1
 62
   256
176
     0
 40
1.0
176
     0
 90
        2
176
     1
  1
strokes_ogs.tif
176
     1
290
     0
176
     1
 40
1.0
176
     1
 40
1.0
176
     1
  0
VISUALSTYLE
  5
2B
102
{ACAD_REACTORS
330
2A
102
}
330
2A
100
AcDbVisualStyle
  2
Flat
 70
     0
177
     3
291
     1
 70
    58
 90
        2
176
     1
 90
        1
176
     1
 90
        1
176
     1
 90
        2
176
     1
 40
0.6
176
     1
 40
30.0
176
     1
 62
     7
420
 16777215
176
     1
 90
        0
176
     1
 90
        0
176
     1
 62
     7
176
     1
 62
   257
176
     1
 90
        1
176
     1
 90
        1
176
     1
 40
1.0
176
     1
 90
        8
176
     1
 62
     7
176
     1
 40
1.0
176
     1
 90
        1
176
     1
 90
        6
176
     1
 90
        2
176
     1
 62
     7
176
     1
 90
        5
176
     1
 90
        0
176
     1
 90
        0
176
     1
290
     0
176
     1
 90
       13
176
     1
 40
0.0
176
     1
 90
        0
176
     1
290
     0
176
     1
290
     1
176
     1
290
     1
176
     1
290
     0
176
     1
290
     0
176
     1
290
     0
176
     1
290
     0
176
     1
290
     0
176
     1
290
     0
176
     1
 90
       50
176
     1
 40
0.0
176
     1
 40
1.0
176
     1
 90
        0
176
     1
 62
    18
420
        0
176
     1
 90
       50
176
     1
 90
        3
176
     1
 62
     5
420
      255
176
     1
290
     0
176
     1
 90
       50
176
     1
 90
       50
176
     1
 90
       50
176
     1
290
     0
176
     1
 90
       50
176
     1
 62
   256
176
     0
 40
1.0
176
     0
 90
        2
176
     1
  1
strokes_ogs.tif
176
     1
290
     0
176
     1
 40
1.0
176
     1
 40
1.0
176
     1
  0
VISUALSTYLE
  5
2C
102
{ACAD_REACTORS
330
2A
102
}
330
2A
100
AcDbVisualStyle
  2
FlatWithEdges
 70
     1
177
     3
291
     1
 70
    58
 90
        2
176
     1
 90
        1
176
     1
 90
        1
176
     1
 90
        2
176
     1
 40
0.6
176
     1
 40
30.0
176
     1
 62
     7
420
 16777215
176
     1
 90
        1
176
     1
 90
        0
176
     1
 62
     7
176
     1
 62
   257
176
     1
 90
        1
176
     1
 90
        1
176
     1
 40
1.0
176
     1
 90
        0
176
     1
 62
   257
176
     1
 40
1.0
176
     1
 90
        1
176
     1
 90
        6
176
     1
 90
        2
176
     1
 62
     7
176
     1
 90
        5
176
     1
 90
        0
176
     1
 90
        0
176
     1
290
     0
176
     1
 90
       13
176
     1
 40
0.0
176
     1
 90
        0
176
     1
290
     0
176
     1
290
     1
176
     1
290
     1
176
     1
290
     0
176
     1
290
     0
176
     1
290
     0
176
     1
290
     0
176
     1
290
     0
176
     1
290
     0
176
     1
 90
       50
176
     1
 40
0.0
176
     1
 40
1.0
176
     1
 90
        0
176
     1
 62
    18
420
        0
176
     1
 90
       50
176
     1
 90
        3
176
     1
 62
     5
420
      255
176
     1
290
     0
176
     1
 90
       50
176
     1
 90
       50
176
     1
 90
       50
176
     1
290
     0
176
     1
 90
       50
176
     1
 62
   256
176
     0
 40
1.0
176
     0
 90
        2
176
     1
  1
strokes_ogs.tif
176
     1
290
     0
176
     1
 40
1.0
176
     1
 40
1.0
176
     1
  0
VISUALSTYLE
  5
2D
102
{ACAD_REACTORS
330
2A
102
}
330
2A
100
AcDbVisualStyle
  2
Gouraud
 70
     2
177
     3
291
     1
 70
    58
 90
        2
176
     1
 90
        2
176
     1
 90
        1
176
     1
 90
        2
176
     1
 40
0.6
176
     1
 40
30.0
176
     1
 62
     7
420
 16777215
176
     1
 90
        0
176
     1
 90
        0
176
     1
 62
     7
176
     1
 62
   257
176
     1
 90
        1
176
     1
 90
        1
176
     1
 40
1.0
176
     1
 90
        0
176
     1
 62
     7
176
     1
 40
1.0
176
     1
 90
        1
176
     1
 90
        6
176
     1
 90
        2
176
     1
 62
     7
176
     1
 90
        5
176
     1
 90
        0
176
     1
 90
        0
176
     1
290
     0
176
     1
 90
       13
176
     1
 40
0.0
176
     1
 90
        0
176
     1
290
     0
176
     1
290
     1
176
     1
290
     1
176
     1
290
     0
176
     1
290
     0
176
     1
290
     0
176
     1
290
     0
176
     1
290
     0
176
     1
290
     0
176
     1
 90
       50
176
     1
 40
0.0
176
     1
 40
1.0
176
     1
 90
        0
176
     1
 62
    18
420
        0
176
     1
 90
       50
176
     1
 90
        3
176
     1
 62
     5
420
      255
176
     1
290
     0
176
     1
 90
       50
176
     1
 90
       50
176
     1
 90
       50
176
     1
290
     0
176
     1
 90
       50
176
     1
 62
   256
176
     0
 40
1.0
176
     0
 90
        2
176
     1
  1
strokes_ogs.tif
176
     1
290
     0
176
     1
 40
1.0
176
     1
 40
1.0
176
     1
  0
VISUALSTYLE
  5
2E
102
{ACAD_REACTORS
330
2A
102
}
330
2A
100
AcDbVisualStyle
  2
GouraudWithEdges
 70
     3
177
     3
291
     1
 70
    58
 90
        2
176
     1
 90
        2
176
     1
 90
        1
176
     1
 90
        2
176
     1
 40
0.6
176
     1
 40
30.0
176
     1
 62
     7
420
 16777215
176
     1
 90
        1
176
     1
 90
        0
176
     1
 62
     7
176
     1
 62
   257
176
     1
 90
        1
176
     1
 90
        1
176
     1
 40
1.0
176
     1
 90
        0
176
     1
 62
   257
176
     1
 40
1.0
176
     1
 90
        1
176
     1
 90
        6
176
     1
 90
        2
176
     1
 62
     7
176
     1
 90
        5
176
     1
 90
        0
176
     1
 90
        0
176
     1
290
     0
176
     1
 90
       13
176
     1
 40
0.0
176
     1
 90
        0
176
     1
290
     0
176
     1
290
     1
176
     1
290
     1
176
     1
290
     0
176
     1
290
     0
176
     1
290
     0
176
     1
290
     0
176
     1
290
     0
176
     1
290
     0
176
     1
 90
       50
176
     1
 40
0.0
176
     1
 40
1.0
176
     1
 90
        0
176
     1
 62
    18
420
        0
176
     1
 90
       50
176
     1
 90
        3
176
     1
 62
     5
420
      255
176
     1
290
     0
176
     1
 90
       50
176
     1
 90
       50
176
     1
 90
       50
176
     1
290
     0
176
     1
 90
       50
176
     1
 62
   256
176
     0
 40
1.0
176
     0
 90
        2
176
     1
  1
strokes_ogs.tif
176
     1
290
     0
176
     1
 40
1.0
176
     1
 40
1.0
176
     1
  0
VISUALSTYLE
  5
31
102
{ACAD_REACTORS
330
2A
102
}
330
2A
100
AcDbVisualStyle
  2
Hidden
 70
     6
177
     3
291
     0
 70
    58
 90
        1
176
     1
 90
        2
176
     1
 90
        2
176
     1
 90
        0
176
     1
 40
0.6
176
     1
 40
30.0
176
     1
 62
     7
420
 16777215
176
     1
 90
        2
176
     1
 90
        2
176
     1
 62
     7
176
     1
 62
   257
176
     1
 90
        2
176
     1
 90
        1
176
     1
 40
40.0
176
     1
 90
        0
176
     1
 62
   257
176
     1
 40
1.0
176
     1
 90
        1
176
     1
 90
        6
176
     1
 90
        2
176
     1
 62
     7
176
     1
 90
        3
176
     1
 90
        0
176
     1
 90
        0
176
     1
290
     0
176
     1
 90
        1
176
     1
 40
0.0
176
     1
 90
        0
176
     1
290
     0
176
     1
290
     1
176
     1
290
     1
176
     1
290
     0
176
     1
290
     0
176
     1
290
     0
176
     1
290
     0
176
     1
290
     0
176
     1
290
     0
176
     1
 90
       50
176
     1
 40
0.0
176
     1
 40
1.0
176
     1
 90
        0
176
     1
 62
    18
420
        0
176
     1
 90
       50
176
     1
 90
        3
176
     1
 62
     5
420
      255
176
     1
290
     0
176
     1
 90
       50
176
     1
 90
       50
176
     1
 90
       50
176
     1
290
     0
176
     1
 90
       50
176
     1
 62
   256
176
     0
 40
1.0
176
     0
 90
        2
176
     1
  1
strokes_ogs.tif
176
     1
290
     0
176
     1
 40
1.0
176
     1
 40
1.0
176
     1
  0
VISUALSTYLE
  5
3B
102
{ACAD_REACTORS
330
2A
102
}
330
2A
100
AcDbVisualStyle
  2
JitterOff
 70
    20
177
     3
291
     1
 70
    58
 90
        2
176
     0
 90
        2
176
     0
 90
        0
176
     0
 90
        0
176
     0
 40
0.6
176
     0
 40
30.0
176
     0
 62
     7
420
 16777215
176
     0
 90
        1
176
     0
 90
        4
176
     0
 62
     7
176
     0
 62
   257
176
     0
 90
        1
176
     0
 90
        1
176
     0
 40
1.0
176
     0
 90
       10
176
     2
 62
     7
176
     0
 40
1.0
176
     0
 90
        1
176
     0
 90
        6
176
     0
 90
        2
176
     0
 62
     7
176
     0
 90
        5
176
     0
 90
        0
176
     0
 90
        0
176
     0
290
     0
176
     0
 90
        1
176
     0
 40
0.0
176
     0
 90
        0
176
     0
290
     0
176
     0
290
     1
176
     0
290
     1
176
     0
290
     0
176
     0
290
     0
176
     0
290
     0
176
     0
290
     0
176
     0
290
     0
176
     0
290
     0
176
     0
 90
       50
176
     0
 40
0.0
176
     0
 40
1.0
176
     0
 90
        0
176
     0
 62
    18
420
        0
176
     0
 90
       50
176
     0
 90
        3
176
     0
 62
     5
420
      255
176
     0
290
     0
176
     0
 90
       50
176
     0
 90
       50
176
     0
 90
       50
176
     0
290
     0
176
     0
 90
       50
176
     0
 62
   256
176
     0
 40
1.0
176
     0
 90
        2
176
     0
  1
strokes_ogs.tif
176
     0
290
     0
176
     0
 40
1.0
176
     0
 40
1.0
176
     0
  0
VISUALSTYLE
  5
38
102
{ACAD_REACTORS
330
2A
102
}
330
2A
100
AcDbVisualStyle
  2
Linepattern
 70
    14
177
     3
291
     1
 70
    58
 90
        2
176
     1
 90
        2
176
     1
 90
        0
176
     1
 90
        0
176
     1
 40
0.6
176
     1
 40
30.0
176
     1
 62
     7
420
 16777215
176
     1
 90
        1
176
     1
 90
        4
176
     1
 62
     7
176
     1
 62
   257
176
     1
 90
        7
176
     1
 90
        7
176
     1
 40
1.0
176
     1
 90
        8
176
     1
 62
     7
176
     1
 40
1.0
176
     1
 90
        1
176
     1
 90
        6
176
     1
 90
        2
176
     1
 62
     7
176
     1
 90
        5
176
     1
 90
        0
176
     1
 90
        0
176
     1
290
     0
176
     1
 90
        1
176
     1
 40
0.0
176
     1
 90
        0
176
     1
290
     0
176
     1
290
     1
176
     1
290
     1
176
     1
290
     0
176
     1
290
     0
176
     1
290
     0
176
     1
290
     0
176
     1
290
     0
176
     1
290
     0
176
     1
 90
       50
176
     1
 40
0.0
176
     1
 40
1.0
176
     1
 90
        0
176
     1
 62
    18
420
        0
176
     1
 90
       50
176
     1
 90
        3
176
     1
 62
     5
420
      255
176
     1
290
     0
176
     1
 90
       50
176
     1
 90
       50
176
     1
 90
       50
176
     1
290
     0
176
     1
 90
       50
176
     1
 62
   256
176
     0
 40
1.0
176
     0
 90
        2
176
     1
  1
strokes_ogs.tif
176
     1
290
     0
176
     1
 40
1.0
176
     1
 40
1.0
176
     1
  0
VISUALSTYLE
  5
3C
102
{ACAD_REACTORS
330
2A
102
}
330
2A
100
AcDbVisualStyle
  2
OverhangOff
 70
    21
177
     3
291
     1
 70
    58
 90
        2
176
     0
 90
        2
176
     0
 90
        0
176
     0
 90
        0
176
     0
 40
0.6
176
     0
 40
30.0
176
     0
 62
     7
420
 16777215
176
     0
 90
        1
176
     0
 90
        4
176
     0
 62
     7
176
     0
 62
   257
176
     0
 90
        1
176
     0
 90
        1
176
     0
 40
1.0
176
     0
 90
        9
176
     2
 62
     7
176
     0
 40
1.0
176
     0
 90
        1
176
     0
 90
        6
176
     0
 90
        2
176
     0
 62
     7
176
     0
 90
        5
176
     0
 90
        0
176
     0
 90
        0
176
     0
290
     0
176
     0
 90
        1
176
     0
 40
0.0
176
     0
 90
        0
176
     0
290
     0
176
     0
290
     1
176
     0
290
     1
176
     0
290
     0
176
     0
290
     0
176
     0
290
     0
176
     0
290
     0
176
     0
290
     0
176
     0
290
     0
176
     0
 90
       50
176
     0
 40
0.0
176
     0
 40
1.0
176
     0
 90
        0
176
     0
 62
    18
420
        0
176
     0
 90
       50
176
     0
 90
        3
176
     0
 62
     5
420
      255
176
     0
290
     0
176
     0
 90
       50
176
     0
 90
       50
176
     0
 90
       50
176
     0
290
     0
176
     0
 90
       50
176
     0
 62
   256
176
     0
 40
1.0
176
     0
 90
        2
176
     0
  1
strokes_ogs.tif
176
     0
290
     0
176
     0
 40
1.0
176
     0
 40
1.0
176
     0
  0
VISUALSTYLE
  5
33
102
{ACAD_REACTORS
330
2A
102
}
330
2A
100
AcDbVisualStyle
  2
Realistic
 70
     8
177
     3
291
     0
 70
    58
 90
        2
176
     1
 90
        3
176
     1
 90
        0
176
     1
 90
        2
176
     1
 40
0.6
176
     1
 40
30.0
176
     1
 62
     7
420
 16777215
176
     1
 90
        0
176
     1
 90
        0
176
     1
 62
     7
176
     1
 62
   257
176
     1
 90
        1
176
     1
 90
        1
176
     1
 40
1.0
176
     1
 90
        8
176
     1
 62
   257
176
     1
 40
1.0
176
     1
 90
        1
176
     1
 90
        6
176
     1
 90
        2
176
     1
 62
     7
176
     1
 90
        3
176
     1
 90
        0
176
     1
 90
        0
176
     1
290
     0
176
     1
 90
       13
176
     1
 40
0.0
176
     1
 90
        0
176
     1
290
     0
176
     1
290
     1
176
     1
290
     1
176
     1
290
     0
176
     1
290
     0
176
     1
290
     0
176
     1
290
     0
176
     1
290
     0
176
     1
290
     0
176
     1
 90
       50
176
     1
 40
0.0
176
     1
 40
1.0
176
     1
 90
        0
176
     1
 62
    18
420
        0
176
     1
 90
       50
176
     1
 90
        3
176
     1
 62
     5
420
      255
176
     1
290
     0
176
     1
 90
       50
176
     1
 90
       50
176
     1
 90
       50
176
     1
290
     0
176
     1
 90
       50
176
     1
 62
   256
176
     0
 40
1.0
176
     0
 90
        2
176
     1
  1
strokes_ogs.tif
176
     1
290
     0
176
     1
 40
1.0
176
     1
 40
1.0
176
     1
  0
VISUALSTYLE
  5
42
102
{ACAD_REACTORS
330
2A
102
}
330
2A
100
AcDbVisualStyle
  2
Shaded
 70
    27
177
     3
291
     0
 70
    58
 90
        2
176
     1
 90
        2
176
     1
 90
        1
176
     1
 90
        2
176
     1
 40
0.6
176
     1
 40
30.0
176
     1
 62
     7
420
 16777215
176
     1
 90
        0
176
     1
 90
        4
176
     1
 62
     7
176
     1
 62
   257
176
     1
 90
        1
176
     1
 90
        1
176
     1
 40
1.0
176
     1
 90
        8
176
     1
 62
   257
176
     1
 40
1.0
176
     1
 90
        1
176
     1
 90
        6
176
     1
 90
        2
176
     1
 62
     8
420
  7895160
176
     1
 90
        3
176
     1
 90
        0
176
     1
 90
        0
176
     1
290
     0
176
     1
 90
        5
176
     1
 40
0.0
176
     1
 90
        0
176
     1
290
     0
176
     1
290
     1
176
     1
290
     1
176
     1
290
     0
176
     1
290
     0
176
     1
290
     0
176
     1
290
     0
176
     1
290
     0
176
     1
290
     0
176
     1
 90
       50
176
     1
 40
0.0
176
     1
 40
1.0
176
     1
 90
        0
176
     1
 62
    18
420
        0
176
     1
 90
       50
176
     1
 90
        3
176
     1
 62
     5
420
      255
176
     1
290
     0
176
     1
 90
       50
176
     1
 90
       50
176
     1
 90
       50
176
     1
290
     0
176
     1
 90
       50
176
     1
 62
   256
176
     0
 40
1.0
176
     0
 90
        2
176
     1
  1
strokes_ogs.tif
176
     1
290
     0
176
     1
 40
1.0
176
     1
 40
1.0
176
     1
  0
VISUALSTYLE
  5
41
102
{ACAD_REACTORS
330
2A
102
}
330
2A
100
AcDbVisualStyle
  2
Shaded with edges
 70
    26
177
     3
291
     0
 70
    58
 90
        2
176
     1
 90
        2
176
     1
 90
        1
176
     1
 90
        2
176
     1
 40
0.6
176
     1
 40
30.0
176
     1
 62
     7
420
 16777215
176
     1
 90
        1
176
     1
 90
       10
176
     1
 62
     7
176
     1
 62
   257
176
     1
 90
        2
176
     1
 90
        1
176
     1
 40
1.0
176
     1
 90
        8
176
     1
 62
   257
176
     1
 40
1.0
176
     1
 90
        1
176
     1
 90
        6
176
     1
 90
        2
176
     1
 62
     7
176
     1
 90
        3
176
     1
 90
        0
176
     1
 90
        0
176
     1
290
     0
176
     1
 90
        5
176
     1
 40
0.0
176
     1
 90
        0
176
     1
290
     0
176
     1
290
     1
176
     1
290
     1
176
     1
290
     0
176
     1
290
     0
176
     1
290
     0
176
     1
290
     0
176
     1
290
     0
176
     1
290
     0
176
     1
 90
       50
176
     1
 40
0.0
176
     1
 40
1.0
176
     1
 90
        0
176
     1
 62
    18
420
        0
176
     1
 90
       50
176
     1
 90
        3
176
     1
 62
     5
420
      255
176
     1
290
     0
176
     1
 90
       50
176
     1
 90
       50
176
     1
 90
       50
176
     1
290
     0
176
     1
 90
       50
176
     1
 62
   256
176
     0
 40
1.0
176
     0
 90
        2
176
     1
  1
strokes_ogs.tif
176
     1
290
     0
176
     1
 40
1.0
176
     1
 40
1.0
176
     1
  0
VISUALSTYLE
  5
3E
102
{ACAD_REACTORS
330
2A
102
}
330
2A
100
AcDbVisualStyle
  2
Shades of Gray
 70
    23
177
     3
291
     0
 70
    58
 90
        2
176
     1
 90
        2
176
     1
 90
        3
176
     1
 90
        0
176
     1
 40
0.6
176
     1
 40
30.0
176
     1
 62
     7
420
 16777215
176
     1
 90
        2
176
     1
 90
        2
176
     1
 62
     7
176
     1
 62
     7
176
     1
 90
        1
176
     1
 90
        1
176
     1
 40
40.0
176
     1
 90
        8
176
     1
 62
     7
176
     1
 40
1.0
176
     1
 90
        1
176
     1
 90
        6
176
     1
 90
        2
176
     1
 62
     7
176
     1
 90
        3
176
     1
 90
        0
176
     1
 90
        0
176
     1
290
     0
176
     1
 90
        1
176
     1
 40
0.0
176
     1
 90
        0
176
     1
290
     0
176
     1
290
     1
176
     1
290
     1
176
     1
290
     0
176
     1
290
     0
176
     1
290
     0
176
     1
290
     0
176
     1
290
     0
176
     1
290
     0
176
     1
 90
       50
176
     1
 40
0.0
176
     1
 40
1.0
176
     1
 90
        0
176
     1
 62
    18
420
        0
176
     1
 90
       50
176
     1
 90
        3
176
     1
 62
     5
420
      255
176
     1
290
     0
176
     1
 90
       50
176
     1
 90
       50
176
     1
 90
       50
176
     1
290
     0
176
     1
 90
       50
176
     1
 62
   256
176
     0
 40
1.0
176
     0
 90
        2
176
     1
  1
strokes_ogs.tif
176
     1
290
     0
176
     1
 40
1.0
176
     1
 40
1.0
176
     1
  0
VISUALSTYLE
  5
3F
102
{ACAD_REACTORS
330
2A
102
}
330
2A
100
AcDbVisualStyle
  2
Sketchy
 70
    24
177
     3
291
     0
 70
    58
 90
        1
176
     1
 90
        2
176
     1
 90
        2
176
     1
 90
        0
176
     1
 40
0.6
176
     1
 40
30.0
176
     1
 62
     7
420
 16777215
176
     1
 90
        2
176
     1
 90
        2
176
     1
 62
     7
176
     1
 62
     7
176
     1
 90
        1
176
     1
 90
        1
176
     1
 40
40.0
176
     1
 90
       11
176
     1
 62
     7
176
     1
 40
1.0
176
     1
 90
        1
176
     1
 90
        6
176
     1
 90
        2
176
     1
 62
     7
176
     1
 90
        6
176
     1
 90
        0
176
     1
 90
        0
176
     1
290
     0
176
     1
 90
        1
176
     1
 40
0.0
176
     1
 90
        0
176
     1
290
     0
176
     1
290
     1
176
     1
290
     1
176
     1
290
     0
176
     1
290
     0
176
     1
290
     0
176
     1
290
     0
176
     1
290
     0
176
     1
290
     0
176
     1
 90
       50
176
     1
 40
0.0
176
     1
 40
1.0
176
     1
 90
        0
176
     1
 62
    18
420
        0
176
     1
 90
       50
176
     1
 90
        3
176
     1
 62
     5
420
      255
176
     1
290
     0
176
     1
 90
       50
176
     1
 90
       50
176
     1
 90
       50
176
     1
290
     0
176
     1
 90
       50
176
     1
 62
   256
176
     0
 40
1.0
176
     0
 90
        2
176
     1
  1
strokes_ogs.tif
176
     1
290
     0
176
     1
 40
1.0
176
     1
 40
1.0
176
     1
  0
VISUALSTYLE
  5
37
102
{ACAD_REACTORS
330
2A
102
}
330
2A
100
AcDbVisualStyle
  2
Thicken
 70
    13
177
     3
291
     1
 70
    58
 90
        2
176
     1
 90
        2
176
     1
 90
        0
176
     1
 90
        0
176
     1
 40
0.6
176
     1
 40
30.0
176
     1
 62
     7
420
 16777215
176
     1
 90
        1
176
     1
 90
        4
176
     1
 62
     7
176
     1
 62
   257
176
     1
 90
        1
176
     1
 90
        1
176
     1
 40
1.0
176
     1
 90
       12
176
     1
 62
     7
176
     1
 40
1.0
176
     1
 90
        1
176
     1
 90
        6
176
     1
 90
        2
176
     1
 62
     7
176
     1
 90
        5
176
     1
 90
        0
176
     1
 90
        0
176
     1
290
     0
176
     1
 90
        1
176
     1
 40
0.0
176
     1
 90
        0
176
     1
290
     0
176
     1
290
     1
176
     1
290
     1
176
     1
290
     0
176
     1
290
     0
176
     1
290
     0
176
     1
290
     0
176
     1
290
     0
176
     1
290
     0
176
     1
 90
       50
176
     1
 40
0.0
176
     1
 40
1.0
176
     1
 90
        0
176
     1
 62
    18
420
        0
176
     1
 90
       50
176
     1
 90
        3
176
     1
 62
     5
420
      255
176
     1
290
     0
176
     1
 90
       50
176
     1
 90
       50
176
     1
 90
       50
176
     1
290
     0
176
     1
 90
       50
176
     1
 62
   256
176
     0
 40
1.0
176
     0
 90
        2
176
     1
  1
strokes_ogs.tif
176
     1
290
     0
176
     1
 40
1.0
176
     1
 40
1.0
176
     1
  0
VISUALSTYLE
  5
30
102
{ACAD_REACTORS
330
2A
102
}
330
2A
100
AcDbVisualStyle
  2
Wireframe
 70
     5
177
     3
291
     0
 70
    58
 90
        0
176
     1
 90
        2
176
     1
 90
        0
176
     1
 90
        0
176
     1
 40
0.6
176
     1
 40
30.0
176
     1
 62
     7
420
 16777215
176
     1
 90
        1
176
     1
 90
        4
176
     1
 62
     7
176
     1
 62
   257
176
     1
 90
        1
176
     1
 90
        1
176
     1
 40
1.0
176
     1
 90
        0
176
     1
 62
   257
176
     1
 40
1.0
176
     1
 90
        1
176
     1
 90
        6
176
     1
 90
        2
176
     1
 62
     7
176
     1
 90
        3
176
     1
 90
        0
176
     1
 90
        0
176
     1
290
     0
176
     1
 90
        1
176
     1
 40
0.0
176
     1
 90
        0
176
     1
290
     0
176
     1
290
     1
176
     1
290
     1
176
     1
290
     0
176
     1
290
     0
176
     1
290
     0
176
     1
290
     0
176
     1
290
     0
176
     1
290
     0
176
     1
 90
       50
176
     1
 40
0.0
176
     1
 40
1.0
176
     1
 90
        0
176
     1
 62
    18
420
        0
176
     1
 90
       50
176
     1
 90
        3
176
     1
 62
     5
420
      255
176
     1
290
     0
176
     1
 90
       50
176
     1
 90
       50
176
     1
 90
       50
176
     1
290
     0
176
     1
 90
       50
176
     1
 62
   256
176
     0
 40
1.0
176
     0
 90
        2
176
     1
  1
strokes_ogs.tif
176
     1
290
     0
176
     1
 40
1.0
176
     1
 40
1.0
176
     1
  0
VISUALSTYLE
  5
40
102
{ACAD_REACTORS
330
2A
102
}
330
2A
100
AcDbVisualStyle
  2
X-Ray
 70
    25
177
     3
291
     0
 70
    58
 90
        2
176
     1
 90
        2
176
     1
 90
        1
176
     1
 90
        1
176
     1
 40
0.5
176
     1
 40
30.0
176
     1
 62
     7
420
 16777215
176
     1
 90
        1
176
     1
 90
        0
176
     1
 62
     7
176
     1
 62
   257
176
     1
 90
        1
176
     1
 90
        1
176
     1
 40
1.0
176
     1
 90
        8
176
     1
 62
     7
176
     1
 40
1.0
176
     1
 90
        1
176
     1
 90
        6
176
     1
 90
        2
176
     1
 62
     7
176
     1
 90
        3
176
     1
 90
        0
176
     1
 90
        0
176
     1
290
     0
176
     1
 90
       13
176
     1
 40
0.0
176
     1
 90
        0
176
     1
290
     0
176
     1
290
     1
176
     1
290
     1
176
     1
290
     0
176
     1
290
     0
176
     1
290
     0
176
     1
290
     0
176
     1
290
     0
176
     1
290
     0
176
     1
 90
       50
176
     1
 40
0.0
176
     1
 40
1.0
176
     1
 90
        0
176
     1
 62
    18
420
        0
176
     1
 90
       50
176
     1
 90
        3
176
     1
 62
     5
420
      255
176
     1
290
     0
176
     1
 90
       50
176
     1
 90
       50
176
     1
 90
       50
176
     1
290
     0
176
     1
 90
       50
176
     1
 62
   256
176
     0
 40
1.0
176
     0
 90
        2
176
     1
  1
strokes_ogs.tif
176
     1
290
     0
176
     1
 40
1.0
176
     1
 40
1.0
176
     1
  0
DICTIONARYVAR
  5
238
102
{ACAD_REACTORS
330
237
102
}
330
237
100
DictionaryVariables
280
     0
  1
1:1
  0
ENDSEC
  0
EOF
