  0
SECTION
  2
HEADER
  9
$ACADVER
  1
AC1027
  9
$ACADMAINTVER
 70
     8
  9
$DWGCODEPAGE
  3
ANSI_1252
  9
$REQUIREDVERSIONS
160
                 0
  9
$COMMENTS
  1
File was created by Cadenas
  9
$CUSTOMPROPERTYTAG
  1
NN
  9
$CUSTOMPROPERTY
  1
NEFS8-4080, NEFSB8-4080, EFS8-4080, EFSB8-4080, HFS8-4080, HFSB8-4080, CAF8-4080, NFSL8-4080, HFSL8-4080, HFSLB8-4080, GFS8-4080
  9
$CUSTOMPROPERTYTAG
  1
NT
  9
$CUSTOMPROPERTY
  1
HFS8 Series Aluminum Extrusions 40,80 Square -2 Slots-
  9
$CUSTOMPROPERTYTAG
  1
NB
  9
$CUSTOMPROPERTY
  1
HFS8-4080-4000
  9
$CUSTOMPROPERTYTAG
  1
NBSYN
  9
$CUSTOMPROPERTY
  1
$PN.
  9
$CUSTOMPROPERTYTAG
  1
LINA
  9
$CUSTOMPROPERTY
  1
HFS8-4080-4000
  9
$CUSTOMPROPERTYTAG
  1
PN
  9
$CUSTOMPROPERTY
  1
HFS8-4080-4000
  9
$CUSTOMPROPERTYTAG
  1
TPS
  9
$CUSTOMPROPERTY
  1
HFS8-4080
  9
$CUSTOMPROPERTYTAG
  1
MAT
  9
$CUSTOMPROPERTY
  1
A6N01SS-T5 Aluminum Alloy
  9
$CUSTOMPROPERTYTAG
  1
ST
  9
$CUSTOMPROPERTY
  1
Clear Anodize
  9
$CUSTOMPROPERTYTAG
  1
FRMW
  9
$CUSTOMPROPERTY
  1
40
  9
$CUSTOMPROPERTYTAG
  1
FRMH
  9
$CUSTOMPROPERTY
  1
80
  9
$CUSTOMPROPERTYTAG
  1
FRD
  9
$CUSTOMPROPERTY
  1
10.5
  9
$CUSTOMPROPERTYTAG
  1
L
  9
$CUSTOMPROPERTY
  1
4000
  9
$CUSTOMPROPERTYTAG
  1
MASS
  9
$CUSTOMPROPERTY
  1
3.00
  9
$CUSTOMPROPERTYTAG
  1
SA
  9
$CUSTOMPROPERTY
  1
1109
  9
$CUSTOMPROPERTYTAG
  1
LX
  9
$CUSTOMPROPERTY
  1
19.8x10^ 4
  9
$CUSTOMPROPERTYTAG
  1
LY
  9
$CUSTOMPROPERTY
  1
71.9x10^ 4
  9
$CUSTOMPROPERTYTAG
  1
ALT1
  9
$CUSTOMPROPERTY
  1
w/o End Tapping
  9
$CUSTOMPROPERTYTAG
  1
M1
  9
$CUSTOMPROPERTY
  1
0
  9
$CUSTOMPROPERTYTAG
  1
IDM1
  9
$CUSTOMPROPERTY
  1
10.106
  9
$CUSTOMPROPERTYTAG
  1
DPL1
  9
$CUSTOMPROPERTY
  1
0
  9
$CUSTOMPROPERTYTAG
  1
DPR1
  9
$CUSTOMPROPERTY
  1
0
  9
$CUSTOMPROPERTYTAG
  1
ALT1PN
  9
$CUSTOMPROPERTY
  1

  9
$CUSTOMPROPERTYTAG
  1
ALT2
  9
$CUSTOMPROPERTY
  1
w/o End Tapping (Heli-Coil Insert)
  9
$CUSTOMPROPERTYTAG
  1
ALT2ALG
  9
$CUSTOMPROPERTY
  1
 '','w/o End Tapping (Heli-Coil Insert)','LHP','with LHP (Tapping on the Left (Heli-Coil Insert))','RHP','with RHP (Tapping on the Right (Heli-Coil Insert))','HPW','with HPW (Tapping on Both Ends (Heli-Coil Insert))' 
  9
$CUSTOMPROPERTYTAG
  1
M2
  9
$CUSTOMPROPERTY
  1
0
  9
$CUSTOMPROPERTYTAG
  1
DP2
  9
$CUSTOMPROPERTY
  1
0
  9
$CUSTOMPROPERTYTAG
  1
ALT2PN
  9
$CUSTOMPROPERTY
  1

  9
$CUSTOMPROPERTYTAG
  1
ALT4
  9
$CUSTOMPROPERTY
  1
Not applicable
  9
$CUSTOMPROPERTYTAG
  1
ALT4ALG
  9
$CUSTOMPROPERTY
  1
 '', 'Not applicable' 
  9
$CUSTOMPROPERTYTAG
  1
ALT4PN
  9
$CUSTOMPROPERTY
  1

  9
$CUSTOMPROPERTYTAG
  1
ALT5
  9
$CUSTOMPROPERTY
  1
w/o 45 Degree Cut
  9
$CUSTOMPROPERTYTAG
  1
ALT5ALG
  9
$CUSTOMPROPERTY
  1
 '','w/o 45 Degree Cut','1','with 45 Degree Cut' 
  9
$CUSTOMPROPERTYTAG
  1
CP5
  9
$CUSTOMPROPERTY
  1
N/A
  9
$CUSTOMPROPERTYTAG
  1
CP5ALG
  9
$CUSTOMPROPERTY
  1
 '','N/A' 
  9
$CUSTOMPROPERTYTAG
  1
DL5
  9
$CUSTOMPROPERTY
  1
N/A
  9
$CUSTOMPROPERTYTAG
  1
DL5ALG
  9
$CUSTOMPROPERTY
  1
 '','N/A' 
  9
$CUSTOMPROPERTYTAG
  1
DR5
  9
$CUSTOMPROPERTY
  1
N/A
  9
$CUSTOMPROPERTYTAG
  1
DR5ALG
  9
$CUSTOMPROPERTY
  1
 '','N/A' 
  9
$CUSTOMPROPERTYTAG
  1
FRMLALT5
  9
$CUSTOMPROPERTY
  1
0.000
  9
$CUSTOMPROPERTYTAG
  1
FRMRALT5
  9
$CUSTOMPROPERTY
  1
0.000
  9
$CUSTOMPROPERTYTAG
  1
ALT5PN
  9
$CUSTOMPROPERTY
  1

  9
$CUSTOMPROPERTYTAG
  1
ALT6
  9
$CUSTOMPROPERTY
  1
w/o Fastening Location Wrench Access Hole Alterations
  9
$CUSTOMPROPERTYTAG
  1
ALT6ALG
  9
$CUSTOMPROPERTY
  1
 '','w/o Fastening Location Wrench Access Hole Alterations','1','with Fastening Location Wrench Access Hole Alterations' 
  9
$CUSTOMPROPERTYTAG
  1
ALT9
  9
$CUSTOMPROPERTY
  1
w/o Location Specified Wrench Access Hole Alteratons (Horizontal)
  9
$CUSTOMPROPERTYTAG
  1
ALT9ALG
  9
$CUSTOMPROPERTY
  1
 '','w/o Location Specified Wrench Access Hole Alteratons (Horizontal)','1','with Location Specified Wrench Access Hole Alteratons (Horizontal)' 
  9
$CUSTOMPROPERTYTAG
  1
ALT10
  9
$CUSTOMPROPERTY
  1
w/o Location Specified Wrench Access Hole Alteratons (Vertical)
  9
$CUSTOMPROPERTYTAG
  1
ALT10ALG
  9
$CUSTOMPROPERTY
  1
 '','w/o Location Specified Wrench Access Hole Alteratons (Vertical)','1','with Location Specified Wrench Access Hole Alteratons (Vertical)' 
  9
$CUSTOMPROPERTYTAG
  1
ALT11
  9
$CUSTOMPROPERTY
  1
w/o Location Specified Wrench Access Hole Alteratons (Crisscross)
  9
$CUSTOMPROPERTYTAG
  1
ALT11ALG
  9
$CUSTOMPROPERTY
  1
 '','w/o Location Specified Wrench Access Hole Alteratons (Crisscross)','1','with Location Specified Wrench Access Hole Alteratons (Crisscross)' 
  9
$CUSTOMPROPERTYTAG
  1
HP6
  9
$CUSTOMPROPERTY
  1
N/A
  9
$CUSTOMPROPERTYTAG
  1
HP6ALG
  9
$CUSTOMPROPERTY
  1
 '','N/A' 
  9
$CUSTOMPROPERTYTAG
  1
NHL6
  9
$CUSTOMPROPERTY
  1
N/A
  9
$CUSTOMPROPERTYTAG
  1
NHL6ALG
  9
$CUSTOMPROPERTY
  1
 '','N/A' 
  9
$CUSTOMPROPERTYTAG
  1
DL6
  9
$CUSTOMPROPERTY
  1
N/A
  9
$CUSTOMPROPERTYTAG
  1
DL6ALG
  9
$CUSTOMPROPERTY
  1
 '','N/A' 
  9
$CUSTOMPROPERTYTAG
  1
NHR6
  9
$CUSTOMPROPERTY
  1
N/A
  9
$CUSTOMPROPERTYTAG
  1
NHR6ALG
  9
$CUSTOMPROPERTY
  1
 '','N/A' 
  9
$CUSTOMPROPERTYTAG
  1
DR6
  9
$CUSTOMPROPERTY
  1
N/A
  9
$CUSTOMPROPERTYTAG
  1
DR6ALG
  9
$CUSTOMPROPERTY
  1
 '','N/A' 
  9
$CUSTOMPROPERTYTAG
  1
HL6
  9
$CUSTOMPROPERTY
  1
0
  9
$CUSTOMPROPERTYTAG
  1
HL6D
  9
$CUSTOMPROPERTY
  1
0
  9
$CUSTOMPROPERTYTAG
  1
HR6
  9
$CUSTOMPROPERTY
  1
0
  9
$CUSTOMPROPERTYTAG
  1
HR6D
  9
$CUSTOMPROPERTY
  1
0
  9
$CUSTOMPROPERTYTAG
  1
J6
  9
$CUSTOMPROPERTY
  1
0
  9
$CUSTOMPROPERTYTAG
  1
J6D
  9
$CUSTOMPROPERTY
  1
0
  9
$CUSTOMPROPERTYTAG
  1
K6
  9
$CUSTOMPROPERTY
  1
0
  9
$CUSTOMPROPERTYTAG
  1
K6D
  9
$CUSTOMPROPERTY
  1
0
  9
$CUSTOMPROPERTYTAG
  1
DD6
  9
$CUSTOMPROPERTY
  1
0
  9
$CUSTOMPROPERTYTAG
  1
DD6ALG
  9
$CUSTOMPROPERTY
  1
0.000
  9
$CUSTOMPROPERTYTAG
  1
ALT7
  9
$CUSTOMPROPERTY
  1
N/A
  9
$CUSTOMPROPERTYTAG
  1
ALT7ALG
  9
$CUSTOMPROPERTY
  1
 '','N/A' 
  9
$CUSTOMPROPERTYTAG
  1
ALT8
  9
$CUSTOMPROPERTY
  1
N/A
  9
$CUSTOMPROPERTYTAG
  1
ALT8ALG
  9
$CUSTOMPROPERTY
  1
 '','N/A' 
  9
$CUSTOMPROPERTYTAG
  1
ALT678PN
  9
$CUSTOMPROPERTY
  1

  9
$CUSTOMPROPERTYTAG
  1
NH9
  9
$CUSTOMPROPERTY
  1
0
  9
$CUSTOMPROPERTYTAG
  1
NH9MAX
  9
$CUSTOMPROPERTY
  1
5.000
  9
$CUSTOMPROPERTYTAG
  1
NH9ALG
  9
$CUSTOMPROPERTY
  1
[0]
  9
$CUSTOMPROPERTYTAG
  1
AH
  9
$CUSTOMPROPERTY
  1
0.0
  9
$CUSTOMPROPERTYTAG
  1
AHMIN
  9
$CUSTOMPROPERTY
  1
7.000
  9
$CUSTOMPROPERTYTAG
  1
AHMAX
  9
$CUSTOMPROPERTY
  1
3995.000
  9
$CUSTOMPROPERTYTAG
  1
AHALG
  9
$CUSTOMPROPERTY
  1
[0]
  9
$CUSTOMPROPERTYTAG
  1
BH
  9
$CUSTOMPROPERTY
  1
0.0
  9
$CUSTOMPROPERTYTAG
  1
BHMIN
  9
$CUSTOMPROPERTY
  1
2.000
  9
$CUSTOMPROPERTYTAG
  1
BHMAX
  9
$CUSTOMPROPERTY
  1
3997.000
  9
$CUSTOMPROPERTYTAG
  1
BHALG
  9
$CUSTOMPROPERTY
  1
[0]
  9
$CUSTOMPROPERTYTAG
  1
CH
  9
$CUSTOMPROPERTY
  1
0.0
  9
$CUSTOMPROPERTYTAG
  1
CHMIN
  9
$CUSTOMPROPERTY
  1
2.000
  9
$CUSTOMPROPERTYTAG
  1
CHMAX
  9
$CUSTOMPROPERTY
  1
3999.000
  9
$CUSTOMPROPERTYTAG
  1
CHALG
  9
$CUSTOMPROPERTY
  1
[0]
  9
$CUSTOMPROPERTYTAG
  1
DH
  9
$CUSTOMPROPERTY
  1
0.0
  9
$CUSTOMPROPERTYTAG
  1
DHMIN
  9
$CUSTOMPROPERTY
  1
2.000
  9
$CUSTOMPROPERTYTAG
  1
DHMAX
  9
$CUSTOMPROPERTY
  1
4001.000
  9
$CUSTOMPROPERTYTAG
  1
DHALG
  9
$CUSTOMPROPERTY
  1
[0]
  9
$CUSTOMPROPERTYTAG
  1
EH
  9
$CUSTOMPROPERTY
  1
0.0
  9
$CUSTOMPROPERTYTAG
  1
EHMIN
  9
$CUSTOMPROPERTY
  1
2.000
  9
$CUSTOMPROPERTYTAG
  1
EHMAX
  9
$CUSTOMPROPERTY
  1
3993.000
  9
$CUSTOMPROPERTYTAG
  1
EHALG
  9
$CUSTOMPROPERTY
  1
[0]
  9
$CUSTOMPROPERTYTAG
  1
NH10
  9
$CUSTOMPROPERTY
  1
0
  9
$CUSTOMPROPERTYTAG
  1
NH10MAX
  9
$CUSTOMPROPERTY
  1
5.000
  9
$CUSTOMPROPERTYTAG
  1
NH10ALG
  9
$CUSTOMPROPERTY
  1
[0]
  9
$CUSTOMPROPERTYTAG
  1
AV
  9
$CUSTOMPROPERTY
  1
0.0
  9
$CUSTOMPROPERTYTAG
  1
AVMIN
  9
$CUSTOMPROPERTY
  1
7.000
  9
$CUSTOMPROPERTYTAG
  1
AVMAX
  9
$CUSTOMPROPERTY
  1
3995.000
  9
$CUSTOMPROPERTYTAG
  1
AVALG
  9
$CUSTOMPROPERTY
  1
[0]
  9
$CUSTOMPROPERTYTAG
  1
BV
  9
$CUSTOMPROPERTY
  1
0.0
  9
$CUSTOMPROPERTYTAG
  1
BVMIN
  9
$CUSTOMPROPERTY
  1
2.000
  9
$CUSTOMPROPERTYTAG
  1
BVMAX
  9
$CUSTOMPROPERTY
  1
3997.000
  9
$CUSTOMPROPERTYTAG
  1
BVALG
  9
$CUSTOMPROPERTY
  1
[0]
  9
$CUSTOMPROPERTYTAG
  1
CV
  9
$CUSTOMPROPERTY
  1
0.0
  9
$CUSTOMPROPERTYTAG
  1
CVMIN
  9
$CUSTOMPROPERTY
  1
2.000
  9
$CUSTOMPROPERTYTAG
  1
CVMAX
  9
$CUSTOMPROPERTY
  1
3999.000
  9
$CUSTOMPROPERTYTAG
  1
CVALG
  9
$CUSTOMPROPERTY
  1
[0]
  9
$CUSTOMPROPERTYTAG
  1
DV
  9
$CUSTOMPROPERTY
  1
0.0
  9
$CUSTOMPROPERTYTAG
  1
DVMIN
  9
$CUSTOMPROPERTY
  1
2.000
  9
$CUSTOMPROPERTYTAG
  1
DVMAX
  9
$CUSTOMPROPERTY
  1
4001.000
  9
$CUSTOMPROPERTYTAG
  1
DVALG
  9
$CUSTOMPROPERTY
  1
[0]
  9
$CUSTOMPROPERTYTAG
  1
EV
  9
$CUSTOMPROPERTY
  1
0.0
  9
$CUSTOMPROPERTYTAG
  1
EVMIN
  9
$CUSTOMPROPERTY
  1
2.000
  9
$CUSTOMPROPERTYTAG
  1
EVMAX
  9
$CUSTOMPROPERTY
  1
3993.000
  9
$CUSTOMPROPERTYTAG
  1
EVALG
  9
$CUSTOMPROPERTY
  1
[0]
  9
$CUSTOMPROPERTYTAG
  1
NH11
  9
$CUSTOMPROPERTY
  1
0
  9
$CUSTOMPROPERTYTAG
  1
NH11MAX
  9
$CUSTOMPROPERTY
  1
5.000
  9
$CUSTOMPROPERTYTAG
  1
NH11ALG
  9
$CUSTOMPROPERTY
  1
[0]
  9
$CUSTOMPROPERTYTAG
  1
AP
  9
$CUSTOMPROPERTY
  1
0.0
  9
$CUSTOMPROPERTYTAG
  1
APMIN
  9
$CUSTOMPROPERTY
  1
7.000
  9
$CUSTOMPROPERTYTAG
  1
APMAX
  9
$CUSTOMPROPERTY
  1
3995.000
  9
$CUSTOMPROPERTYTAG
  1
APALG
  9
$CUSTOMPROPERTY
  1
[0]
  9
$CUSTOMPROPERTYTAG
  1
BP
  9
$CUSTOMPROPERTY
  1
0.0
  9
$CUSTOMPROPERTYTAG
  1
BPMIN
  9
$CUSTOMPROPERTY
  1
2.000
  9
$CUSTOMPROPERTYTAG
  1
BPMAX
  9
$CUSTOMPROPERTY
  1
3997.000
  9
$CUSTOMPROPERTYTAG
  1
BPALG
  9
$CUSTOMPROPERTY
  1
[0]
  9
$CUSTOMPROPERTYTAG
  1
CP
  9
$CUSTOMPROPERTY
  1
0.0
  9
$CUSTOMPROPERTYTAG
  1
CPMIN
  9
$CUSTOMPROPERTY
  1
2.000
  9
$CUSTOMPROPERTYTAG
  1
CPMAX
  9
$CUSTOMPROPERTY
  1
3999.000
  9
$CUSTOMPROPERTYTAG
  1
CPALG
  9
$CUSTOMPROPERTY
  1
[0]
  9
$CUSTOMPROPERTYTAG
  1
DP
  9
$CUSTOMPROPERTY
  1
0.0
  9
$CUSTOMPROPERTYTAG
  1
DPMIN
  9
$CUSTOMPROPERTY
  1
2.000
  9
$CUSTOMPROPERTYTAG
  1
DPMAX
  9
$CUSTOMPROPERTY
  1
4001.000
  9
$CUSTOMPROPERTYTAG
  1
DPALG
  9
$CUSTOMPROPERTY
  1
[0]
  9
$CUSTOMPROPERTYTAG
  1
EP
  9
$CUSTOMPROPERTY
  1
0.0
  9
$CUSTOMPROPERTYTAG
  1
EPMIN
  9
$CUSTOMPROPERTY
  1
2.000
  9
$CUSTOMPROPERTYTAG
  1
EPMAX
  9
$CUSTOMPROPERTY
  1
3993.000
  9
$CUSTOMPROPERTYTAG
  1
EPALG
  9
$CUSTOMPROPERTY
  1
[0]
  9
$CUSTOMPROPERTYTAG
  1
ALT9PN
  9
$CUSTOMPROPERTY
  1

  9
$CUSTOMPROPERTYTAG
  1
ALT10PN
  9
$CUSTOMPROPERTY
  1

  9
$CUSTOMPROPERTYTAG
  1
ALT11PN
  9
$CUSTOMPROPERTY
  1

  9
$CUSTOMPROPERTYTAG
  1
ALT91011PN
  9
$CUSTOMPROPERTY
  1

  9
$CUSTOMPROPERTYTAG
  1
ALT12
  9
$CUSTOMPROPERTY
  1
w/o Counterbore Hole in Specified Position (Vertical)
  9
$CUSTOMPROPERTYTAG
  1
ALT12ALG
  9
$CUSTOMPROPERTY
  1
 '','w/o Counterbore Hole in Specified Position (Vertical)','1','with Counterbore Hole in Specified Position (Vertical)' 
  9
$CUSTOMPROPERTYTAG
  1
ALT13
  9
$CUSTOMPROPERTY
  1
w/o Counterbore Hole in Specified Position (Horizontal)
  9
$CUSTOMPROPERTYTAG
  1
ALT13ALG
  9
$CUSTOMPROPERTY
  1
 '','w/o Counterbore Hole in Specified Position (Horizontal)','1','with Counterbore Hole in Specified Position (Horizontal)' 
  9
$CUSTOMPROPERTYTAG
  1
Z
  9
$CUSTOMPROPERTY
  1
N/A
  9
$CUSTOMPROPERTYTAG
  1
ZALG
  9
$CUSTOMPROPERTY
  1
 '','N/A' 
  9
$CUSTOMPROPERTYTAG
  1
DD12
  9
$CUSTOMPROPERTY
  1
0.0
  9
$CUSTOMPROPERTYTAG
  1
DD112
  9
$CUSTOMPROPERTY
  1
0.0
  9
$CUSTOMPROPERTYTAG
  1
NH12
  9
$CUSTOMPROPERTY
  1
0
  9
$CUSTOMPROPERTYTAG
  1
NH12MAX
  9
$CUSTOMPROPERTY
  1
5.000
  9
$CUSTOMPROPERTYTAG
  1
NH12ALG
  9
$CUSTOMPROPERTY
  1
[0]
  9
$CUSTOMPROPERTYTAG
  1
XA
  9
$CUSTOMPROPERTY
  1
0.0
  9
$CUSTOMPROPERTYTAG
  1
XAMIN
  9
$CUSTOMPROPERTY
  1
7.000
  9
$CUSTOMPROPERTYTAG
  1
XAMAX
  9
$CUSTOMPROPERTY
  1
3995.000
  9
$CUSTOMPROPERTYTAG
  1
XAALG
  9
$CUSTOMPROPERTY
  1
[0]
  9
$CUSTOMPROPERTYTAG
  1
XB
  9
$CUSTOMPROPERTY
  1
0.0
  9
$CUSTOMPROPERTYTAG
  1
XBMIN
  9
$CUSTOMPROPERTY
  1
2.000
  9
$CUSTOMPROPERTYTAG
  1
XBMAX
  9
$CUSTOMPROPERTY
  1
3997.000
  9
$CUSTOMPROPERTYTAG
  1
XBALG
  9
$CUSTOMPROPERTY
  1
[0]
  9
$CUSTOMPROPERTYTAG
  1
XC
  9
$CUSTOMPROPERTY
  1
0.0
  9
$CUSTOMPROPERTYTAG
  1
XCMIN
  9
$CUSTOMPROPERTY
  1
2.000
  9
$CUSTOMPROPERTYTAG
  1
XCMAX
  9
$CUSTOMPROPERTY
  1
3999.000
  9
$CUSTOMPROPERTYTAG
  1
XCALG
  9
$CUSTOMPROPERTY
  1
[0]
  9
$CUSTOMPROPERTYTAG
  1
XD
  9
$CUSTOMPROPERTY
  1
0.0
  9
$CUSTOMPROPERTYTAG
  1
XDMIN
  9
$CUSTOMPROPERTY
  1
2.000
  9
$CUSTOMPROPERTYTAG
  1
XDMAX
  9
$CUSTOMPROPERTY
  1
4001.000
  9
$CUSTOMPROPERTYTAG
  1
XDALG
  9
$CUSTOMPROPERTY
  1
[0]
  9
$CUSTOMPROPERTYTAG
  1
XE
  9
$CUSTOMPROPERTY
  1
0.0
  9
$CUSTOMPROPERTYTAG
  1
XEMIN
  9
$CUSTOMPROPERTY
  1
2.000
  9
$CUSTOMPROPERTYTAG
  1
XEMAX
  9
$CUSTOMPROPERTY
  1
3993.000
  9
$CUSTOMPROPERTYTAG
  1
XEALG
  9
$CUSTOMPROPERTY
  1
[0]
  9
$CUSTOMPROPERTYTAG
  1
NH13
  9
$CUSTOMPROPERTY
  1
0
  9
$CUSTOMPROPERTYTAG
  1
NH13MAX
  9
$CUSTOMPROPERTY
  1
5.000
  9
$CUSTOMPROPERTYTAG
  1
NH13ALG
  9
$CUSTOMPROPERTY
  1
[0]
  9
$CUSTOMPROPERTYTAG
  1
YA
  9
$CUSTOMPROPERTY
  1
0.0
  9
$CUSTOMPROPERTYTAG
  1
YAMIN
  9
$CUSTOMPROPERTY
  1
7.000
  9
$CUSTOMPROPERTYTAG
  1
YAMAX
  9
$CUSTOMPROPERTY
  1
3995.000
  9
$CUSTOMPROPERTYTAG
  1
YAALG
  9
$CUSTOMPROPERTY
  1
[0]
  9
$CUSTOMPROPERTYTAG
  1
YB
  9
$CUSTOMPROPERTY
  1
0.0
  9
$CUSTOMPROPERTYTAG
  1
YBMIN
  9
$CUSTOMPROPERTY
  1
2.000
  9
$CUSTOMPROPERTYTAG
  1
YBMAX
  9
$CUSTOMPROPERTY
  1
3997.000
  9
$CUSTOMPROPERTYTAG
  1
YBALG
  9
$CUSTOMPROPERTY
  1
[0]
  9
$CUSTOMPROPERTYTAG
  1
YC
  9
$CUSTOMPROPERTY
  1
0.0
  9
$CUSTOMPROPERTYTAG
  1
YCMIN
  9
$CUSTOMPROPERTY
  1
2.000
  9
$CUSTOMPROPERTYTAG
  1
YCMAX
  9
$CUSTOMPROPERTY
  1
3999.000
  9
$CUSTOMPROPERTYTAG
  1
YCALG
  9
$CUSTOMPROPERTY
  1
[0]
  9
$CUSTOMPROPERTYTAG
  1
YD
  9
$CUSTOMPROPERTY
  1
0.0
  9
$CUSTOMPROPERTYTAG
  1
YDMIN
  9
$CUSTOMPROPERTY
  1
2.000
  9
$CUSTOMPROPERTYTAG
  1
YDMAX
  9
$CUSTOMPROPERTY
  1
4001.000
  9
$CUSTOMPROPERTYTAG
  1
YDALG
  9
$CUSTOMPROPERTY
  1
[0]
  9
$CUSTOMPROPERTYTAG
  1
YE
  9
$CUSTOMPROPERTY
  1
0.0
  9
$CUSTOMPROPERTYTAG
  1
YEMIN
  9
$CUSTOMPROPERTY
  1
2.000
  9
$CUSTOMPROPERTYTAG
  1
YEMAX
  9
$CUSTOMPROPERTY
  1
3993.000
  9
$CUSTOMPROPERTYTAG
  1
YEALG
  9
$CUSTOMPROPERTY
  1
[0]
  9
$CUSTOMPROPERTYTAG
  1
ALT12PN
  9
$CUSTOMPROPERTY
  1

  9
$CUSTOMPROPERTYTAG
  1
ALT13PN
  9
$CUSTOMPROPERTY
  1

  9
$CUSTOMPROPERTYTAG
  1
ALT1213PN
  9
$CUSTOMPROPERTY
  1

  9
$CUSTOMPROPERTYTAG
  1
ALT14
  9
$CUSTOMPROPERTY
  1
w/o D Type Hole Alteration
  9
$CUSTOMPROPERTYTAG
  1
ALT14ALG
  9
$CUSTOMPROPERTY
  1
 '','w/o D Type Hole Alteration','1','with D Type Hole Alteration' 
  9
$CUSTOMPROPERTYTAG
  1
HP14
  9
$CUSTOMPROPERTY
  1
N/A
  9
$CUSTOMPROPERTYTAG
  1
HP14ALG
  9
$CUSTOMPROPERTY
  1
 '','N/A' 
  9
$CUSTOMPROPERTYTAG
  1
DL14
  9
$CUSTOMPROPERTY
  1
N/A
  9
$CUSTOMPROPERTYTAG
  1
DL14ALG
  9
$CUSTOMPROPERTY
  1
 '','N/A' 
  9
$CUSTOMPROPERTYTAG
  1
DR14
  9
$CUSTOMPROPERTY
  1
N/A
  9
$CUSTOMPROPERTYTAG
  1
DR14ALG
  9
$CUSTOMPROPERTY
  1
 '','N/A' 
  9
$CUSTOMPROPERTYTAG
  1
H14
  9
$CUSTOMPROPERTY
  1
0
  9
$CUSTOMPROPERTYTAG
  1
D14
  9
$CUSTOMPROPERTY
  1
0.0
  9
$CUSTOMPROPERTYTAG
  1
ALT14PN
  9
$CUSTOMPROPERTY
  1

  9
$CUSTOMPROPERTYTAG
  1
ALT15
  9
$CUSTOMPROPERTY
  1
w/o S Type Hole Alteration
  9
$CUSTOMPROPERTYTAG
  1
ALT15ALG
  9
$CUSTOMPROPERTY
  1
 '','w/o S Type Hole Alteration','1','with S Type Hole Alteration' 
  9
$CUSTOMPROPERTYTAG
  1
HP15
  9
$CUSTOMPROPERTY
  1
N/A
  9
$CUSTOMPROPERTYTAG
  1
HP15ALG
  9
$CUSTOMPROPERTY
  1
 '','N/A' 
  9
$CUSTOMPROPERTYTAG
  1
DL15
  9
$CUSTOMPROPERTY
  1
N/A
  9
$CUSTOMPROPERTYTAG
  1
DL15ALG
  9
$CUSTOMPROPERTY
  1
 '','N/A' 
  9
$CUSTOMPROPERTYTAG
  1
DR15
  9
$CUSTOMPROPERTY
  1
N/A
  9
$CUSTOMPROPERTYTAG
  1
DR15ALG
  9
$CUSTOMPROPERTY
  1
 '','N/A' 
  9
$CUSTOMPROPERTYTAG
  1
H15
  9
$CUSTOMPROPERTY
  1
0
  9
$CUSTOMPROPERTYTAG
  1
D115
  9
$CUSTOMPROPERTY
  1
0.0
  9
$CUSTOMPROPERTYTAG
  1
D215
  9
$CUSTOMPROPERTY
  1
0.0
  9
$CUSTOMPROPERTYTAG
  1
ALT15PN
  9
$CUSTOMPROPERTY
  1

  9
$CUSTOMPROPERTYTAG
  1
ALT16
  9
$CUSTOMPROPERTY
  1
w/o M Type Hole Alteration
  9
$CUSTOMPROPERTYTAG
  1
ALT16ALG
  9
$CUSTOMPROPERTY
  1
 '','w/o M Type Hole Alteration','1','with M Type Hole Alteration' 
  9
$CUSTOMPROPERTYTAG
  1
HP16
  9
$CUSTOMPROPERTY
  1
N/A
  9
$CUSTOMPROPERTYTAG
  1
HP16ALG
  9
$CUSTOMPROPERTY
  1
 '','N/A' 
  9
$CUSTOMPROPERTYTAG
  1
DL16
  9
$CUSTOMPROPERTY
  1
N/A
  9
$CUSTOMPROPERTYTAG
  1
DL16ALG
  9
$CUSTOMPROPERTY
  1
 '','N/A' 
  9
$CUSTOMPROPERTYTAG
  1
DR16
  9
$CUSTOMPROPERTY
  1
N/A
  9
$CUSTOMPROPERTYTAG
  1
DR16ALG
  9
$CUSTOMPROPERTY
  1
 '','N/A' 
  9
$CUSTOMPROPERTYTAG
  1
H116
  9
$CUSTOMPROPERTY
  1
0
  9
$CUSTOMPROPERTYTAG
  1
D16
  9
$CUSTOMPROPERTY
  1
0.0
  9
$CUSTOMPROPERTYTAG
  1
ALT16PN
  9
$CUSTOMPROPERTY
  1

  9
$CUSTOMPROPERTYTAG
  1
ALT17
  9
$CUSTOMPROPERTY
  1
w/o L Type Hole Alteration (Top)
  9
$CUSTOMPROPERTYTAG
  1
ALT17ALG
  9
$CUSTOMPROPERTY
  1
 '','w/o L Type Hole Alteration (Top)','1','with L Type Hole Alteration (Top)' 
  9
$CUSTOMPROPERTYTAG
  1
HQ17
  9
$CUSTOMPROPERTY
  1
0
  9
$CUSTOMPROPERTYTAG
  1
HQ17ALG
  9
$CUSTOMPROPERTY
  1
0
  9
$CUSTOMPROPERTYTAG
  1
JLP
  9
$CUSTOMPROPERTY
  1
0
  9
$CUSTOMPROPERTYTAG
  1
JLPMIN
  9
$CUSTOMPROPERTY
  1
4.900
  9
$CUSTOMPROPERTYTAG
  1
JLPMAX
  9
$CUSTOMPROPERTY
  1
0.000
  9
$CUSTOMPROPERTYTAG
  1
JLPALG
  9
$CUSTOMPROPERTY
  1
[0]
  9
$CUSTOMPROPERTYTAG
  1
L17
  9
$CUSTOMPROPERTY
  1
0.000
  9
$CUSTOMPROPERTYTAG
  1
D17
  9
$CUSTOMPROPERTY
  1
0.0
  9
$CUSTOMPROPERTYTAG
  1
ALT18
  9
$CUSTOMPROPERTY
  1
w/o L Type Hole Alteration (Bottom)
  9
$CUSTOMPROPERTYTAG
  1
ALT18ALG
  9
$CUSTOMPROPERTY
  1
 '','w/o L Type Hole Alteration (Bottom)','1','with L Type Hole Alteration (Bottom)' 
  9
$CUSTOMPROPERTYTAG
  1
HQ18
  9
$CUSTOMPROPERTY
  1
0
  9
$CUSTOMPROPERTYTAG
  1
HQ18ALG
  9
$CUSTOMPROPERTY
  1
0
  9
$CUSTOMPROPERTYTAG
  1
KLP
  9
$CUSTOMPROPERTY
  1
0
  9
$CUSTOMPROPERTYTAG
  1
KLPMIN
  9
$CUSTOMPROPERTY
  1
4.900
  9
$CUSTOMPROPERTYTAG
  1
KLPMAX
  9
$CUSTOMPROPERTY
  1
0.000
  9
$CUSTOMPROPERTYTAG
  1
KLPALG
  9
$CUSTOMPROPERTY
  1
[0]
  9
$CUSTOMPROPERTYTAG
  1
L18
  9
$CUSTOMPROPERTY
  1
0.000
  9
$CUSTOMPROPERTYTAG
  1
D18
  9
$CUSTOMPROPERTY
  1
0.0
  9
$CUSTOMPROPERTYTAG
  1
ALT1718PN
  9
$CUSTOMPROPERTY
  1

  9
$CUSTOMPROPERTYTAG
  1
ALT19
  9
$CUSTOMPROPERTY
  1
N/A
  9
$CUSTOMPROPERTYTAG
  1
ALT19ALG
  9
$CUSTOMPROPERTY
  1
 '','N/A' 
  9
$CUSTOMPROPERTYTAG
  1
M19
  9
$CUSTOMPROPERTY
  1
0
  9
$CUSTOMPROPERTYTAG
  1
DP19
  9
$CUSTOMPROPERTY
  1
0
  9
$CUSTOMPROPERTYTAG
  1
ALT19PN
  9
$CUSTOMPROPERTY
  1

  9
$CUSTOMPROPERTYTAG
  1
ALT20
  9
$CUSTOMPROPERTY
  1
w/o CW (End Face C Chamfering)
  9
$CUSTOMPROPERTYTAG
  1
ALT20PN
  9
$CUSTOMPROPERTY
  1

  9
$CUSTOMPROPERTYTAG
  1
ERRORALT01
  9
$CUSTOMPROPERTY
  1
OK
  9
$CUSTOMPROPERTYTAG
  1
ERRORALT02
  9
$CUSTOMPROPERTY
  1
OK
  9
$CUSTOMPROPERTYTAG
  1
ERRORALT05
  9
$CUSTOMPROPERTY
  1
OK
  9
$CUSTOMPROPERTYTAG
  1
ERRORALT06091
  9
$CUSTOMPROPERTY
  1
OK
  9
$CUSTOMPROPERTYTAG
  1
ERRORALT06092
  9
$CUSTOMPROPERTY
  1
OK
  9
$CUSTOMPROPERTYTAG
  1
ERRORALT06093
  9
$CUSTOMPROPERTY
  1
OK
  9
$CUSTOMPROPERTYTAG
  1
ERRORALT06094
  9
$CUSTOMPROPERTY
  1
OK
  9
$CUSTOMPROPERTYTAG
  1
ERRORALT06101
  9
$CUSTOMPROPERTY
  1
OK
  9
$CUSTOMPROPERTYTAG
  1
ERRORALT06102
  9
$CUSTOMPROPERTY
  1
OK
  9
$CUSTOMPROPERTYTAG
  1
ERRORALT06103
  9
$CUSTOMPROPERTY
  1
OK
  9
$CUSTOMPROPERTYTAG
  1
ERRORALT06104
  9
$CUSTOMPROPERTY
  1
OK
  9
$CUSTOMPROPERTYTAG
  1
ERRORALT06111
  9
$CUSTOMPROPERTY
  1
OK
  9
$CUSTOMPROPERTYTAG
  1
ERRORALT06112
  9
$CUSTOMPROPERTY
  1
OK
  9
$CUSTOMPROPERTYTAG
  1
ERRORALT06113
  9
$CUSTOMPROPERTY
  1
OK
  9
$CUSTOMPROPERTYTAG
  1
ERRORALT06114
  9
$CUSTOMPROPERTY
  1
OK
  9
$CUSTOMPROPERTYTAG
  1
ERRORALT06121
  9
$CUSTOMPROPERTY
  1
OK
  9
$CUSTOMPROPERTYTAG
  1
ERRORALT06122
  9
$CUSTOMPROPERTY
  1
OK
  9
$CUSTOMPROPERTYTAG
  1
ERRORALT06123
  9
$CUSTOMPROPERTY
  1
OK
  9
$CUSTOMPROPERTYTAG
  1
ERRORALT06124
  9
$CUSTOMPROPERTY
  1
OK
  9
$CUSTOMPROPERTYTAG
  1
ERRORALT06131
  9
$CUSTOMPROPERTY
  1
OK
  9
$CUSTOMPROPERTYTAG
  1
ERRORALT06132
  9
$CUSTOMPROPERTY
  1
OK
  9
$CUSTOMPROPERTYTAG
  1
ERRORALT06133
  9
$CUSTOMPROPERTY
  1
OK
  9
$CUSTOMPROPERTYTAG
  1
ERRORALT06134
  9
$CUSTOMPROPERTY
  1
OK
  9
$CUSTOMPROPERTYTAG
  1
ERRORALT0614
  9
$CUSTOMPROPERTY
  1
OK
  9
$CUSTOMPROPERTYTAG
  1
ERRORALT0615
  9
$CUSTOMPROPERTY
  1
OK
  9
$CUSTOMPROPERTYTAG
  1
ERRORALT0616
  9
$CUSTOMPROPERTY
  1
OK
  9
$CUSTOMPROPERTYTAG
  1
ERRORALT06171
  9
$CUSTOMPROPERTY
  1
OK
  9
$CUSTOMPROPERTYTAG
  1
ERRORALT06172
  9
$CUSTOMPROPERTY
  1
OK
  9
$CUSTOMPROPERTYTAG
  1
ERRORALT06173
  9
$CUSTOMPROPERTY
  1
OK
  9
$CUSTOMPROPERTYTAG
  1
ERRORALT06181
  9
$CUSTOMPROPERTY
  1
OK
  9
$CUSTOMPROPERTYTAG
  1
ERRORALT06182
  9
$CUSTOMPROPERTY
  1
OK
  9
$CUSTOMPROPERTYTAG
  1
ERRORALT06183
  9
$CUSTOMPROPERTY
  1
OK
  9
$CUSTOMPROPERTYTAG
  1
ERRORALT0619
  9
$CUSTOMPROPERTY
  1
OK
  9
$CUSTOMPROPERTYTAG
  1
ERRORALT0911
  9
$CUSTOMPROPERTY
  1
OK
  9
$CUSTOMPROPERTYTAG
  1
ERRORALT0913
  9
$CUSTOMPROPERTY
  1
OK
  9
$CUSTOMPROPERTYTAG
  1
ERRORALT0914
  9
$CUSTOMPROPERTY
  1
OK
  9
$CUSTOMPROPERTYTAG
  1
ERRORALT0915
  9
$CUSTOMPROPERTY
  1
OK
  9
$CUSTOMPROPERTYTAG
  1
ERRORALT0916
  9
$CUSTOMPROPERTY
  1
OK
  9
$CUSTOMPROPERTYTAG
  1
ERRORALT0917
  9
$CUSTOMPROPERTY
  1
OK
  9
$CUSTOMPROPERTYTAG
  1
ERRORALT0918
  9
$CUSTOMPROPERTY
  1
OK
  9
$CUSTOMPROPERTYTAG
  1
ERRORALT0919
  9
$CUSTOMPROPERTY
  1
OK
  9
$CUSTOMPROPERTYTAG
  1
ERRORALT1011
  9
$CUSTOMPROPERTY
  1
OK
  9
$CUSTOMPROPERTYTAG
  1
ERRORALT1012
  9
$CUSTOMPROPERTY
  1
OK
  9
$CUSTOMPROPERTYTAG
  1
ERRORALT1014
  9
$CUSTOMPROPERTY
  1
OK
  9
$CUSTOMPROPERTYTAG
  1
ERRORALT1015
  9
$CUSTOMPROPERTY
  1
OK
  9
$CUSTOMPROPERTYTAG
  1
ERRORALT1016
  9
$CUSTOMPROPERTY
  1
OK
  9
$CUSTOMPROPERTYTAG
  1
ERRORALT1017
  9
$CUSTOMPROPERTY
  1
OK
  9
$CUSTOMPROPERTYTAG
  1
ERRORALT1018
  9
$CUSTOMPROPERTY
  1
OK
  9
$CUSTOMPROPERTYTAG
  1
ERRORALT1019
  9
$CUSTOMPROPERTY
  1
OK
  9
$CUSTOMPROPERTYTAG
  1
ERRORALT1112
  9
$CUSTOMPROPERTY
  1
OK
  9
$CUSTOMPROPERTYTAG
  1
ERRORALT1113
  9
$CUSTOMPROPERTY
  1
OK
  9
$CUSTOMPROPERTYTAG
  1
ERRORALT1114
  9
$CUSTOMPROPERTY
  1
OK
  9
$CUSTOMPROPERTYTAG
  1
ERRORALT1115
  9
$CUSTOMPROPERTY
  1
OK
  9
$CUSTOMPROPERTYTAG
  1
ERRORALT1116
  9
$CUSTOMPROPERTY
  1
OK
  9
$CUSTOMPROPERTYTAG
  1
ERRORALT1117
  9
$CUSTOMPROPERTY
  1
OK
  9
$CUSTOMPROPERTYTAG
  1
ERRORALT1118
  9
$CUSTOMPROPERTY
  1
OK
  9
$CUSTOMPROPERTYTAG
  1
ERRORALT1119
  9
$CUSTOMPROPERTY
  1
OK
  9
$CUSTOMPROPERTYTAG
  1
ERRORALT1214
  9
$CUSTOMPROPERTY
  1
OK
  9
$CUSTOMPROPERTYTAG
  1
ERRORALT1215
  9
$CUSTOMPROPERTY
  1
OK
  9
$CUSTOMPROPERTYTAG
  1
ERRORALT1216
  9
$CUSTOMPROPERTY
  1
OK
  9
$CUSTOMPROPERTYTAG
  1
ERRORALT1217
  9
$CUSTOMPROPERTY
  1
OK
  9
$CUSTOMPROPERTYTAG
  1
ERRORALT1218
  9
$CUSTOMPROPERTY
  1
OK
  9
$CUSTOMPROPERTYTAG
  1
ERRORALT1219
  9
$CUSTOMPROPERTY
  1
OK
  9
$CUSTOMPROPERTYTAG
  1
ERRORALT1314
  9
$CUSTOMPROPERTY
  1
OK
  9
$CUSTOMPROPERTYTAG
  1
ERRORALT1315
  9
$CUSTOMPROPERTY
  1
OK
  9
$CUSTOMPROPERTYTAG
  1
ERRORALT1316
  9
$CUSTOMPROPERTY
  1
OK
  9
$CUSTOMPROPERTYTAG
  1
ERRORALT1317
  9
$CUSTOMPROPERTY
  1
OK
  9
$CUSTOMPROPERTYTAG
  1
ERRORALT1318
  9
$CUSTOMPROPERTY
  1
OK
  9
$CUSTOMPROPERTYTAG
  1
ERRORALT1319
  9
$CUSTOMPROPERTY
  1
OK
  9
$CUSTOMPROPERTYTAG
  1
ERRORALT1415
  9
$CUSTOMPROPERTY
  1
OK
  9
$CUSTOMPROPERTYTAG
  1
ERRORALT1416
  9
$CUSTOMPROPERTY
  1
OK
  9
$CUSTOMPROPERTYTAG
  1
ERRORALT1417
  9
$CUSTOMPROPERTY
  1
OK
  9
$CUSTOMPROPERTYTAG
  1
ERRORALT1418
  9
$CUSTOMPROPERTY
  1
OK
  9
$CUSTOMPROPERTYTAG
  1
ERRORALT1419
  9
$CUSTOMPROPERTY
  1
OK
  9
$CUSTOMPROPERTYTAG
  1
ERRORALT1516
  9
$CUSTOMPROPERTY
  1
OK
  9
$CUSTOMPROPERTYTAG
  1
ERRORALT1517
  9
$CUSTOMPROPERTY
  1
OK
  9
$CUSTOMPROPERTYTAG
  1
ERRORALT1518
  9
$CUSTOMPROPERTY
  1
OK
  9
$CUSTOMPROPERTYTAG
  1
ERRORALT1519
  9
$CUSTOMPROPERTY
  1
OK
  9
$CUSTOMPROPERTYTAG
  1
ERRORALT1617
  9
$CUSTOMPROPERTY
  1
OK
  9
$CUSTOMPROPERTYTAG
  1
ERRORALT1618
  9
$CUSTOMPROPERTY
  1
OK
  9
$CUSTOMPROPERTYTAG
  1
ERRORALT1619
  9
$CUSTOMPROPERTY
  1
OK
  9
$CUSTOMPROPERTYTAG
  1
ERRORALT1719
  9
$CUSTOMPROPERTY
  1
OK
  9
$CUSTOMPROPERTYTAG
  1
ERRORALT1819
  9
$CUSTOMPROPERTY
  1
OK
  9
$CUSTOMPROPERTYTAG
  1
ERRORPN
  9
$CUSTOMPROPERTY
  1

  9
$CUSTOMPROPERTYTAG
  1
COMPANY
  9
$CUSTOMPROPERTY
  1
misumi
  9
$INSBASE
 10
0.0
 20
0.0
 30
0.0
  9
$EXTMIN
 10
1.000000000000000E+20
 20
1.000000000000000E+20
 30
1.000000000000000E+20
  9
$EXTMAX
 10
-1.000000000000000E+20
 20
-1.000000000000000E+20
 30
-1.000000000000000E+20
  9
$LIMMIN
 10
0.0
 20
0.0
  9
$LIMMAX
 10
420.0
 20
297.0
  9
$ORTHOMODE
 70
     0
  9
$REGENMODE
 70
     1
  9
$FILLMODE
 70
     1
  9
$QTEXTMODE
 70
     0
  9
$MIRRTEXT
 70
     1
  9
$LTSCALE
 40
1.0
  9
$ATTMODE
 70
     1
  9
$TEXTSIZE
 40
2.5
  9
$TRACEWID
 40
1.0
  9
$TEXTSTYLE
  7
Standard
  9
$CLAYER
  8
0
  9
$CELTYPE
  6
ByLayer
  9
$CECOLOR
 62
   256
  9
$CELTSCALE
 40
1.0
  9
$DISPSILH
 70
     0
  9
$DIMSCALE
 40
1.0
  9
$DIMASZ
 40
2.5
  9
$DIMEXO
 40
0.625
  9
$DIMDLI
 40
3.75
  9
$DIMRND
 40
0.0
  9
$DIMDLE
 40
0.0
  9
$DIMEXE
 40
1.25
  9
$DIMTP
 40
0.0
  9
$DIMTM
 40
0.0
  9
$DIMTXT
 40
2.5
  9
$DIMCEN
 40
2.5
  9
$DIMTSZ
 40
0.0
  9
$DIMTOL
 70
     0
  9
$DIMLIM
 70
     0
  9
$DIMTIH
 70
     0
  9
$DIMTOH
 70
     0
  9
$DIMSE1
 70
     0
  9
$DIMSE2
 70
     0
  9
$DIMTAD
 70
     1
  9
$DIMZIN
 70
     8
  9
$DIMBLK
  1

  9
$DIMASO
 70
     1
  9
$DIMSHO
 70
     1
  9
$DIMPOST
  1

  9
$DIMAPOST
  1

  9
$DIMALT
 70
     0
  9
$DIMALTD
 70
     3
  9
$DIMALTF
 40
0.03937007874016
  9
$DIMLFAC
 40
1.0
  9
$DIMTOFL
 70
     1
  9
$DIMTVP
 40
0.0
  9
$DIMTIX
 70
     0
  9
$DIMSOXD
 70
     0
  9
$DIMSAH
 70
     0
  9
$DIMBLK1
  1

  9
$DIMBLK2
  1

  9
$DIMSTYLE
  2
ISO-25
  9
$DIMCLRD
 70
     0
  9
$DIMCLRE
 70
     0
  9
$DIMCLRT
 70
     0
  9
$DIMTFAC
 40
1.0
  9
$DIMGAP
 40
0.625
  9
$DIMJUST
 70
     0
  9
$DIMSD1
 70
     0
  9
$DIMSD2
 70
     0
  9
$DIMTOLJ
 70
     0
  9
$DIMTZIN
 70
     8
  9
$DIMALTZ
 70
     0
  9
$DIMALTTZ
 70
     0
  9
$DIMUPT
 70
     0
  9
$DIMDEC
 70
     2
  9
$DIMTDEC
 70
     2
  9
$DIMALTU
 70
     2
  9
$DIMALTTD
 70
     3
  9
$DIMTXSTY
  7
Standard
  9
$DIMAUNIT
 70
     0
  9
$DIMADEC
 70
     0
  9
$DIMALTRND
 40
0.0
  9
$DIMAZIN
 70
     0
  9
$DIMDSEP
 70
    44
  9
$DIMATFIT
 70
     3
  9
$DIMFRAC
 70
     0
  9
$DIMLDRBLK
  1

  9
$DIMLUNIT
 70
     2
  9
$DIMLWD
 70
    -2
  9
$DIMLWE
 70
    -2
  9
$DIMTMOVE
 70
     0
  9
$DIMFXL
 40
1.0
  9
$DIMFXLON
 70
     0
  9
$DIMJOGANG
 40
0.7853981633974483
  9
$DIMTFILL
 70
     0
  9
$DIMTFILLCLR
 70
     0
  9
$DIMARCSYM
 70
     0
  9
$DIMLTYPE
  6

  9
$DIMLTEX1
  6

  9
$DIMLTEX2
  6

  9
$DIMTXTDIRECTION
 70
     0
  9
$LUNITS
 70
     2
  9
$LUPREC
 70
     4
  9
$SKETCHINC
 40
1.0
  9
$FILLETRAD
 40
10.0
  9
$AUNITS
 70
     0
  9
$AUPREC
 70
     0
  9
$MENU
  1
.
  9
$ELEVATION
 40
0.0
  9
$PELEVATION
 40
0.0
  9
$THICKNESS
 40
0.0
  9
$LIMCHECK
 70
     0
  9
$CHAMFERA
 40
0.0
  9
$CHAMFERB
 40
0.0
  9
$CHAMFERC
 40
0.0
  9
$CHAMFERD
 40
0.0
  9
$SKPOLY
 70
     0
  9
$TDCREATE
 40
2457684.915238692
  9
$TDUCREATE
 40
2457684.831905359
  9
$TDUPDATE
 40
2457684.915238982
  9
$TDUUPDATE
 40
2457684.831905648
  9
$TDINDWG
 40
0.0000000116
  9
$TDUSRTIMER
 40
0.0000000116
  9
$USRTIMER
 70
     1
  9
$ANGBASE
 50
0.0
  9
$ANGDIR
 70
     0
  9
$PDMODE
 70
     0
  9
$PDSIZE
 40
0.0
  9
$PLINEWID
 40
0.0
  9
$SPLFRAME
 70
     0
  9
$SPLINETYPE
 70
     6
  9
$SPLINESEGS
 70
     8
  9
$HANDSEED
  5
299
  9
$SURFTAB1
 70
     6
  9
$SURFTAB2
 70
     6
  9
$SURFTYPE
 70
     6
  9
$SURFU
 70
     6
  9
$SURFV
 70
     6
  9
$UCSBASE
  2

  9
$UCSNAME
  2

  9
$UCSORG
 10
0.0
 20
0.0
 30
0.0
  9
$UCSXDIR
 10
1.0
 20
0.0
 30
0.0
  9
$UCSYDIR
 10
0.0
 20
1.0
 30
0.0
  9
$UCSORTHOREF
  2

  9
$UCSORTHOVIEW
 70
     0
  9
$UCSORGTOP
 10
0.0
 20
0.0
 30
0.0
  9
$UCSORGBOTTOM
 10
0.0
 20
0.0
 30
0.0
  9
$UCSORGLEFT
 10
0.0
 20
0.0
 30
0.0
  9
$UCSORGRIGHT
 10
0.0
 20
0.0
 30
0.0
  9
$UCSORGFRONT
 10
0.0
 20
0.0
 30
0.0
  9
$UCSORGBACK
 10
0.0
 20
0.0
 30
0.0
  9
$PUCSBASE
  2

  9
$PUCSNAME
  2

  9
$PUCSORG
 10
0.0
 20
0.0
 30
0.0
  9
$PUCSXDIR
 10
1.0
 20
0.0
 30
0.0
  9
$PUCSYDIR
 10
0.0
 20
1.0
 30
0.0
  9
$PUCSORTHOREF
  2

  9
$PUCSORTHOVIEW
 70
     0
  9
$PUCSORGTOP
 10
0.0
 20
0.0
 30
0.0
  9
$PUCSORGBOTTOM
 10
0.0
 20
0.0
 30
0.0
  9
$PUCSORGLEFT
 10
0.0
 20
0.0
 30
0.0
  9
$PUCSORGRIGHT
 10
0.0
 20
0.0
 30
0.0
  9
$PUCSORGFRONT
 10
0.0
 20
0.0
 30
0.0
  9
$PUCSORGBACK
 10
0.0
 20
0.0
 30
0.0
  9
$USERI1
 70
     0
  9
$USERI2
 70
     0
  9
$USERI3
 70
     0
  9
$USERI4
 70
     0
  9
$USERI5
 70
     0
  9
$USERR1
 40
0.0
  9
$USERR2
 40
0.0
  9
$USERR3
 40
0.0
  9
$USERR4
 40
0.0
  9
$USERR5
 40
0.0
  9
$WORLDVIEW
 70
     1
  9
$SHADEDGE
 70
     3
  9
$SHADEDIF
 70
    70
  9
$TILEMODE
 70
     1
  9
$MAXACTVP
 70
    64
  9
$PINSBASE
 10
0.0
 20
0.0
 30
0.0
  9
$PLIMCHECK
 70
     0
  9
$PEXTMIN
 10
1.000000000000000E+20
 20
1.000000000000000E+20
 30
1.000000000000000E+20
  9
$PEXTMAX
 10
-1.000000000000000E+20
 20
-1.000000000000000E+20
 30
-1.000000000000000E+20
  9
$PLIMMIN
 10
0.0
 20
0.0
  9
$PLIMMAX
 10
420.0
 20
297.0
  9
$UNITMODE
 70
     0
  9
$VISRETAIN
 70
     1
  9
$PLINEGEN
 70
     0
  9
$PSLTSCALE
 70
     1
  9
$TREEDEPTH
 70
  3020
  9
$CMLSTYLE
  2
Standard
  9
$CMLJUST
 70
     0
  9
$CMLSCALE
 40
20.0
  9
$PROXYGRAPHICS
 70
     1
  9
$MEASUREMENT
 70
     1
  9
$CELWEIGHT
370
    -1
  9
$ENDCAPS
280
     0
  9
$JOINSTYLE
280
     0
  9
$LWDISPLAY
290
     0
  9
$INSUNITS
 70
     4
  9
$HYPERLINKBASE
  1

  9
$STYLESHEET
  1

  9
$XEDIT
290
     1
  9
$CEPSNTYPE
380
     0
  9
$PSTYLEMODE
290
     1
  9
$FINGERPRINTGUID
  2
{0F0483DD-359A-4226-8E01-8E5268D5AA29}
  9
$VERSIONGUID
  2
{FAEB1C32-E019-11D5-929B-00C0DF256EC4}
  9
$EXTNAMES
290
     1
  9
$PSVPSCALE
 40
0.0
  9
$OLESTARTUP
290
     0
  9
$SORTENTS
280
   127
  9
$INDEXCTL
280
     0
  9
$HIDETEXT
280
     1
  9
$XCLIPFRAME
280
     2
  9
$HALOGAP
280
     0
  9
$OBSCOLOR
 70
   257
  9
$OBSLTYPE
280
     0
  9
$INTERSECTIONDISPLAY
280
     0
  9
$INTERSECTIONCOLOR
 70
   257
  9
$DIMASSOC
280
     2
  9
$PROJECTNAME
  1

  9
$CAMERADISPLAY
290
     0
  9
$LENSLENGTH
 40
50.0
  9
$CAMERAHEIGHT
 40
0.0
  9
$STEPSPERSEC
 40
2.0
  9
$STEPSIZE
 40
6.0
  9
$3DDWFPREC
 40
2.0
  9
$PSOLWIDTH
 40
5.0
  9
$PSOLHEIGHT
 40
80.0
  9
$LOFTANG1
 40
1.570796326794897
  9
$LOFTANG2
 40
1.570796326794897
  9
$LOFTMAG1
 40
0.0
  9
$LOFTMAG2
 40
0.0
  9
$LOFTPARAM
 70
     7
  9
$LOFTNORMALS
280
     1
  9
$LATITUDE
 40
37.795
  9
$LONGITUDE
 40
-122.394
  9
$NORTHDIRECTION
 40
0.0
  9
$TIMEZONE
 70
 -8000
  9
$LIGHTGLYPHDISPLAY
280
     1
  9
$TILEMODELIGHTSYNCH
280
     1
  9
$CMATERIAL
347
44
  9
$SOLIDHIST
280
     1
  9
$SHOWHIST
280
     1
  9
$DWFFRAME
280
     2
  9
$DGNFRAME
280
     2
  9
$REALWORLDSCALE
290
     1
  9
$INTERFERECOLOR
 62
   256
  9
$CSHADOW
280
     0
  9
$SHADOWPLANELOCATION
 40
0.0
  0
ENDSEC
  0
SECTION
  2
CLASSES
  0
CLASS
  1
ACDBDICTIONARYWDFLT
  2
AcDbDictionaryWithDefault
  3
ObjectDBX Classes
 90
        0
 91
        4
280
     0
281
     0
  0
CLASS
  1
VISUALSTYLE
  2
AcDbVisualStyle
  3
ObjectDBX Classes
 90
     4095
 91
        4
280
     0
281
     0
  0
CLASS
  1
MATERIAL
  2
AcDbMaterial
  3
ObjectDBX Classes
 90
     1153
 91
        4
280
     0
281
     0
  0
CLASS
  1
SCALE
  2
AcDbScale
  3
ObjectDBX Classes
 90
     1153
 91
        4
280
     0
281
     0
  0
CLASS
  1
SUN
  2
AcDbSun
  3
SCENEOE
 90
     1153
 91
        4
280
     0
281
     0
  0
CLASS
  1
DICTIONARYVAR
  2
AcDbDictionaryVar
  3
ObjectDBX Classes
 90
        0
 91
        4
280
     0
281
     0
  0
ENDSEC
  0
SECTION
  2
TABLES
  0
TABLE
  2
VPORT
  5
8
330
0
100
AcDbSymbolTable
 70
     1
  0
VPORT
  5
29
330
8
100
AcDbSymbolTableRecord
100
AcDbViewportTableRecord
  2
*Active
 70
     0
 10
0.0
 20
0.0
 11
1.0
 21
1.0
 12
17.5595238095238
 22
-485.25
 13
0.0
 23
0.0
 14
10.0
 24
10.0
 15
10.0
 25
10.0
 16
0.0
 26
0.0
 36
1.0
 17
0.0
 27
0.0
 37
0.0
 40
1076.61
 41
0.0711691592790598
 42
50.0
 43
0.0
 44
0.0
 50
0.0
 51
0.0
 71
     0
 72
   100
 73
     1
 74
     3
 75
     0
 76
     0
 77
     0
 78
     0
281
     0
 65
     1
110
0.0
120
0.0
130
0.0
111
1.0
121
0.0
131
0.0
112
0.0
122
1.0
132
0.0
 79
     0
146
0.0
 60
     3
 61
     5
292
     1
282
     1
141
0.0
142
0.0
 63
   250
361
69
  0
ENDTAB
  0
TABLE
  2
LTYPE
  5
5
330
0
100
AcDbSymbolTable
 70
     3
  0
LTYPE
  5
14
330
5
100
AcDbSymbolTableRecord
100
AcDbLinetypeTableRecord
  2
ByBlock
 70
     0
  3

 72
    65
 73
     0
 40
0.0
  0
LTYPE
  5
15
330
5
100
AcDbSymbolTableRecord
100
AcDbLinetypeTableRecord
  2
ByLayer
 70
     0
  3

 72
    65
 73
     0
 40
0.0
  0
LTYPE
  5
16
330
5
100
AcDbSymbolTableRecord
100
AcDbLinetypeTableRecord
  2
Continuous
 70
     0
  3
Solid line
 72
    65
 73
     0
 40
0.0
  0
LTYPE
  5
6C
330
5
100
AcDbSymbolTableRecord
100
AcDbLinetypeTableRecord
  2
Dashed
 70
     0
  3

 72
    65
 73
     2
 40
2.0
 49
1.0
 74
     0
 49
-1.0
 74
     0
  0
LTYPE
  5
6E
330
5
100
AcDbSymbolTableRecord
100
AcDbLinetypeTableRecord
  2
Center
 70
     0
  3

 72
    65
 73
     4
 40
1.5
 49
0.45
 74
     0
 49
-0.5
 74
     0
 49
0.05
 74
     0
 49
-0.5
 74
     0
  0
ENDTAB
  0
TABLE
  2
LAYER
  5
2
330
0
100
AcDbSymbolTable
 70
    11
  0
LAYER
  5
10
330
2
100
AcDbSymbolTableRecord
100
AcDbLayerTableRecord
  2
0
 70
     0
 62
     7
  6
Continuous
370
    -3
390
F
347
46
348
0
  0
LAYER
  5
6A
330
2
100
AcDbSymbolTableRecord
100
AcDbLayerTableRecord
  2
vis
 70
     0
 62
     1
  6
Continuous
370
    50
390
F
347
46
348
0
  0
LAYER
  5
6B
330
2
100
AcDbSymbolTableRecord
100
AcDbLayerTableRecord
  2
thin
 70
     0
 62
     2
  6
Continuous
370
    50
390
F
347
46
348
0
  0
LAYER
  5
6D
330
2
100
AcDbSymbolTableRecord
100
AcDbLayerTableRecord
  2
hidden
 70
     0
 62
     3
  6
Dashed
370
    25
390
F
347
46
348
0
  0
LAYER
  5
6F
330
2
100
AcDbSymbolTableRecord
100
AcDbLayerTableRecord
  2
center
 70
     0
 62
     4
  6
Center
370
    25
390
F
347
46
348
0
  0
LAYER
  5
70
330
2
100
AcDbSymbolTableRecord
100
AcDbLayerTableRecord
  2
center1
 70
     0
 62
     7
  6
Center
370
    50
390
F
347
46
348
0
  0
LAYER
  5
71
330
2
100
AcDbSymbolTableRecord
100
AcDbLayerTableRecord
  2
thread
 70
     0
 62
     3
  6
Continuous
370
    25
390
F
347
46
348
0
  0
LAYER
  5
72
330
2
100
AcDbSymbolTableRecord
100
AcDbLayerTableRecord
  2
attrib
 70
     0
 62
    -2
  6
Continuous
370
    35
390
F
347
46
348
0
  0
LAYER
  5
73
330
2
100
AcDbSymbolTableRecord
100
AcDbLayerTableRecord
  2
dimension
 70
     0
 62
     3
  6
Continuous
370
    25
390
F
347
46
348
0
  0
LAYER
  5
74
330
2
100
AcDbSymbolTableRecord
100
AcDbLayerTableRecord
  2
hatch
 70
     0
 62
     3
  6
Continuous
370
    25
390
F
347
46
348
0
  0
LAYER
  5
75
330
2
100
AcDbSymbolTableRecord
100
AcDbLayerTableRecord
  2
ConnectionPoints
 70
     0
 62
    -1
  6
Continuous
370
     5
390
F
347
46
348
0
  0
ENDTAB
  0
TABLE
  2
STYLE
  5
3
330
0
100
AcDbSymbolTable
 70
     1
  0
STYLE
  5
11
330
3
100
AcDbSymbolTableRecord
100
AcDbTextStyleTableRecord
  2
Standard
 70
     0
 40
0.0
 41
1.0
 50
0.0
 71
     0
 42
2.5
  3
txt
  4

  0
ENDTAB
  0
TABLE
  2
VIEW
  5
6
330
0
100
AcDbSymbolTable
 70
     0
  0
ENDTAB
  0
TABLE
  2
UCS
  5
7
330
0
100
AcDbSymbolTable
 70
     0
  0
ENDTAB
  0
TABLE
  2
APPID
  5
9
330
0
100
AcDbSymbolTable
 70
     1
  0
APPID
  5
12
330
9
100
AcDbSymbolTableRecord
100
AcDbRegAppTableRecord
  2
ACAD
 70
     0
  0
ENDTAB
  0
TABLE
  2
DIMSTYLE
  5
A
330
0
100
AcDbSymbolTable
 70
     1
100
AcDbDimStyleTable
  0
DIMSTYLE
105
27
330
A
100
AcDbSymbolTableRecord
100
AcDbDimStyleTableRecord
  2
ISO-25
 70
     0
 41
2.5
 42
0.625
 43
3.75
 44
1.25
 73
     0
 74
     0
 77
     1
 78
     8
140
2.5
141
2.5
143
0.03937007874016
147
0.625
171
     3
172
     1
178
     0
271
     2
272
     2
274
     3
278
    44
283
     0
284
     8
340
11
  0
ENDTAB
  0
TABLE
  2
BLOCK_RECORD
  5
1
330
0
100
AcDbSymbolTable
 70
     1
  0
BLOCK_RECORD
  5
1F
330
1
100
AcDbSymbolTableRecord
100
AcDbBlockTableRecord
  2
*Model_Space
340
22
 70
     0
280
     1
281
     0
  0
BLOCK_RECORD
  5
1B
330
1
100
AcDbSymbolTableRecord
100
AcDbBlockTableRecord
  2
*Paper_Space
340
1E
 70
     0
280
     1
281
     0
  0
BLOCK_RECORD
  5
23
330
1
100
AcDbSymbolTableRecord
100
AcDbBlockTableRecord
  2
*Paper_Space0
340
26
 70
     0
280
     1
281
     0
  0
ENDTAB
  0
ENDSEC
  0
SECTION
  2
BLOCKS
  0
BLOCK
  5
20
330
1F
100
AcDbEntity
  8
0
100
AcDbBlockBegin
  2
*Model_Space
 70
     0
 10
0.0
 20
0.0
 30
0.0
  3
*Model_Space
  1
*Model_Space
  0
ENDBLK
  5
21
330
1F
100
AcDbEntity
  8
0
100
AcDbBlockEnd
  0
BLOCK
  5
1C
330
1B
100
AcDbEntity
 67
     1
  8
0
100
AcDbBlockBegin
  2
*Paper_Space
 70
     0
 10
0.0
 20
0.0
 30
0.0
  3
*Paper_Space
  1
*Paper_Space
  0
ENDBLK
  5
1D
330
1B
100
AcDbEntity
 67
     1
  8
0
100
AcDbBlockEnd
  0
BLOCK
  5
24
330
23
100
AcDbEntity
  8
0
100
AcDbBlockBegin
  2
*Paper_Space0
 70
     0
 10
0.0
 20
0.0
 30
0.0
  3
*Paper_Space0
  1
*Paper_Space0
  0
ENDBLK
  5
25
330
23
100
AcDbEntity
  8
0
100
AcDbBlockEnd
  0
ENDSEC
  0
SECTION
  2
ENTITIES
  0
ATTDEF
  5
76
330
1F
100
AcDbEntity
  8
attrib
100
AcDbText
 10
25.0
 20
40.00000000000001
 30
0.0
 40
2.5
  1
NEFS8-4080, NEFSB8-4080, EFS8-4080, EFSB8-4080, HFS8-4080, HFSB8-4080, CAF8-4080, NFSL8-4080, HFSL8-4080, HFSLB8-4080, GFS8-4080
100
AcDbAttributeDefinition
  3

  2
NN
 70
     8
280
     0
  0
ATTDEF
  5
77
330
1F
100
AcDbEntity
  8
attrib
100
AcDbText
 10
25.0
 20
37.00000000000001
 30
0.0
 40
2.5
  1
HFS8 Series Aluminum Extrusions 40,80 Square -2 Slots-
100
AcDbAttributeDefinition
  3

  2
NT
 70
     8
280
     0
  0
ATTDEF
  5
78
330
1F
100
AcDbEntity
  8
attrib
100
AcDbText
 10
25.0
 20
34.00000000000001
 30
0.0
 40
2.5
  1
HFS8-4080-4000
100
AcDbAttributeDefinition
  3

  2
NB
 70
     8
280
     0
  0
ATTDEF
  5
79
330
1F
100
AcDbEntity
  8
attrib
100
AcDbText
 10
25.0
 20
31.00000000000001
 30
0.0
 40
2.5
  1
$PN.
100
AcDbAttributeDefinition
  3

  2
NBSYN
 70
     8
280
     0
  0
ATTDEF
  5
7A
330
1F
100
AcDbEntity
  8
attrib
100
AcDbText
 10
25.0
 20
28.00000000000001
 30
0.0
 40
2.5
  1
HFS8-4080-4000
100
AcDbAttributeDefinition
  3

  2
LINA
 70
     8
280
     0
  0
ATTDEF
  5
7B
330
1F
100
AcDbEntity
  8
attrib
100
AcDbText
 10
25.0
 20
25.00000000000001
 30
0.0
 40
2.5
  1
HFS8-4080-4000
100
AcDbAttributeDefinition
  3

  2
PN
 70
     8
280
     0
  0
ATTDEF
  5
7C
330
1F
100
AcDbEntity
  8
attrib
100
AcDbText
 10
25.0
 20
22.00000000000001
 30
0.0
 40
2.5
  1
HFS8-4080
100
AcDbAttributeDefinition
  3

  2
TPS
 70
     8
280
     0
  0
ATTDEF
  5
7D
330
1F
100
AcDbEntity
  8
attrib
100
AcDbText
 10
25.0
 20
19.00000000000001
 30
0.0
 40
2.5
  1
A6N01SS-T5 Aluminum Alloy
100
AcDbAttributeDefinition
  3

  2
MAT
 70
     8
280
     0
  0
ATTDEF
  5
7E
330
1F
100
AcDbEntity
  8
attrib
100
AcDbText
 10
25.0
 20
16.00000000000001
 30
0.0
 40
2.5
  1
Clear Anodize
100
AcDbAttributeDefinition
  3

  2
ST
 70
     8
280
     0
  0
ATTDEF
  5
7F
330
1F
100
AcDbEntity
  8
attrib
100
AcDbText
 10
25.0
 20
13.00000000000001
 30
0.0
 40
2.5
  1
40
100
AcDbAttributeDefinition
  3

  2
FRMW
 70
     8
280
     0
  0
ATTDEF
  5
80
330
1F
100
AcDbEntity
  8
attrib
100
AcDbText
 10
25.0
 20
10.00000000000001
 30
0.0
 40
2.5
  1
80
100
AcDbAttributeDefinition
  3

  2
FRMH
 70
     8
280
     0
  0
ATTDEF
  5
81
330
1F
100
AcDbEntity
  8
attrib
100
AcDbText
 10
25.0
 20
7.000000000000014
 30
0.0
 40
2.5
  1
10.5
100
AcDbAttributeDefinition
  3

  2
FRD
 70
     8
280
     0
  0
ATTDEF
  5
82
330
1F
100
AcDbEntity
  8
attrib
100
AcDbText
 10
25.0
 20
4.000000000000014
 30
0.0
 40
2.5
  1
4000
100
AcDbAttributeDefinition
  3

  2
L
 70
     8
280
     0
  0
ATTDEF
  5
83
330
1F
100
AcDbEntity
  8
attrib
100
AcDbText
 10
25.0
 20
1.000000000000014
 30
0.0
 40
2.5
  1
3.00
100
AcDbAttributeDefinition
  3

  2
MASS
 70
     8
280
     0
  0
ATTDEF
  5
84
330
1F
100
AcDbEntity
  8
attrib
100
AcDbText
 10
25.0
 20
-1.999999999999986
 30
0.0
 40
2.5
  1
1109
100
AcDbAttributeDefinition
  3

  2
SA
 70
     8
280
     0
  0
ATTDEF
  5
85
330
1F
100
AcDbEntity
  8
attrib
100
AcDbText
 10
25.0
 20
-4.999999999999986
 30
0.0
 40
2.5
  1
19.8x10^ 4
100
AcDbAttributeDefinition
  3

  2
LX
 70
     8
280
     0
  0
ATTDEF
  5
86
330
1F
100
AcDbEntity
  8
attrib
100
AcDbText
 10
25.0
 20
-7.999999999999986
 30
0.0
 40
2.5
  1
71.9x10^ 4
100
AcDbAttributeDefinition
  3

  2
LY
 70
     8
280
     0
  0
ATTDEF
  5
87
330
1F
100
AcDbEntity
  8
attrib
100
AcDbText
 10
25.0
 20
-10.99999999999999
 30
0.0
 40
2.5
  1
w/o End Tapping
100
AcDbAttributeDefinition
  3

  2
ALT1
 70
     8
280
     0
  0
ATTDEF
  5
88
330
1F
100
AcDbEntity
  8
attrib
100
AcDbText
 10
25.0
 20
-13.99999999999999
 30
0.0
 40
2.5
  1
0
100
AcDbAttributeDefinition
  3

  2
M1
 70
     8
280
     0
  0
ATTDEF
  5
89
330
1F
100
AcDbEntity
  8
attrib
100
AcDbText
 10
25.0
 20
-16.99999999999999
 30
0.0
 40
2.5
  1
10.106
100
AcDbAttributeDefinition
  3

  2
IDM1
 70
     8
280
     0
  0
ATTDEF
  5
8A
330
1F
100
AcDbEntity
  8
attrib
100
AcDbText
 10
25.0
 20
-19.99999999999999
 30
0.0
 40
2.5
  1
0
100
AcDbAttributeDefinition
  3

  2
DPL1
 70
     8
280
     0
  0
ATTDEF
  5
8B
330
1F
100
AcDbEntity
  8
attrib
100
AcDbText
 10
25.0
 20
-22.99999999999999
 30
0.0
 40
2.5
  1
0
100
AcDbAttributeDefinition
  3

  2
DPR1
 70
     8
280
     0
  0
ATTDEF
  5
8C
330
1F
100
AcDbEntity
  8
attrib
100
AcDbText
 10
25.0
 20
-25.99999999999999
 30
0.0
 40
2.5
  1

100
AcDbAttributeDefinition
  3

  2
ALT1PN
 70
     8
280
     0
  0
ATTDEF
  5
8D
330
1F
100
AcDbEntity
  8
attrib
100
AcDbText
 10
25.0
 20
-28.99999999999999
 30
0.0
 40
2.5
  1
w/o End Tapping (Heli-Coil Insert)
100
AcDbAttributeDefinition
  3

  2
ALT2
 70
     8
280
     0
  0
ATTDEF
  5
8E
330
1F
100
AcDbEntity
  8
attrib
100
AcDbText
 10
25.0
 20
-31.99999999999999
 30
0.0
 40
2.5
  1
 '','w/o End Tapping (Heli-Coil Insert)','LHP','with LHP (Tapping on the Left (Heli-Coil Insert))','RHP','with RHP (Tapping on the Right (Heli-Coil Insert))','HPW','with HPW (Tapping on Both Ends (Heli-Coil Insert))' 
100
AcDbAttributeDefinition
  3

  2
ALT2ALG
 70
     8
280
     0
  0
ATTDEF
  5
8F
330
1F
100
AcDbEntity
  8
attrib
100
AcDbText
 10
25.0
 20
-34.99999999999999
 30
0.0
 40
2.5
  1
0
100
AcDbAttributeDefinition
  3

  2
M2
 70
     8
280
     0
  0
ATTDEF
  5
90
330
1F
100
AcDbEntity
  8
attrib
100
AcDbText
 10
25.0
 20
-37.99999999999999
 30
0.0
 40
2.5
  1
0
100
AcDbAttributeDefinition
  3

  2
DP2
 70
     8
280
     0
  0
ATTDEF
  5
91
330
1F
100
AcDbEntity
  8
attrib
100
AcDbText
 10
25.0
 20
-40.99999999999999
 30
0.0
 40
2.5
  1

100
AcDbAttributeDefinition
  3

  2
ALT2PN
 70
     8
280
     0
  0
ATTDEF
  5
92
330
1F
100
AcDbEntity
  8
attrib
100
AcDbText
 10
25.0
 20
-43.99999999999999
 30
0.0
 40
2.5
  1
Not applicable
100
AcDbAttributeDefinition
  3

  2
ALT4
 70
     8
280
     0
  0
ATTDEF
  5
93
330
1F
100
AcDbEntity
  8
attrib
100
AcDbText
 10
25.0
 20
-46.99999999999999
 30
0.0
 40
2.5
  1
 '', 'Not applicable' 
100
AcDbAttributeDefinition
  3

  2
ALT4ALG
 70
     8
280
     0
  0
ATTDEF
  5
94
330
1F
100
AcDbEntity
  8
attrib
100
AcDbText
 10
25.0
 20
-49.99999999999999
 30
0.0
 40
2.5
  1

100
AcDbAttributeDefinition
  3

  2
ALT4PN
 70
     8
280
     0
  0
ATTDEF
  5
95
330
1F
100
AcDbEntity
  8
attrib
100
AcDbText
 10
25.0
 20
-52.99999999999999
 30
0.0
 40
2.5
  1
w/o 45 Degree Cut
100
AcDbAttributeDefinition
  3

  2
ALT5
 70
     8
280
     0
  0
ATTDEF
  5
96
330
1F
100
AcDbEntity
  8
attrib
100
AcDbText
 10
25.0
 20
-55.99999999999999
 30
0.0
 40
2.5
  1
 '','w/o 45 Degree Cut','1','with 45 Degree Cut' 
100
AcDbAttributeDefinition
  3

  2
ALT5ALG
 70
     8
280
     0
  0
ATTDEF
  5
97
330
1F
100
AcDbEntity
  8
attrib
100
AcDbText
 10
25.0
 20
-58.99999999999999
 30
0.0
 40
2.5
  1
N/A
100
AcDbAttributeDefinition
  3

  2
CP5
 70
     8
280
     0
  0
ATTDEF
  5
98
330
1F
100
AcDbEntity
  8
attrib
100
AcDbText
 10
25.0
 20
-61.99999999999999
 30
0.0
 40
2.5
  1
 '','N/A' 
100
AcDbAttributeDefinition
  3

  2
CP5ALG
 70
     8
280
     0
  0
ATTDEF
  5
99
330
1F
100
AcDbEntity
  8
attrib
100
AcDbText
 10
25.0
 20
-64.99999999999999
 30
0.0
 40
2.5
  1
N/A
100
AcDbAttributeDefinition
  3

  2
DL5
 70
     8
280
     0
  0
ATTDEF
  5
9A
330
1F
100
AcDbEntity
  8
attrib
100
AcDbText
 10
25.0
 20
-67.99999999999999
 30
0.0
 40
2.5
  1
 '','N/A' 
100
AcDbAttributeDefinition
  3

  2
DL5ALG
 70
     8
280
     0
  0
ATTDEF
  5
9B
330
1F
100
AcDbEntity
  8
attrib
100
AcDbText
 10
25.0
 20
-70.99999999999999
 30
0.0
 40
2.5
  1
N/A
100
AcDbAttributeDefinition
  3

  2
DR5
 70
     8
280
     0
  0
ATTDEF
  5
9C
330
1F
100
AcDbEntity
  8
attrib
100
AcDbText
 10
25.0
 20
-73.99999999999999
 30
0.0
 40
2.5
  1
 '','N/A' 
100
AcDbAttributeDefinition
  3

  2
DR5ALG
 70
     8
280
     0
  0
ATTDEF
  5
9D
330
1F
100
AcDbEntity
  8
attrib
100
AcDbText
 10
25.0
 20
-76.99999999999999
 30
0.0
 40
2.5
  1
0.000
100
AcDbAttributeDefinition
  3

  2
FRMLALT5
 70
     8
280
     0
  0
ATTDEF
  5
9E
330
1F
100
AcDbEntity
  8
attrib
100
AcDbText
 10
25.0
 20
-79.99999999999999
 30
0.0
 40
2.5
  1
0.000
100
AcDbAttributeDefinition
  3

  2
FRMRALT5
 70
     8
280
     0
  0
ATTDEF
  5
9F
330
1F
100
AcDbEntity
  8
attrib
100
AcDbText
 10
25.0
 20
-82.99999999999999
 30
0.0
 40
2.5
  1

100
AcDbAttributeDefinition
  3

  2
ALT5PN
 70
     8
280
     0
  0
ATTDEF
  5
A0
330
1F
100
AcDbEntity
  8
attrib
100
AcDbText
 10
25.0
 20
-85.99999999999999
 30
0.0
 40
2.5
  1
w/o Fastening Location Wrench Access Hole Alterations
100
AcDbAttributeDefinition
  3

  2
ALT6
 70
     8
280
     0
  0
ATTDEF
  5
A1
330
1F
100
AcDbEntity
  8
attrib
100
AcDbText
 10
25.0
 20
-88.99999999999999
 30
0.0
 40
2.5
  1
 '','w/o Fastening Location Wrench Access Hole Alterations','1','with Fastening Location Wrench Access Hole Alterations' 
100
AcDbAttributeDefinition
  3

  2
ALT6ALG
 70
     8
280
     0
  0
ATTDEF
  5
A2
330
1F
100
AcDbEntity
  8
attrib
100
AcDbText
 10
25.0
 20
-91.99999999999999
 30
0.0
 40
2.5
  1
w/o Location Specified Wrench Access Hole Alteratons (Horizontal)
100
AcDbAttributeDefinition
  3

  2
ALT9
 70
     8
280
     0
  0
ATTDEF
  5
A3
330
1F
100
AcDbEntity
  8
attrib
100
AcDbText
 10
25.0
 20
-94.99999999999999
 30
0.0
 40
2.5
  1
 '','w/o Location Specified Wrench Access Hole Alteratons (Horizontal)','1','with Location Specified Wrench Access Hole Alteratons (Horizontal)' 
100
AcDbAttributeDefinition
  3

  2
ALT9ALG
 70
     8
280
     0
  0
ATTDEF
  5
A4
330
1F
100
AcDbEntity
  8
attrib
100
AcDbText
 10
25.0
 20
-97.99999999999999
 30
0.0
 40
2.5
  1
w/o Location Specified Wrench Access Hole Alteratons (Vertical)
100
AcDbAttributeDefinition
  3

  2
ALT10
 70
     8
280
     0
  0
ATTDEF
  5
A5
330
1F
100
AcDbEntity
  8
attrib
100
AcDbText
 10
25.0
 20
-101.0
 30
0.0
 40
2.5
  1
 '','w/o Location Specified Wrench Access Hole Alteratons (Vertical)','1','with Location Specified Wrench Access Hole Alteratons (Vertical)' 
100
AcDbAttributeDefinition
  3

  2
ALT10ALG
 70
     8
280
     0
  0
ATTDEF
  5
A6
330
1F
100
AcDbEntity
  8
attrib
100
AcDbText
 10
25.0
 20
-104.0
 30
0.0
 40
2.5
  1
w/o Location Specified Wrench Access Hole Alteratons (Crisscross)
100
AcDbAttributeDefinition
  3

  2
ALT11
 70
     8
280
     0
  0
ATTDEF
  5
A7
330
1F
100
AcDbEntity
  8
attrib
100
AcDbText
 10
25.0
 20
-107.0
 30
0.0
 40
2.5
  1
 '','w/o Location Specified Wrench Access Hole Alteratons (Crisscross)','1','with Location Specified Wrench Access Hole Alteratons (Crisscross)' 
100
AcDbAttributeDefinition
  3

  2
ALT11ALG
 70
     8
280
     0
  0
ATTDEF
  5
A8
330
1F
100
AcDbEntity
  8
attrib
100
AcDbText
 10
25.0
 20
-110.0
 30
0.0
 40
2.5
  1
N/A
100
AcDbAttributeDefinition
  3

  2
HP6
 70
     8
280
     0
  0
ATTDEF
  5
A9
330
1F
100
AcDbEntity
  8
attrib
100
AcDbText
 10
25.0
 20
-113.0
 30
0.0
 40
2.5
  1
 '','N/A' 
100
AcDbAttributeDefinition
  3

  2
HP6ALG
 70
     8
280
     0
  0
ATTDEF
  5
AA
330
1F
100
AcDbEntity
  8
attrib
100
AcDbText
 10
25.0
 20
-116.0
 30
0.0
 40
2.5
  1
N/A
100
AcDbAttributeDefinition
  3

  2
NHL6
 70
     8
280
     0
  0
ATTDEF
  5
AB
330
1F
100
AcDbEntity
  8
attrib
100
AcDbText
 10
25.0
 20
-119.0
 30
0.0
 40
2.5
  1
 '','N/A' 
100
AcDbAttributeDefinition
  3

  2
NHL6ALG
 70
     8
280
     0
  0
ATTDEF
  5
AC
330
1F
100
AcDbEntity
  8
attrib
100
AcDbText
 10
25.0
 20
-122.0
 30
0.0
 40
2.5
  1
N/A
100
AcDbAttributeDefinition
  3

  2
DL6
 70
     8
280
     0
  0
ATTDEF
  5
AD
330
1F
100
AcDbEntity
  8
attrib
100
AcDbText
 10
25.0
 20
-125.0
 30
0.0
 40
2.5
  1
 '','N/A' 
100
AcDbAttributeDefinition
  3

  2
DL6ALG
 70
     8
280
     0
  0
ATTDEF
  5
AE
330
1F
100
AcDbEntity
  8
attrib
100
AcDbText
 10
25.0
 20
-128.0
 30
0.0
 40
2.5
  1
N/A
100
AcDbAttributeDefinition
  3

  2
NHR6
 70
     8
280
     0
  0
ATTDEF
  5
AF
330
1F
100
AcDbEntity
  8
attrib
100
AcDbText
 10
25.0
 20
-131.0
 30
0.0
 40
2.5
  1
 '','N/A' 
100
AcDbAttributeDefinition
  3

  2
NHR6ALG
 70
     8
280
     0
  0
ATTDEF
  5
B0
330
1F
100
AcDbEntity
  8
attrib
100
AcDbText
 10
25.0
 20
-134.0
 30
0.0
 40
2.5
  1
N/A
100
AcDbAttributeDefinition
  3

  2
DR6
 70
     8
280
     0
  0
ATTDEF
  5
B1
330
1F
100
AcDbEntity
  8
attrib
100
AcDbText
 10
25.0
 20
-137.0
 30
0.0
 40
2.5
  1
 '','N/A' 
100
AcDbAttributeDefinition
  3

  2
DR6ALG
 70
     8
280
     0
  0
ATTDEF
  5
B2
330
1F
100
AcDbEntity
  8
attrib
100
AcDbText
 10
25.0
 20
-140.0
 30
0.0
 40
2.5
  1
0
100
AcDbAttributeDefinition
  3

  2
HL6
 70
     8
280
     0
  0
ATTDEF
  5
B3
330
1F
100
AcDbEntity
  8
attrib
100
AcDbText
 10
25.0
 20
-143.0
 30
0.0
 40
2.5
  1
0
100
AcDbAttributeDefinition
  3

  2
HL6D
 70
     8
280
     0
  0
ATTDEF
  5
B4
330
1F
100
AcDbEntity
  8
attrib
100
AcDbText
 10
25.0
 20
-146.0
 30
0.0
 40
2.5
  1
0
100
AcDbAttributeDefinition
  3

  2
HR6
 70
     8
280
     0
  0
ATTDEF
  5
B5
330
1F
100
AcDbEntity
  8
attrib
100
AcDbText
 10
25.0
 20
-149.0
 30
0.0
 40
2.5
  1
0
100
AcDbAttributeDefinition
  3

  2
HR6D
 70
     8
280
     0
  0
ATTDEF
  5
B6
330
1F
100
AcDbEntity
  8
attrib
100
AcDbText
 10
25.0
 20
-152.0
 30
0.0
 40
2.5
  1
0
100
AcDbAttributeDefinition
  3

  2
J6
 70
     8
280
     0
  0
ATTDEF
  5
B7
330
1F
100
AcDbEntity
  8
attrib
100
AcDbText
 10
25.0
 20
-155.0
 30
0.0
 40
2.5
  1
0
100
AcDbAttributeDefinition
  3

  2
J6D
 70
     8
280
     0
  0
ATTDEF
  5
B8
330
1F
100
AcDbEntity
  8
attrib
100
AcDbText
 10
25.0
 20
-158.0
 30
0.0
 40
2.5
  1
0
100
AcDbAttributeDefinition
  3

  2
K6
 70
     8
280
     0
  0
ATTDEF
  5
B9
330
1F
100
AcDbEntity
  8
attrib
100
AcDbText
 10
25.0
 20
-161.0
 30
0.0
 40
2.5
  1
0
100
AcDbAttributeDefinition
  3

  2
K6D
 70
     8
280
     0
  0
ATTDEF
  5
BA
330
1F
100
AcDbEntity
  8
attrib
100
AcDbText
 10
25.0
 20
-164.0
 30
0.0
 40
2.5
  1
0
100
AcDbAttributeDefinition
  3

  2
DD6
 70
     8
280
     0
  0
ATTDEF
  5
BB
330
1F
100
AcDbEntity
  8
attrib
100
AcDbText
 10
25.0
 20
-167.0
 30
0.0
 40
2.5
  1
0.000
100
AcDbAttributeDefinition
  3

  2
DD6ALG
 70
     8
280
     0
  0
ATTDEF
  5
BC
330
1F
100
AcDbEntity
  8
attrib
100
AcDbText
 10
25.0
 20
-170.0
 30
0.0
 40
2.5
  1
N/A
100
AcDbAttributeDefinition
  3

  2
ALT7
 70
     8
280
     0
  0
ATTDEF
  5
BD
330
1F
100
AcDbEntity
  8
attrib
100
AcDbText
 10
25.0
 20
-173.0
 30
0.0
 40
2.5
  1
 '','N/A' 
100
AcDbAttributeDefinition
  3

  2
ALT7ALG
 70
     8
280
     0
  0
ATTDEF
  5
BE
330
1F
100
AcDbEntity
  8
attrib
100
AcDbText
 10
25.0
 20
-176.0
 30
0.0
 40
2.5
  1
N/A
100
AcDbAttributeDefinition
  3

  2
ALT8
 70
     8
280
     0
  0
ATTDEF
  5
BF
330
1F
100
AcDbEntity
  8
attrib
100
AcDbText
 10
25.0
 20
-179.0
 30
0.0
 40
2.5
  1
 '','N/A' 
100
AcDbAttributeDefinition
  3

  2
ALT8ALG
 70
     8
280
     0
  0
ATTDEF
  5
C0
330
1F
100
AcDbEntity
  8
attrib
100
AcDbText
 10
25.0
 20
-182.0
 30
0.0
 40
2.5
  1

100
AcDbAttributeDefinition
  3

  2
ALT678PN
 70
     8
280
     0
  0
ATTDEF
  5
C1
330
1F
100
AcDbEntity
  8
attrib
100
AcDbText
 10
25.0
 20
-185.0
 30
0.0
 40
2.5
  1
0
100
AcDbAttributeDefinition
  3

  2
NH9
 70
     8
280
     0
  0
ATTDEF
  5
C2
330
1F
100
AcDbEntity
  8
attrib
100
AcDbText
 10
25.0
 20
-188.0
 30
0.0
 40
2.5
  1
5.000
100
AcDbAttributeDefinition
  3

  2
NH9MAX
 70
     8
280
     0
  0
ATTDEF
  5
C3
330
1F
100
AcDbEntity
  8
attrib
100
AcDbText
 10
25.0
 20
-191.0
 30
0.0
 40
2.5
  1
[0]
100
AcDbAttributeDefinition
  3

  2
NH9ALG
 70
     8
280
     0
  0
ATTDEF
  5
C4
330
1F
100
AcDbEntity
  8
attrib
100
AcDbText
 10
25.0
 20
-194.0
 30
0.0
 40
2.5
  1
0.0
100
AcDbAttributeDefinition
  3

  2
AH
 70
     8
280
     0
  0
ATTDEF
  5
C5
330
1F
100
AcDbEntity
  8
attrib
100
AcDbText
 10
25.0
 20
-197.0
 30
0.0
 40
2.5
  1
7.000
100
AcDbAttributeDefinition
  3

  2
AHMIN
 70
     8
280
     0
  0
ATTDEF
  5
C6
330
1F
100
AcDbEntity
  8
attrib
100
AcDbText
 10
25.0
 20
-200.0
 30
0.0
 40
2.5
  1
3995.000
100
AcDbAttributeDefinition
  3

  2
AHMAX
 70
     8
280
     0
  0
ATTDEF
  5
C7
330
1F
100
AcDbEntity
  8
attrib
100
AcDbText
 10
25.0
 20
-203.0
 30
0.0
 40
2.5
  1
[0]
100
AcDbAttributeDefinition
  3

  2
AHALG
 70
     8
280
     0
  0
ATTDEF
  5
C8
330
1F
100
AcDbEntity
  8
attrib
100
AcDbText
 10
25.0
 20
-206.0
 30
0.0
 40
2.5
  1
0.0
100
AcDbAttributeDefinition
  3

  2
BH
 70
     8
280
     0
  0
ATTDEF
  5
C9
330
1F
100
AcDbEntity
  8
attrib
100
AcDbText
 10
25.0
 20
-209.0
 30
0.0
 40
2.5
  1
2.000
100
AcDbAttributeDefinition
  3

  2
BHMIN
 70
     8
280
     0
  0
ATTDEF
  5
CA
330
1F
100
AcDbEntity
  8
attrib
100
AcDbText
 10
25.0
 20
-212.0
 30
0.0
 40
2.5
  1
3997.000
100
AcDbAttributeDefinition
  3

  2
BHMAX
 70
     8
280
     0
  0
ATTDEF
  5
CB
330
1F
100
AcDbEntity
  8
attrib
100
AcDbText
 10
25.0
 20
-215.0
 30
0.0
 40
2.5
  1
[0]
100
AcDbAttributeDefinition
  3

  2
BHALG
 70
     8
280
     0
  0
ATTDEF
  5
CC
330
1F
100
AcDbEntity
  8
attrib
100
AcDbText
 10
25.0
 20
-218.0
 30
0.0
 40
2.5
  1
0.0
100
AcDbAttributeDefinition
  3

  2
CH
 70
     8
280
     0
  0
ATTDEF
  5
CD
330
1F
100
AcDbEntity
  8
attrib
100
AcDbText
 10
25.0
 20
-221.0
 30
0.0
 40
2.5
  1
2.000
100
AcDbAttributeDefinition
  3

  2
CHMIN
 70
     8
280
     0
  0
ATTDEF
  5
CE
330
1F
100
AcDbEntity
  8
attrib
100
AcDbText
 10
25.0
 20
-224.0
 30
0.0
 40
2.5
  1
3999.000
100
AcDbAttributeDefinition
  3

  2
CHMAX
 70
     8
280
     0
  0
ATTDEF
  5
CF
330
1F
100
AcDbEntity
  8
attrib
100
AcDbText
 10
25.0
 20
-227.0
 30
0.0
 40
2.5
  1
[0]
100
AcDbAttributeDefinition
  3

  2
CHALG
 70
     8
280
     0
  0
ATTDEF
  5
D0
330
1F
100
AcDbEntity
  8
attrib
100
AcDbText
 10
25.0
 20
-230.0
 30
0.0
 40
2.5
  1
0.0
100
AcDbAttributeDefinition
  3

  2
DH
 70
     8
280
     0
  0
ATTDEF
  5
D1
330
1F
100
AcDbEntity
  8
attrib
100
AcDbText
 10
25.0
 20
-233.0
 30
0.0
 40
2.5
  1
2.000
100
AcDbAttributeDefinition
  3

  2
DHMIN
 70
     8
280
     0
  0
ATTDEF
  5
D2
330
1F
100
AcDbEntity
  8
attrib
100
AcDbText
 10
25.0
 20
-236.0
 30
0.0
 40
2.5
  1
4001.000
100
AcDbAttributeDefinition
  3

  2
DHMAX
 70
     8
280
     0
  0
ATTDEF
  5
D3
330
1F
100
AcDbEntity
  8
attrib
100
AcDbText
 10
25.0
 20
-239.0
 30
0.0
 40
2.5
  1
[0]
100
AcDbAttributeDefinition
  3

  2
DHALG
 70
     8
280
     0
  0
ATTDEF
  5
D4
330
1F
100
AcDbEntity
  8
attrib
100
AcDbText
 10
25.0
 20
-242.0
 30
0.0
 40
2.5
  1
0.0
100
AcDbAttributeDefinition
  3

  2
EH
 70
     8
280
     0
  0
ATTDEF
  5
D5
330
1F
100
AcDbEntity
  8
attrib
100
AcDbText
 10
25.0
 20
-245.0
 30
0.0
 40
2.5
  1
2.000
100
AcDbAttributeDefinition
  3

  2
EHMIN
 70
     8
280
     0
  0
ATTDEF
  5
D6
330
1F
100
AcDbEntity
  8
attrib
100
AcDbText
 10
25.0
 20
-248.0
 30
0.0
 40
2.5
  1
3993.000
100
AcDbAttributeDefinition
  3

  2
EHMAX
 70
     8
280
     0
  0
ATTDEF
  5
D7
330
1F
100
AcDbEntity
  8
attrib
100
AcDbText
 10
25.0
 20
-251.0
 30
0.0
 40
2.5
  1
[0]
100
AcDbAttributeDefinition
  3

  2
EHALG
 70
     8
280
     0
  0
ATTDEF
  5
D8
330
1F
100
AcDbEntity
  8
attrib
100
AcDbText
 10
25.0
 20
-254.0
 30
0.0
 40
2.5
  1
0
100
AcDbAttributeDefinition
  3

  2
NH10
 70
     8
280
     0
  0
ATTDEF
  5
D9
330
1F
100
AcDbEntity
  8
attrib
100
AcDbText
 10
25.0
 20
-257.0
 30
0.0
 40
2.5
  1
5.000
100
AcDbAttributeDefinition
  3

  2
NH10MAX
 70
     8
280
     0
  0
ATTDEF
  5
DA
330
1F
100
AcDbEntity
  8
attrib
100
AcDbText
 10
25.0
 20
-260.0
 30
0.0
 40
2.5
  1
[0]
100
AcDbAttributeDefinition
  3

  2
NH10ALG
 70
     8
280
     0
  0
ATTDEF
  5
DB
330
1F
100
AcDbEntity
  8
attrib
100
AcDbText
 10
25.0
 20
-263.0
 30
0.0
 40
2.5
  1
0.0
100
AcDbAttributeDefinition
  3

  2
AV
 70
     8
280
     0
  0
ATTDEF
  5
DC
330
1F
100
AcDbEntity
  8
attrib
100
AcDbText
 10
25.0
 20
-266.0
 30
0.0
 40
2.5
  1
7.000
100
AcDbAttributeDefinition
  3

  2
AVMIN
 70
     8
280
     0
  0
ATTDEF
  5
DD
330
1F
100
AcDbEntity
  8
attrib
100
AcDbText
 10
25.0
 20
-269.0
 30
0.0
 40
2.5
  1
3995.000
100
AcDbAttributeDefinition
  3

  2
AVMAX
 70
     8
280
     0
  0
ATTDEF
  5
DE
330
1F
100
AcDbEntity
  8
attrib
100
AcDbText
 10
25.0
 20
-272.0
 30
0.0
 40
2.5
  1
[0]
100
AcDbAttributeDefinition
  3

  2
AVALG
 70
     8
280
     0
  0
ATTDEF
  5
DF
330
1F
100
AcDbEntity
  8
attrib
100
AcDbText
 10
25.0
 20
-275.0
 30
0.0
 40
2.5
  1
0.0
100
AcDbAttributeDefinition
  3

  2
BV
 70
     8
280
     0
  0
ATTDEF
  5
E0
330
1F
100
AcDbEntity
  8
attrib
100
AcDbText
 10
25.0
 20
-278.0
 30
0.0
 40
2.5
  1
2.000
100
AcDbAttributeDefinition
  3

  2
BVMIN
 70
     8
280
     0
  0
ATTDEF
  5
E1
330
1F
100
AcDbEntity
  8
attrib
100
AcDbText
 10
25.0
 20
-281.0
 30
0.0
 40
2.5
  1
3997.000
100
AcDbAttributeDefinition
  3

  2
BVMAX
 70
     8
280
     0
  0
ATTDEF
  5
E2
330
1F
100
AcDbEntity
  8
attrib
100
AcDbText
 10
25.0
 20
-284.0
 30
0.0
 40
2.5
  1
[0]
100
AcDbAttributeDefinition
  3

  2
BVALG
 70
     8
280
     0
  0
ATTDEF
  5
E3
330
1F
100
AcDbEntity
  8
attrib
100
AcDbText
 10
25.0
 20
-287.0
 30
0.0
 40
2.5
  1
0.0
100
AcDbAttributeDefinition
  3

  2
CV
 70
     8
280
     0
  0
ATTDEF
  5
E4
330
1F
100
AcDbEntity
  8
attrib
100
AcDbText
 10
25.0
 20
-290.0
 30
0.0
 40
2.5
  1
2.000
100
AcDbAttributeDefinition
  3

  2
CVMIN
 70
     8
280
     0
  0
ATTDEF
  5
E5
330
1F
100
AcDbEntity
  8
attrib
100
AcDbText
 10
25.0
 20
-293.0
 30
0.0
 40
2.5
  1
3999.000
100
AcDbAttributeDefinition
  3

  2
CVMAX
 70
     8
280
     0
  0
ATTDEF
  5
E6
330
1F
100
AcDbEntity
  8
attrib
100
AcDbText
 10
25.0
 20
-296.0
 30
0.0
 40
2.5
  1
[0]
100
AcDbAttributeDefinition
  3

  2
CVALG
 70
     8
280
     0
  0
ATTDEF
  5
E7
330
1F
100
AcDbEntity
  8
attrib
100
AcDbText
 10
25.0
 20
-299.0
 30
0.0
 40
2.5
  1
0.0
100
AcDbAttributeDefinition
  3

  2
DV
 70
     8
280
     0
  0
ATTDEF
  5
E8
330
1F
100
AcDbEntity
  8
attrib
100
AcDbText
 10
25.0
 20
-302.0
 30
0.0
 40
2.5
  1
2.000
100
AcDbAttributeDefinition
  3

  2
DVMIN
 70
     8
280
     0
  0
ATTDEF
  5
E9
330
1F
100
AcDbEntity
  8
attrib
100
AcDbText
 10
25.0
 20
-305.0
 30
0.0
 40
2.5
  1
4001.000
100
AcDbAttributeDefinition
  3

  2
DVMAX
 70
     8
280
     0
  0
ATTDEF
  5
EA
330
1F
100
AcDbEntity
  8
attrib
100
AcDbText
 10
25.0
 20
-308.0
 30
0.0
 40
2.5
  1
[0]
100
AcDbAttributeDefinition
  3

  2
DVALG
 70
     8
280
     0
  0
ATTDEF
  5
EB
330
1F
100
AcDbEntity
  8
attrib
100
AcDbText
 10
25.0
 20
-311.0
 30
0.0
 40
2.5
  1
0.0
100
AcDbAttributeDefinition
  3

  2
EV
 70
     8
280
     0
  0
ATTDEF
  5
EC
330
1F
100
AcDbEntity
  8
attrib
100
AcDbText
 10
25.0
 20
-314.0
 30
0.0
 40
2.5
  1
2.000
100
AcDbAttributeDefinition
  3

  2
EVMIN
 70
     8
280
     0
  0
ATTDEF
  5
ED
330
1F
100
AcDbEntity
  8
attrib
100
AcDbText
 10
25.0
 20
-317.0
 30
0.0
 40
2.5
  1
3993.000
100
AcDbAttributeDefinition
  3

  2
EVMAX
 70
     8
280
     0
  0
ATTDEF
  5
EE
330
1F
100
AcDbEntity
  8
attrib
100
AcDbText
 10
25.0
 20
-320.0
 30
0.0
 40
2.5
  1
[0]
100
AcDbAttributeDefinition
  3

  2
EVALG
 70
     8
280
     0
  0
ATTDEF
  5
EF
330
1F
100
AcDbEntity
  8
attrib
100
AcDbText
 10
25.0
 20
-323.0
 30
0.0
 40
2.5
  1
0
100
AcDbAttributeDefinition
  3

  2
NH11
 70
     8
280
     0
  0
ATTDEF
  5
F0
330
1F
100
AcDbEntity
  8
attrib
100
AcDbText
 10
25.0
 20
-326.0
 30
0.0
 40
2.5
  1
5.000
100
AcDbAttributeDefinition
  3

  2
NH11MAX
 70
     8
280
     0
  0
ATTDEF
  5
F1
330
1F
100
AcDbEntity
  8
attrib
100
AcDbText
 10
25.0
 20
-329.0
 30
0.0
 40
2.5
  1
[0]
100
AcDbAttributeDefinition
  3

  2
NH11ALG
 70
     8
280
     0
  0
ATTDEF
  5
F2
330
1F
100
AcDbEntity
  8
attrib
100
AcDbText
 10
25.0
 20
-332.0
 30
0.0
 40
2.5
  1
0.0
100
AcDbAttributeDefinition
  3

  2
AP
 70
     8
280
     0
  0
ATTDEF
  5
F3
330
1F
100
AcDbEntity
  8
attrib
100
AcDbText
 10
25.0
 20
-335.0
 30
0.0
 40
2.5
  1
7.000
100
AcDbAttributeDefinition
  3

  2
APMIN
 70
     8
280
     0
  0
ATTDEF
  5
F4
330
1F
100
AcDbEntity
  8
attrib
100
AcDbText
 10
25.0
 20
-338.0
 30
0.0
 40
2.5
  1
3995.000
100
AcDbAttributeDefinition
  3

  2
APMAX
 70
     8
280
     0
  0
ATTDEF
  5
F5
330
1F
100
AcDbEntity
  8
attrib
100
AcDbText
 10
25.0
 20
-341.0
 30
0.0
 40
2.5
  1
[0]
100
AcDbAttributeDefinition
  3

  2
APALG
 70
     8
280
     0
  0
ATTDEF
  5
F6
330
1F
100
AcDbEntity
  8
attrib
100
AcDbText
 10
25.0
 20
-344.0
 30
0.0
 40
2.5
  1
0.0
100
AcDbAttributeDefinition
  3

  2
BP
 70
     8
280
     0
  0
ATTDEF
  5
F7
330
1F
100
AcDbEntity
  8
attrib
100
AcDbText
 10
25.0
 20
-347.0
 30
0.0
 40
2.5
  1
2.000
100
AcDbAttributeDefinition
  3

  2
BPMIN
 70
     8
280
     0
  0
ATTDEF
  5
F8
330
1F
100
AcDbEntity
  8
attrib
100
AcDbText
 10
25.0
 20
-350.0
 30
0.0
 40
2.5
  1
3997.000
100
AcDbAttributeDefinition
  3

  2
BPMAX
 70
     8
280
     0
  0
ATTDEF
  5
F9
330
1F
100
AcDbEntity
  8
attrib
100
AcDbText
 10
25.0
 20
-353.0
 30
0.0
 40
2.5
  1
[0]
100
AcDbAttributeDefinition
  3

  2
BPALG
 70
     8
280
     0
  0
ATTDEF
  5
FA
330
1F
100
AcDbEntity
  8
attrib
100
AcDbText
 10
25.0
 20
-356.0
 30
0.0
 40
2.5
  1
0.0
100
AcDbAttributeDefinition
  3

  2
CP
 70
     8
280
     0
  0
ATTDEF
  5
FB
330
1F
100
AcDbEntity
  8
attrib
100
AcDbText
 10
25.0
 20
-359.0
 30
0.0
 40
2.5
  1
2.000
100
AcDbAttributeDefinition
  3

  2
CPMIN
 70
     8
280
     0
  0
ATTDEF
  5
FC
330
1F
100
AcDbEntity
  8
attrib
100
AcDbText
 10
25.0
 20
-362.0
 30
0.0
 40
2.5
  1
3999.000
100
AcDbAttributeDefinition
  3

  2
CPMAX
 70
     8
280
     0
  0
ATTDEF
  5
FD
330
1F
100
AcDbEntity
  8
attrib
100
AcDbText
 10
25.0
 20
-365.0
 30
0.0
 40
2.5
  1
[0]
100
AcDbAttributeDefinition
  3

  2
CPALG
 70
     8
280
     0
  0
ATTDEF
  5
FE
330
1F
100
AcDbEntity
  8
attrib
100
AcDbText
 10
25.0
 20
-368.0
 30
0.0
 40
2.5
  1
0.0
100
AcDbAttributeDefinition
  3

  2
DP
 70
     8
280
     0
  0
ATTDEF
  5
FF
330
1F
100
AcDbEntity
  8
attrib
100
AcDbText
 10
25.0
 20
-371.0
 30
0.0
 40
2.5
  1
2.000
100
AcDbAttributeDefinition
  3

  2
DPMIN
 70
     8
280
     0
  0
ATTDEF
  5
100
330
1F
100
AcDbEntity
  8
attrib
100
AcDbText
 10
25.0
 20
-374.0
 30
0.0
 40
2.5
  1
4001.000
100
AcDbAttributeDefinition
  3

  2
DPMAX
 70
     8
280
     0
  0
ATTDEF
  5
101
330
1F
100
AcDbEntity
  8
attrib
100
AcDbText
 10
25.0
 20
-377.0
 30
0.0
 40
2.5
  1
[0]
100
AcDbAttributeDefinition
  3

  2
DPALG
 70
     8
280
     0
  0
ATTDEF
  5
102
330
1F
100
AcDbEntity
  8
attrib
100
AcDbText
 10
25.0
 20
-380.0
 30
0.0
 40
2.5
  1
0.0
100
AcDbAttributeDefinition
  3

  2
EP
 70
     8
280
     0
  0
ATTDEF
  5
103
330
1F
100
AcDbEntity
  8
attrib
100
AcDbText
 10
25.0
 20
-383.0
 30
0.0
 40
2.5
  1
2.000
100
AcDbAttributeDefinition
  3

  2
EPMIN
 70
     8
280
     0
  0
ATTDEF
  5
104
330
1F
100
AcDbEntity
  8
attrib
100
AcDbText
 10
25.0
 20
-386.0
 30
0.0
 40
2.5
  1
3993.000
100
AcDbAttributeDefinition
  3

  2
EPMAX
 70
     8
280
     0
  0
ATTDEF
  5
105
330
1F
100
AcDbEntity
  8
attrib
100
AcDbText
 10
25.0
 20
-389.0
 30
0.0
 40
2.5
  1
[0]
100
AcDbAttributeDefinition
  3

  2
EPALG
 70
     8
280
     0
  0
ATTDEF
  5
106
330
1F
100
AcDbEntity
  8
attrib
100
AcDbText
 10
25.0
 20
-392.0
 30
0.0
 40
2.5
  1

100
AcDbAttributeDefinition
  3

  2
ALT9PN
 70
     8
280
     0
  0
ATTDEF
  5
107
330
1F
100
AcDbEntity
  8
attrib
100
AcDbText
 10
25.0
 20
-395.0
 30
0.0
 40
2.5
  1

100
AcDbAttributeDefinition
  3

  2
ALT10PN
 70
     8
280
     0
  0
ATTDEF
  5
108
330
1F
100
AcDbEntity
  8
attrib
100
AcDbText
 10
25.0
 20
-398.0
 30
0.0
 40
2.5
  1

100
AcDbAttributeDefinition
  3

  2
ALT11PN
 70
     8
280
     0
  0
ATTDEF
  5
109
330
1F
100
AcDbEntity
  8
attrib
100
AcDbText
 10
25.0
 20
-401.0
 30
0.0
 40
2.5
  1

100
AcDbAttributeDefinition
  3

  2
ALT91011PN
 70
     8
280
     0
  0
ATTDEF
  5
10A
330
1F
100
AcDbEntity
  8
attrib
100
AcDbText
 10
25.0
 20
-404.0
 30
0.0
 40
2.5
  1
w/o Counterbore Hole in Specified Position (Vertical)
100
AcDbAttributeDefinition
  3

  2
ALT12
 70
     8
280
     0
  0
ATTDEF
  5
10B
330
1F
100
AcDbEntity
  8
attrib
100
AcDbText
 10
25.0
 20
-407.0
 30
0.0
 40
2.5
  1
 '','w/o Counterbore Hole in Specified Position (Vertical)','1','with Counterbore Hole in Specified Position (Vertical)' 
100
AcDbAttributeDefinition
  3

  2
ALT12ALG
 70
     8
280
     0
  0
ATTDEF
  5
10C
330
1F
100
AcDbEntity
  8
attrib
100
AcDbText
 10
25.0
 20
-410.0
 30
0.0
 40
2.5
  1
w/o Counterbore Hole in Specified Position (Horizontal)
100
AcDbAttributeDefinition
  3

  2
ALT13
 70
     8
280
     0
  0
ATTDEF
  5
10D
330
1F
100
AcDbEntity
  8
attrib
100
AcDbText
 10
25.0
 20
-413.0
 30
0.0
 40
2.5
  1
 '','w/o Counterbore Hole in Specified Position (Horizontal)','1','with Counterbore Hole in Specified Position (Horizontal)' 
100
AcDbAttributeDefinition
  3

  2
ALT13ALG
 70
     8
280
     0
  0
ATTDEF
  5
10E
330
1F
100
AcDbEntity
  8
attrib
100
AcDbText
 10
25.0
 20
-416.0
 30
0.0
 40
2.5
  1
N/A
100
AcDbAttributeDefinition
  3

  2
Z
 70
     8
280
     0
  0
ATTDEF
  5
10F
330
1F
100
AcDbEntity
  8
attrib
100
AcDbText
 10
25.0
 20
-419.0
 30
0.0
 40
2.5
  1
 '','N/A' 
100
AcDbAttributeDefinition
  3

  2
ZALG
 70
     8
280
     0
  0
ATTDEF
  5
110
330
1F
100
AcDbEntity
  8
attrib
100
AcDbText
 10
25.0
 20
-422.0
 30
0.0
 40
2.5
  1
0.0
100
AcDbAttributeDefinition
  3

  2
DD12
 70
     8
280
     0
  0
ATTDEF
  5
111
330
1F
100
AcDbEntity
  8
attrib
100
AcDbText
 10
25.0
 20
-425.0
 30
0.0
 40
2.5
  1
0.0
100
AcDbAttributeDefinition
  3

  2
DD112
 70
     8
280
     0
  0
ATTDEF
  5
112
330
1F
100
AcDbEntity
  8
attrib
100
AcDbText
 10
25.0
 20
-428.0
 30
0.0
 40
2.5
  1
0
100
AcDbAttributeDefinition
  3

  2
NH12
 70
     8
280
     0
  0
ATTDEF
  5
113
330
1F
100
AcDbEntity
  8
attrib
100
AcDbText
 10
25.0
 20
-431.0
 30
0.0
 40
2.5
  1
5.000
100
AcDbAttributeDefinition
  3

  2
NH12MAX
 70
     8
280
     0
  0
ATTDEF
  5
114
330
1F
100
AcDbEntity
  8
attrib
100
AcDbText
 10
25.0
 20
-434.0
 30
0.0
 40
2.5
  1
[0]
100
AcDbAttributeDefinition
  3

  2
NH12ALG
 70
     8
280
     0
  0
ATTDEF
  5
115
330
1F
100
AcDbEntity
  8
attrib
100
AcDbText
 10
25.0
 20
-437.0
 30
0.0
 40
2.5
  1
0.0
100
AcDbAttributeDefinition
  3

  2
XA
 70
     8
280
     0
  0
ATTDEF
  5
116
330
1F
100
AcDbEntity
  8
attrib
100
AcDbText
 10
25.0
 20
-440.0
 30
0.0
 40
2.5
  1
7.000
100
AcDbAttributeDefinition
  3

  2
XAMIN
 70
     8
280
     0
  0
ATTDEF
  5
117
330
1F
100
AcDbEntity
  8
attrib
100
AcDbText
 10
25.0
 20
-443.0
 30
0.0
 40
2.5
  1
3995.000
100
AcDbAttributeDefinition
  3

  2
XAMAX
 70
     8
280
     0
  0
ATTDEF
  5
118
330
1F
100
AcDbEntity
  8
attrib
100
AcDbText
 10
25.0
 20
-446.0
 30
0.0
 40
2.5
  1
[0]
100
AcDbAttributeDefinition
  3

  2
XAALG
 70
     8
280
     0
  0
ATTDEF
  5
119
330
1F
100
AcDbEntity
  8
attrib
100
AcDbText
 10
25.0
 20
-449.0
 30
0.0
 40
2.5
  1
0.0
100
AcDbAttributeDefinition
  3

  2
XB
 70
     8
280
     0
  0
ATTDEF
  5
11A
330
1F
100
AcDbEntity
  8
attrib
100
AcDbText
 10
25.0
 20
-452.0
 30
0.0
 40
2.5
  1
2.000
100
AcDbAttributeDefinition
  3

  2
XBMIN
 70
     8
280
     0
  0
ATTDEF
  5
11B
330
1F
100
AcDbEntity
  8
attrib
100
AcDbText
 10
25.0
 20
-455.0
 30
0.0
 40
2.5
  1
3997.000
100
AcDbAttributeDefinition
  3

  2
XBMAX
 70
     8
280
     0
  0
ATTDEF
  5
11C
330
1F
100
AcDbEntity
  8
attrib
100
AcDbText
 10
25.0
 20
-458.0
 30
0.0
 40
2.5
  1
[0]
100
AcDbAttributeDefinition
  3

  2
XBALG
 70
     8
280
     0
  0
ATTDEF
  5
11D
330
1F
100
AcDbEntity
  8
attrib
100
AcDbText
 10
25.0
 20
-461.0
 30
0.0
 40
2.5
  1
0.0
100
AcDbAttributeDefinition
  3

  2
XC
 70
     8
280
     0
  0
ATTDEF
  5
11E
330
1F
100
AcDbEntity
  8
attrib
100
AcDbText
 10
25.0
 20
-464.0
 30
0.0
 40
2.5
  1
2.000
100
AcDbAttributeDefinition
  3

  2
XCMIN
 70
     8
280
     0
  0
ATTDEF
  5
11F
330
1F
100
AcDbEntity
  8
attrib
100
AcDbText
 10
25.0
 20
-467.0
 30
0.0
 40
2.5
  1
3999.000
100
AcDbAttributeDefinition
  3

  2
XCMAX
 70
     8
280
     0
  0
ATTDEF
  5
120
330
1F
100
AcDbEntity
  8
attrib
100
AcDbText
 10
25.0
 20
-470.0
 30
0.0
 40
2.5
  1
[0]
100
AcDbAttributeDefinition
  3

  2
XCALG
 70
     8
280
     0
  0
ATTDEF
  5
121
330
1F
100
AcDbEntity
  8
attrib
100
AcDbText
 10
25.0
 20
-473.0
 30
0.0
 40
2.5
  1
0.0
100
AcDbAttributeDefinition
  3

  2
XD
 70
     8
280
     0
  0
ATTDEF
  5
122
330
1F
100
AcDbEntity
  8
attrib
100
AcDbText
 10
25.0
 20
-476.0
 30
0.0
 40
2.5
  1
2.000
100
AcDbAttributeDefinition
  3

  2
XDMIN
 70
     8
280
     0
  0
ATTDEF
  5
123
330
1F
100
AcDbEntity
  8
attrib
100
AcDbText
 10
25.0
 20
-479.0
 30
0.0
 40
2.5
  1
4001.000
100
AcDbAttributeDefinition
  3

  2
XDMAX
 70
     8
280
     0
  0
ATTDEF
  5
124
330
1F
100
AcDbEntity
  8
attrib
100
AcDbText
 10
25.0
 20
-482.0
 30
0.0
 40
2.5
  1
[0]
100
AcDbAttributeDefinition
  3

  2
XDALG
 70
     8
280
     0
  0
ATTDEF
  5
125
330
1F
100
AcDbEntity
  8
attrib
100
AcDbText
 10
25.0
 20
-485.0
 30
0.0
 40
2.5
  1
0.0
100
AcDbAttributeDefinition
  3

  2
XE
 70
     8
280
     0
  0
ATTDEF
  5
126
330
1F
100
AcDbEntity
  8
attrib
100
AcDbText
 10
25.0
 20
-488.0
 30
0.0
 40
2.5
  1
2.000
100
AcDbAttributeDefinition
  3

  2
XEMIN
 70
     8
280
     0
  0
ATTDEF
  5
127
330
1F
100
AcDbEntity
  8
attrib
100
AcDbText
 10
25.0
 20
-491.0
 30
0.0
 40
2.5
  1
3993.000
100
AcDbAttributeDefinition
  3

  2
XEMAX
 70
     8
280
     0
  0
ATTDEF
  5
128
330
1F
100
AcDbEntity
  8
attrib
100
AcDbText
 10
25.0
 20
-494.0
 30
0.0
 40
2.5
  1
[0]
100
AcDbAttributeDefinition
  3

  2
XEALG
 70
     8
280
     0
  0
ATTDEF
  5
129
330
1F
100
AcDbEntity
  8
attrib
100
AcDbText
 10
25.0
 20
-497.0
 30
0.0
 40
2.5
  1
0
100
AcDbAttributeDefinition
  3

  2
NH13
 70
     8
280
     0
  0
ATTDEF
  5
12A
330
1F
100
AcDbEntity
  8
attrib
100
AcDbText
 10
25.0
 20
-500.0
 30
0.0
 40
2.5
  1
5.000
100
AcDbAttributeDefinition
  3

  2
NH13MAX
 70
     8
280
     0
  0
ATTDEF
  5
12B
330
1F
100
AcDbEntity
  8
attrib
100
AcDbText
 10
25.0
 20
-503.0
 30
0.0
 40
2.5
  1
[0]
100
AcDbAttributeDefinition
  3

  2
NH13ALG
 70
     8
280
     0
  0
ATTDEF
  5
12C
330
1F
100
AcDbEntity
  8
attrib
100
AcDbText
 10
25.0
 20
-506.0
 30
0.0
 40
2.5
  1
0.0
100
AcDbAttributeDefinition
  3

  2
YA
 70
     8
280
     0
  0
ATTDEF
  5
12D
330
1F
100
AcDbEntity
  8
attrib
100
AcDbText
 10
25.0
 20
-509.0
 30
0.0
 40
2.5
  1
7.000
100
AcDbAttributeDefinition
  3

  2
YAMIN
 70
     8
280
     0
  0
ATTDEF
  5
12E
330
1F
100
AcDbEntity
  8
attrib
100
AcDbText
 10
25.0
 20
-512.0
 30
0.0
 40
2.5
  1
3995.000
100
AcDbAttributeDefinition
  3

  2
YAMAX
 70
     8
280
     0
  0
ATTDEF
  5
12F
330
1F
100
AcDbEntity
  8
attrib
100
AcDbText
 10
25.0
 20
-515.0
 30
0.0
 40
2.5
  1
[0]
100
AcDbAttributeDefinition
  3

  2
YAALG
 70
     8
280
     0
  0
ATTDEF
  5
130
330
1F
100
AcDbEntity
  8
attrib
100
AcDbText
 10
25.0
 20
-518.0
 30
0.0
 40
2.5
  1
0.0
100
AcDbAttributeDefinition
  3

  2
YB
 70
     8
280
     0
  0
ATTDEF
  5
131
330
1F
100
AcDbEntity
  8
attrib
100
AcDbText
 10
25.0
 20
-521.0
 30
0.0
 40
2.5
  1
2.000
100
AcDbAttributeDefinition
  3

  2
YBMIN
 70
     8
280
     0
  0
ATTDEF
  5
132
330
1F
100
AcDbEntity
  8
attrib
100
AcDbText
 10
25.0
 20
-524.0
 30
0.0
 40
2.5
  1
3997.000
100
AcDbAttributeDefinition
  3

  2
YBMAX
 70
     8
280
     0
  0
ATTDEF
  5
133
330
1F
100
AcDbEntity
  8
attrib
100
AcDbText
 10
25.0
 20
-527.0
 30
0.0
 40
2.5
  1
[0]
100
AcDbAttributeDefinition
  3

  2
YBALG
 70
     8
280
     0
  0
ATTDEF
  5
134
330
1F
100
AcDbEntity
  8
attrib
100
AcDbText
 10
25.0
 20
-530.0
 30
0.0
 40
2.5
  1
0.0
100
AcDbAttributeDefinition
  3

  2
YC
 70
     8
280
     0
  0
ATTDEF
  5
135
330
1F
100
AcDbEntity
  8
attrib
100
AcDbText
 10
25.0
 20
-533.0
 30
0.0
 40
2.5
  1
2.000
100
AcDbAttributeDefinition
  3

  2
YCMIN
 70
     8
280
     0
  0
ATTDEF
  5
136
330
1F
100
AcDbEntity
  8
attrib
100
AcDbText
 10
25.0
 20
-536.0
 30
0.0
 40
2.5
  1
3999.000
100
AcDbAttributeDefinition
  3

  2
YCMAX
 70
     8
280
     0
  0
ATTDEF
  5
137
330
1F
100
AcDbEntity
  8
attrib
100
AcDbText
 10
25.0
 20
-539.0
 30
0.0
 40
2.5
  1
[0]
100
AcDbAttributeDefinition
  3

  2
YCALG
 70
     8
280
     0
  0
ATTDEF
  5
138
330
1F
100
AcDbEntity
  8
attrib
100
AcDbText
 10
25.0
 20
-542.0
 30
0.0
 40
2.5
  1
0.0
100
AcDbAttributeDefinition
  3

  2
YD
 70
     8
280
     0
  0
ATTDEF
  5
139
330
1F
100
AcDbEntity
  8
attrib
100
AcDbText
 10
25.0
 20
-545.0
 30
0.0
 40
2.5
  1
2.000
100
AcDbAttributeDefinition
  3

  2
YDMIN
 70
     8
280
     0
  0
ATTDEF
  5
13A
330
1F
100
AcDbEntity
  8
attrib
100
AcDbText
 10
25.0
 20
-548.0
 30
0.0
 40
2.5
  1
4001.000
100
AcDbAttributeDefinition
  3

  2
YDMAX
 70
     8
280
     0
  0
ATTDEF
  5
13B
330
1F
100
AcDbEntity
  8
attrib
100
AcDbText
 10
25.0
 20
-551.0
 30
0.0
 40
2.5
  1
[0]
100
AcDbAttributeDefinition
  3

  2
YDALG
 70
     8
280
     0
  0
ATTDEF
  5
13C
330
1F
100
AcDbEntity
  8
attrib
100
AcDbText
 10
25.0
 20
-554.0
 30
0.0
 40
2.5
  1
0.0
100
AcDbAttributeDefinition
  3

  2
YE
 70
     8
280
     0
  0
ATTDEF
  5
13D
330
1F
100
AcDbEntity
  8
attrib
100
AcDbText
 10
25.0
 20
-557.0
 30
0.0
 40
2.5
  1
2.000
100
AcDbAttributeDefinition
  3

  2
YEMIN
 70
     8
280
     0
  0
ATTDEF
  5
13E
330
1F
100
AcDbEntity
  8
attrib
100
AcDbText
 10
25.0
 20
-560.0
 30
0.0
 40
2.5
  1
3993.000
100
AcDbAttributeDefinition
  3

  2
YEMAX
 70
     8
280
     0
  0
ATTDEF
  5
13F
330
1F
100
AcDbEntity
  8
attrib
100
AcDbText
 10
25.0
 20
-563.0
 30
0.0
 40
2.5
  1
[0]
100
AcDbAttributeDefinition
  3

  2
YEALG
 70
     8
280
     0
  0
ATTDEF
  5
140
330
1F
100
AcDbEntity
  8
attrib
100
AcDbText
 10
25.0
 20
-566.0
 30
0.0
 40
2.5
  1

100
AcDbAttributeDefinition
  3

  2
ALT12PN
 70
     8
280
     0
  0
ATTDEF
  5
141
330
1F
100
AcDbEntity
  8
attrib
100
AcDbText
 10
25.0
 20
-569.0
 30
0.0
 40
2.5
  1

100
AcDbAttributeDefinition
  3

  2
ALT13PN
 70
     8
280
     0
  0
ATTDEF
  5
142
330
1F
100
AcDbEntity
  8
attrib
100
AcDbText
 10
25.0
 20
-572.0
 30
0.0
 40
2.5
  1

100
AcDbAttributeDefinition
  3

  2
ALT1213PN
 70
     8
280
     0
  0
ATTDEF
  5
143
330
1F
100
AcDbEntity
  8
attrib
100
AcDbText
 10
25.0
 20
-575.0
 30
0.0
 40
2.5
  1
w/o D Type Hole Alteration
100
AcDbAttributeDefinition
  3

  2
ALT14
 70
     8
280
     0
  0
ATTDEF
  5
144
330
1F
100
AcDbEntity
  8
attrib
100
AcDbText
 10
25.0
 20
-578.0
 30
0.0
 40
2.5
  1
 '','w/o D Type Hole Alteration','1','with D Type Hole Alteration' 
100
AcDbAttributeDefinition
  3

  2
ALT14ALG
 70
     8
280
     0
  0
ATTDEF
  5
145
330
1F
100
AcDbEntity
  8
attrib
100
AcDbText
 10
25.0
 20
-581.0
 30
0.0
 40
2.5
  1
N/A
100
AcDbAttributeDefinition
  3

  2
HP14
 70
     8
280
     0
  0
ATTDEF
  5
146
330
1F
100
AcDbEntity
  8
attrib
100
AcDbText
 10
25.0
 20
-584.0
 30
0.0
 40
2.5
  1
 '','N/A' 
100
AcDbAttributeDefinition
  3

  2
HP14ALG
 70
     8
280
     0
  0
ATTDEF
  5
147
330
1F
100
AcDbEntity
  8
attrib
100
AcDbText
 10
25.0
 20
-587.0
 30
0.0
 40
2.5
  1
N/A
100
AcDbAttributeDefinition
  3

  2
DL14
 70
     8
280
     0
  0
ATTDEF
  5
148
330
1F
100
AcDbEntity
  8
attrib
100
AcDbText
 10
25.0
 20
-590.0
 30
0.0
 40
2.5
  1
 '','N/A' 
100
AcDbAttributeDefinition
  3

  2
DL14ALG
 70
     8
280
     0
  0
ATTDEF
  5
149
330
1F
100
AcDbEntity
  8
attrib
100
AcDbText
 10
25.0
 20
-593.0
 30
0.0
 40
2.5
  1
N/A
100
AcDbAttributeDefinition
  3

  2
DR14
 70
     8
280
     0
  0
ATTDEF
  5
14A
330
1F
100
AcDbEntity
  8
attrib
100
AcDbText
 10
25.0
 20
-596.0
 30
0.0
 40
2.5
  1
 '','N/A' 
100
AcDbAttributeDefinition
  3

  2
DR14ALG
 70
     8
280
     0
  0
ATTDEF
  5
14B
330
1F
100
AcDbEntity
  8
attrib
100
AcDbText
 10
25.0
 20
-599.0
 30
0.0
 40
2.5
  1
0
100
AcDbAttributeDefinition
  3

  2
H14
 70
     8
280
     0
  0
ATTDEF
  5
14C
330
1F
100
AcDbEntity
  8
attrib
100
AcDbText
 10
25.0
 20
-602.0
 30
0.0
 40
2.5
  1
0.0
100
AcDbAttributeDefinition
  3

  2
D14
 70
     8
280
     0
  0
ATTDEF
  5
14D
330
1F
100
AcDbEntity
  8
attrib
100
AcDbText
 10
25.0
 20
-605.0
 30
0.0
 40
2.5
  1

100
AcDbAttributeDefinition
  3

  2
ALT14PN
 70
     8
280
     0
  0
ATTDEF
  5
14E
330
1F
100
AcDbEntity
  8
attrib
100
AcDbText
 10
25.0
 20
-608.0
 30
0.0
 40
2.5
  1
w/o S Type Hole Alteration
100
AcDbAttributeDefinition
  3

  2
ALT15
 70
     8
280
     0
  0
ATTDEF
  5
14F
330
1F
100
AcDbEntity
  8
attrib
100
AcDbText
 10
25.0
 20
-611.0
 30
0.0
 40
2.5
  1
 '','w/o S Type Hole Alteration','1','with S Type Hole Alteration' 
100
AcDbAttributeDefinition
  3

  2
ALT15ALG
 70
     8
280
     0
  0
ATTDEF
  5
150
330
1F
100
AcDbEntity
  8
attrib
100
AcDbText
 10
25.0
 20
-614.0
 30
0.0
 40
2.5
  1
N/A
100
AcDbAttributeDefinition
  3

  2
HP15
 70
     8
280
     0
  0
ATTDEF
  5
151
330
1F
100
AcDbEntity
  8
attrib
100
AcDbText
 10
25.0
 20
-617.0
 30
0.0
 40
2.5
  1
 '','N/A' 
100
AcDbAttributeDefinition
  3

  2
HP15ALG
 70
     8
280
     0
  0
ATTDEF
  5
152
330
1F
100
AcDbEntity
  8
attrib
100
AcDbText
 10
25.0
 20
-620.0
 30
0.0
 40
2.5
  1
N/A
100
AcDbAttributeDefinition
  3

  2
DL15
 70
     8
280
     0
  0
ATTDEF
  5
153
330
1F
100
AcDbEntity
  8
attrib
100
AcDbText
 10
25.0
 20
-623.0
 30
0.0
 40
2.5
  1
 '','N/A' 
100
AcDbAttributeDefinition
  3

  2
DL15ALG
 70
     8
280
     0
  0
ATTDEF
  5
154
330
1F
100
AcDbEntity
  8
attrib
100
AcDbText
 10
25.0
 20
-626.0
 30
0.0
 40
2.5
  1
N/A
100
AcDbAttributeDefinition
  3

  2
DR15
 70
     8
280
     0
  0
ATTDEF
  5
155
330
1F
100
AcDbEntity
  8
attrib
100
AcDbText
 10
25.0
 20
-629.0
 30
0.0
 40
2.5
  1
 '','N/A' 
100
AcDbAttributeDefinition
  3

  2
DR15ALG
 70
     8
280
     0
  0
ATTDEF
  5
156
330
1F
100
AcDbEntity
  8
attrib
100
AcDbText
 10
25.0
 20
-632.0
 30
0.0
 40
2.5
  1
0
100
AcDbAttributeDefinition
  3

  2
H15
 70
     8
280
     0
  0
ATTDEF
  5
157
330
1F
100
AcDbEntity
  8
attrib
100
AcDbText
 10
25.0
 20
-635.0
 30
0.0
 40
2.5
  1
0.0
100
AcDbAttributeDefinition
  3

  2
D115
 70
     8
280
     0
  0
ATTDEF
  5
158
330
1F
100
AcDbEntity
  8
attrib
100
AcDbText
 10
25.0
 20
-638.0
 30
0.0
 40
2.5
  1
0.0
100
AcDbAttributeDefinition
  3

  2
D215
 70
     8
280
     0
  0
ATTDEF
  5
159
330
1F
100
AcDbEntity
  8
attrib
100
AcDbText
 10
25.0
 20
-641.0
 30
0.0
 40
2.5
  1

100
AcDbAttributeDefinition
  3

  2
ALT15PN
 70
     8
280
     0
  0
ATTDEF
  5
15A
330
1F
100
AcDbEntity
  8
attrib
100
AcDbText
 10
25.0
 20
-644.0
 30
0.0
 40
2.5
  1
w/o M Type Hole Alteration
100
AcDbAttributeDefinition
  3

  2
ALT16
 70
     8
280
     0
  0
ATTDEF
  5
15B
330
1F
100
AcDbEntity
  8
attrib
100
AcDbText
 10
25.0
 20
-647.0
 30
0.0
 40
2.5
  1
 '','w/o M Type Hole Alteration','1','with M Type Hole Alteration' 
100
AcDbAttributeDefinition
  3

  2
ALT16ALG
 70
     8
280
     0
  0
ATTDEF
  5
15C
330
1F
100
AcDbEntity
  8
attrib
100
AcDbText
 10
25.0
 20
-650.0
 30
0.0
 40
2.5
  1
N/A
100
AcDbAttributeDefinition
  3

  2
HP16
 70
     8
280
     0
  0
ATTDEF
  5
15D
330
1F
100
AcDbEntity
  8
attrib
100
AcDbText
 10
25.0
 20
-653.0
 30
0.0
 40
2.5
  1
 '','N/A' 
100
AcDbAttributeDefinition
  3

  2
HP16ALG
 70
     8
280
     0
  0
ATTDEF
  5
15E
330
1F
100
AcDbEntity
  8
attrib
100
AcDbText
 10
25.0
 20
-656.0
 30
0.0
 40
2.5
  1
N/A
100
AcDbAttributeDefinition
  3

  2
DL16
 70
     8
280
     0
  0
ATTDEF
  5
15F
330
1F
100
AcDbEntity
  8
attrib
100
AcDbText
 10
25.0
 20
-659.0
 30
0.0
 40
2.5
  1
 '','N/A' 
100
AcDbAttributeDefinition
  3

  2
DL16ALG
 70
     8
280
     0
  0
ATTDEF
  5
160
330
1F
100
AcDbEntity
  8
attrib
100
AcDbText
 10
25.0
 20
-662.0
 30
0.0
 40
2.5
  1
N/A
100
AcDbAttributeDefinition
  3

  2
DR16
 70
     8
280
     0
  0
ATTDEF
  5
161
330
1F
100
AcDbEntity
  8
attrib
100
AcDbText
 10
25.0
 20
-665.0
 30
0.0
 40
2.5
  1
 '','N/A' 
100
AcDbAttributeDefinition
  3

  2
DR16ALG
 70
     8
280
     0
  0
ATTDEF
  5
162
330
1F
100
AcDbEntity
  8
attrib
100
AcDbText
 10
25.0
 20
-668.0
 30
0.0
 40
2.5
  1
0
100
AcDbAttributeDefinition
  3

  2
H116
 70
     8
280
     0
  0
ATTDEF
  5
163
330
1F
100
AcDbEntity
  8
attrib
100
AcDbText
 10
25.0
 20
-671.0
 30
0.0
 40
2.5
  1
0.0
100
AcDbAttributeDefinition
  3

  2
D16
 70
     8
280
     0
  0
ATTDEF
  5
164
330
1F
100
AcDbEntity
  8
attrib
100
AcDbText
 10
25.0
 20
-674.0
 30
0.0
 40
2.5
  1

100
AcDbAttributeDefinition
  3

  2
ALT16PN
 70
     8
280
     0
  0
ATTDEF
  5
165
330
1F
100
AcDbEntity
  8
attrib
100
AcDbText
 10
25.0
 20
-677.0
 30
0.0
 40
2.5
  1
w/o L Type Hole Alteration (Top)
100
AcDbAttributeDefinition
  3

  2
ALT17
 70
     8
280
     0
  0
ATTDEF
  5
166
330
1F
100
AcDbEntity
  8
attrib
100
AcDbText
 10
25.0
 20
-680.0
 30
0.0
 40
2.5
  1
 '','w/o L Type Hole Alteration (Top)','1','with L Type Hole Alteration (Top)' 
100
AcDbAttributeDefinition
  3

  2
ALT17ALG
 70
     8
280
     0
  0
ATTDEF
  5
167
330
1F
100
AcDbEntity
  8
attrib
100
AcDbText
 10
25.0
 20
-683.0
 30
0.0
 40
2.5
  1
0
100
AcDbAttributeDefinition
  3

  2
HQ17
 70
     8
280
     0
  0
ATTDEF
  5
168
330
1F
100
AcDbEntity
  8
attrib
100
AcDbText
 10
25.0
 20
-686.0
 30
0.0
 40
2.5
  1
0
100
AcDbAttributeDefinition
  3

  2
HQ17ALG
 70
     8
280
     0
  0
ATTDEF
  5
169
330
1F
100
AcDbEntity
  8
attrib
100
AcDbText
 10
25.0
 20
-689.0
 30
0.0
 40
2.5
  1
0
100
AcDbAttributeDefinition
  3

  2
JLP
 70
     8
280
     0
  0
ATTDEF
  5
16A
330
1F
100
AcDbEntity
  8
attrib
100
AcDbText
 10
25.0
 20
-692.0
 30
0.0
 40
2.5
  1
4.900
100
AcDbAttributeDefinition
  3

  2
JLPMIN
 70
     8
280
     0
  0
ATTDEF
  5
16B
330
1F
100
AcDbEntity
  8
attrib
100
AcDbText
 10
25.0
 20
-695.0
 30
0.0
 40
2.5
  1
0.000
100
AcDbAttributeDefinition
  3

  2
JLPMAX
 70
     8
280
     0
  0
ATTDEF
  5
16C
330
1F
100
AcDbEntity
  8
attrib
100
AcDbText
 10
25.0
 20
-698.0
 30
0.0
 40
2.5
  1
[0]
100
AcDbAttributeDefinition
  3

  2
JLPALG
 70
     8
280
     0
  0
ATTDEF
  5
16D
330
1F
100
AcDbEntity
  8
attrib
100
AcDbText
 10
25.0
 20
-701.0
 30
0.0
 40
2.5
  1
0.000
100
AcDbAttributeDefinition
  3

  2
L17
 70
     8
280
     0
  0
ATTDEF
  5
16E
330
1F
100
AcDbEntity
  8
attrib
100
AcDbText
 10
25.0
 20
-704.0
 30
0.0
 40
2.5
  1
0.0
100
AcDbAttributeDefinition
  3

  2
D17
 70
     8
280
     0
  0
ATTDEF
  5
16F
330
1F
100
AcDbEntity
  8
attrib
100
AcDbText
 10
25.0
 20
-707.0
 30
0.0
 40
2.5
  1
w/o L Type Hole Alteration (Bottom)
100
AcDbAttributeDefinition
  3

  2
ALT18
 70
     8
280
     0
  0
ATTDEF
  5
170
330
1F
100
AcDbEntity
  8
attrib
100
AcDbText
 10
25.0
 20
-710.0
 30
0.0
 40
2.5
  1
 '','w/o L Type Hole Alteration (Bottom)','1','with L Type Hole Alteration (Bottom)' 
100
AcDbAttributeDefinition
  3

  2
ALT18ALG
 70
     8
280
     0
  0
ATTDEF
  5
171
330
1F
100
AcDbEntity
  8
attrib
100
AcDbText
 10
25.0
 20
-713.0
 30
0.0
 40
2.5
  1
0
100
AcDbAttributeDefinition
  3

  2
HQ18
 70
     8
280
     0
  0
ATTDEF
  5
172
330
1F
100
AcDbEntity
  8
attrib
100
AcDbText
 10
25.0
 20
-716.0
 30
0.0
 40
2.5
  1
0
100
AcDbAttributeDefinition
  3

  2
HQ18ALG
 70
     8
280
     0
  0
ATTDEF
  5
173
330
1F
100
AcDbEntity
  8
attrib
100
AcDbText
 10
25.0
 20
-719.0
 30
0.0
 40
2.5
  1
0
100
AcDbAttributeDefinition
  3

  2
KLP
 70
     8
280
     0
  0
ATTDEF
  5
174
330
1F
100
AcDbEntity
  8
attrib
100
AcDbText
 10
25.0
 20
-722.0
 30
0.0
 40
2.5
  1
4.900
100
AcDbAttributeDefinition
  3

  2
KLPMIN
 70
     8
280
     0
  0
ATTDEF
  5
175
330
1F
100
AcDbEntity
  8
attrib
100
AcDbText
 10
25.0
 20
-725.0
 30
0.0
 40
2.5
  1
0.000
100
AcDbAttributeDefinition
  3

  2
KLPMAX
 70
     8
280
     0
  0
ATTDEF
  5
176
330
1F
100
AcDbEntity
  8
attrib
100
AcDbText
 10
25.0
 20
-728.0
 30
0.0
 40
2.5
  1
[0]
100
AcDbAttributeDefinition
  3

  2
KLPALG
 70
     8
280
     0
  0
ATTDEF
  5
177
330
1F
100
AcDbEntity
  8
attrib
100
AcDbText
 10
25.0
 20
-731.0
 30
0.0
 40
2.5
  1
0.000
100
AcDbAttributeDefinition
  3

  2
L18
 70
     8
280
     0
  0
ATTDEF
  5
178
330
1F
100
AcDbEntity
  8
attrib
100
AcDbText
 10
25.0
 20
-734.0
 30
0.0
 40
2.5
  1
0.0
100
AcDbAttributeDefinition
  3

  2
D18
 70
     8
280
     0
  0
ATTDEF
  5
179
330
1F
100
AcDbEntity
  8
attrib
100
AcDbText
 10
25.0
 20
-737.0
 30
0.0
 40
2.5
  1

100
AcDbAttributeDefinition
  3

  2
ALT1718PN
 70
     8
280
     0
  0
ATTDEF
  5
17A
330
1F
100
AcDbEntity
  8
attrib
100
AcDbText
 10
25.0
 20
-740.0
 30
0.0
 40
2.5
  1
N/A
100
AcDbAttributeDefinition
  3

  2
ALT19
 70
     8
280
     0
  0
ATTDEF
  5
17B
330
1F
100
AcDbEntity
  8
attrib
100
AcDbText
 10
25.0
 20
-743.0
 30
0.0
 40
2.5
  1
 '','N/A' 
100
AcDbAttributeDefinition
  3

  2
ALT19ALG
 70
     8
280
     0
  0
ATTDEF
  5
17C
330
1F
100
AcDbEntity
  8
attrib
100
AcDbText
 10
25.0
 20
-746.0
 30
0.0
 40
2.5
  1
0
100
AcDbAttributeDefinition
  3

  2
M19
 70
     8
280
     0
  0
ATTDEF
  5
17D
330
1F
100
AcDbEntity
  8
attrib
100
AcDbText
 10
25.0
 20
-749.0
 30
0.0
 40
2.5
  1
0
100
AcDbAttributeDefinition
  3

  2
DP19
 70
     8
280
     0
  0
ATTDEF
  5
17E
330
1F
100
AcDbEntity
  8
attrib
100
AcDbText
 10
25.0
 20
-752.0
 30
0.0
 40
2.5
  1

100
AcDbAttributeDefinition
  3

  2
ALT19PN
 70
     8
280
     0
  0
ATTDEF
  5
17F
330
1F
100
AcDbEntity
  8
attrib
100
AcDbText
 10
25.0
 20
-755.0
 30
0.0
 40
2.5
  1
w/o CW (End Face C Chamfering)
100
AcDbAttributeDefinition
  3

  2
ALT20
 70
     8
280
     0
  0
ATTDEF
  5
180
330
1F
100
AcDbEntity
  8
attrib
100
AcDbText
 10
25.0
 20
-758.0
 30
0.0
 40
2.5
  1

100
AcDbAttributeDefinition
  3

  2
ALT20PN
 70
     8
280
     0
  0
ATTDEF
  5
181
330
1F
100
AcDbEntity
  8
attrib
100
AcDbText
 10
25.0
 20
-761.0
 30
0.0
 40
2.5
  1
OK
100
AcDbAttributeDefinition
  3

  2
ERRORALT01
 70
     8
280
     0
  0
ATTDEF
  5
182
330
1F
100
AcDbEntity
  8
attrib
100
AcDbText
 10
25.0
 20
-764.0
 30
0.0
 40
2.5
  1
OK
100
AcDbAttributeDefinition
  3

  2
ERRORALT02
 70
     8
280
     0
  0
ATTDEF
  5
183
330
1F
100
AcDbEntity
  8
attrib
100
AcDbText
 10
25.0
 20
-767.0
 30
0.0
 40
2.5
  1
OK
100
AcDbAttributeDefinition
  3

  2
ERRORALT05
 70
     8
280
     0
  0
ATTDEF
  5
184
330
1F
100
AcDbEntity
  8
attrib
100
AcDbText
 10
25.0
 20
-770.0
 30
0.0
 40
2.5
  1
OK
100
AcDbAttributeDefinition
  3

  2
ERRORALT06091
 70
     8
280
     0
  0
ATTDEF
  5
185
330
1F
100
AcDbEntity
  8
attrib
100
AcDbText
 10
25.0
 20
-773.0
 30
0.0
 40
2.5
  1
OK
100
AcDbAttributeDefinition
  3

  2
ERRORALT06092
 70
     8
280
     0
  0
ATTDEF
  5
186
330
1F
100
AcDbEntity
  8
attrib
100
AcDbText
 10
25.0
 20
-776.0
 30
0.0
 40
2.5
  1
OK
100
AcDbAttributeDefinition
  3

  2
ERRORALT06093
 70
     8
280
     0
  0
ATTDEF
  5
187
330
1F
100
AcDbEntity
  8
attrib
100
AcDbText
 10
25.0
 20
-779.0
 30
0.0
 40
2.5
  1
OK
100
AcDbAttributeDefinition
  3

  2
ERRORALT06094
 70
     8
280
     0
  0
ATTDEF
  5
188
330
1F
100
AcDbEntity
  8
attrib
100
AcDbText
 10
25.0
 20
-782.0
 30
0.0
 40
2.5
  1
OK
100
AcDbAttributeDefinition
  3

  2
ERRORALT06101
 70
     8
280
     0
  0
ATTDEF
  5
189
330
1F
100
AcDbEntity
  8
attrib
100
AcDbText
 10
25.0
 20
-785.0
 30
0.0
 40
2.5
  1
OK
100
AcDbAttributeDefinition
  3

  2
ERRORALT06102
 70
     8
280
     0
  0
ATTDEF
  5
18A
330
1F
100
AcDbEntity
  8
attrib
100
AcDbText
 10
25.0
 20
-788.0
 30
0.0
 40
2.5
  1
OK
100
AcDbAttributeDefinition
  3

  2
ERRORALT06103
 70
     8
280
     0
  0
ATTDEF
  5
18B
330
1F
100
AcDbEntity
  8
attrib
100
AcDbText
 10
25.0
 20
-791.0
 30
0.0
 40
2.5
  1
OK
100
AcDbAttributeDefinition
  3

  2
ERRORALT06104
 70
     8
280
     0
  0
ATTDEF
  5
18C
330
1F
100
AcDbEntity
  8
attrib
100
AcDbText
 10
25.0
 20
-794.0
 30
0.0
 40
2.5
  1
OK
100
AcDbAttributeDefinition
  3

  2
ERRORALT06111
 70
     8
280
     0
  0
ATTDEF
  5
18D
330
1F
100
AcDbEntity
  8
attrib
100
AcDbText
 10
25.0
 20
-797.0
 30
0.0
 40
2.5
  1
OK
100
AcDbAttributeDefinition
  3

  2
ERRORALT06112
 70
     8
280
     0
  0
ATTDEF
  5
18E
330
1F
100
AcDbEntity
  8
attrib
100
AcDbText
 10
25.0
 20
-800.0
 30
0.0
 40
2.5
  1
OK
100
AcDbAttributeDefinition
  3

  2
ERRORALT06113
 70
     8
280
     0
  0
ATTDEF
  5
18F
330
1F
100
AcDbEntity
  8
attrib
100
AcDbText
 10
25.0
 20
-803.0
 30
0.0
 40
2.5
  1
OK
100
AcDbAttributeDefinition
  3

  2
ERRORALT06114
 70
     8
280
     0
  0
ATTDEF
  5
190
330
1F
100
AcDbEntity
  8
attrib
100
AcDbText
 10
25.0
 20
-806.0
 30
0.0
 40
2.5
  1
OK
100
AcDbAttributeDefinition
  3

  2
ERRORALT06121
 70
     8
280
     0
  0
ATTDEF
  5
191
330
1F
100
AcDbEntity
  8
attrib
100
AcDbText
 10
25.0
 20
-809.0
 30
0.0
 40
2.5
  1
OK
100
AcDbAttributeDefinition
  3

  2
ERRORALT06122
 70
     8
280
     0
  0
ATTDEF
  5
192
330
1F
100
AcDbEntity
  8
attrib
100
AcDbText
 10
25.0
 20
-812.0
 30
0.0
 40
2.5
  1
OK
100
AcDbAttributeDefinition
  3

  2
ERRORALT06123
 70
     8
280
     0
  0
ATTDEF
  5
193
330
1F
100
AcDbEntity
  8
attrib
100
AcDbText
 10
25.0
 20
-815.0
 30
0.0
 40
2.5
  1
OK
100
AcDbAttributeDefinition
  3

  2
ERRORALT06124
 70
     8
280
     0
  0
ATTDEF
  5
194
330
1F
100
AcDbEntity
  8
attrib
100
AcDbText
 10
25.0
 20
-818.0
 30
0.0
 40
2.5
  1
OK
100
AcDbAttributeDefinition
  3

  2
ERRORALT06131
 70
     8
280
     0
  0
ATTDEF
  5
195
330
1F
100
AcDbEntity
  8
attrib
100
AcDbText
 10
25.0
 20
-821.0
 30
0.0
 40
2.5
  1
OK
100
AcDbAttributeDefinition
  3

  2
ERRORALT06132
 70
     8
280
     0
  0
ATTDEF
  5
196
330
1F
100
AcDbEntity
  8
attrib
100
AcDbText
 10
25.0
 20
-824.0
 30
0.0
 40
2.5
  1
OK
100
AcDbAttributeDefinition
  3

  2
ERRORALT06133
 70
     8
280
     0
  0
ATTDEF
  5
197
330
1F
100
AcDbEntity
  8
attrib
100
AcDbText
 10
25.0
 20
-827.0
 30
0.0
 40
2.5
  1
OK
100
AcDbAttributeDefinition
  3

  2
ERRORALT06134
 70
     8
280
     0
  0
ATTDEF
  5
198
330
1F
100
AcDbEntity
  8
attrib
100
AcDbText
 10
25.0
 20
-830.0
 30
0.0
 40
2.5
  1
OK
100
AcDbAttributeDefinition
  3

  2
ERRORALT0614
 70
     8
280
     0
  0
ATTDEF
  5
199
330
1F
100
AcDbEntity
  8
attrib
100
AcDbText
 10
25.0
 20
-833.0
 30
0.0
 40
2.5
  1
OK
100
AcDbAttributeDefinition
  3

  2
ERRORALT0615
 70
     8
280
     0
  0
ATTDEF
  5
19A
330
1F
100
AcDbEntity
  8
attrib
100
AcDbText
 10
25.0
 20
-836.0
 30
0.0
 40
2.5
  1
OK
100
AcDbAttributeDefinition
  3

  2
ERRORALT0616
 70
     8
280
     0
  0
ATTDEF
  5
19B
330
1F
100
AcDbEntity
  8
attrib
100
AcDbText
 10
25.0
 20
-839.0
 30
0.0
 40
2.5
  1
OK
100
AcDbAttributeDefinition
  3

  2
ERRORALT06171
 70
     8
280
     0
  0
ATTDEF
  5
19C
330
1F
100
AcDbEntity
  8
attrib
100
AcDbText
 10
25.0
 20
-842.0
 30
0.0
 40
2.5
  1
OK
100
AcDbAttributeDefinition
  3

  2
ERRORALT06172
 70
     8
280
     0
  0
ATTDEF
  5
19D
330
1F
100
AcDbEntity
  8
attrib
100
AcDbText
 10
25.0
 20
-845.0
 30
0.0
 40
2.5
  1
OK
100
AcDbAttributeDefinition
  3

  2
ERRORALT06173
 70
     8
280
     0
  0
ATTDEF
  5
19E
330
1F
100
AcDbEntity
  8
attrib
100
AcDbText
 10
25.0
 20
-848.0
 30
0.0
 40
2.5
  1
OK
100
AcDbAttributeDefinition
  3

  2
ERRORALT06181
 70
     8
280
     0
  0
ATTDEF
  5
19F
330
1F
100
AcDbEntity
  8
attrib
100
AcDbText
 10
25.0
 20
-851.0
 30
0.0
 40
2.5
  1
OK
100
AcDbAttributeDefinition
  3

  2
ERRORALT06182
 70
     8
280
     0
  0
ATTDEF
  5
1A0
330
1F
100
AcDbEntity
  8
attrib
100
AcDbText
 10
25.0
 20
-854.0
 30
0.0
 40
2.5
  1
OK
100
AcDbAttributeDefinition
  3

  2
ERRORALT06183
 70
     8
280
     0
  0
ATTDEF
  5
1A1
330
1F
100
AcDbEntity
  8
attrib
100
AcDbText
 10
25.0
 20
-857.0
 30
0.0
 40
2.5
  1
OK
100
AcDbAttributeDefinition
  3

  2
ERRORALT0619
 70
     8
280
     0
  0
ATTDEF
  5
1A2
330
1F
100
AcDbEntity
  8
attrib
100
AcDbText
 10
25.0
 20
-860.0
 30
0.0
 40
2.5
  1
OK
100
AcDbAttributeDefinition
  3

  2
ERRORALT0911
 70
     8
280
     0
  0
ATTDEF
  5
1A3
330
1F
100
AcDbEntity
  8
attrib
100
AcDbText
 10
25.0
 20
-863.0
 30
0.0
 40
2.5
  1
OK
100
AcDbAttributeDefinition
  3

  2
ERRORALT0913
 70
     8
280
     0
  0
ATTDEF
  5
1A4
330
1F
100
AcDbEntity
  8
attrib
100
AcDbText
 10
25.0
 20
-866.0
 30
0.0
 40
2.5
  1
OK
100
AcDbAttributeDefinition
  3

  2
ERRORALT0914
 70
     8
280
     0
  0
ATTDEF
  5
1A5
330
1F
100
AcDbEntity
  8
attrib
100
AcDbText
 10
25.0
 20
-869.0
 30
0.0
 40
2.5
  1
OK
100
AcDbAttributeDefinition
  3

  2
ERRORALT0915
 70
     8
280
     0
  0
ATTDEF
  5
1A6
330
1F
100
AcDbEntity
  8
attrib
100
AcDbText
 10
25.0
 20
-872.0
 30
0.0
 40
2.5
  1
OK
100
AcDbAttributeDefinition
  3

  2
ERRORALT0916
 70
     8
280
     0
  0
ATTDEF
  5
1A7
330
1F
100
AcDbEntity
  8
attrib
100
AcDbText
 10
25.0
 20
-875.0
 30
0.0
 40
2.5
  1
OK
100
AcDbAttributeDefinition
  3

  2
ERRORALT0917
 70
     8
280
     0
  0
ATTDEF
  5
1A8
330
1F
100
AcDbEntity
  8
attrib
100
AcDbText
 10
25.0
 20
-878.0
 30
0.0
 40
2.5
  1
OK
100
AcDbAttributeDefinition
  3

  2
ERRORALT0918
 70
     8
280
     0
  0
ATTDEF
  5
1A9
330
1F
100
AcDbEntity
  8
attrib
100
AcDbText
 10
25.0
 20
-881.0
 30
0.0
 40
2.5
  1
OK
100
AcDbAttributeDefinition
  3

  2
ERRORALT0919
 70
     8
280
     0
  0
ATTDEF
  5
1AA
330
1F
100
AcDbEntity
  8
attrib
100
AcDbText
 10
25.0
 20
-884.0
 30
0.0
 40
2.5
  1
OK
100
AcDbAttributeDefinition
  3

  2
ERRORALT1011
 70
     8
280
     0
  0
ATTDEF
  5
1AB
330
1F
100
AcDbEntity
  8
attrib
100
AcDbText
 10
25.0
 20
-887.0
 30
0.0
 40
2.5
  1
OK
100
AcDbAttributeDefinition
  3

  2
ERRORALT1012
 70
     8
280
     0
  0
ATTDEF
  5
1AC
330
1F
100
AcDbEntity
  8
attrib
100
AcDbText
 10
25.0
 20
-890.0
 30
0.0
 40
2.5
  1
OK
100
AcDbAttributeDefinition
  3

  2
ERRORALT1014
 70
     8
280
     0
  0
ATTDEF
  5
1AD
330
1F
100
AcDbEntity
  8
attrib
100
AcDbText
 10
25.0
 20
-893.0
 30
0.0
 40
2.5
  1
OK
100
AcDbAttributeDefinition
  3

  2
ERRORALT1015
 70
     8
280
     0
  0
ATTDEF
  5
1AE
330
1F
100
AcDbEntity
  8
attrib
100
AcDbText
 10
25.0
 20
-896.0
 30
0.0
 40
2.5
  1
OK
100
AcDbAttributeDefinition
  3

  2
ERRORALT1016
 70
     8
280
     0
  0
ATTDEF
  5
1AF
330
1F
100
AcDbEntity
  8
attrib
100
AcDbText
 10
25.0
 20
-899.0
 30
0.0
 40
2.5
  1
OK
100
AcDbAttributeDefinition
  3

  2
ERRORALT1017
 70
     8
280
     0
  0
ATTDEF
  5
1B0
330
1F
100
AcDbEntity
  8
attrib
100
AcDbText
 10
25.0
 20
-902.0
 30
0.0
 40
2.5
  1
OK
100
AcDbAttributeDefinition
  3

  2
ERRORALT1018
 70
     8
280
     0
  0
ATTDEF
  5
1B1
330
1F
100
AcDbEntity
  8
attrib
100
AcDbText
 10
25.0
 20
-905.0
 30
0.0
 40
2.5
  1
OK
100
AcDbAttributeDefinition
  3

  2
ERRORALT1019
 70
     8
280
     0
  0
ATTDEF
  5
1B2
330
1F
100
AcDbEntity
  8
attrib
100
AcDbText
 10
25.0
 20
-908.0
 30
0.0
 40
2.5
  1
OK
100
AcDbAttributeDefinition
  3

  2
ERRORALT1112
 70
     8
280
     0
  0
ATTDEF
  5
1B3
330
1F
100
AcDbEntity
  8
attrib
100
AcDbText
 10
25.0
 20
-911.0
 30
0.0
 40
2.5
  1
OK
100
AcDbAttributeDefinition
  3

  2
ERRORALT1113
 70
     8
280
     0
  0
ATTDEF
  5
1B4
330
1F
100
AcDbEntity
  8
attrib
100
AcDbText
 10
25.0
 20
-914.0
 30
0.0
 40
2.5
  1
OK
100
AcDbAttributeDefinition
  3

  2
ERRORALT1114
 70
     8
280
     0
  0
ATTDEF
  5
1B5
330
1F
100
AcDbEntity
  8
attrib
100
AcDbText
 10
25.0
 20
-917.0
 30
0.0
 40
2.5
  1
OK
100
AcDbAttributeDefinition
  3

  2
ERRORALT1115
 70
     8
280
     0
  0
ATTDEF
  5
1B6
330
1F
100
AcDbEntity
  8
attrib
100
AcDbText
 10
25.0
 20
-920.0
 30
0.0
 40
2.5
  1
OK
100
AcDbAttributeDefinition
  3

  2
ERRORALT1116
 70
     8
280
     0
  0
ATTDEF
  5
1B7
330
1F
100
AcDbEntity
  8
attrib
100
AcDbText
 10
25.0
 20
-923.0
 30
0.0
 40
2.5
  1
OK
100
AcDbAttributeDefinition
  3

  2
ERRORALT1117
 70
     8
280
     0
  0
ATTDEF
  5
1B8
330
1F
100
AcDbEntity
  8
attrib
100
AcDbText
 10
25.0
 20
-926.0
 30
0.0
 40
2.5
  1
OK
100
AcDbAttributeDefinition
  3

  2
ERRORALT1118
 70
     8
280
     0
  0
ATTDEF
  5
1B9
330
1F
100
AcDbEntity
  8
attrib
100
AcDbText
 10
25.0
 20
-929.0
 30
0.0
 40
2.5
  1
OK
100
AcDbAttributeDefinition
  3

  2
ERRORALT1119
 70
     8
280
     0
  0
ATTDEF
  5
1BA
330
1F
100
AcDbEntity
  8
attrib
100
AcDbText
 10
25.0
 20
-932.0
 30
0.0
 40
2.5
  1
OK
100
AcDbAttributeDefinition
  3

  2
ERRORALT1214
 70
     8
280
     0
  0
ATTDEF
  5
1BB
330
1F
100
AcDbEntity
  8
attrib
100
AcDbText
 10
25.0
 20
-935.0
 30
0.0
 40
2.5
  1
OK
100
AcDbAttributeDefinition
  3

  2
ERRORALT1215
 70
     8
280
     0
  0
ATTDEF
  5
1BC
330
1F
100
AcDbEntity
  8
attrib
100
AcDbText
 10
25.0
 20
-938.0
 30
0.0
 40
2.5
  1
OK
100
AcDbAttributeDefinition
  3

  2
ERRORALT1216
 70
     8
280
     0
  0
ATTDEF
  5
1BD
330
1F
100
AcDbEntity
  8
attrib
100
AcDbText
 10
25.0
 20
-941.0
 30
0.0
 40
2.5
  1
OK
100
AcDbAttributeDefinition
  3

  2
ERRORALT1217
 70
     8
280
     0
  0
ATTDEF
  5
1BE
330
1F
100
AcDbEntity
  8
attrib
100
AcDbText
 10
25.0
 20
-944.0
 30
0.0
 40
2.5
  1
OK
100
AcDbAttributeDefinition
  3

  2
ERRORALT1218
 70
     8
280
     0
  0
ATTDEF
  5
1BF
330
1F
100
AcDbEntity
  8
attrib
100
AcDbText
 10
25.0
 20
-947.0
 30
0.0
 40
2.5
  1
OK
100
AcDbAttributeDefinition
  3

  2
ERRORALT1219
 70
     8
280
     0
  0
ATTDEF
  5
1C0
330
1F
100
AcDbEntity
  8
attrib
100
AcDbText
 10
25.0
 20
-950.0
 30
0.0
 40
2.5
  1
OK
100
AcDbAttributeDefinition
  3

  2
ERRORALT1314
 70
     8
280
     0
  0
ATTDEF
  5
1C1
330
1F
100
AcDbEntity
  8
attrib
100
AcDbText
 10
25.0
 20
-953.0
 30
0.0
 40
2.5
  1
OK
100
AcDbAttributeDefinition
  3

  2
ERRORALT1315
 70
     8
280
     0
  0
ATTDEF
  5
1C2
330
1F
100
AcDbEntity
  8
attrib
100
AcDbText
 10
25.0
 20
-956.0
 30
0.0
 40
2.5
  1
OK
100
AcDbAttributeDefinition
  3

  2
ERRORALT1316
 70
     8
280
     0
  0
ATTDEF
  5
1C3
330
1F
100
AcDbEntity
  8
attrib
100
AcDbText
 10
25.0
 20
-959.0
 30
0.0
 40
2.5
  1
OK
100
AcDbAttributeDefinition
  3

  2
ERRORALT1317
 70
     8
280
     0
  0
ATTDEF
  5
1C4
330
1F
100
AcDbEntity
  8
attrib
100
AcDbText
 10
25.0
 20
-962.0
 30
0.0
 40
2.5
  1
OK
100
AcDbAttributeDefinition
  3

  2
ERRORALT1318
 70
     8
280
     0
  0
ATTDEF
  5
1C5
330
1F
100
AcDbEntity
  8
attrib
100
AcDbText
 10
25.0
 20
-965.0
 30
0.0
 40
2.5
  1
OK
100
AcDbAttributeDefinition
  3

  2
ERRORALT1319
 70
     8
280
     0
  0
ATTDEF
  5
1C6
330
1F
100
AcDbEntity
  8
attrib
100
AcDbText
 10
25.0
 20
-968.0
 30
0.0
 40
2.5
  1
OK
100
AcDbAttributeDefinition
  3

  2
ERRORALT1415
 70
     8
280
     0
  0
ATTDEF
  5
1C7
330
1F
100
AcDbEntity
  8
attrib
100
AcDbText
 10
25.0
 20
-971.0
 30
0.0
 40
2.5
  1
OK
100
AcDbAttributeDefinition
  3

  2
ERRORALT1416
 70
     8
280
     0
  0
ATTDEF
  5
1C8
330
1F
100
AcDbEntity
  8
attrib
100
AcDbText
 10
25.0
 20
-974.0
 30
0.0
 40
2.5
  1
OK
100
AcDbAttributeDefinition
  3

  2
ERRORALT1417
 70
     8
280
     0
  0
ATTDEF
  5
1C9
330
1F
100
AcDbEntity
  8
attrib
100
AcDbText
 10
25.0
 20
-977.0
 30
0.0
 40
2.5
  1
OK
100
AcDbAttributeDefinition
  3

  2
ERRORALT1418
 70
     8
280
     0
  0
ATTDEF
  5
1CA
330
1F
100
AcDbEntity
  8
attrib
100
AcDbText
 10
25.0
 20
-980.0
 30
0.0
 40
2.5
  1
OK
100
AcDbAttributeDefinition
  3

  2
ERRORALT1419
 70
     8
280
     0
  0
ATTDEF
  5
1CB
330
1F
100
AcDbEntity
  8
attrib
100
AcDbText
 10
25.0
 20
-983.0
 30
0.0
 40
2.5
  1
OK
100
AcDbAttributeDefinition
  3

  2
ERRORALT1516
 70
     8
280
     0
  0
ATTDEF
  5
1CC
330
1F
100
AcDbEntity
  8
attrib
100
AcDbText
 10
25.0
 20
-986.0
 30
0.0
 40
2.5
  1
OK
100
AcDbAttributeDefinition
  3

  2
ERRORALT1517
 70
     8
280
     0
  0
ATTDEF
  5
1CD
330
1F
100
AcDbEntity
  8
attrib
100
AcDbText
 10
25.0
 20
-989.0
 30
0.0
 40
2.5
  1
OK
100
AcDbAttributeDefinition
  3

  2
ERRORALT1518
 70
     8
280
     0
  0
ATTDEF
  5
1CE
330
1F
100
AcDbEntity
  8
attrib
100
AcDbText
 10
25.0
 20
-992.0
 30
0.0
 40
2.5
  1
OK
100
AcDbAttributeDefinition
  3

  2
ERRORALT1519
 70
     8
280
     0
  0
ATTDEF
  5
1CF
330
1F
100
AcDbEntity
  8
attrib
100
AcDbText
 10
25.0
 20
-995.0
 30
0.0
 40
2.5
  1
OK
100
AcDbAttributeDefinition
  3

  2
ERRORALT1617
 70
     8
280
     0
  0
ATTDEF
  5
1D0
330
1F
100
AcDbEntity
  8
attrib
100
AcDbText
 10
25.0
 20
-998.0
 30
0.0
 40
2.5
  1
OK
100
AcDbAttributeDefinition
  3

  2
ERRORALT1618
 70
     8
280
     0
  0
ATTDEF
  5
1D1
330
1F
100
AcDbEntity
  8
attrib
100
AcDbText
 10
25.0
 20
-1001.0
 30
0.0
 40
2.5
  1
OK
100
AcDbAttributeDefinition
  3

  2
ERRORALT1619
 70
     8
280
     0
  0
ATTDEF
  5
1D2
330
1F
100
AcDbEntity
  8
attrib
100
AcDbText
 10
25.0
 20
-1004.0
 30
0.0
 40
2.5
  1
OK
100
AcDbAttributeDefinition
  3

  2
ERRORALT1719
 70
     8
280
     0
  0
ATTDEF
  5
1D3
330
1F
100
AcDbEntity
  8
attrib
100
AcDbText
 10
25.0
 20
-1007.0
 30
0.0
 40
2.5
  1
OK
100
AcDbAttributeDefinition
  3

  2
ERRORALT1819
 70
     8
280
     0
  0
ATTDEF
  5
1D4
330
1F
100
AcDbEntity
  8
attrib
100
AcDbText
 10
25.0
 20
-1010.0
 30
0.0
 40
2.5
  1

100
AcDbAttributeDefinition
  3

  2
ERRORPN
 70
     8
280
     0
  0
ATTDEF
  5
1D5
330
1F
100
AcDbEntity
  8
attrib
100
AcDbText
 10
25.0
 20
-1013.0
 30
0.0
 40
2.5
  1
misumi
100
AcDbAttributeDefinition
  3

  2
COMPANY
 70
     8
280
     0
  0
LINE
  5
1D6
330
1F
100
AcDbEntity
  8
center
100
AcDbLine
 10
3.546194077712562
 20
15.40380592228744
 30
0.0
 11
5.646194077712561
 21
15.40380592228744
 31
0.0
  0
LINE
  5
1D7
330
1F
100
AcDbEntity
  8
center
100
AcDbLine
 10
4.596194077712561
 20
14.35380592228744
 30
0.0
 11
4.596194077712561
 21
16.45380592228744
 31
0.0
  0
LINE
  5
1D8
330
1F
100
AcDbEntity
  8
center
100
AcDbLine
 10
3.54619407771256
 20
-15.40380592228744
 30
0.0
 11
5.646194077712563
 21
-15.40380592228744
 31
0.0
  0
LINE
  5
1D9
330
1F
100
AcDbEntity
  8
center
100
AcDbLine
 10
4.596194077712561
 20
-16.45380592228744
 30
0.0
 11
4.596194077712561
 21
-14.35380592228744
 31
0.0
  0
LINE
  5
1DA
330
1F
100
AcDbEntity
  8
center
100
AcDbLine
 10
-5.646194077712564
 20
-15.40380592228744
 30
0.0
 11
-3.546194077712562
 21
-15.40380592228744
 31
0.0
  0
LINE
  5
1DB
330
1F
100
AcDbEntity
  8
center
100
AcDbLine
 10
-4.596194077712563
 20
-16.45380592228744
 30
0.0
 11
-4.596194077712563
 21
-14.35380592228744
 31
0.0
  0
LINE
  5
1DC
330
1F
100
AcDbEntity
  8
center
100
AcDbLine
 10
-5.646194077712566
 20
24.59619407771256
 30
0.0
 11
-3.546194077712562
 21
24.59619407771256
 31
0.0
  0
LINE
  5
1DD
330
1F
100
AcDbEntity
  8
center
100
AcDbLine
 10
-4.596194077712564
 20
23.54619407771256
 30
0.0
 11
-4.596194077712564
 21
25.64619407771256
 31
0.0
  0
LINE
  5
1DE
330
1F
100
AcDbEntity
  8
center
100
AcDbLine
 10
-5.646194077712559
 20
15.40380592228744
 30
0.0
 11
-3.546194077712562
 21
15.40380592228744
 31
0.0
  0
LINE
  5
1DF
330
1F
100
AcDbEntity
  8
center
100
AcDbLine
 10
-4.59619407771256
 20
14.35380592228744
 30
0.0
 11
-4.59619407771256
 21
16.45380592228744
 31
0.0
  0
LINE
  5
1E0
330
1F
100
AcDbEntity
  8
center
100
AcDbLine
 10
-5.646194077712561
 20
-24.59619407771256
 30
0.0
 11
-3.546194077712562
 21
-24.59619407771256
 31
0.0
  0
LINE
  5
1E1
330
1F
100
AcDbEntity
  8
center
100
AcDbLine
 10
-4.596194077712561
 20
-25.64619407771256
 30
0.0
 11
-4.596194077712561
 21
-23.54619407771256
 31
0.0
  0
LINE
  5
1E2
330
1F
100
AcDbEntity
  8
center
100
AcDbLine
 10
3.546194077712561
 20
-24.59619407771256
 30
0.0
 11
5.646194077712559
 21
-24.59619407771256
 31
0.0
  0
LINE
  5
1E3
330
1F
100
AcDbEntity
  8
center
100
AcDbLine
 10
4.59619407771256
 20
-25.64619407771256
 30
0.0
 11
4.59619407771256
 21
-23.54619407771256
 31
0.0
  0
LINE
  5
1E4
330
1F
100
AcDbEntity
  8
center
100
AcDbLine
 10
3.546194077712557
 20
24.59619407771256
 30
0.0
 11
5.646194077712566
 21
24.59619407771256
 31
0.0
  0
LINE
  5
1E5
330
1F
100
AcDbEntity
  8
center
100
AcDbLine
 10
4.596194077712561
 20
23.54619407771256
 30
0.0
 11
4.596194077712561
 21
25.64619407771256
 31
0.0
  0
LINE
  5
1E6
330
1F
100
AcDbEntity
  8
vis
100
AcDbLine
 10
-14.5
 20
10.0
 30
0.0
 11
-14.5
 21
15.0
 31
0.0
  0
ARC
  5
1E7
330
1F
100
AcDbEntity
  8
vis
100
AcDbCircle
 10
-4.596194077712566
 20
24.59619407771256
 30
0.0
 40
1.000000000000002
100
AcDbArc
 50
1.020738521721753
 51
268.9792629724213
  0
ARC
  5
1E8
330
1F
100
AcDbEntity
  8
vis
100
AcDbCircle
 10
-3.216413064957404
 20
24.62077774790903
 30
0.0
 40
0.3799999999999991
100
AcDbArc
 50
181.020727725319
 51
304.8408549529248
  0
ARC
  5
1E9
330
1F
100
AcDbEntity
  8
vis
100
AcDbCircle
 10
0.0
 20
20.0
 30
0.0
 40
5.249999999999999
100
AcDbArc
 50
55.15914532281742
 51
124.8408549529243
  0
ARC
  5
1EA
330
1F
100
AcDbEntity
  8
vis
100
AcDbCircle
 10
3.216413064957397
 20
24.62077774790903
 30
0.0
 40
0.3799999999999952
100
AcDbArc
 50
235.1591412374866
 51
358.9792683427261
  0
ARC
  5
1EB
330
1F
100
AcDbEntity
  8
vis
100
AcDbCircle
 10
4.59619407771256
 20
24.59619407771256
 30
0.0
 40
1.000000000000004
100
AcDbArc
 50
271.0207385217222
 51
178.9792629724217
  0
ARC
  5
1EC
330
1F
100
AcDbEntity
  8
vis
100
AcDbCircle
 10
4.620777747909036
 20
23.2164130649574
 30
0.0
 40
0.3799999999999985
100
AcDbArc
 50
91.02072772531807
 51
214.8408549529239
  0
ARC
  5
1ED
330
1F
100
AcDbEntity
  8
vis
100
AcDbCircle
 10
0.0000000000000098
 20
20.0
 30
0.0
 40
5.24999999999999
100
AcDbArc
 50
325.1591453228174
 51
34.8408549529244
  0
ARC
  5
1EE
330
1F
100
AcDbEntity
  8
vis
100
AcDbCircle
 10
4.62077774790904
 20
16.7835869350426
 30
0.0
 40
0.3800000000000001
100
AcDbArc
 50
145.1591412374869
 51
268.9792683427252
  0
ARC
  5
1EF
330
1F
100
AcDbEntity
  8
vis
100
AcDbCircle
 10
4.596194077712561
 20
15.40380592228744
 30
0.0
 40
0.9999999999999992
100
AcDbArc
 50
181.0207385217217
 51
88.97926297242118
  0
ARC
  5
1F0
330
1F
100
AcDbEntity
  8
vis
100
AcDbCircle
 10
3.216413064957401
 20
15.37922225209096
 30
0.0
 40
0.3800000000000003
100
AcDbArc
 50
1.020727725318664
 51
124.8408549529239
  0
ARC
  5
1F1
330
1F
100
AcDbEntity
  8
vis
100
AcDbCircle
 10
0.0000000000000011
 20
19.99999999999999
 30
0.0
 40
5.249999999999993
100
AcDbArc
 50
235.1591453228173
 51
304.8408549529244
  0
ARC
  5
1F2
330
1F
100
AcDbEntity
  8
vis
100
AcDbCircle
 10
-3.216413064957399
 20
15.37922225209096
 30
0.0
 40
0.3799999999999989
100
AcDbArc
 50
55.15914123748667
 51
178.9792683427258
  0
ARC
  5
1F3
330
1F
100
AcDbEntity
  8
vis
100
AcDbCircle
 10
-4.59619407771256
 20
15.40380592228744
 30
0.0
 40
0.9999999999999988
100
AcDbArc
 50
91.02073852172222
 51
358.9792629724209
  0
ARC
  5
1F4
330
1F
100
AcDbEntity
  8
vis
100
AcDbCircle
 10
-4.620777747909035
 20
16.7835869350426
 30
0.0
 40
0.3799999999999985
100
AcDbArc
 50
271.0207277253178
 51
34.84085495292541
  0
ARC
  5
1F5
330
1F
100
AcDbEntity
  8
vis
100
AcDbCircle
 10
0.0000000000000124
 20
20.0
 30
0.0
 40
5.25000000000001
100
AcDbArc
 50
145.1591450470759
 51
214.8408549529242
  0
ARC
  5
1F6
330
1F
100
AcDbEntity
  8
vis
100
AcDbCircle
 10
-4.620777747909043
 20
23.21641306495739
 30
0.0
 40
0.3799999999999962
100
AcDbArc
 50
325.1591450470758
 51
88.97926834272516
  0
LINE
  5
1F7
330
1F
100
AcDbEntity
  8
vis
100
AcDbLine
 10
-18.0
 20
37.00000000000001
 30
0.0
 11
-18.0
 21
33.00000000000001
 31
0.0
  0
ARC
  5
1F8
330
1F
100
AcDbEntity
  8
vis
100
AcDbCircle
 10
-17.00000000000001
 20
37.00000000000001
 30
0.0
 40
0.9999999999999858
100
AcDbArc
 50
90.0
 51
180.0
  0
LINE
  5
1F9
330
1F
100
AcDbEntity
  8
vis
100
AcDbLine
 10
-13.0
 20
38.00000000000001
 30
0.0
 11
-17.0
 21
38.0
 31
0.0
  0
ARC
  5
1FA
330
1F
100
AcDbEntity
  8
vis
100
AcDbCircle
 10
-12.99999999999999
 20
37.00000000000001
 30
0.0
 40
0.9999999999999911
100
AcDbArc
 50
0.0
 51
90.0
  0
LINE
  5
1FB
330
1F
100
AcDbEntity
  8
vis
100
AcDbLine
 10
-11.99999999999999
 20
33.00000000000001
 30
0.0
 11
-12.0
 21
37.0
 31
0.0
  0
ARC
  5
1FC
330
1F
100
AcDbEntity
  8
vis
100
AcDbCircle
 10
-13.00000000000001
 20
33.00000000000001
 30
0.0
 40
1.000000000000014
100
AcDbArc
 50
270.0
 51
0.0
  0
LINE
  5
1FD
330
1F
100
AcDbEntity
  8
vis
100
AcDbLine
 10
-16.99999999999999
 20
32.0
 30
0.0
 11
-13.0
 21
32.0
 31
0.0
  0
ARC
  5
1FE
330
1F
100
AcDbEntity
  8
vis
100
AcDbCircle
 10
-17.0
 20
33.00000000000001
 30
0.0
 40
1.000000000000007
100
AcDbArc
 50
180.0
 51
270.0
  0
ARC
  5
1FF
330
1F
100
AcDbEntity
  8
vis
100
AcDbCircle
 10
-16.99999999999999
 20
-33.00000000000001
 30
0.0
 40
1.000000000000014
100
AcDbArc
 50
90.0
 51
180.0
  0
LINE
  5
200
330
1F
100
AcDbEntity
  8
vis
100
AcDbLine
 10
-13.00000000000001
 20
-32.00000000000001
 30
0.0
 11
-17.0
 21
-32.0
 31
0.0
  0
ARC
  5
201
330
1F
100
AcDbEntity
  8
vis
100
AcDbCircle
 10
-13.0
 20
-33.00000000000001
 30
0.0
 40
0.9999999999999982
100
AcDbArc
 50
0.0
 51
90.0
  0
LINE
  5
202
330
1F
100
AcDbEntity
  8
vis
100
AcDbLine
 10
-12.0
 20
-37.00000000000001
 30
0.0
 11
-12.0
 21
-33.0
 31
0.0
  0
ARC
  5
203
330
1F
100
AcDbEntity
  8
vis
100
AcDbCircle
 10
-13.0
 20
-37.00000000000001
 30
0.0
 40
0.9999999999999929
100
AcDbArc
 50
270.0
 51
0.0
  0
LINE
  5
204
330
1F
100
AcDbEntity
  8
vis
100
AcDbLine
 10
-17.0
 20
-38.00000000000001
 30
0.0
 11
-13.0
 21
-38.0
 31
0.0
  0
ARC
  5
205
330
1F
100
AcDbEntity
  8
vis
100
AcDbCircle
 10
-17.00000000000001
 20
-37.00000000000001
 30
0.0
 40
0.9999999999999929
100
AcDbArc
 50
180.0
 51
270.0
  0
LINE
  5
206
330
1F
100
AcDbEntity
  8
vis
100
AcDbLine
 10
-18.0
 20
-33.0
 30
0.0
 11
-18.0
 21
-37.0
 31
0.0
  0
LINE
  5
207
330
1F
100
AcDbEntity
  8
vis
100
AcDbLine
 10
-17.0
 20
6.499999999999996
 30
0.0
 11
-17.0
 21
-6.499999999999996
 31
0.0
  0
ARC
  5
208
330
1F
100
AcDbEntity
  8
vis
100
AcDbCircle
 10
-16.0
 20
6.500000000000001
 30
0.0
 40
0.9999999999999991
100
AcDbArc
 50
90.0
 51
180.0
  0
LINE
  5
209
330
1F
100
AcDbEntity
  8
vis
100
AcDbLine
 10
-11.14644660940672
 20
7.499999999999998
 30
0.0
 11
-16.0
 21
7.5
 31
0.0
  0
ARC
  5
20A
330
1F
100
AcDbEntity
  8
vis
100
AcDbCircle
 10
-11.14644660940672
 20
8.499999999999991
 30
0.0
 40
0.9999999999999929
100
AcDbArc
 50
270.0
 51
315.0000000000002
  0
LINE
  5
20B
330
1F
100
AcDbEntity
  8
vis
100
AcDbLine
 10
-5.732233047033629
 20
12.5
 30
0.0
 11
-10.43933982822018
 21
7.79289321881345
 31
0.0
  0
LINE
  5
20C
330
1F
100
AcDbEntity
  8
vis
100
AcDbLine
 10
5.732233047033629
 20
12.5
 30
0.0
 11
-5.732233047033629
 21
12.5
 31
0.0
  0
LINE
  5
20D
330
1F
100
AcDbEntity
  8
vis
100
AcDbLine
 10
10.43933982822017
 20
7.792893218813448
 30
0.0
 11
5.732233047033629
 21
12.5
 31
0.0
  0
ARC
  5
20E
330
1F
100
AcDbEntity
  8
vis
100
AcDbCircle
 10
11.14644660940672
 20
8.499999999999995
 30
0.0
 40
0.9999999999999961
100
AcDbArc
 50
225.0000000000002
 51
270.0
  0
LINE
  5
20F
330
1F
100
AcDbEntity
  8
vis
100
AcDbLine
 10
15.99999999999999
 20
7.500000000000001
 30
0.0
 11
11.14644660940673
 21
7.5
 31
0.0
  0
ARC
  5
210
330
1F
100
AcDbEntity
  8
vis
100
AcDbCircle
 10
16.0
 20
6.500000000000003
 30
0.0
 40
0.9999999999999964
100
AcDbArc
 50
0.0
 51
90.0
  0
LINE
  5
211
330
1F
100
AcDbEntity
  8
vis
100
AcDbLine
 10
17.0
 20
-6.499999999999996
 30
0.0
 11
17.0
 21
6.500000000000001
 31
0.0
  0
ARC
  5
212
330
1F
100
AcDbEntity
  8
vis
100
AcDbCircle
 10
16.0
 20
-6.500000000000001
 30
0.0
 40
0.9999999999999991
100
AcDbArc
 50
270.0
 51
0.0
  0
LINE
  5
213
330
1F
100
AcDbEntity
  8
vis
100
AcDbLine
 10
11.1464466094067
 20
-7.5
 30
0.0
 11
16.0
 21
-7.5
 31
0.0
  0
ARC
  5
214
330
1F
100
AcDbEntity
  8
vis
100
AcDbCircle
 10
11.1464466094067
 20
-8.499999999999998
 30
0.0
 40
0.9999999999999982
100
AcDbArc
 50
90.0
 51
134.9999999999983
  0
LINE
  5
215
330
1F
100
AcDbEntity
  8
vis
100
AcDbLine
 10
5.732233047033604
 20
-12.5
 30
0.0
 11
10.43933982822018
 21
-7.792893218813429
 31
0.0
  0
LINE
  5
216
330
1F
100
AcDbEntity
  8
vis
100
AcDbLine
 10
-5.732233047033633
 20
-12.5
 30
0.0
 11
5.732233047033604
 21
-12.5
 31
0.0
  0
LINE
  5
217
330
1F
100
AcDbEntity
  8
vis
100
AcDbLine
 10
-10.43933982822015
 20
-7.792893218813436
 30
0.0
 11
-5.732233047033633
 21
-12.5
 31
0.0
  0
ARC
  5
218
330
1F
100
AcDbEntity
  8
vis
100
AcDbCircle
 10
-11.14644660940668
 20
-8.499999999999988
 30
0.0
 40
0.999999999999988
100
AcDbArc
 50
45.00000000000101
 51
90.0
  0
LINE
  5
219
330
1F
100
AcDbEntity
  8
vis
100
AcDbLine
 10
-16.0
 20
-7.500000000000001
 30
0.0
 11
-11.14644660940672
 21
-7.5
 31
0.0
  0
ARC
  5
21A
330
1F
100
AcDbEntity
  8
vis
100
AcDbCircle
 10
-15.99999999999999
 20
-6.499999999999995
 30
0.0
 40
1.000000000000007
100
AcDbArc
 50
180.0
 51
270.0
  0
LINE
  5
21B
330
1F
100
AcDbEntity
  8
vis
100
AcDbLine
 10
12.0
 20
37.00000000000001
 30
0.0
 11
12.0
 21
33.00000000000001
 31
0.0
  0
ARC
  5
21C
330
1F
100
AcDbEntity
  8
vis
100
AcDbCircle
 10
13.0
 20
37.00000000000001
 30
0.0
 40
0.9999999999999929
100
AcDbArc
 50
90.0
 51
180.0
  0
LINE
  5
21D
330
1F
100
AcDbEntity
  8
vis
100
AcDbLine
 10
17.0
 20
38.00000000000001
 30
0.0
 11
13.0
 21
38.0
 31
0.0
  0
ARC
  5
21E
330
1F
100
AcDbEntity
  8
vis
100
AcDbCircle
 10
17.00000000000001
 20
37.00000000000001
 30
0.0
 40
0.9999999999999929
100
AcDbArc
 50
0.0
 51
90.0
  0
LINE
  5
21F
330
1F
100
AcDbEntity
  8
vis
100
AcDbLine
 10
18.00000000000001
 20
33.00000000000001
 30
0.0
 11
18.0
 21
37.0
 31
0.0
  0
ARC
  5
220
330
1F
100
AcDbEntity
  8
vis
100
AcDbCircle
 10
16.99999999999999
 20
33.00000000000001
 30
0.0
 40
1.000000000000014
100
AcDbArc
 50
270.0
 51
0.0
  0
LINE
  5
221
330
1F
100
AcDbEntity
  8
vis
100
AcDbLine
 10
13.00000000000001
 20
32.00000000000001
 30
0.0
 11
17.0
 21
32.0
 31
0.0
  0
ARC
  5
222
330
1F
100
AcDbEntity
  8
vis
100
AcDbCircle
 10
13.00000000000001
 20
33.00000000000001
 30
0.0
 40
1.000000000000007
100
AcDbArc
 50
180.0
 51
270.0
  0
ARC
  5
223
330
1F
100
AcDbEntity
  8
vis
100
AcDbCircle
 10
13.00000000000001
 20
-33.0
 30
0.0
 40
1.0
100
AcDbArc
 50
90.0
 51
180.0
  0
LINE
  5
224
330
1F
100
AcDbEntity
  8
vis
100
AcDbLine
 10
16.99999999999999
 20
-32.0
 30
0.0
 11
13.0
 21
-32.0
 31
0.0
  0
ARC
  5
225
330
1F
100
AcDbEntity
  8
vis
100
AcDbCircle
 10
16.99999999999999
 20
-33.00000000000001
 30
0.0
 40
1.000000000000018
100
AcDbArc
 50
0.0
 51
90.0
  0
LINE
  5
226
330
1F
100
AcDbEntity
  8
vis
100
AcDbLine
 10
18.0
 20
-37.00000000000001
 30
0.0
 11
18.0
 21
-33.0
 31
0.0
  0
ARC
  5
227
330
1F
100
AcDbEntity
  8
vis
100
AcDbCircle
 10
17.00000000000001
 20
-37.00000000000001
 30
0.0
 40
0.9999999999999858
100
AcDbArc
 50
270.0
 51
0.0
  0
LINE
  5
228
330
1F
100
AcDbEntity
  8
vis
100
AcDbLine
 10
13.0
 20
-38.00000000000001
 30
0.0
 11
17.0
 21
-38.0
 31
0.0
  0
ARC
  5
229
330
1F
100
AcDbEntity
  8
vis
100
AcDbCircle
 10
12.99999999999999
 20
-37.00000000000001
 30
0.0
 40
0.9999999999999911
100
AcDbArc
 50
180.0
 51
270.0
  0
LINE
  5
22A
330
1F
100
AcDbEntity
  8
vis
100
AcDbLine
 10
12.0
 20
-33.0
 30
0.0
 11
12.0
 21
-37.0
 31
0.0
  0
LINE
  5
22B
330
1F
100
AcDbEntity
  8
vis
100
AcDbLine
 10
-20.0
 20
14.99999999999999
 30
0.0
 11
-20.0
 21
-14.99999999999998
 31
0.0
  0
LINE
  5
22C
330
1F
100
AcDbEntity
  8
vis
100
AcDbLine
 10
-20.0
 20
-14.99999999999998
 30
0.0
 11
-14.5
 21
-15.0
 31
0.0
  0
LINE
  5
22D
330
1F
100
AcDbEntity
  8
vis
100
AcDbLine
 10
-14.5
 20
-15.0
 30
0.0
 11
-14.5
 21
-10.0
 31
0.0
  0
LINE
  5
22E
330
1F
100
AcDbEntity
  8
vis
100
AcDbLine
 10
-14.5
 20
-10.0
 30
0.0
 11
-11.76776695296637
 21
-10.0
 31
0.0
  0
LINE
  5
22F
330
1F
100
AcDbEntity
  8
vis
100
AcDbLine
 10
-11.76776695296637
 20
-10.0
 30
0.0
 11
-7.500000000000002
 21
-14.26776695296637
 31
0.0
  0
LINE
  5
230
330
1F
100
AcDbEntity
  8
vis
100
AcDbLine
 10
-7.500000000000002
 20
-14.26776695296637
 30
0.0
 11
-7.500000000000002
 21
-19.48038475772935
 31
0.0
  0
LINE
  5
231
330
1F
100
AcDbEntity
  8
vis
100
AcDbLine
 10
-7.500000000000002
 20
-19.48038475772935
 30
0.0
 11
-7.200000000000003
 21
-20.00000000000001
 31
0.0
  0
LINE
  5
232
330
1F
100
AcDbEntity
  8
vis
100
AcDbLine
 10
-7.200000000000003
 20
-20.00000000000001
 30
0.0
 11
-7.500000000000002
 21
-20.51961524227066
 31
0.0
  0
LINE
  5
233
330
1F
100
AcDbEntity
  8
vis
100
AcDbLine
 10
-7.500000000000002
 20
-20.51961524227066
 30
0.0
 11
-7.500000000000002
 21
-25.73223304703363
 31
0.0
  0
LINE
  5
234
330
1F
100
AcDbEntity
  8
vis
100
AcDbLine
 10
-7.500000000000002
 20
-25.73223304703363
 30
0.0
 11
-11.76776695296637
 21
-30.0
 31
0.0
  0
LINE
  5
235
330
1F
100
AcDbEntity
  8
vis
100
AcDbLine
 10
-11.76776695296637
 20
-30.0
 30
0.0
 11
-14.5
 21
-30.0
 31
0.0
  0
LINE
  5
236
330
1F
100
AcDbEntity
  8
vis
100
AcDbLine
 10
-14.5
 20
-30.0
 30
0.0
 11
-14.5
 21
-25.0
 31
0.0
  0
LINE
  5
237
330
1F
100
AcDbEntity
  8
vis
100
AcDbLine
 10
-14.5
 20
-25.0
 30
0.0
 11
-20.0
 21
-25.0
 31
0.0
  0
LINE
  5
238
330
1F
100
AcDbEntity
  8
vis
100
AcDbLine
 10
-20.0
 20
-25.0
 30
0.0
 11
-20.0
 21
-37.0
 31
0.0
  0
ARC
  5
239
330
1F
100
AcDbEntity
  8
vis
100
AcDbCircle
 10
-17.00000000000001
 20
-37.00000000000002
 30
0.0
 40
2.999999999999993
100
AcDbArc
 50
180.0
 51
270.0
  0
LINE
  5
23A
330
1F
100
AcDbEntity
  8
vis
100
AcDbLine
 10
-17.00000000000001
 20
-40.00000000000001
 30
0.0
 11
-5.000000000000001
 21
-40.0
 31
0.0
  0
LINE
  5
23B
330
1F
100
AcDbEntity
  8
vis
100
AcDbLine
 10
-5.000000000000001
 20
-40.0
 30
0.0
 11
-5.0
 21
-34.5
 31
0.0
  0
LINE
  5
23C
330
1F
100
AcDbEntity
  8
vis
100
AcDbLine
 10
-5.0
 20
-34.5
 30
0.0
 11
-10.0
 21
-34.5
 31
0.0
  0
LINE
  5
23D
330
1F
100
AcDbEntity
  8
vis
100
AcDbLine
 10
-10.0
 20
-34.5
 30
0.0
 11
-9.999999999999998
 21
-31.76776695296637
 31
0.0
  0
LINE
  5
23E
330
1F
100
AcDbEntity
  8
vis
100
AcDbLine
 10
-9.999999999999998
 20
-31.76776695296637
 30
0.0
 11
-5.732233047033629
 21
-27.5
 31
0.0
  0
LINE
  5
23F
330
1F
100
AcDbEntity
  8
vis
100
AcDbLine
 10
-5.732233047033629
 20
-27.5
 30
0.0
 11
-0.5196152422706604
 21
-27.5
 31
0.0
  0
LINE
  5
240
330
1F
100
AcDbEntity
  8
vis
100
AcDbLine
 10
-0.5196152422706604
 20
-27.5
 30
0.0
 11
0.0000000000000038
 21
-27.2
 31
0.0
  0
LINE
  5
241
330
1F
100
AcDbEntity
  8
vis
100
AcDbLine
 10
0.0000000000000038
 20
-27.2
 30
0.0
 11
0.5196152422706641
 21
-27.5
 31
0.0
  0
LINE
  5
242
330
1F
100
AcDbEntity
  8
vis
100
AcDbLine
 10
0.5196152422706641
 20
-27.5
 30
0.0
 11
5.732233047033601
 21
-27.5
 31
0.0
  0
LINE
  5
243
330
1F
100
AcDbEntity
  8
vis
100
AcDbLine
 10
5.732233047033601
 20
-27.5
 30
0.0
 11
9.999999999999998
 21
-31.7677669529664
 31
0.0
  0
LINE
  5
244
330
1F
100
AcDbEntity
  8
vis
100
AcDbLine
 10
9.999999999999998
 20
-31.7677669529664
 30
0.0
 11
10.0
 21
-34.5
 31
0.0
  0
LINE
  5
245
330
1F
100
AcDbEntity
  8
vis
100
AcDbLine
 10
10.0
 20
-34.5
 30
0.0
 11
5.0
 21
-34.5
 31
0.0
  0
LINE
  5
246
330
1F
100
AcDbEntity
  8
vis
100
AcDbLine
 10
5.0
 20
-34.5
 30
0.0
 11
5.0
 21
-40.0
 31
0.0
  0
LINE
  5
247
330
1F
100
AcDbEntity
  8
vis
100
AcDbLine
 10
5.0
 20
-40.0
 30
0.0
 11
17.0
 21
-40.0
 31
0.0
  0
ARC
  5
248
330
1F
100
AcDbEntity
  8
vis
100
AcDbCircle
 10
17.00000000000002
 20
-37.00000000000002
 30
0.0
 40
2.999999999999979
100
AcDbArc
 50
270.0
 51
0.0000012074182697
  0
LINE
  5
249
330
1F
100
AcDbEntity
  8
vis
100
AcDbLine
 10
20.0
 20
-36.99999995529653
 30
0.0
 11
20.0
 21
-25.0
 31
0.0
  0
LINE
  5
24A
330
1F
100
AcDbEntity
  8
vis
100
AcDbLine
 10
20.0
 20
-25.0
 30
0.0
 11
14.5
 21
-25.0
 31
0.0
  0
LINE
  5
24B
330
1F
100
AcDbEntity
  8
vis
100
AcDbLine
 10
14.5
 20
-25.0
 30
0.0
 11
14.5
 21
-30.0
 31
0.0
  0
LINE
  5
24C
330
1F
100
AcDbEntity
  8
vis
100
AcDbLine
 10
14.5
 20
-30.0
 30
0.0
 11
11.7677669529664
 21
-30.0
 31
0.0
  0
LINE
  5
24D
330
1F
100
AcDbEntity
  8
vis
100
AcDbLine
 10
11.7677669529664
 20
-30.0
 30
0.0
 11
7.500000000000002
 21
-25.7322330470336
 31
0.0
  0
LINE
  5
24E
330
1F
100
AcDbEntity
  8
vis
100
AcDbLine
 10
7.500000000000002
 20
-25.7322330470336
 30
0.0
 11
7.500000000000002
 21
-20.51961524227066
 31
0.0
  0
LINE
  5
24F
330
1F
100
AcDbEntity
  8
vis
100
AcDbLine
 10
7.500000000000002
 20
-20.51961524227066
 30
0.0
 11
7.199999999999998
 21
-19.99999999999999
 31
0.0
  0
LINE
  5
250
330
1F
100
AcDbEntity
  8
vis
100
AcDbLine
 10
7.199999999999998
 20
-19.99999999999999
 30
0.0
 11
7.500000000000002
 21
-19.48038475772933
 31
0.0
  0
LINE
  5
251
330
1F
100
AcDbEntity
  8
vis
100
AcDbLine
 10
7.500000000000002
 20
-19.48038475772933
 30
0.0
 11
7.500000000000002
 21
-14.2677669529664
 31
0.0
  0
LINE
  5
252
330
1F
100
AcDbEntity
  8
vis
100
AcDbLine
 10
7.500000000000002
 20
-14.2677669529664
 30
0.0
 11
11.7677669529664
 21
-10.0
 31
0.0
  0
LINE
  5
253
330
1F
100
AcDbEntity
  8
vis
100
AcDbLine
 10
11.7677669529664
 20
-10.0
 30
0.0
 11
14.5
 21
-10.0
 31
0.0
  0
LINE
  5
254
330
1F
100
AcDbEntity
  8
vis
100
AcDbLine
 10
14.5
 20
-10.0
 30
0.0
 11
14.5
 21
-15.0
 31
0.0
  0
LINE
  5
255
330
1F
100
AcDbEntity
  8
vis
100
AcDbLine
 10
14.5
 20
-15.0
 30
0.0
 11
20.0
 21
-14.99999999999996
 31
0.0
  0
LINE
  5
256
330
1F
100
AcDbEntity
  8
vis
100
AcDbLine
 10
20.0
 20
-14.99999999999996
 30
0.0
 11
20.0
 21
14.99999999999996
 31
0.0
  0
LINE
  5
257
330
1F
100
AcDbEntity
  8
vis
100
AcDbLine
 10
20.0
 20
14.99999999999996
 30
0.0
 11
14.5
 21
15.0
 31
0.0
  0
LINE
  5
258
330
1F
100
AcDbEntity
  8
vis
100
AcDbLine
 10
14.5
 20
15.0
 30
0.0
 11
14.5
 21
10.0
 31
0.0
  0
LINE
  5
259
330
1F
100
AcDbEntity
  8
vis
100
AcDbLine
 10
14.5
 20
10.0
 30
0.0
 11
11.76776695296637
 21
10.0
 31
0.0
  0
LINE
  5
25A
330
1F
100
AcDbEntity
  8
vis
100
AcDbLine
 10
11.76776695296637
 20
10.0
 30
0.0
 11
7.499999999999999
 21
14.2677669529664
 31
0.0
  0
LINE
  5
25B
330
1F
100
AcDbEntity
  8
vis
100
AcDbLine
 10
7.499999999999999
 20
14.2677669529664
 30
0.0
 11
7.499999999999999
 21
19.48038475772934
 31
0.0
  0
LINE
  5
25C
330
1F
100
AcDbEntity
  8
vis
100
AcDbLine
 10
7.499999999999999
 20
19.48038475772934
 30
0.0
 11
7.2
 21
20.00000000000001
 31
0.0
  0
LINE
  5
25D
330
1F
100
AcDbEntity
  8
vis
100
AcDbLine
 10
7.2
 20
20.00000000000001
 30
0.0
 11
7.499999999999999
 21
20.51961524227067
 31
0.0
  0
LINE
  5
25E
330
1F
100
AcDbEntity
  8
vis
100
AcDbLine
 10
7.499999999999999
 20
20.51961524227067
 30
0.0
 11
7.499999999999999
 21
25.7322330470336
 31
0.0
  0
LINE
  5
25F
330
1F
100
AcDbEntity
  8
vis
100
AcDbLine
 10
7.499999999999999
 20
25.7322330470336
 30
0.0
 11
11.76776695296637
 21
30.0
 31
0.0
  0
LINE
  5
260
330
1F
100
AcDbEntity
  8
vis
100
AcDbLine
 10
11.76776695296637
 20
30.0
 30
0.0
 11
14.5
 21
30.0
 31
0.0
  0
LINE
  5
261
330
1F
100
AcDbEntity
  8
vis
100
AcDbLine
 10
14.5
 20
30.0
 30
0.0
 11
14.5
 21
25.0
 31
0.0
  0
LINE
  5
262
330
1F
100
AcDbEntity
  8
vis
100
AcDbLine
 10
14.5
 20
25.0
 30
0.0
 11
20.0
 21
25.0
 31
0.0
  0
LINE
  5
263
330
1F
100
AcDbEntity
  8
vis
100
AcDbLine
 10
20.0
 20
25.0
 30
0.0
 11
20.0
 21
37.0
 31
0.0
  0
ARC
  5
264
330
1F
100
AcDbEntity
  8
vis
100
AcDbCircle
 10
17.00000000000001
 20
37.00000000000002
 30
0.0
 40
2.999999999999993
100
AcDbArc
 50
0.0
 51
90.0
  0
LINE
  5
265
330
1F
100
AcDbEntity
  8
vis
100
AcDbLine
 10
17.00000000000001
 20
40.00000000000001
 30
0.0
 11
5.000000000000001
 21
40.0
 31
0.0
  0
LINE
  5
266
330
1F
100
AcDbEntity
  8
vis
100
AcDbLine
 10
5.000000000000001
 20
40.0
 30
0.0
 11
5.0
 21
34.5
 31
0.0
  0
LINE
  5
267
330
1F
100
AcDbEntity
  8
vis
100
AcDbLine
 10
5.0
 20
34.5
 30
0.0
 11
10.0
 21
34.5
 31
0.0
  0
LINE
  5
268
330
1F
100
AcDbEntity
  8
vis
100
AcDbLine
 10
10.0
 20
34.5
 30
0.0
 11
10.0
 21
31.7677669529664
 31
0.0
  0
LINE
  5
269
330
1F
100
AcDbEntity
  8
vis
100
AcDbLine
 10
10.0
 20
31.7677669529664
 30
0.0
 11
5.732233047033633
 21
27.5
 31
0.0
  0
LINE
  5
26A
330
1F
100
AcDbEntity
  8
vis
100
AcDbLine
 10
5.732233047033633
 20
27.5
 30
0.0
 11
0.5196152422706568
 21
27.5
 31
0.0
  0
LINE
  5
26B
330
1F
100
AcDbEntity
  8
vis
100
AcDbLine
 10
0.5196152422706568
 20
27.5
 30
0.0
 11
-0.0000000000000072
 21
27.2
 31
0.0
  0
LINE
  5
26C
330
1F
100
AcDbEntity
  8
vis
100
AcDbLine
 10
-0.0000000000000072
 20
27.2
 30
0.0
 11
-0.5196152422706675
 21
27.5
 31
0.0
  0
LINE
  5
26D
330
1F
100
AcDbEntity
  8
vis
100
AcDbLine
 10
-0.5196152422706675
 20
27.5
 30
0.0
 11
-5.732233047033632
 21
27.5
 31
0.0
  0
LINE
  5
26E
330
1F
100
AcDbEntity
  8
vis
100
AcDbLine
 10
-5.732233047033632
 20
27.5
 30
0.0
 11
-10.0
 21
31.76776695296637
 31
0.0
  0
LINE
  5
26F
330
1F
100
AcDbEntity
  8
vis
100
AcDbLine
 10
-10.0
 20
31.76776695296637
 30
0.0
 11
-10.0
 21
34.5
 31
0.0
  0
LINE
  5
270
330
1F
100
AcDbEntity
  8
vis
100
AcDbLine
 10
-10.0
 20
34.5
 30
0.0
 11
-5.0
 21
34.5
 31
0.0
  0
LINE
  5
271
330
1F
100
AcDbEntity
  8
vis
100
AcDbLine
 10
-5.0
 20
34.5
 30
0.0
 11
-5.0
 21
40.0
 31
0.0
  0
LINE
  5
272
330
1F
100
AcDbEntity
  8
vis
100
AcDbLine
 10
-5.0
 20
40.0
 30
0.0
 11
-17.0
 21
40.0
 31
0.0
  0
ARC
  5
273
330
1F
100
AcDbEntity
  8
vis
100
AcDbCircle
 10
-17.00000000000001
 20
37.00000000000001
 30
0.0
 40
2.999999999999986
100
AcDbArc
 50
90.0
 51
179.9999991462263
  0
LINE
  5
274
330
1F
100
AcDbEntity
  8
vis
100
AcDbLine
 10
-20.0
 20
37.0000000447035
 30
0.0
 11
-20.0
 21
25.0
 31
0.0
  0
LINE
  5
275
330
1F
100
AcDbEntity
  8
vis
100
AcDbLine
 10
-20.0
 20
25.0
 30
0.0
 11
-14.5
 21
25.0
 31
0.0
  0
LINE
  5
276
330
1F
100
AcDbEntity
  8
vis
100
AcDbLine
 10
-14.5
 20
25.0
 30
0.0
 11
-14.5
 21
30.0
 31
0.0
  0
LINE
  5
277
330
1F
100
AcDbEntity
  8
vis
100
AcDbLine
 10
-14.5
 20
30.0
 30
0.0
 11
-11.76776695296637
 21
30.0
 31
0.0
  0
LINE
  5
278
330
1F
100
AcDbEntity
  8
vis
100
AcDbLine
 10
-11.76776695296637
 20
30.0
 30
0.0
 11
-7.499999999999999
 21
25.73223304703363
 31
0.0
  0
LINE
  5
279
330
1F
100
AcDbEntity
  8
vis
100
AcDbLine
 10
-7.499999999999999
 20
25.73223304703363
 30
0.0
 11
-7.499999999999999
 21
20.51961524227066
 31
0.0
  0
LINE
  5
27A
330
1F
100
AcDbEntity
  8
vis
100
AcDbLine
 10
-7.499999999999999
 20
20.51961524227066
 30
0.0
 11
-7.2
 21
19.99999999999999
 31
0.0
  0
LINE
  5
27B
330
1F
100
AcDbEntity
  8
vis
100
AcDbLine
 10
-7.2
 20
19.99999999999999
 30
0.0
 11
-7.499999999999999
 21
19.48038475772933
 31
0.0
  0
LINE
  5
27C
330
1F
100
AcDbEntity
  8
vis
100
AcDbLine
 10
-7.499999999999999
 20
19.48038475772933
 30
0.0
 11
-7.499999999999999
 21
14.26776695296637
 31
0.0
  0
LINE
  5
27D
330
1F
100
AcDbEntity
  8
vis
100
AcDbLine
 10
-7.499999999999999
 20
14.26776695296637
 30
0.0
 11
-11.76776695296637
 21
10.0
 31
0.0
  0
LINE
  5
27E
330
1F
100
AcDbEntity
  8
vis
100
AcDbLine
 10
-11.76776695296637
 20
10.0
 30
0.0
 11
-14.5
 21
10.0
 31
0.0
  0
LINE
  5
27F
330
1F
100
AcDbEntity
  8
vis
100
AcDbLine
 10
-14.5
 20
15.0
 30
0.0
 11
-20.0
 21
14.99999999999999
 31
0.0
  0
ARC
  5
280
330
1F
100
AcDbEntity
  8
vis
100
AcDbCircle
 10
-4.596194077712564
 20
-15.40380592228744
 30
0.0
 40
1.0
100
AcDbArc
 50
1.020738521721753
 51
268.9792629724212
  0
ARC
  5
281
330
1F
100
AcDbEntity
  8
vis
100
AcDbCircle
 10
-3.216413064957402
 20
-15.37922225209096
 30
0.0
 40
0.3800000000000004
100
AcDbArc
 50
181.0207277253194
 51
304.8408549529242
  0
ARC
  5
282
330
1F
100
AcDbEntity
  8
vis
100
AcDbCircle
 10
-0.0000000000000002
 20
-19.99999999999999
 30
0.0
 40
5.249999999999993
100
AcDbArc
 50
55.15914532281737
 51
124.8408549529243
  0
ARC
  5
283
330
1F
100
AcDbEntity
  8
vis
100
AcDbCircle
 10
3.216413064957398
 20
-15.37922225209097
 30
0.0
 40
0.379999999999997
100
AcDbArc
 50
235.1591412374866
 51
358.9792683427261
  0
ARC
  5
284
330
1F
100
AcDbEntity
  8
vis
100
AcDbCircle
 10
4.59619407771256
 20
-15.40380592228744
 30
0.0
 40
1.000000000000002
100
AcDbArc
 50
271.0207385217222
 51
178.9792629724217
  0
ARC
  5
285
330
1F
100
AcDbEntity
  8
vis
100
AcDbCircle
 10
4.620777747909036
 20
-16.7835869350426
 30
0.0
 40
0.3799999999999985
100
AcDbArc
 50
91.02072772531807
 51
214.8408549529239
  0
ARC
  5
286
330
1F
100
AcDbEntity
  8
vis
100
AcDbCircle
 10
0.0000000000000098
 20
-20.0
 30
0.0
 40
5.24999999999999
100
AcDbArc
 50
325.1591453228174
 51
34.8408549529244
  0
ARC
  5
287
330
1F
100
AcDbEntity
  8
vis
100
AcDbCircle
 10
4.62077774790904
 20
-23.2164130649574
 30
0.0
 40
0.3800000000000001
100
AcDbArc
 50
145.1591412374869
 51
268.9792683427252
  0
ARC
  5
288
330
1F
100
AcDbEntity
  8
vis
100
AcDbCircle
 10
4.596194077712563
 20
-24.59619407771256
 30
0.0
 40
1.000000000000001
100
AcDbArc
 50
181.0207385217217
 51
88.97926297242128
  0
ARC
  5
289
330
1F
100
AcDbEntity
  8
vis
100
AcDbCircle
 10
3.216413064957399
 20
-24.62077774790905
 30
0.0
 40
0.3800000000000022
100
AcDbArc
 50
1.020727725319378
 51
124.8408549529233
  0
ARC
  5
28A
330
1F
100
AcDbEntity
  8
vis
100
AcDbCircle
 10
0.0000000000000007
 20
-20.0
 30
0.0
 40
5.250000000000003
100
AcDbArc
 50
235.1591453228174
 51
304.8408549529242
  0
ARC
  5
28B
330
1F
100
AcDbEntity
  8
vis
100
AcDbCircle
 10
-3.216413064957399
 20
-24.62077774790904
 30
0.0
 40
0.3799999999999991
100
AcDbArc
 50
55.15914123748662
 51
178.9792683427258
  0
ARC
  5
28C
330
1F
100
AcDbEntity
  8
vis
100
AcDbCircle
 10
-4.596194077712562
 20
-24.59619407771256
 30
0.0
 40
0.999999999999997
100
AcDbArc
 50
91.02073852172211
 51
358.9792629724209
  0
ARC
  5
28D
330
1F
100
AcDbEntity
  8
vis
100
AcDbCircle
 10
-4.620777747909035
 20
-23.2164130649574
 30
0.0
 40
0.3799999999999985
100
AcDbArc
 50
271.0207277253178
 51
34.84085495292541
  0
ARC
  5
28E
330
1F
100
AcDbEntity
  8
vis
100
AcDbCircle
 10
0.0000000000000124
 20
-20.0
 30
0.0
 40
5.25000000000001
100
AcDbArc
 50
145.1591450470759
 51
214.8408549529242
  0
ARC
  5
28F
330
1F
100
AcDbEntity
  8
vis
100
AcDbCircle
 10
-4.620777747909043
 20
-16.78358693504261
 30
0.0
 40
0.3799999999999962
100
AcDbArc
 50
325.1591450470758
 51
88.97926834272516
  0
POINT
  5
290
330
1F
100
AcDbEntity
  8
ConnectionPoints
  6
Continuous
 62
     1
370
     5
100
AcDbPoint
 10
0.0
 20
0.0
 30
0.0
  0
POINT
  5
291
330
1F
100
AcDbEntity
  8
ConnectionPoints
  6
Continuous
 62
     1
370
     5
100
AcDbPoint
 10
0.0
 20
0.0
 30
0.0
  0
POINT
  5
292
330
1F
100
AcDbEntity
  8
ConnectionPoints
  6
Continuous
 62
     1
370
     5
100
AcDbPoint
 10
0.0
 20
0.0
 30
-4000.0
  0
ENDSEC
  0
SECTION
  2
OBJECTS
  0
DICTIONARY
  5
C
330
0
100
AcDbDictionary
281
     1
  3
ACAD_DETAILVIEWSTYLE
350
297
  3
ACAD_GROUP
350
D
  3
ACAD_LAYOUT
350
1A
  3
ACAD_MATERIAL
350
43
  3
ACAD_MLEADERSTYLE
350
296
  3
ACAD_MLINESTYLE
350
17
  3
ACAD_PLOTSETTINGS
350
19
  3
ACAD_PLOTSTYLENAME
350
E
  3
ACAD_SCALELIST
350
47
  3
ACAD_SECTIONVIEWSTYLE
350
298
  3
ACAD_TABLESTYLE
350
295
  3
ACAD_VISUALSTYLE
350
2A
  3
AcDbVariableDictionary
350
293
  0
SUN
  5
69
330
29
100
AcDbSun
 90
        1
290
     0
 63
     7
421
 16777215
 40
1.0
291
     1
 91
  2455826
 92
 54000000
292
     0
 70
     2
 71
   256
280
     1
  0
DICTIONARY
  5
297
102
{ACAD_REACTORS
330
C
102
}
330
C
100
AcDbDictionary
281
     1
  0
DICTIONARY
  5
D
102
{ACAD_REACTORS
330
C
102
}
330
C
100
AcDbDictionary
281
     1
  0
DICTIONARY
  5
1A
102
{ACAD_REACTORS
330
C
102
}
330
C
100
AcDbDictionary
281
     1
  3
Layout1
350
1E
  3
Layout2
350
26
  3
Model
350
22
  0
DICTIONARY
  5
43
102
{ACAD_REACTORS
330
C
102
}
330
C
100
AcDbDictionary
281
     1
  3
ByBlock
350
45
  3
ByLayer
350
44
  3
Global
350
46
  0
DICTIONARY
  5
296
102
{ACAD_REACTORS
330
C
102
}
330
C
100
AcDbDictionary
281
     1
  0
DICTIONARY
  5
17
102
{ACAD_REACTORS
330
C
102
}
330
C
100
AcDbDictionary
281
     1
  3
Standard
350
18
  0
DICTIONARY
  5
19
102
{ACAD_REACTORS
330
C
102
}
330
C
100
AcDbDictionary
281
     1
  0
ACDBDICTIONARYWDFLT
  5
E
102
{ACAD_REACTORS
330
C
102
}
330
C
100
AcDbDictionary
281
     1
  3
Normal
350
F
100
AcDbDictionaryWithDefault
340
F
  0
DICTIONARY
  5
47
102
{ACAD_REACTORS
330
C
102
}
330
C
100
AcDbDictionary
281
     1
  3
A0
350
48
  3
A1
350
49
  3
A2
350
4A
  3
A3
350
4B
  3
A4
350
4C
  3
A5
350
4D
  3
A6
350
4E
  3
A7
350
4F
  3
A8
350
50
  3
A9
350
51
  3
B0
350
52
  3
B1
350
53
  3
B2
350
54
  3
B3
350
55
  3
B4
350
56
  3
B5
350
57
  3
B6
350
58
  3
B7
350
59
  3
B8
350
5A
  3
B9
350
5B
  3
C0
350
5C
  3
C1
350
5D
  3
C2
350
5E
  3
C3
350
5F
  3
C4
350
60
  3
C5
350
61
  3
C6
350
62
  3
C7
350
63
  3
C8
350
64
  3
C9
350
65
  3
D0
350
66
  3
D1
350
67
  3
D2
350
68
  0
DICTIONARY
  5
298
102
{ACAD_REACTORS
330
C
102
}
330
C
100
AcDbDictionary
281
     1
  0
DICTIONARY
  5
295
102
{ACAD_REACTORS
330
C
102
}
330
C
100
AcDbDictionary
281
     1
  0
DICTIONARY
  5
2A
102
{ACAD_REACTORS
330
C
102
}
330
C
100
AcDbDictionary
281
     1
  3
2dWireframe
350
2F
  3
Basic
350
32
  3
Brighten
350
36
  3
ColorChange
350
3A
  3
Conceptual
350
34
  3
Dim
350
35
  3
EdgeColorOff
350
3D
  3
Facepattern
350
39
  3
Flat
350
2B
  3
FlatWithEdges
350
2C
  3
Gouraud
350
2D
  3
GouraudWithEdges
350
2E
  3
Hidden
350
31
  3
JitterOff
350
3B
  3
Linepattern
350
38
  3
OverhangOff
350
3C
  3
Realistic
350
33
  3
Shaded
350
42
  3
Shaded with edges
350
41
  3
Shades of Gray
350
3E
  3
Sketchy
350
3F
  3
Thicken
350
37
  3
Wireframe
350
30
  3
X-Ray
350
40
  0
DICTIONARY
  5
293
102
{ACAD_REACTORS
330
C
102
}
330
C
100
AcDbDictionary
281
     1
  3
CANNOSCALE
350
294
  0
LAYOUT
  5
1E
102
{ACAD_REACTORS
330
1A
102
}
330
1A
100
AcDbPlotSettings
  1

  2
none_device
  4

  6

 40
0.0
 41
0.0
 42
0.0
 43
0.0
 44
0.0
 45
0.0
 46
0.0
 47
0.0
 48
0.0
 49
0.0
140
0.0
141
0.0
142
1.0
143
1.0
 70
   688
 72
     1
 73
     0
 74
     5
  7

 75
    16
 76
     0
 77
     2
 78
   300
147
1.0
148
0.0
149
0.0
100
AcDbLayout
  1
Layout1
 70
     1
 71
     1
 10
0.0
 20
0.0
 11
420.0
 21
297.0
 12
0.0
 22
0.0
 32
0.0
 14
1.000000000000000E+20
 24
1.000000000000000E+20
 34
1.000000000000000E+20
 15
-1.000000000000000E+20
 25
-1.000000000000000E+20
 35
-1.000000000000000E+20
146
0.0
 13
0.0
 23
0.0
 33
0.0
 16
1.0
 26
0.0
 36
0.0
 17
0.0
 27
1.0
 37
0.0
 76
     0
330
1B
  0
LAYOUT
  5
26
102
{ACAD_REACTORS
330
1A
102
}
330
1A
100
AcDbPlotSettings
  1

  2
none_device
  4

  6

 40
0.0
 41
0.0
 42
0.0
 43
0.0
 44
0.0
 45
0.0
 46
0.0
 47
0.0
 48
0.0
 49
0.0
140
0.0
141
0.0
142
1.0
143
1.0
 70
   688
 72
     1
 73
     0
 74
     5
  7

 75
    16
 76
     0
 77
     2
 78
   300
147
1.0
148
0.0
149
0.0
100
AcDbLayout
  1
Layout2
 70
     1
 71
     2
 10
0.0
 20
0.0
 11
0.0
 21
0.0
 12
0.0
 22
0.0
 32
0.0
 14
0.0
 24
0.0
 34
0.0
 15
0.0
 25
0.0
 35
0.0
146
0.0
 13
0.0
 23
0.0
 33
0.0
 16
1.0
 26
0.0
 36
0.0
 17
0.0
 27
1.0
 37
0.0
 76
     0
330
23
  0
LAYOUT
  5
22
102
{ACAD_REACTORS
330
1A
102
}
330
1A
100
AcDbPlotSettings
  1

  2
none_device
  4
Letter_(8.50_x_11.00_Inches)
  6

 40
6.35
 41
6.35
 42
6.35000508
 43
6.35000508
 44
215.9
 45
279.4
 46
0.0
 47
0.0
 48
0.0
 49
0.0
140
0.0
141
0.0
142
1.0
143
1.0
 70
  1712
 72
     1
 73
     0
 74
     0
  7

 75
     0
 76
     0
 77
     2
 78
   300
147
1.0
148
0.0
149
0.0
100
AcDbLayout
  1
Model
 70
     1
 71
     0
 10
0.0
 20
0.0
 11
420.0
 21
297.0
 12
0.0
 22
0.0
 32
0.0
 14
1.000000000000000E+20
 24
1.000000000000000E+20
 34
1.000000000000000E+20
 15
-1.000000000000000E+20
 25
-1.000000000000000E+20
 35
-1.000000000000000E+20
146
0.0
 13
0.0
 23
0.0
 33
0.0
 16
1.0
 26
0.0
 36
0.0
 17
0.0
 27
1.0
 37
0.0
 76
     0
330
1F
331
29
  0
MATERIAL
  5
45
102
{ACAD_REACTORS
330
43
102
}
330
43
100
AcDbMaterial
  1
ByBlock
 72
     1
 94
      127
  0
MATERIAL
  5
44
102
{ACAD_REACTORS
330
43
102
}
330
43
100
AcDbMaterial
  1
ByLayer
 72
     1
 94
      127
  0
MATERIAL
  5
46
102
{ACAD_REACTORS
330
43
102
}
330
43
100
AcDbMaterial
  1
Global
 72
     1
 94
      127
  0
MLINESTYLE
  5
18
102
{ACAD_REACTORS
330
17
102
}
330
17
100
AcDbMlineStyle
  2
Standard
 70
     0
  3

 62
   256
 51
90.0
 52
90.0
 71
     2
 49
0.5
 62
   256
  6
BYLAYER
 49
-0.5
 62
   256
  6
BYLAYER
  0
ACDBPLACEHOLDER
  5
F
102
{ACAD_REACTORS
330
E
102
}
330
E
  0
SCALE
  5
48
102
{ACAD_REACTORS
330
47
102
}
330
47
100
AcDbScale
 70
     0
300
1:1
140
1.0
141
1.0
290
     1
  0
SCALE
  5
49
102
{ACAD_REACTORS
330
47
102
}
330
47
100
AcDbScale
 70
     0
300
1:2
140
1.0
141
2.0
290
     0
  0
SCALE
  5
4A
102
{ACAD_REACTORS
330
47
102
}
330
47
100
AcDbScale
 70
     0
300
1:4
140
1.0
141
4.0
290
     0
  0
SCALE
  5
4B
102
{ACAD_REACTORS
330
47
102
}
330
47
100
AcDbScale
 70
     0
300
1:5
140
1.0
141
5.0
290
     0
  0
SCALE
  5
4C
102
{ACAD_REACTORS
330
47
102
}
330
47
100
AcDbScale
 70
     0
300
1:8
140
1.0
141
8.0
290
     0
  0
SCALE
  5
4D
102
{ACAD_REACTORS
330
47
102
}
330
47
100
AcDbScale
 70
     0
300
1:10
140
1.0
141
10.0
290
     0
  0
SCALE
  5
4E
102
{ACAD_REACTORS
330
47
102
}
330
47
100
AcDbScale
 70
     0
300
1:16
140
1.0
141
16.0
290
     0
  0
SCALE
  5
4F
102
{ACAD_REACTORS
330
47
102
}
330
47
100
AcDbScale
 70
     0
300
1:20
140
1.0
141
20.0
290
     0
  0
SCALE
  5
50
102
{ACAD_REACTORS
330
47
102
}
330
47
100
AcDbScale
 70
     0
300
1:30
140
1.0
141
30.0
290
     0
  0
SCALE
  5
51
102
{ACAD_REACTORS
330
47
102
}
330
47
100
AcDbScale
 70
     0
300
1:40
140
1.0
141
40.0
290
     0
  0
SCALE
  5
52
102
{ACAD_REACTORS
330
47
102
}
330
47
100
AcDbScale
 70
     0
300
1:50
140
1.0
141
50.0
290
     0
  0
SCALE
  5
53
102
{ACAD_REACTORS
330
47
102
}
330
47
100
AcDbScale
 70
     0
300
1:100
140
1.0
141
100.0
290
     0
  0
SCALE
  5
54
102
{ACAD_REACTORS
330
47
102
}
330
47
100
AcDbScale
 70
     0
300
2:1
140
2.0
141
1.0
290
     0
  0
SCALE
  5
55
102
{ACAD_REACTORS
330
47
102
}
330
47
100
AcDbScale
 70
     0
300
4:1
140
4.0
141
1.0
290
     0
  0
SCALE
  5
56
102
{ACAD_REACTORS
330
47
102
}
330
47
100
AcDbScale
 70
     0
300
8:1
140
8.0
141
1.0
290
     0
  0
SCALE
  5
57
102
{ACAD_REACTORS
330
47
102
}
330
47
100
AcDbScale
 70
     0
300
10:1
140
10.0
141
1.0
290
     0
  0
SCALE
  5
58
102
{ACAD_REACTORS
330
47
102
}
330
47
100
AcDbScale
 70
     0
300
100:1
140
100.0
141
1.0
290
     0
  0
SCALE
  5
59
102
{ACAD_REACTORS
330
47
102
}
330
47
100
AcDbScale
 70
     0
300
1/128" = 1'-0"
140
0.0078125
141
12.0
290
     0
  0
SCALE
  5
5A
102
{ACAD_REACTORS
330
47
102
}
330
47
100
AcDbScale
 70
     0
300
1/64" = 1'-0"
140
0.015625
141
12.0
290
     0
  0
SCALE
  5
5B
102
{ACAD_REACTORS
330
47
102
}
330
47
100
AcDbScale
 70
     0
300
1/32" = 1'-0"
140
0.03125
141
12.0
290
     0
  0
SCALE
  5
5C
102
{ACAD_REACTORS
330
47
102
}
330
47
100
AcDbScale
 70
     0
300
1/16" = 1'-0"
140
0.0625
141
12.0
290
     0
  0
SCALE
  5
5D
102
{ACAD_REACTORS
330
47
102
}
330
47
100
AcDbScale
 70
     0
300
3/32" = 1'-0"
140
0.09375
141
12.0
290
     0
  0
SCALE
  5
5E
102
{ACAD_REACTORS
330
47
102
}
330
47
100
AcDbScale
 70
     0
300
1/8" = 1'-0"
140
0.125
141
12.0
290
     0
  0
SCALE
  5
5F
102
{ACAD_REACTORS
330
47
102
}
330
47
100
AcDbScale
 70
     0
300
3/16" = 1'-0"
140
0.1875
141
12.0
290
     0
  0
SCALE
  5
60
102
{ACAD_REACTORS
330
47
102
}
330
47
100
AcDbScale
 70
     0
300
1/4" = 1'-0"
140
0.25
141
12.0
290
     0
  0
SCALE
  5
61
102
{ACAD_REACTORS
330
47
102
}
330
47
100
AcDbScale
 70
     0
300
3/8" = 1'-0"
140
0.375
141
12.0
290
     0
  0
SCALE
  5
62
102
{ACAD_REACTORS
330
47
102
}
330
47
100
AcDbScale
 70
     0
300
1/2" = 1'-0"
140
0.5
141
12.0
290
     0
  0
SCALE
  5
63
102
{ACAD_REACTORS
330
47
102
}
330
47
100
AcDbScale
 70
     0
300
3/4" = 1'-0"
140
0.75
141
12.0
290
     0
  0
SCALE
  5
64
102
{ACAD_REACTORS
330
47
102
}
330
47
100
AcDbScale
 70
     0
300
1" = 1'-0"
140
1.0
141
12.0
290
     0
  0
SCALE
  5
65
102
{ACAD_REACTORS
330
47
102
}
330
47
100
AcDbScale
 70
     0
300
1-1/2" = 1'-0"
140
1.5
141
12.0
290
     0
  0
SCALE
  5
66
102
{ACAD_REACTORS
330
47
102
}
330
47
100
AcDbScale
 70
     0
300
3" = 1'-0"
140
3.0
141
12.0
290
     0
  0
SCALE
  5
67
102
{ACAD_REACTORS
330
47
102
}
330
47
100
AcDbScale
 70
     0
300
6" = 1'-0"
140
6.0
141
12.0
290
     0
  0
SCALE
  5
68
102
{ACAD_REACTORS
330
47
102
}
330
47
100
AcDbScale
 70
     0
300
1'-0" = 1'-0"
140
12.0
141
12.0
290
     0
  0
VISUALSTYLE
  5
2F
102
{ACAD_REACTORS
330
2A
102
}
330
2A
100
AcDbVisualStyle
  2
2dWireframe
 70
     4
177
     3
291
     0
 70
    58
 90
        0
176
     1
 90
        2
176
     1
 90
        0
176
     1
 90
        0
176
     1
 40
0.6
176
     1
 40
30.0
176
     1
 62
     7
420
 16777215
176
     1
 90
        1
176
     1
 90
        4
176
     1
 62
     7
176
     1
 62
   257
176
     1
 90
        1
176
     1
 90
        1
176
     1
 40
1.0
176
     1
 90
        0
176
     1
 62
   257
176
     1
 40
1.0
176
     1
 90
        1
176
     1
 90
        6
176
     1
 90
        2
176
     1
 62
     7
176
     1
 90
        5
176
     1
 90
        0
176
     1
 90
        0
176
     1
290
     0
176
     1
 90
        1
176
     1
 40
0.0
176
     1
 90
        0
176
     1
290
     1
176
     1
290
     1
176
     1
290
     0
176
     1
290
     0
176
     1
290
     0
176
     1
290
     0
176
     1
290
     0
176
     1
290
     0
176
     1
290
     0
176
     1
 90
       50
176
     1
 40
0.0
176
     1
 40
1.0
176
     1
 90
        0
176
     1
 62
    18
420
        0
176
     1
 90
       50
176
     1
 90
        3
176
     1
 62
     5
420
      255
176
     1
290
     0
176
     1
 90
       50
176
     1
 90
       50
176
     1
 90
       50
176
     1
290
     0
176
     1
 90
       50
176
     1
 62
   256
176
     0
 40
1.0
176
     0
 90
        2
176
     1
  1
strokes_ogs.tif
176
     1
290
     0
176
     1
 40
1.0
176
     1
 40
1.0
176
     1
  0
VISUALSTYLE
  5
32
102
{ACAD_REACTORS
330
2A
102
}
330
2A
100
AcDbVisualStyle
  2
Basic
 70
     7
177
     3
291
     1
 70
    58
 90
        1
176
     1
 90
        0
176
     1
 90
        1
176
     1
 90
        0
176
     1
 40
0.6
176
     1
 40
30.0
176
     1
 62
     7
420
 16777215
176
     1
 90
        0
176
     1
 90
        4
176
     1
 62
     7
176
     1
 62
   257
176
     1
 90
        1
176
     1
 90
        1
176
     1
 40
1.0
176
     1
 90
        8
176
     1
 62
     7
176
     1
 40
1.0
176
     1
 90
        1
176
     1
 90
        6
176
     1
 90
        2
176
     1
 62
     7
176
     1
 90
        5
176
     1
 90
        0
176
     1
 90
        0
176
     1
290
     0
176
     1
 90
        1
176
     1
 40
0.0
176
     1
 90
        0
176
     1
290
     0
176
     1
290
     1
176
     1
290
     1
176
     1
290
     0
176
     1
290
     0
176
     1
290
     0
176
     1
290
     0
176
     1
290
     0
176
     1
290
     0
176
     1
 90
       50
176
     1
 40
0.0
176
     1
 40
1.0
176
     1
 90
        0
176
     1
 62
    18
420
        0
176
     1
 90
       50
176
     1
 90
        3
176
     1
 62
     5
420
      255
176
     1
290
     0
176
     1
 90
       50
176
     1
 90
       50
176
     1
 90
       50
176
     1
290
     0
176
     1
 90
       50
176
     1
 62
   256
176
     0
 40
1.0
176
     0
 90
        2
176
     1
  1
strokes_ogs.tif
176
     1
290
     0
176
     1
 40
1.0
176
     1
 40
1.0
176
     1
  0
VISUALSTYLE
  5
36
102
{ACAD_REACTORS
330
2A
102
}
330
2A
100
AcDbVisualStyle
  2
Brighten
 70
    12
177
     3
291
     1
 70
    58
 90
        2
176
     1
 90
        2
176
     1
 90
        0
176
     1
 90
        0
176
     1
 40
0.6
176
     1
 40
30.0
176
     1
 62
     7
420
 16777215
176
     1
 90
        1
176
     1
 90
        4
176
     1
 62
     7
176
     1
 62
   257
176
     1
 90
        1
176
     1
 90
        1
176
     1
 40
1.0
176
     1
 90
        8
176
     1
 62
     7
176
     1
 40
1.0
176
     1
 90
        1
176
     1
 90
        6
176
     1
 90
        2
176
     1
 62
     7
176
     1
 90
        5
176
     1
 90
        0
176
     1
 90
        0
176
     1
290
     0
176
     1
 90
        1
176
     1
 40
50.0
176
     1
 90
        0
176
     1
290
     0
176
     1
290
     1
176
     1
290
     1
176
     1
290
     0
176
     1
290
     0
176
     1
290
     0
176
     1
290
     0
176
     1
290
     0
176
     1
290
     0
176
     1
 90
       50
176
     1
 40
0.0
176
     1
 40
1.0
176
     1
 90
        0
176
     1
 62
    18
420
        0
176
     1
 90
       50
176
     1
 90
        3
176
     1
 62
     5
420
      255
176
     1
290
     0
176
     1
 90
       50
176
     1
 90
       50
176
     1
 90
       50
176
     1
290
     0
176
     1
 90
       50
176
     1
 62
   256
176
     0
 40
1.0
176
     0
 90
        2
176
     1
  1
strokes_ogs.tif
176
     1
290
     0
176
     1
 40
1.0
176
     1
 40
1.0
176
     1
  0
VISUALSTYLE
  5
3A
102
{ACAD_REACTORS
330
2A
102
}
330
2A
100
AcDbVisualStyle
  2
ColorChange
 70
    16
177
     3
291
     1
 70
    58
 90
        2
176
     1
 90
        2
176
     1
 90
        3
176
     1
 90
        0
176
     1
 40
0.6
176
     1
 40
30.0
176
     1
 62
     8
420
  8421504
176
     1
 90
        1
176
     1
 90
        4
176
     1
 62
     7
176
     1
 62
   257
176
     1
 90
        1
176
     1
 90
        1
176
     1
 40
1.0
176
     1
 90
        8
176
     1
 62
     8
420
  8421504
176
     1
 40
1.0
176
     1
 90
        1
176
     1
 90
        6
176
     1
 90
        2
176
     1
 62
     7
176
     1
 90
        5
176
     1
 90
        0
176
     1
 90
        0
176
     1
290
     0
176
     1
 90
        1
176
     1
 40
0.0
176
     1
 90
        0
176
     1
290
     0
176
     1
290
     1
176
     1
290
     1
176
     1
290
     0
176
     1
290
     0
176
     1
290
     0
176
     1
290
     0
176
     1
290
     0
176
     1
290
     0
176
     1
 90
       50
176
     1
 40
0.0
176
     1
 40
1.0
176
     1
 90
        0
176
     1
 62
    18
420
        0
176
     1
 90
       50
176
     1
 90
        3
176
     1
 62
     5
420
      255
176
     1
290
     0
176
     1
 90
       50
176
     1
 90
       50
176
     1
 90
       50
176
     1
290
     0
176
     1
 90
       50
176
     1
 62
   256
176
     0
 40
1.0
176
     0
 90
        2
176
     1
  1
strokes_ogs.tif
176
     1
290
     0
176
     1
 40
1.0
176
     1
 40
1.0
176
     1
  0
VISUALSTYLE
  5
34
102
{ACAD_REACTORS
330
2A
102
}
330
2A
100
AcDbVisualStyle
  2
Conceptual
 70
     9
177
     3
291
     0
 70
    58
 90
        3
176
     1
 90
        2
176
     1
 90
        0
176
     1
 90
        0
176
     1
 40
0.6
176
     1
 40
30.0
176
     1
 62
     7
420
 16777215
176
     1
 90
        2
176
     1
 90
        2
176
     1
 62
     7
176
     1
 62
   257
176
     1
 90
        1
176
     1
 90
        1
176
     1
 40
179.0
176
     1
 90
        8
176
     1
 62
     7
176
     1
 40
1.0
176
     1
 90
        1
176
     1
 90
        6
176
     1
 90
        2
176
     1
 62
     7
176
     1
 90
        3
176
     1
 90
        0
176
     1
 90
        0
176
     1
290
     0
176
     1
 90
        1
176
     1
 40
0.0
176
     1
 90
        0
176
     1
290
     0
176
     1
290
     1
176
     1
290
     1
176
     1
290
     0
176
     1
290
     0
176
     1
290
     0
176
     1
290
     0
176
     1
290
     0
176
     1
290
     0
176
     1
 90
       50
176
     1
 40
0.0
176
     1
 40
1.0
176
     1
 90
        0
176
     1
 62
    18
420
        0
176
     1
 90
       50
176
     1
 90
        3
176
     1
 62
     5
420
      255
176
     1
290
     0
176
     1
 90
       50
176
     1
 90
       50
176
     1
 90
       50
176
     1
290
     0
176
     1
 90
       50
176
     1
 62
   256
176
     0
 40
1.0
176
     0
 90
        2
176
     1
  1
strokes_ogs.tif
176
     1
290
     0
176
     1
 40
1.0
176
     1
 40
1.0
176
     1
  0
VISUALSTYLE
  5
35
102
{ACAD_REACTORS
330
2A
102
}
330
2A
100
AcDbVisualStyle
  2
Dim
 70
    11
177
     3
291
     1
 70
    58
 90
        2
176
     1
 90
        2
176
     1
 90
        0
176
     1
 90
        0
176
     1
 40
0.6
176
     1
 40
30.0
176
     1
 62
     7
420
 16777215
176
     1
 90
        1
176
     1
 90
        4
176
     1
 62
     7
176
     1
 62
   257
176
     1
 90
        1
176
     1
 90
        1
176
     1
 40
1.0
176
     1
 90
        8
176
     1
 62
     7
176
     1
 40
1.0
176
     1
 90
        1
176
     1
 90
        6
176
     1
 90
        2
176
     1
 62
     7
176
     1
 90
        5
176
     1
 90
        0
176
     1
 90
        0
176
     1
290
     0
176
     1
 90
        1
176
     1
 40
-50.0
176
     1
 90
        0
176
     1
290
     0
176
     1
290
     1
176
     1
290
     1
176
     1
290
     0
176
     1
290
     0
176
     1
290
     0
176
     1
290
     0
176
     1
290
     0
176
     1
290
     0
176
     1
 90
       50
176
     1
 40
0.0
176
     1
 40
1.0
176
     1
 90
        0
176
     1
 62
    18
420
        0
176
     1
 90
       50
176
     1
 90
        3
176
     1
 62
     5
420
      255
176
     1
290
     0
176
     1
 90
       50
176
     1
 90
       50
176
     1
 90
       50
176
     1
290
     0
176
     1
 90
       50
176
     1
 62
   256
176
     0
 40
1.0
176
     0
 90
        2
176
     1
  1
strokes_ogs.tif
176
     1
290
     0
176
     1
 40
1.0
176
     1
 40
1.0
176
     1
  0
VISUALSTYLE
  5
3D
102
{ACAD_REACTORS
330
2A
102
}
330
2A
100
AcDbVisualStyle
  2
EdgeColorOff
 70
    22
177
     3
291
     1
 70
    58
 90
        2
176
     0
 90
        2
176
     0
 90
        0
176
     0
 90
        0
176
     0
 40
0.6
176
     0
 40
30.0
176
     0
 62
     7
420
 16777215
176
     0
 90
        1
176
     0
 90
        4
176
     0
 62
     7
176
     0
 62
   257
176
     0
 90
        1
176
     0
 90
        1
176
     0
 40
1.0
176
     0
 90
        8
176
     2
 62
     7
176
     0
 40
1.0
176
     0
 90
        1
176
     0
 90
        6
176
     0
 90
        2
176
     0
 62
     7
176
     0
 90
        5
176
     0
 90
        0
176
     0
 90
        0
176
     0
290
     0
176
     0
 90
        1
176
     0
 40
0.0
176
     0
 90
        0
176
     0
290
     0
176
     0
290
     1
176
     0
290
     1
176
     0
290
     0
176
     0
290
     0
176
     0
290
     0
176
     0
290
     0
176
     0
290
     0
176
     0
290
     0
176
     0
 90
       50
176
     0
 40
0.0
176
     0
 40
1.0
176
     0
 90
        0
176
     0
 62
    18
420
        0
176
     0
 90
       50
176
     0
 90
        3
176
     0
 62
     5
420
      255
176
     0
290
     0
176
     0
 90
       50
176
     0
 90
       50
176
     0
 90
       50
176
     0
290
     0
176
     0
 90
       50
176
     0
 62
   256
176
     0
 40
1.0
176
     0
 90
        2
176
     0
  1
strokes_ogs.tif
176
     0
290
     0
176
     0
 40
1.0
176
     0
 40
1.0
176
     0
  0
VISUALSTYLE
  5
39
102
{ACAD_REACTORS
330
2A
102
}
330
2A
100
AcDbVisualStyle
  2
Facepattern
 70
    15
177
     3
291
     1
 70
    58
 90
        2
176
     1
 90
        2
176
     1
 90
        0
176
     1
 90
        0
176
     1
 40
0.6
176
     1
 40
30.0
176
     1
 62
     7
420
 16777215
176
     1
 90
        1
176
     1
 90
        4
176
     1
 62
     7
176
     1
 62
   257
176
     1
 90
        1
176
     1
 90
        1
176
     1
 40
1.0
176
     1
 90
        8
176
     1
 62
     7
176
     1
 40
1.0
176
     1
 90
        1
176
     1
 90
        6
176
     1
 90
        2
176
     1
 62
     7
176
     1
 90
        5
176
     1
 90
        0
176
     1
 90
        0
176
     1
290
     0
176
     1
 90
        1
176
     1
 40
0.0
176
     1
 90
        0
176
     1
290
     0
176
     1
290
     1
176
     1
290
     1
176
     1
290
     0
176
     1
290
     0
176
     1
290
     0
176
     1
290
     0
176
     1
290
     0
176
     1
290
     0
176
     1
 90
       50
176
     1
 40
0.0
176
     1
 40
1.0
176
     1
 90
        0
176
     1
 62
    18
420
        0
176
     1
 90
       50
176
     1
 90
        3
176
     1
 62
     5
420
      255
176
     1
290
     0
176
     1
 90
       50
176
     1
 90
       50
176
     1
 90
       50
176
     1
290
     0
176
     1
 90
       50
176
     1
 62
   256
176
     0
 40
1.0
176
     0
 90
        2
176
     1
  1
strokes_ogs.tif
176
     1
290
     0
176
     1
 40
1.0
176
     1
 40
1.0
176
     1
  0
VISUALSTYLE
  5
2B
102
{ACAD_REACTORS
330
2A
102
}
330
2A
100
AcDbVisualStyle
  2
Flat
 70
     0
177
     3
291
     1
 70
    58
 90
        2
176
     1
 90
        1
176
     1
 90
        1
176
     1
 90
        2
176
     1
 40
0.6
176
     1
 40
30.0
176
     1
 62
     7
420
 16777215
176
     1
 90
        0
176
     1
 90
        0
176
     1
 62
     7
176
     1
 62
   257
176
     1
 90
        1
176
     1
 90
        1
176
     1
 40
1.0
176
     1
 90
        8
176
     1
 62
     7
176
     1
 40
1.0
176
     1
 90
        1
176
     1
 90
        6
176
     1
 90
        2
176
     1
 62
     7
176
     1
 90
        5
176
     1
 90
        0
176
     1
 90
        0
176
     1
290
     0
176
     1
 90
       13
176
     1
 40
0.0
176
     1
 90
        0
176
     1
290
     0
176
     1
290
     1
176
     1
290
     1
176
     1
290
     0
176
     1
290
     0
176
     1
290
     0
176
     1
290
     0
176
     1
290
     0
176
     1
290
     0
176
     1
 90
       50
176
     1
 40
0.0
176
     1
 40
1.0
176
     1
 90
        0
176
     1
 62
    18
420
        0
176
     1
 90
       50
176
     1
 90
        3
176
     1
 62
     5
420
      255
176
     1
290
     0
176
     1
 90
       50
176
     1
 90
       50
176
     1
 90
       50
176
     1
290
     0
176
     1
 90
       50
176
     1
 62
   256
176
     0
 40
1.0
176
     0
 90
        2
176
     1
  1
strokes_ogs.tif
176
     1
290
     0
176
     1
 40
1.0
176
     1
 40
1.0
176
     1
  0
VISUALSTYLE
  5
2C
102
{ACAD_REACTORS
330
2A
102
}
330
2A
100
AcDbVisualStyle
  2
FlatWithEdges
 70
     1
177
     3
291
     1
 70
    58
 90
        2
176
     1
 90
        1
176
     1
 90
        1
176
     1
 90
        2
176
     1
 40
0.6
176
     1
 40
30.0
176
     1
 62
     7
420
 16777215
176
     1
 90
        1
176
     1
 90
        0
176
     1
 62
     7
176
     1
 62
   257
176
     1
 90
        1
176
     1
 90
        1
176
     1
 40
1.0
176
     1
 90
        0
176
     1
 62
   257
176
     1
 40
1.0
176
     1
 90
        1
176
     1
 90
        6
176
     1
 90
        2
176
     1
 62
     7
176
     1
 90
        5
176
     1
 90
        0
176
     1
 90
        0
176
     1
290
     0
176
     1
 90
       13
176
     1
 40
0.0
176
     1
 90
        0
176
     1
290
     0
176
     1
290
     1
176
     1
290
     1
176
     1
290
     0
176
     1
290
     0
176
     1
290
     0
176
     1
290
     0
176
     1
290
     0
176
     1
290
     0
176
     1
 90
       50
176
     1
 40
0.0
176
     1
 40
1.0
176
     1
 90
        0
176
     1
 62
    18
420
        0
176
     1
 90
       50
176
     1
 90
        3
176
     1
 62
     5
420
      255
176
     1
290
     0
176
     1
 90
       50
176
     1
 90
       50
176
     1
 90
       50
176
     1
290
     0
176
     1
 90
       50
176
     1
 62
   256
176
     0
 40
1.0
176
     0
 90
        2
176
     1
  1
strokes_ogs.tif
176
     1
290
     0
176
     1
 40
1.0
176
     1
 40
1.0
176
     1
  0
VISUALSTYLE
  5
2D
102
{ACAD_REACTORS
330
2A
102
}
330
2A
100
AcDbVisualStyle
  2
Gouraud
 70
     2
177
     3
291
     1
 70
    58
 90
        2
176
     1
 90
        2
176
     1
 90
        1
176
     1
 90
        2
176
     1
 40
0.6
176
     1
 40
30.0
176
     1
 62
     7
420
 16777215
176
     1
 90
        0
176
     1
 90
        0
176
     1
 62
     7
176
     1
 62
   257
176
     1
 90
        1
176
     1
 90
        1
176
     1
 40
1.0
176
     1
 90
        0
176
     1
 62
     7
176
     1
 40
1.0
176
     1
 90
        1
176
     1
 90
        6
176
     1
 90
        2
176
     1
 62
     7
176
     1
 90
        5
176
     1
 90
        0
176
     1
 90
        0
176
     1
290
     0
176
     1
 90
       13
176
     1
 40
0.0
176
     1
 90
        0
176
     1
290
     0
176
     1
290
     1
176
     1
290
     1
176
     1
290
     0
176
     1
290
     0
176
     1
290
     0
176
     1
290
     0
176
     1
290
     0
176
     1
290
     0
176
     1
 90
       50
176
     1
 40
0.0
176
     1
 40
1.0
176
     1
 90
        0
176
     1
 62
    18
420
        0
176
     1
 90
       50
176
     1
 90
        3
176
     1
 62
     5
420
      255
176
     1
290
     0
176
     1
 90
       50
176
     1
 90
       50
176
     1
 90
       50
176
     1
290
     0
176
     1
 90
       50
176
     1
 62
   256
176
     0
 40
1.0
176
     0
 90
        2
176
     1
  1
strokes_ogs.tif
176
     1
290
     0
176
     1
 40
1.0
176
     1
 40
1.0
176
     1
  0
VISUALSTYLE
  5
2E
102
{ACAD_REACTORS
330
2A
102
}
330
2A
100
AcDbVisualStyle
  2
GouraudWithEdges
 70
     3
177
     3
291
     1
 70
    58
 90
        2
176
     1
 90
        2
176
     1
 90
        1
176
     1
 90
        2
176
     1
 40
0.6
176
     1
 40
30.0
176
     1
 62
     7
420
 16777215
176
     1
 90
        1
176
     1
 90
        0
176
     1
 62
     7
176
     1
 62
   257
176
     1
 90
        1
176
     1
 90
        1
176
     1
 40
1.0
176
     1
 90
        0
176
     1
 62
   257
176
     1
 40
1.0
176
     1
 90
        1
176
     1
 90
        6
176
     1
 90
        2
176
     1
 62
     7
176
     1
 90
        5
176
     1
 90
        0
176
     1
 90
        0
176
     1
290
     0
176
     1
 90
       13
176
     1
 40
0.0
176
     1
 90
        0
176
     1
290
     0
176
     1
290
     1
176
     1
290
     1
176
     1
290
     0
176
     1
290
     0
176
     1
290
     0
176
     1
290
     0
176
     1
290
     0
176
     1
290
     0
176
     1
 90
       50
176
     1
 40
0.0
176
     1
 40
1.0
176
     1
 90
        0
176
     1
 62
    18
420
        0
176
     1
 90
       50
176
     1
 90
        3
176
     1
 62
     5
420
      255
176
     1
290
     0
176
     1
 90
       50
176
     1
 90
       50
176
     1
 90
       50
176
     1
290
     0
176
     1
 90
       50
176
     1
 62
   256
176
     0
 40
1.0
176
     0
 90
        2
176
     1
  1
strokes_ogs.tif
176
     1
290
     0
176
     1
 40
1.0
176
     1
 40
1.0
176
     1
  0
VISUALSTYLE
  5
31
102
{ACAD_REACTORS
330
2A
102
}
330
2A
100
AcDbVisualStyle
  2
Hidden
 70
     6
177
     3
291
     0
 70
    58
 90
        1
176
     1
 90
        2
176
     1
 90
        2
176
     1
 90
        0
176
     1
 40
0.6
176
     1
 40
30.0
176
     1
 62
     7
420
 16777215
176
     1
 90
        2
176
     1
 90
        2
176
     1
 62
     7
176
     1
 62
   257
176
     1
 90
        2
176
     1
 90
        1
176
     1
 40
40.0
176
     1
 90
        0
176
     1
 62
   257
176
     1
 40
1.0
176
     1
 90
        1
176
     1
 90
        6
176
     1
 90
        2
176
     1
 62
     7
176
     1
 90
        3
176
     1
 90
        0
176
     1
 90
        0
176
     1
290
     0
176
     1
 90
        1
176
     1
 40
0.0
176
     1
 90
        0
176
     1
290
     0
176
     1
290
     1
176
     1
290
     1
176
     1
290
     0
176
     1
290
     0
176
     1
290
     0
176
     1
290
     0
176
     1
290
     0
176
     1
290
     0
176
     1
 90
       50
176
     1
 40
0.0
176
     1
 40
1.0
176
     1
 90
        0
176
     1
 62
    18
420
        0
176
     1
 90
       50
176
     1
 90
        3
176
     1
 62
     5
420
      255
176
     1
290
     0
176
     1
 90
       50
176
     1
 90
       50
176
     1
 90
       50
176
     1
290
     0
176
     1
 90
       50
176
     1
 62
   256
176
     0
 40
1.0
176
     0
 90
        2
176
     1
  1
strokes_ogs.tif
176
     1
290
     0
176
     1
 40
1.0
176
     1
 40
1.0
176
     1
  0
VISUALSTYLE
  5
3B
102
{ACAD_REACTORS
330
2A
102
}
330
2A
100
AcDbVisualStyle
  2
JitterOff
 70
    20
177
     3
291
     1
 70
    58
 90
        2
176
     0
 90
        2
176
     0
 90
        0
176
     0
 90
        0
176
     0
 40
0.6
176
     0
 40
30.0
176
     0
 62
     7
420
 16777215
176
     0
 90
        1
176
     0
 90
        4
176
     0
 62
     7
176
     0
 62
   257
176
     0
 90
        1
176
     0
 90
        1
176
     0
 40
1.0
176
     0
 90
       10
176
     2
 62
     7
176
     0
 40
1.0
176
     0
 90
        1
176
     0
 90
        6
176
     0
 90
        2
176
     0
 62
     7
176
     0
 90
        5
176
     0
 90
        0
176
     0
 90
        0
176
     0
290
     0
176
     0
 90
        1
176
     0
 40
0.0
176
     0
 90
        0
176
     0
290
     0
176
     0
290
     1
176
     0
290
     1
176
     0
290
     0
176
     0
290
     0
176
     0
290
     0
176
     0
290
     0
176
     0
290
     0
176
     0
290
     0
176
     0
 90
       50
176
     0
 40
0.0
176
     0
 40
1.0
176
     0
 90
        0
176
     0
 62
    18
420
        0
176
     0
 90
       50
176
     0
 90
        3
176
     0
 62
     5
420
      255
176
     0
290
     0
176
     0
 90
       50
176
     0
 90
       50
176
     0
 90
       50
176
     0
290
     0
176
     0
 90
       50
176
     0
 62
   256
176
     0
 40
1.0
176
     0
 90
        2
176
     0
  1
strokes_ogs.tif
176
     0
290
     0
176
     0
 40
1.0
176
     0
 40
1.0
176
     0
  0
VISUALSTYLE
  5
38
102
{ACAD_REACTORS
330
2A
102
}
330
2A
100
AcDbVisualStyle
  2
Linepattern
 70
    14
177
     3
291
     1
 70
    58
 90
        2
176
     1
 90
        2
176
     1
 90
        0
176
     1
 90
        0
176
     1
 40
0.6
176
     1
 40
30.0
176
     1
 62
     7
420
 16777215
176
     1
 90
        1
176
     1
 90
        4
176
     1
 62
     7
176
     1
 62
   257
176
     1
 90
        7
176
     1
 90
        7
176
     1
 40
1.0
176
     1
 90
        8
176
     1
 62
     7
176
     1
 40
1.0
176
     1
 90
        1
176
     1
 90
        6
176
     1
 90
        2
176
     1
 62
     7
176
     1
 90
        5
176
     1
 90
        0
176
     1
 90
        0
176
     1
290
     0
176
     1
 90
        1
176
     1
 40
0.0
176
     1
 90
        0
176
     1
290
     0
176
     1
290
     1
176
     1
290
     1
176
     1
290
     0
176
     1
290
     0
176
     1
290
     0
176
     1
290
     0
176
     1
290
     0
176
     1
290
     0
176
     1
 90
       50
176
     1
 40
0.0
176
     1
 40
1.0
176
     1
 90
        0
176
     1
 62
    18
420
        0
176
     1
 90
       50
176
     1
 90
        3
176
     1
 62
     5
420
      255
176
     1
290
     0
176
     1
 90
       50
176
     1
 90
       50
176
     1
 90
       50
176
     1
290
     0
176
     1
 90
       50
176
     1
 62
   256
176
     0
 40
1.0
176
     0
 90
        2
176
     1
  1
strokes_ogs.tif
176
     1
290
     0
176
     1
 40
1.0
176
     1
 40
1.0
176
     1
  0
VISUALSTYLE
  5
3C
102
{ACAD_REACTORS
330
2A
102
}
330
2A
100
AcDbVisualStyle
  2
OverhangOff
 70
    21
177
     3
291
     1
 70
    58
 90
        2
176
     0
 90
        2
176
     0
 90
        0
176
     0
 90
        0
176
     0
 40
0.6
176
     0
 40
30.0
176
     0
 62
     7
420
 16777215
176
     0
 90
        1
176
     0
 90
        4
176
     0
 62
     7
176
     0
 62
   257
176
     0
 90
        1
176
     0
 90
        1
176
     0
 40
1.0
176
     0
 90
        9
176
     2
 62
     7
176
     0
 40
1.0
176
     0
 90
        1
176
     0
 90
        6
176
     0
 90
        2
176
     0
 62
     7
176
     0
 90
        5
176
     0
 90
        0
176
     0
 90
        0
176
     0
290
     0
176
     0
 90
        1
176
     0
 40
0.0
176
     0
 90
        0
176
     0
290
     0
176
     0
290
     1
176
     0
290
     1
176
     0
290
     0
176
     0
290
     0
176
     0
290
     0
176
     0
290
     0
176
     0
290
     0
176
     0
290
     0
176
     0
 90
       50
176
     0
 40
0.0
176
     0
 40
1.0
176
     0
 90
        0
176
     0
 62
    18
420
        0
176
     0
 90
       50
176
     0
 90
        3
176
     0
 62
     5
420
      255
176
     0
290
     0
176
     0
 90
       50
176
     0
 90
       50
176
     0
 90
       50
176
     0
290
     0
176
     0
 90
       50
176
     0
 62
   256
176
     0
 40
1.0
176
     0
 90
        2
176
     0
  1
strokes_ogs.tif
176
     0
290
     0
176
     0
 40
1.0
176
     0
 40
1.0
176
     0
  0
VISUALSTYLE
  5
33
102
{ACAD_REACTORS
330
2A
102
}
330
2A
100
AcDbVisualStyle
  2
Realistic
 70
     8
177
     3
291
     0
 70
    58
 90
        2
176
     1
 90
        3
176
     1
 90
        0
176
     1
 90
        2
176
     1
 40
0.6
176
     1
 40
30.0
176
     1
 62
     7
420
 16777215
176
     1
 90
        0
176
     1
 90
        0
176
     1
 62
     7
176
     1
 62
   257
176
     1
 90
        1
176
     1
 90
        1
176
     1
 40
1.0
176
     1
 90
        8
176
     1
 62
   257
176
     1
 40
1.0
176
     1
 90
        1
176
     1
 90
        6
176
     1
 90
        2
176
     1
 62
     7
176
     1
 90
        3
176
     1
 90
        0
176
     1
 90
        0
176
     1
290
     0
176
     1
 90
       13
176
     1
 40
0.0
176
     1
 90
        0
176
     1
290
     0
176
     1
290
     1
176
     1
290
     1
176
     1
290
     0
176
     1
290
     0
176
     1
290
     0
176
     1
290
     0
176
     1
290
     0
176
     1
290
     0
176
     1
 90
       50
176
     1
 40
0.0
176
     1
 40
1.0
176
     1
 90
        0
176
     1
 62
    18
420
        0
176
     1
 90
       50
176
     1
 90
        3
176
     1
 62
     5
420
      255
176
     1
290
     0
176
     1
 90
       50
176
     1
 90
       50
176
     1
 90
       50
176
     1
290
     0
176
     1
 90
       50
176
     1
 62
   256
176
     0
 40
1.0
176
     0
 90
        2
176
     1
  1
strokes_ogs.tif
176
     1
290
     0
176
     1
 40
1.0
176
     1
 40
1.0
176
     1
  0
VISUALSTYLE
  5
42
102
{ACAD_REACTORS
330
2A
102
}
330
2A
100
AcDbVisualStyle
  2
Shaded
 70
    27
177
     3
291
     0
 70
    58
 90
        2
176
     1
 90
        2
176
     1
 90
        1
176
     1
 90
        2
176
     1
 40
0.6
176
     1
 40
30.0
176
     1
 62
     7
420
 16777215
176
     1
 90
        0
176
     1
 90
        4
176
     1
 62
     7
176
     1
 62
   257
176
     1
 90
        1
176
     1
 90
        1
176
     1
 40
1.0
176
     1
 90
        8
176
     1
 62
   257
176
     1
 40
1.0
176
     1
 90
        1
176
     1
 90
        6
176
     1
 90
        2
176
     1
 62
     8
420
  7895160
176
     1
 90
        3
176
     1
 90
        0
176
     1
 90
        0
176
     1
290
     0
176
     1
 90
        5
176
     1
 40
0.0
176
     1
 90
        0
176
     1
290
     0
176
     1
290
     1
176
     1
290
     1
176
     1
290
     0
176
     1
290
     0
176
     1
290
     0
176
     1
290
     0
176
     1
290
     0
176
     1
290
     0
176
     1
 90
       50
176
     1
 40
0.0
176
     1
 40
1.0
176
     1
 90
        0
176
     1
 62
    18
420
        0
176
     1
 90
       50
176
     1
 90
        3
176
     1
 62
     5
420
      255
176
     1
290
     0
176
     1
 90
       50
176
     1
 90
       50
176
     1
 90
       50
176
     1
290
     0
176
     1
 90
       50
176
     1
 62
   256
176
     0
 40
1.0
176
     0
 90
        2
176
     1
  1
strokes_ogs.tif
176
     1
290
     0
176
     1
 40
1.0
176
     1
 40
1.0
176
     1
  0
VISUALSTYLE
  5
41
102
{ACAD_REACTORS
330
2A
102
}
330
2A
100
AcDbVisualStyle
  2
Shaded with edges
 70
    26
177
     3
291
     0
 70
    58
 90
        2
176
     1
 90
        2
176
     1
 90
        1
176
     1
 90
        2
176
     1
 40
0.6
176
     1
 40
30.0
176
     1
 62
     7
420
 16777215
176
     1
 90
        1
176
     1
 90
       10
176
     1
 62
     7
176
     1
 62
   257
176
     1
 90
        2
176
     1
 90
        1
176
     1
 40
1.0
176
     1
 90
        8
176
     1
 62
   257
176
     1
 40
1.0
176
     1
 90
        1
176
     1
 90
        6
176
     1
 90
        2
176
     1
 62
     7
176
     1
 90
        3
176
     1
 90
        0
176
     1
 90
        0
176
     1
290
     0
176
     1
 90
        5
176
     1
 40
0.0
176
     1
 90
        0
176
     1
290
     0
176
     1
290
     1
176
     1
290
     1
176
     1
290
     0
176
     1
290
     0
176
     1
290
     0
176
     1
290
     0
176
     1
290
     0
176
     1
290
     0
176
     1
 90
       50
176
     1
 40
0.0
176
     1
 40
1.0
176
     1
 90
        0
176
     1
 62
    18
420
        0
176
     1
 90
       50
176
     1
 90
        3
176
     1
 62
     5
420
      255
176
     1
290
     0
176
     1
 90
       50
176
     1
 90
       50
176
     1
 90
       50
176
     1
290
     0
176
     1
 90
       50
176
     1
 62
   256
176
     0
 40
1.0
176
     0
 90
        2
176
     1
  1
strokes_ogs.tif
176
     1
290
     0
176
     1
 40
1.0
176
     1
 40
1.0
176
     1
  0
VISUALSTYLE
  5
3E
102
{ACAD_REACTORS
330
2A
102
}
330
2A
100
AcDbVisualStyle
  2
Shades of Gray
 70
    23
177
     3
291
     0
 70
    58
 90
        2
176
     1
 90
        2
176
     1
 90
        3
176
     1
 90
        0
176
     1
 40
0.6
176
     1
 40
30.0
176
     1
 62
     7
420
 16777215
176
     1
 90
        2
176
     1
 90
        2
176
     1
 62
     7
176
     1
 62
     7
176
     1
 90
        1
176
     1
 90
        1
176
     1
 40
40.0
176
     1
 90
        8
176
     1
 62
     7
176
     1
 40
1.0
176
     1
 90
        1
176
     1
 90
        6
176
     1
 90
        2
176
     1
 62
     7
176
     1
 90
        3
176
     1
 90
        0
176
     1
 90
        0
176
     1
290
     0
176
     1
 90
        1
176
     1
 40
0.0
176
     1
 90
        0
176
     1
290
     0
176
     1
290
     1
176
     1
290
     1
176
     1
290
     0
176
     1
290
     0
176
     1
290
     0
176
     1
290
     0
176
     1
290
     0
176
     1
290
     0
176
     1
 90
       50
176
     1
 40
0.0
176
     1
 40
1.0
176
     1
 90
        0
176
     1
 62
    18
420
        0
176
     1
 90
       50
176
     1
 90
        3
176
     1
 62
     5
420
      255
176
     1
290
     0
176
     1
 90
       50
176
     1
 90
       50
176
     1
 90
       50
176
     1
290
     0
176
     1
 90
       50
176
     1
 62
   256
176
     0
 40
1.0
176
     0
 90
        2
176
     1
  1
strokes_ogs.tif
176
     1
290
     0
176
     1
 40
1.0
176
     1
 40
1.0
176
     1
  0
VISUALSTYLE
  5
3F
102
{ACAD_REACTORS
330
2A
102
}
330
2A
100
AcDbVisualStyle
  2
Sketchy
 70
    24
177
     3
291
     0
 70
    58
 90
        1
176
     1
 90
        2
176
     1
 90
        2
176
     1
 90
        0
176
     1
 40
0.6
176
     1
 40
30.0
176
     1
 62
     7
420
 16777215
176
     1
 90
        2
176
     1
 90
        2
176
     1
 62
     7
176
     1
 62
     7
176
     1
 90
        1
176
     1
 90
        1
176
     1
 40
40.0
176
     1
 90
       11
176
     1
 62
     7
176
     1
 40
1.0
176
     1
 90
        1
176
     1
 90
        6
176
     1
 90
        2
176
     1
 62
     7
176
     1
 90
        6
176
     1
 90
        0
176
     1
 90
        0
176
     1
290
     0
176
     1
 90
        1
176
     1
 40
0.0
176
     1
 90
        0
176
     1
290
     0
176
     1
290
     1
176
     1
290
     1
176
     1
290
     0
176
     1
290
     0
176
     1
290
     0
176
     1
290
     0
176
     1
290
     0
176
     1
290
     0
176
     1
 90
       50
176
     1
 40
0.0
176
     1
 40
1.0
176
     1
 90
        0
176
     1
 62
    18
420
        0
176
     1
 90
       50
176
     1
 90
        3
176
     1
 62
     5
420
      255
176
     1
290
     0
176
     1
 90
       50
176
     1
 90
       50
176
     1
 90
       50
176
     1
290
     0
176
     1
 90
       50
176
     1
 62
   256
176
     0
 40
1.0
176
     0
 90
        2
176
     1
  1
strokes_ogs.tif
176
     1
290
     0
176
     1
 40
1.0
176
     1
 40
1.0
176
     1
  0
VISUALSTYLE
  5
37
102
{ACAD_REACTORS
330
2A
102
}
330
2A
100
AcDbVisualStyle
  2
Thicken
 70
    13
177
     3
291
     1
 70
    58
 90
        2
176
     1
 90
        2
176
     1
 90
        0
176
     1
 90
        0
176
     1
 40
0.6
176
     1
 40
30.0
176
     1
 62
     7
420
 16777215
176
     1
 90
        1
176
     1
 90
        4
176
     1
 62
     7
176
     1
 62
   257
176
     1
 90
        1
176
     1
 90
        1
176
     1
 40
1.0
176
     1
 90
       12
176
     1
 62
     7
176
     1
 40
1.0
176
     1
 90
        1
176
     1
 90
        6
176
     1
 90
        2
176
     1
 62
     7
176
     1
 90
        5
176
     1
 90
        0
176
     1
 90
        0
176
     1
290
     0
176
     1
 90
        1
176
     1
 40
0.0
176
     1
 90
        0
176
     1
290
     0
176
     1
290
     1
176
     1
290
     1
176
     1
290
     0
176
     1
290
     0
176
     1
290
     0
176
     1
290
     0
176
     1
290
     0
176
     1
290
     0
176
     1
 90
       50
176
     1
 40
0.0
176
     1
 40
1.0
176
     1
 90
        0
176
     1
 62
    18
420
        0
176
     1
 90
       50
176
     1
 90
        3
176
     1
 62
     5
420
      255
176
     1
290
     0
176
     1
 90
       50
176
     1
 90
       50
176
     1
 90
       50
176
     1
290
     0
176
     1
 90
       50
176
     1
 62
   256
176
     0
 40
1.0
176
     0
 90
        2
176
     1
  1
strokes_ogs.tif
176
     1
290
     0
176
     1
 40
1.0
176
     1
 40
1.0
176
     1
  0
VISUALSTYLE
  5
30
102
{ACAD_REACTORS
330
2A
102
}
330
2A
100
AcDbVisualStyle
  2
Wireframe
 70
     5
177
     3
291
     0
 70
    58
 90
        0
176
     1
 90
        2
176
     1
 90
        0
176
     1
 90
        0
176
     1
 40
0.6
176
     1
 40
30.0
176
     1
 62
     7
420
 16777215
176
     1
 90
        1
176
     1
 90
        4
176
     1
 62
     7
176
     1
 62
   257
176
     1
 90
        1
176
     1
 90
        1
176
     1
 40
1.0
176
     1
 90
        0
176
     1
 62
   257
176
     1
 40
1.0
176
     1
 90
        1
176
     1
 90
        6
176
     1
 90
        2
176
     1
 62
     7
176
     1
 90
        3
176
     1
 90
        0
176
     1
 90
        0
176
     1
290
     0
176
     1
 90
        1
176
     1
 40
0.0
176
     1
 90
        0
176
     1
290
     0
176
     1
290
     1
176
     1
290
     1
176
     1
290
     0
176
     1
290
     0
176
     1
290
     0
176
     1
290
     0
176
     1
290
     0
176
     1
290
     0
176
     1
 90
       50
176
     1
 40
0.0
176
     1
 40
1.0
176
     1
 90
        0
176
     1
 62
    18
420
        0
176
     1
 90
       50
176
     1
 90
        3
176
     1
 62
     5
420
      255
176
     1
290
     0
176
     1
 90
       50
176
     1
 90
       50
176
     1
 90
       50
176
     1
290
     0
176
     1
 90
       50
176
     1
 62
   256
176
     0
 40
1.0
176
     0
 90
        2
176
     1
  1
strokes_ogs.tif
176
     1
290
     0
176
     1
 40
1.0
176
     1
 40
1.0
176
     1
  0
VISUALSTYLE
  5
40
102
{ACAD_REACTORS
330
2A
102
}
330
2A
100
AcDbVisualStyle
  2
X-Ray
 70
    25
177
     3
291
     0
 70
    58
 90
        2
176
     1
 90
        2
176
     1
 90
        1
176
     1
 90
        1
176
     1
 40
0.5
176
     1
 40
30.0
176
     1
 62
     7
420
 16777215
176
     1
 90
        1
176
     1
 90
        0
176
     1
 62
     7
176
     1
 62
   257
176
     1
 90
        1
176
     1
 90
        1
176
     1
 40
1.0
176
     1
 90
        8
176
     1
 62
     7
176
     1
 40
1.0
176
     1
 90
        1
176
     1
 90
        6
176
     1
 90
        2
176
     1
 62
     7
176
     1
 90
        3
176
     1
 90
        0
176
     1
 90
        0
176
     1
290
     0
176
     1
 90
       13
176
     1
 40
0.0
176
     1
 90
        0
176
     1
290
     0
176
     1
290
     1
176
     1
290
     1
176
     1
290
     0
176
     1
290
     0
176
     1
290
     0
176
     1
290
     0
176
     1
290
     0
176
     1
290
     0
176
     1
 90
       50
176
     1
 40
0.0
176
     1
 40
1.0
176
     1
 90
        0
176
     1
 62
    18
420
        0
176
     1
 90
       50
176
     1
 90
        3
176
     1
 62
     5
420
      255
176
     1
290
     0
176
     1
 90
       50
176
     1
 90
       50
176
     1
 90
       50
176
     1
290
     0
176
     1
 90
       50
176
     1
 62
   256
176
     0
 40
1.0
176
     0
 90
        2
176
     1
  1
strokes_ogs.tif
176
     1
290
     0
176
     1
 40
1.0
176
     1
 40
1.0
176
     1
  0
DICTIONARYVAR
  5
294
102
{ACAD_REACTORS
330
293
102
}
330
293
100
DictionaryVariables
280
     0
  1
1:1
  0
ENDSEC
  0
EOF
